<svg xmlns="http://www.w3.org/2000/svg" width="349.709" height="364" viewBox="0 0 349.709 364">
  <g id="Grupo_637" data-name="Grupo 637" transform="translate(-918.601 -5718.724)">
    <path id="Trazado_368" data-name="Trazado 368" d="M918.6,6072.83V5807.339a10.061,10.061,0,0,1,1.622-5.5,9.751,9.751,0,0,1,2.655-2.73,9.507,9.507,0,0,1,3.47-1.478,9.409,9.409,0,0,1,1.878-.19h330.459a9.406,9.406,0,0,1,1.877.19,9.486,9.486,0,0,1,3.47,1.478,9.683,9.683,0,0,1,1.458,1.23,9.818,9.818,0,0,1,1.2,1.5,9.992,9.992,0,0,1,.89,1.71,10.13,10.13,0,0,1,.733,3.786V6072.83a10.135,10.135,0,0,1-.733,3.786,10.051,10.051,0,0,1-.89,1.711,9.786,9.786,0,0,1-1.2,1.5,9.683,9.683,0,0,1-1.458,1.23,9.569,9.569,0,0,1-1.664.915,9.4,9.4,0,0,1-3.683.753H928.226a9.389,9.389,0,0,1-3.683-.753,9.577,9.577,0,0,1-1.665-.915,9.765,9.765,0,0,1-2.655-2.729,10.111,10.111,0,0,1-1.622-5.5Z" fill="#d5dbe0"/>
    <path id="Trazado_369" data-name="Trazado 369" d="M1098.36,5718.724q3.746,0,7.471.367t7.4,1.1q3.673.729,7.256,1.817t7.043,2.52q3.459,1.433,6.762,3.2t6.416,3.845q3.112,2.081,6.008,4.456t5.542,5.024q2.648,2.648,5.023,5.542t4.456,6.008q2.081,3.112,3.846,6.416t3.2,6.762q1.432,3.459,2.52,7.042t1.817,7.256q.731,3.673,1.1,7.4t.367,7.471q0,3.746-.367,7.471t-1.1,7.4q-.73,3.672-1.817,7.255t-2.52,7.043q-1.433,3.459-3.2,6.762t-3.846,6.416q-2.08,3.113-4.456,6.008t-5.023,5.542q-2.648,2.649-5.542,5.023t-6.008,4.456q-3.114,2.081-6.416,3.846t-6.762,3.2q-3.459,1.432-7.043,2.52t-7.256,1.817q-3.672.73-7.4,1.1t-7.471.367q-3.744,0-7.471-.367t-7.4-1.1q-3.672-.731-7.256-1.817t-7.042-2.52q-3.461-1.434-6.762-3.2t-6.416-3.846q-3.114-2.079-6.008-4.456t-5.542-5.023q-2.649-2.647-5.024-5.542t-4.456-6.008q-2.079-3.114-3.845-6.416t-3.2-6.762q-1.433-3.458-2.52-7.043t-1.818-7.255q-.73-3.673-1.1-7.4t-.367-7.471q0-3.743.367-7.471t1.1-7.4q.73-3.672,1.818-7.256t2.52-7.042q1.432-3.46,3.2-6.762t3.845-6.416q2.08-3.114,4.456-6.008t5.024-5.542q2.648-2.648,5.542-5.024t6.008-4.456q3.112-2.079,6.416-3.845t6.762-3.2q3.459-1.434,7.042-2.52t7.256-1.817q3.673-.732,7.4-1.1T1098.36,5718.724Z" fill="#c18f15"/>
    <circle id="Elipse_40" data-name="Elipse 40" cx="71.597" cy="71.597" r="71.597" transform="translate(1027.384 5723.97)" fill="#fff"/>
    <line id="Línea_14" data-name="Línea 14" x2="310.319" transform="translate(944.128 5927.815)" fill="none" stroke="#707070" stroke-width="2"/>
    <text id="PRODUCCIÓN_Y_CONSUMO_RESPONSABLES" data-name="PRODUCCIÓN Y 
CONSUMO RESPONSABLES" transform="translate(1098.784 5899.053)" fill="#444242" font-size="18" font-family="Montserrat-Bold, Montserrat" font-weight="700"><tspan x="-77.292" y="0">PRODUCCIÓN Y </tspan><tspan x="-129.492" y="21.6">CONSUMO RESPONSABLES</tspan></text>
    <circle id="Elipse_41" data-name="Elipse 41" cx="65.13" cy="65.13" r="65.13" transform="translate(1033.851 5730.436)" fill="#c18f15"/>
    <text id="Garantizar_modalidades_de_consumo_y_producción_sostenibles._" data-name="Garantizar modalidades de consumo y producción sostenibles.




" transform="translate(940.126 5945.384)" fill="#444242" font-size="16" font-family="OpenSans, Open Sans"><tspan x="12.674" y="17">Garantizar modalidades de consumo y </tspan><tspan x="68.049" y="39">producción sostenibles.</tspan><tspan x="156.233" y="61"></tspan><tspan x="156.233" y="83"></tspan></text>
    <g id="Grupo_421" data-name="Grupo 421">
      <path id="Trazado_374" data-name="Trazado 374" d="M1093.451,5749.811h.04v20.916h4.592V5743.4h-3.669l-4.227,4.957v4.795h.038Z" fill="#fff"/>
      <path id="Trazado_375" data-name="Trazado 375" d="M1100.823,5749.046v3.3h4.189v-3.426c0-1.652.809-2.134,1.774-2.134.889,0,1.652.362,1.652,2.055v2.255c0,2.258-.2,3.143-1.693,4.716l-2.578,2.74c-2.5,2.66-3.426,4.433-3.426,7.133v5.037h11.93v-3.748h-7.537v-1.289c0-2.136.765-2.942,1.933-4.191l2.944-3.1c2.377-2.538,2.9-4.152,2.9-6.892v-2.658c0-3.909-1.893-5.763-6-5.763-4.032,0-6.085,2.136-6.085,5.964" fill="#fff"/>
    </g>
    <path id="Trazado_389" data-name="Trazado 389" d="M1140.663,5789.549a24.512,24.512,0,0,0-14.748-4.834,16.148,16.148,0,0,0-3.558.342l-.365.083c-3.5.827-9.357,2.21-16.177,10.674l-.2.248a.879.879,0,0,0-.171.512.919.919,0,0,0,.12.449l.155.253q1.69,2.825,2.806,4.907a.9.9,0,0,0,1.457.205c.047-.065.1-.13.129-.18,5.889-8.147,10.506-9.231,13.559-9.949l.38-.091a8.882,8.882,0,0,1,1.869-.158,17.312,17.312,0,0,1,10.205,3.275c3.427,2.706,5.17,7.025,5.17,12.839,0,9.745-4.716,13.546-8.673,15.018a13.766,13.766,0,0,1-4.832.852,17.222,17.222,0,0,1-7.254-1.652l-.283-.138c-3.4-1.478-8.483-4.557-13.284-14.2-9.848-19.776-18.118-21.649-23.594-22.89l-.288-.063a16.457,16.457,0,0,0-3.53-.316,23.5,23.5,0,0,0-14.5,4.794c-3.569,2.849-7.827,8.381-7.827,18.557,0,6.2,1.278,10.3,4.552,14.607a21.8,21.8,0,0,0,17.277,8.208,26.616,26.616,0,0,0,5-.491,21.332,21.332,0,0,0,8.534-3.9l2.879,2.6a.862.862,0,0,0,1.17-.054.771.771,0,0,0,.208-.547l2.226-13.724v-.16a.811.811,0,0,0-.266-.6.8.8,0,0,0-.577-.213h-.005l-13.362,3.692-.254.042a.773.773,0,0,0-.424.246.827.827,0,0,0,.056,1.175l2.769,2.5a13.146,13.146,0,0,1-4.325,1.758,18.989,18.989,0,0,1-3.544.347,14.474,14.474,0,0,1-11.45-5.178l-.074-.1c-2.3-3.024-3.082-5.6-3.082-10.209,0-5.834,1.709-10.156,5.074-12.844a16.8,16.8,0,0,1,9.958-3.223,9.3,9.3,0,0,1,1.893.159l.3.066c4.372.989,10.359,2.346,18.656,19.017,4.386,8.8,9.883,14.559,16.792,17.593a24.715,24.715,0,0,0,10.586,2.454,21.028,21.028,0,0,0,7.376-1.31c4.043-1.506,13.431-6.652,13.431-21.872,0-10.169-4.321-15.715-7.94-18.575" fill="#fff"/>
  </g>
</svg>
