<svg xmlns="http://www.w3.org/2000/svg" width="349.708" height="364" viewBox="0 0 349.708 364">
  <g id="Grupo_634" data-name="Grupo 634" transform="translate(-176.584 -5317.747)">
    <path id="Trazado_337" data-name="Trazado 337" d="M176.584,5671.853v-265.49a10.154,10.154,0,0,1,.732-3.787,9.962,9.962,0,0,1,.89-1.71,9.753,9.753,0,0,1,2.655-2.73,9.5,9.5,0,0,1,1.664-.914,9.389,9.389,0,0,1,3.684-.754H516.667a9.468,9.468,0,0,1,5.348,1.668,9.751,9.751,0,0,1,2.655,2.73,10.007,10.007,0,0,1,1.437,3.566,10.077,10.077,0,0,1,.185,1.931v265.49a10.066,10.066,0,0,1-1.622,5.5,9.765,9.765,0,0,1-2.655,2.729,9.57,9.57,0,0,1-1.664.915,9.4,9.4,0,0,1-3.684.753H186.209a9.4,9.4,0,0,1-3.684-.753,9.606,9.606,0,0,1-1.664-.915,9.766,9.766,0,0,1-2.655-2.729,10.109,10.109,0,0,1-1.622-5.5Z" fill="#d5dbe0"/>
    <path id="Trazado_338" data-name="Trazado 338" d="M352.84,5317.747q3.744,0,7.471.367t7.4,1.1q3.672.731,7.256,1.817t7.043,2.52q3.459,1.433,6.761,3.2t6.416,3.845q3.114,2.081,6.008,4.456t5.543,5.024q2.648,2.648,5.023,5.542t4.456,6.008q2.08,3.114,3.845,6.416t3.2,6.762q1.434,3.459,2.52,7.042t1.818,7.256q.731,3.673,1.1,7.4t.367,7.471q0,3.746-.367,7.471t-1.1,7.4q-.73,3.672-1.818,7.255t-2.52,7.043q-1.433,3.458-3.2,6.762t-3.845,6.416q-2.08,3.113-4.456,6.008t-5.023,5.542q-2.649,2.648-5.543,5.023t-6.008,4.456q-3.113,2.08-6.416,3.846t-6.761,3.2q-3.461,1.432-7.043,2.52t-7.256,1.817q-3.674.732-7.4,1.1t-7.471.367q-3.746,0-7.471-.367t-7.4-1.1q-3.674-.731-7.256-1.817t-7.043-2.52q-3.459-1.434-6.762-3.2t-6.416-3.846q-3.113-2.079-6.008-4.456t-5.542-5.023q-2.647-2.648-5.023-5.542t-4.456-6.008q-2.08-3.114-3.846-6.416t-3.2-6.762q-1.433-3.459-2.52-7.043t-1.817-7.255q-.73-3.673-1.1-7.4t-.367-7.471q0-3.743.367-7.471t1.1-7.4q.73-3.672,1.817-7.256t2.52-7.042q1.434-3.46,3.2-6.762t3.846-6.416q2.081-3.114,4.456-6.008t5.023-5.542q2.648-2.648,5.542-5.024t6.008-4.456q3.114-2.079,6.416-3.845t6.762-3.2q3.459-1.434,7.043-2.52t7.256-1.817q3.672-.732,7.4-1.1T352.84,5317.747Z" fill="#e7b900"/>
    <circle id="Elipse_30" data-name="Elipse 30" cx="71.597" cy="71.597" r="71.597" transform="translate(281.864 5322.993)" fill="#fff"/>
    <line id="Línea_9" data-name="Línea 9" x2="310.319" transform="translate(198.608 5526.838)" fill="none" stroke="#707070" stroke-width="2"/>
    <text id="ENERGÍA_ASEQUIBLE_Y_NO_CONTAMINANTE" data-name="ENERGÍA ASEQUIBLE
Y NO CONTAMINANTE" transform="translate(353.263 5499.076)" fill="#444242" font-size="18" font-family="Montserrat-Bold, Montserrat" font-weight="700"><tspan x="-99.954" y="0">ENERGÍA ASEQUIBLE</tspan><tspan x="-104.103" y="21.6">Y NO CONTAMINANTE</tspan></text>
    <circle id="Elipse_31" data-name="Elipse 31" cx="65.13" cy="65.13" r="65.13" transform="translate(288.33 5329.459)" fill="#e7b900"/>
    <g id="Grupo_416" data-name="Grupo 416">
      <path id="Trazado_343" data-name="Trazado 343" d="M355.3,5447.026a1.66,1.66,0,0,0,1.63-1.525v-8.7a1.636,1.636,0,0,0-3.267,0v8.7a1.665,1.665,0,0,0,1.637,1.525" fill="#fff"/>
      <path id="Trazado_344" data-name="Trazado 344" d="M355.12,5392.777a19.86,19.86,0,1,0,19.858,19.859,19.858,19.858,0,0,0-19.858-19.859m-1.469,7.845a1.477,1.477,0,0,1,2.948,0v6.818a1.477,1.477,0,0,1-2.948,0Zm1.472,22.191a10.332,10.332,0,0,1-3.069-20.2v3.847a6.761,6.761,0,1,0,6.123-.009v-3.842a10.331,10.331,0,0,1-3.054,20.2" fill="#fff"/>
      <path id="Trazado_345" data-name="Trazado 345" d="M332.324,5412.462a1.661,1.661,0,0,0-1.526-1.629h-8.7a1.636,1.636,0,0,0,0,3.266h8.7a1.666,1.666,0,0,0,1.526-1.637" fill="#fff"/>
      <path id="Trazado_346" data-name="Trazado 346" d="M389.686,5412.462a1.659,1.659,0,0,0-1.525-1.629h-8.7a1.636,1.636,0,0,0,0,3.266h8.7a1.664,1.664,0,0,0,1.525-1.637" fill="#fff"/>
      <path id="Trazado_347" data-name="Trazado 347" d="M355.128,5389.664a1.659,1.659,0,0,0,1.628-1.525v-8.7a1.636,1.636,0,0,0-3.266,0v8.7a1.667,1.667,0,0,0,1.638,1.525" fill="#fff"/>
      <path id="Trazado_348" data-name="Trazado 348" d="M335.337,5401.137a1.659,1.659,0,0,0-.514-2.172l-7.55-4.319a1.635,1.635,0,0,0-1.62,2.834l7.547,4.319a1.665,1.665,0,0,0,2.137-.662" fill="#fff"/>
      <path id="Trazado_349" data-name="Trazado 349" d="M385.124,5429.631a1.664,1.664,0,0,0-.517-2.174l-7.545-4.318a1.636,1.636,0,0,0-1.623,2.834l7.548,4.32a1.667,1.667,0,0,0,2.137-.662" fill="#fff"/>
      <path id="Trazado_350" data-name="Trazado 350" d="M366.454,5392.679a1.663,1.663,0,0,0,2.173-.517l4.319-7.547a1.636,1.636,0,0,0-2.835-1.622l-4.321,7.547a1.669,1.669,0,0,0,.664,2.139" fill="#fff"/>
      <path id="Trazado_351" data-name="Trazado 351" d="M337.961,5442.464a1.661,1.661,0,0,0,2.171-.515l4.32-7.547a1.636,1.636,0,0,0-2.834-1.624l-4.32,7.548a1.667,1.667,0,0,0,.663,2.138" fill="#fff"/>
      <path id="Trazado_352" data-name="Trazado 352" d="M343.76,5392.7a1.656,1.656,0,0,0,.652-2.134l-4.333-7.54a1.636,1.636,0,0,0-2.831,1.63l4.334,7.538a1.666,1.666,0,0,0,2.178.506" fill="#fff"/>
      <path id="Trazado_353" data-name="Trazado 353" d="M372.357,5442.425a1.663,1.663,0,0,0,.654-2.134l-4.336-7.54a1.636,1.636,0,0,0-2.831,1.629l4.334,7.539a1.666,1.666,0,0,0,2.179.506" fill="#fff"/>
      <path id="Trazado_354" data-name="Trazado 354" d="M374.893,5401.1a1.663,1.663,0,0,0,2.135.652l7.538-4.334a1.636,1.636,0,0,0-1.627-2.833l-7.538,4.337a1.662,1.662,0,0,0-.508,2.178" fill="#fff"/>
      <path id="Trazado_355" data-name="Trazado 355" d="M325.166,5429.7a1.663,1.663,0,0,0,2.135.652l7.538-4.336a1.636,1.636,0,0,0-1.627-2.832l-7.538,4.336a1.667,1.667,0,0,0-.508,2.18" fill="#fff"/>
    </g>
    <path id="Trazado_363" data-name="Trazado 363" d="M348.241,5345.926h7.093l-6.127,23.572h4.555l6.006-23.087v-4.233H348.241Z" fill="#fff"/>
    <text id="Garantizar_el_acceso_a_una_energía_asequible_segura_sostenible_y_moderna_para_todos._" data-name="Garantizar el acceso a una energía asequible, segura, sostenible y moderna para todos.




" transform="translate(194.605 5544.407)" fill="#444242" font-size="16" font-family="OpenSans, Open Sans"><tspan x="28.436" y="17">Garantizar el acceso a una energía </tspan><tspan x="6.397" y="39">asequible, segura, sostenible y moderna </tspan><tspan x="113.913" y="61">para todos.</tspan></text>
  </g>
</svg>
