<svg xmlns="http://www.w3.org/2000/svg" width="349.709" height="364" viewBox="0 0 349.709 364">
  <g id="Grupo_639" data-name="Grupo 639" transform="translate(-176.104 -5718.724)">
    <path id="Trazado_364" data-name="Trazado 364" d="M176.1,6072.83V5807.339a10.128,10.128,0,0,1,.733-3.786,9.919,9.919,0,0,1,2.086-3.21,9.738,9.738,0,0,1,1.459-1.23,9.487,9.487,0,0,1,3.47-1.478,9.392,9.392,0,0,1,1.877-.19H516.188a9.453,9.453,0,0,1,5.347,1.668,9.691,9.691,0,0,1,1.459,1.23,9.821,9.821,0,0,1,1.2,1.5,10.062,10.062,0,0,1,1.437,3.566,10.159,10.159,0,0,1,.185,1.93V6072.83a10.159,10.159,0,0,1-.185,1.93,10.067,10.067,0,0,1-1.437,3.567,9.789,9.789,0,0,1-1.2,1.5,9.691,9.691,0,0,1-1.459,1.23,9.47,9.47,0,0,1-3.469,1.478,9.409,9.409,0,0,1-1.878.19H185.729a9.4,9.4,0,0,1-3.683-.753,9.533,9.533,0,0,1-1.664-.915,9.738,9.738,0,0,1-1.459-1.23,9.913,9.913,0,0,1-1.2-1.5,10.069,10.069,0,0,1-1.437-3.567A10.157,10.157,0,0,1,176.1,6072.83Z" fill="#d5dbe0"/>
    <path id="Trazado_365" data-name="Trazado 365" d="M352.36,5718.724q3.746,0,7.471.367t7.4,1.1q3.673.729,7.256,1.817t7.043,2.52q3.459,1.433,6.762,3.2t6.416,3.845q3.113,2.081,6.008,4.456t5.542,5.024q2.648,2.648,5.023,5.542t4.456,6.008q2.08,3.112,3.846,6.416t3.2,6.762q1.432,3.459,2.52,7.042t1.817,7.256q.73,3.673,1.1,7.4t.367,7.471q0,3.746-.367,7.471t-1.1,7.4q-.73,3.672-1.817,7.255t-2.52,7.043q-1.432,3.459-3.2,6.762t-3.846,6.416q-2.08,3.113-4.456,6.008t-5.023,5.542q-2.647,2.649-5.542,5.023t-6.008,4.456q-3.114,2.081-6.416,3.846t-6.762,3.2q-3.459,1.432-7.043,2.52t-7.256,1.817q-3.672.73-7.4,1.1t-7.471.367q-3.744,0-7.471-.367t-7.4-1.1q-3.672-.731-7.256-1.817t-7.042-2.52q-3.46-1.434-6.762-3.2t-6.416-3.846q-3.114-2.079-6.008-4.456t-5.542-5.023q-2.649-2.647-5.024-5.542t-4.456-6.008q-2.079-3.114-3.845-6.416t-3.2-6.762q-1.433-3.458-2.52-7.043t-1.818-7.255q-.73-3.673-1.1-7.4t-.367-7.471q0-3.743.367-7.471t1.1-7.4q.73-3.672,1.818-7.256t2.52-7.042q1.432-3.46,3.2-6.762t3.845-6.416q2.08-3.114,4.456-6.008t5.024-5.542q2.648-2.648,5.542-5.024t6.008-4.456q3.112-2.079,6.416-3.845t6.762-3.2q3.459-1.434,7.042-2.52t7.256-1.817q3.674-.732,7.4-1.1T352.36,5718.724Z" fill="#b61b7b"/>
    <circle id="Elipse_36" data-name="Elipse 36" cx="71.597" cy="71.597" r="71.597" transform="translate(281.384 5723.97)" fill="#fff"/>
    <line id="Línea_12" data-name="Línea 12" x2="310.319" transform="translate(198.128 5927.815)" fill="none" stroke="#707070" stroke-width="2"/>
    <text id="REDUCCIÓN_DE_LAS_DESIGUALDADES" data-name="REDUCCIÓN DE 
LAS DESIGUALDADES" transform="translate(352.784 5900.053)" fill="#444242" font-size="18" font-family="Montserrat-Bold, Montserrat" font-weight="700"><tspan x="-76.626" y="0">REDUCCIÓN DE </tspan><tspan x="-102.519" y="21.6">LAS DESIGUALDADES</tspan></text>
    <circle id="Elipse_37" data-name="Elipse 37" cx="65.13" cy="65.13" r="65.13" transform="translate(287.851 5730.436)" fill="#b61b7b"/>
    <text id="Reducir_la_desigualdad_en_y_entre_los_países._" data-name="Reducir la desigualdad en y entre los países.




" transform="translate(194.126 5945.384)" fill="#444242" font-size="16" font-family="OpenSans, Open Sans"><tspan x="19.78" y="17">Reducir la desigualdad en y entre los </tspan><tspan x="130.608" y="39">países.</tspan><tspan x="156.233" y="61"></tspan></text>
    <g id="Grupo_419" data-name="Grupo 419">
      <path id="Trazado_370" data-name="Trazado 370" d="M343.7,5749.76v20.935h4.6v-27.348H344.63l-4.232,4.961v4.8h.039l3.226-3.35Z" fill="#fff"/>
      <path id="Trazado_371" data-name="Trazado 371" d="M365.084,5763.637V5750.4c0-4.276-2.139-7.381-6.818-7.381-4.637,0-6.778,3.1-6.778,7.381v13.232c0,4.236,2.141,7.38,6.778,7.38,4.679,0,6.818-3.144,6.818-7.38m-9,.726V5749.68c0-1.654.6-2.826,2.178-2.826,1.613,0,2.218,1.172,2.218,2.826v14.683c0,1.655-.605,2.821-2.218,2.821-1.575,0-2.178-1.166-2.178-2.821" fill="#fff"/>
    </g>
    <g id="Grupo_422" data-name="Grupo 422">
      <path id="Trazado_376" data-name="Trazado 376" d="M330.943,5802.439,318.2,5815.186l12.748,12.747Z" fill="#fff"/>
      <path id="Trazado_377" data-name="Trazado 377" d="M377.068,5827.933l12.745-12.747-12.745-12.747Z" fill="#fff"/>
      <path id="Trazado_378" data-name="Trazado 378" d="M366.771,5792.179l-12.747-12.747-12.747,12.747Z" fill="#fff"/>
      <path id="Trazado_379" data-name="Trazado 379" d="M341.278,5838.24l12.745,12.748,12.748-12.748Z" fill="#fff"/>
      <rect id="Rectángulo_80" data-name="Rectángulo 80" width="27.677" height="7.682" transform="translate(340.166 5803.286)" fill="#fff"/>
      <rect id="Rectángulo_81" data-name="Rectángulo 81" width="27.677" height="8.028" transform="translate(340.166 5819.095)" fill="#fff"/>
    </g>
  </g>
</svg>
