<svg xmlns="http://www.w3.org/2000/svg" width="349.708" height="364" viewBox="0 0 349.708 364">
  <g id="Grupo_633" data-name="Grupo 633" transform="translate(-176.584 -4920.585)">
    <path id="Trazado_319" data-name="Trazado 319" d="M176.584,5274.691V5009.2a10.154,10.154,0,0,1,.732-3.787,9.98,9.98,0,0,1,.89-1.71,9.846,9.846,0,0,1,1.2-1.5,9.7,9.7,0,0,1,1.458-1.23,9.5,9.5,0,0,1,1.664-.914,9.4,9.4,0,0,1,3.684-.753H516.667a9.4,9.4,0,0,1,3.684.753,9.469,9.469,0,0,1,1.664.914,9.705,9.705,0,0,1,1.458,1.23,9.848,9.848,0,0,1,1.2,1.5,10.007,10.007,0,0,1,1.437,3.566,10.082,10.082,0,0,1,.185,1.931v265.49a10.066,10.066,0,0,1-1.622,5.5,9.765,9.765,0,0,1-2.655,2.729,9.57,9.57,0,0,1-1.664.915,9.467,9.467,0,0,1-1.806.563,9.337,9.337,0,0,1-1.878.19H186.209a9.338,9.338,0,0,1-1.878-.19,9.467,9.467,0,0,1-1.806-.563,9.606,9.606,0,0,1-1.664-.915,9.766,9.766,0,0,1-2.655-2.729,10.109,10.109,0,0,1-1.622-5.5Z" fill="#d5dbe0"/>
    <path id="Trazado_320" data-name="Trazado 320" d="M352.84,4920.585q3.744,0,7.471.367t7.4,1.1q3.672.731,7.256,1.817t7.043,2.52q3.459,1.432,6.761,3.2t6.416,3.846q3.114,2.079,6.008,4.455t5.543,5.024q2.648,2.647,5.023,5.542t4.456,6.008q2.08,3.114,3.845,6.416t3.2,6.762q1.434,3.458,2.52,7.043t1.818,7.255q.731,3.673,1.1,7.4t.367,7.472q0,3.744-.367,7.47t-1.1,7.4q-.73,3.672-1.818,7.256t-2.52,7.042q-1.433,3.461-3.2,6.762t-3.845,6.416q-2.08,3.113-4.456,6.008t-5.023,5.542q-2.649,2.649-5.543,5.024t-6.008,4.455q-3.113,2.08-6.416,3.846t-6.761,3.2q-3.461,1.433-7.043,2.52t-7.256,1.817q-3.674.732-7.4,1.1t-7.471.367q-3.746,0-7.471-.367t-7.4-1.1q-3.674-.73-7.256-1.817t-7.043-2.52q-3.459-1.434-6.762-3.2t-6.416-3.846q-3.113-2.079-6.008-4.455t-5.542-5.024q-2.647-2.648-5.023-5.542t-4.456-6.008q-2.08-3.114-3.846-6.416t-3.2-6.762q-1.433-3.459-2.52-7.042t-1.817-7.256q-.73-3.673-1.1-7.4t-.367-7.47q0-3.746.367-7.472t1.1-7.4q.73-3.672,1.817-7.255t2.52-7.043q1.434-3.459,3.2-6.762t3.846-6.416q2.081-3.114,4.456-6.008t5.023-5.542q2.648-2.649,5.542-5.024t6.008-4.455q3.114-2.081,6.416-3.846t6.762-3.2q3.459-1.433,7.043-2.52t7.256-1.817q3.672-.732,7.4-1.1T352.84,4920.585Z" fill="#a20f2e"/>
    <circle id="Elipse_24" data-name="Elipse 24" cx="71.597" cy="71.597" r="71.597" transform="translate(281.864 4925.831)" fill="#fff"/>
    <line id="Línea_6" data-name="Línea 6" x2="310.319" transform="translate(198.608 5129.676)" fill="none" stroke="#707070" stroke-width="2"/>
    <text id="EDUCACIÓN_DE_CALIDAD" data-name="EDUCACIÓN DE CALIDAD" transform="translate(353.263 5110.914)" fill="#444242" font-size="18" font-family="Montserrat-Bold, Montserrat" font-weight="700"><tspan x="-120.249" y="0">EDUCACIÓN DE CALIDAD</tspan></text>
    <text id="Garantizar_una_educación_inclusiva_equitativa_y_de_calidad_y_promover_oportunidades_de_aprendizaje_durante_toda_la_vida_para_todos._" data-name="Garantizar una educación inclusiva, equitativa y de calidad y promover oportunidades de aprendizaje durante toda la vida para todos.




" transform="translate(197.654 5147.245)" fill="#444242" font-size="16" font-family="OpenSans, Open Sans"><tspan x="24.62" y="17">Garantizar una educación inclusiva, </tspan><tspan x="28.213" y="39">equitativa y de calidad y promover </tspan><tspan x="12.475" y="61">oportunidades de aprendizaje durante </tspan><tspan x="68.815" y="83">toda la vida para todos.</tspan><tspan x="156.233" y="105"></tspan></text>
    <circle id="Elipse_25" data-name="Elipse 25" cx="65.13" cy="65.13" r="65.13" transform="translate(288.33 4932.297)" fill="#a20f2e"/>
    <path id="Trazado_325" data-name="Trazado 325" d="M352.02,4970.166h4.35v-4.432h1.856v-3.585H356.37v-19.3h-4.514l-7.936,20.069v2.82h8.1Zm-4.072-8.017,4.111-11.243h.04v11.243Z" fill="#fff"/>
    <path id="Trazado_326" data-name="Trazado 326" d="M349.487,4993.018l-24.3-14.033v45.394l24.3,7.333Z" fill="#fff"/>
    <path id="Trazado_327" data-name="Trazado 327" d="M352.159,4993.11v38.618l24.461-7.355v-45.386Z" fill="#fff"/>
    <path id="Trazado_330" data-name="Trazado 330" d="M381.84,4980.935l-2.606-2.059v46.734l-27,8.725h-2.745l-26.882-7.51v-47.95L320,4980.935v47.719l29.366,8.129h2.989l27.094-8.6,2.393-.705Z" fill="#fff"/>
  </g>
</svg>
