<svg xmlns="http://www.w3.org/2000/svg" width="349.709" height="364" viewBox="0 0 349.709 364">
  <g id="Grupo_636" data-name="Grupo 636" transform="translate(-919.08 -5317.747)">
    <path id="Trazado_341" data-name="Trazado 341" d="M919.08,5671.853v-265.49a10.161,10.161,0,0,1,.185-1.931,10.055,10.055,0,0,1,1.437-3.566,9.8,9.8,0,0,1,1.2-1.5,9.661,9.661,0,0,1,1.459-1.23,9.425,9.425,0,0,1,5.347-1.668h330.459a9.468,9.468,0,0,1,5.347,1.668,9.661,9.661,0,0,1,1.459,1.23,9.794,9.794,0,0,1,1.2,1.5,10.055,10.055,0,0,1,1.437,3.566,10.156,10.156,0,0,1,.185,1.931v265.49a10.163,10.163,0,0,1-.185,1.93,10.07,10.07,0,0,1-1.437,3.567,9.752,9.752,0,0,1-2.656,2.729,9.469,9.469,0,0,1-3.469,1.478,9.409,9.409,0,0,1-1.878.19H928.705a9.39,9.39,0,0,1-3.683-.753,9.535,9.535,0,0,1-1.664-.915,9.69,9.69,0,0,1-1.459-1.23,9.789,9.789,0,0,1-1.2-1.5,10.07,10.07,0,0,1-1.437-3.567A10.168,10.168,0,0,1,919.08,5671.853Z" fill="#d5dbe0"/>
    <path id="Trazado_342" data-name="Trazado 342" d="M1098.84,5317.747q3.744,0,7.471.367t7.4,1.1q3.672.731,7.256,1.817t7.043,2.52q3.459,1.433,6.761,3.2t6.416,3.845q3.114,2.081,6.008,4.456t5.543,5.024q2.647,2.648,5.023,5.542t4.456,6.008q2.081,3.114,3.845,6.416t3.2,6.762q1.434,3.459,2.52,7.042t1.818,7.256q.73,3.673,1.1,7.4t.367,7.471q0,3.746-.367,7.471t-1.1,7.4q-.731,3.672-1.818,7.255t-2.52,7.043q-1.433,3.458-3.2,6.762t-3.845,6.416q-2.08,3.113-4.456,6.008t-5.023,5.542q-2.649,2.648-5.543,5.023t-6.008,4.456q-3.113,2.08-6.416,3.846t-6.761,3.2q-3.461,1.432-7.043,2.52t-7.256,1.817q-3.673.732-7.4,1.1t-7.471.367q-3.745,0-7.471-.367t-7.4-1.1q-3.673-.731-7.256-1.817t-7.043-2.52q-3.459-1.434-6.762-3.2t-6.416-3.846q-3.113-2.079-6.008-4.456t-5.542-5.023q-2.648-2.648-5.023-5.542t-4.456-6.008q-2.08-3.114-3.846-6.416t-3.2-6.762q-1.433-3.459-2.52-7.043t-1.817-7.255q-.73-3.673-1.1-7.4t-.367-7.471q0-3.743.367-7.471t1.1-7.4q.73-3.672,1.817-7.256t2.52-7.042q1.434-3.46,3.2-6.762t3.846-6.416q2.08-3.114,4.456-6.008t5.023-5.542q2.648-2.648,5.542-5.024t6.008-4.456q3.114-2.079,6.416-3.845t6.762-3.2q3.459-1.434,7.043-2.52t7.256-1.817q3.672-.732,7.4-1.1T1098.84,5317.747Z" fill="#cf731b"/>
    <circle id="Elipse_34" data-name="Elipse 34" cx="71.597" cy="71.597" r="71.597" transform="translate(1027.864 5322.993)" fill="#fff"/>
    <line id="Línea_11" data-name="Línea 11" x2="310.319" transform="translate(944.608 5526.838)" fill="none" stroke="#707070" stroke-width="2"/>
    <text id="INSDUSTRIA_INNOVACIÓN_E_INFRAESTRUCTURA" data-name="INSDUSTRIA, INNOVACIÓN E
INFRAESTRUCTURA" transform="translate(1099.263 5498.076)" fill="#444242" font-size="18" font-family="Montserrat-Bold, Montserrat" font-weight="700"><tspan x="-134.424" y="0">INSDUSTRIA, INNOVACIÓN E</tspan><tspan x="-93.033" y="21.6">INFRAESTRUCTURA</tspan></text>
    <circle id="Elipse_35" data-name="Elipse 35" cx="65.13" cy="65.13" r="65.13" transform="translate(1034.33 5329.459)" fill="#cf731b"/>
    <g id="Grupo_418" data-name="Grupo 418">
      <path id="Trazado_360" data-name="Trazado 360" d="M1136.778,5418.042l-16.11-9.3v-18.6a1.1,1.1,0,0,0-.549-.951l-16.653-9.615a1.1,1.1,0,0,0-1.1,0l-16.654,9.615a1.1,1.1,0,0,0-.549.951v18.6l-16.107,9.3a1.094,1.094,0,0,0-.549.951v19.234a1.1,1.1,0,0,0,.549.951l16.656,9.613a1.1,1.1,0,0,0,1.1,0l16.107-9.295,16.1,9.295a1.1,1.1,0,0,0,.549.147,1.079,1.079,0,0,0,.549-.147l16.659-9.613a1.1,1.1,0,0,0,.547-.951v-19.234a1.1,1.1,0,0,0-.547-.951m-34.961,18.282-13.357-7.714,13.357-7.713Zm15.556-26.945-13.357,7.709v-15.422Zm-15.556,7.711-13.357-7.712,13.357-7.712Zm3.3,1.9,14.455-8.346,14.459,8.346-14.459,8.347Zm13.357-11.517-13.357-7.713,13.357-7.714Zm-17.753-7.713-13.36,7.714v-15.428Zm-15.555,46.173-14.458-8.344V5420.9l14.458,8.347Zm2.2,0v-15.423l13.36,7.714Zm47.77-8.344-14.461,8.344v-16.692l14.461-8.347Z" fill="#fff"/>
    </g>
    <path id="Trazado_362" data-name="Trazado 362" d="M1105.99,5348.724c0-4.23-1.853-7.291-6.688-7.291-4.874,0-6.765,2.658-6.765,6.887v4.028c0,4.471,1.771,6.726,5.075,6.726a3.929,3.929,0,0,0,3.785-2.214h.04v5.879c0,1.651-.646,2.82-2.3,2.82s-2.256-.966-2.256-2.659v-1.812H1092.7v1.451c0,4.027,1.451,6.846,6.527,6.846,4.83,0,6.766-3.1,6.766-7.372Zm-4.553,4.189c-.081,1.529-.725,2.5-2.174,2.5-1.57,0-2.176-.967-2.176-2.74v-4.752c0-1.732.644-2.737,2.215-2.737,1.532,0,2.135,1.046,2.135,2.737Z" fill="#fff"/>
    <text id="Garantizar_una_vida_sana_y_promover_el_bienestar_para_todos_en_todas_las_edades._" data-name="Garantizar una vida sana y promover el bienestar para todos en todas las edades.




" transform="translate(940.605 5544.407)" fill="#444242" font-size="16" font-family="OpenSans, Open Sans"><tspan x="10.186" y="17">Garantizar una vida sana y promover el </tspan><tspan x="0.795" y="39">bienestar para todos en todas las edades.</tspan><tspan x="156.233" y="61"></tspan><tspan x="156.233" y="83"></tspan></text>
  </g>
</svg>
