<svg xmlns="http://www.w3.org/2000/svg" width="349.709" height="364" viewBox="0 0 349.709 364">
  <g id="Grupo_631" data-name="Grupo 631" transform="translate(-919.08 -4920.585)">
    <path id="Trazado_323" data-name="Trazado 323" d="M919.08,5274.691V5009.2a10.166,10.166,0,0,1,.185-1.931,10.055,10.055,0,0,1,1.437-3.566,9.845,9.845,0,0,1,1.2-1.5,9.661,9.661,0,0,1,1.459-1.23,9.49,9.49,0,0,1,3.469-1.477,9.337,9.337,0,0,1,1.878-.19h330.459a9.39,9.39,0,0,1,3.683.753,9.434,9.434,0,0,1,1.664.914,9.661,9.661,0,0,1,1.459,1.23,9.841,9.841,0,0,1,1.2,1.5,10.055,10.055,0,0,1,1.437,3.566,10.161,10.161,0,0,1,.185,1.931v265.49a10.163,10.163,0,0,1-.185,1.93,10.07,10.07,0,0,1-1.437,3.567,9.786,9.786,0,0,1-1.2,1.5,9.661,9.661,0,0,1-1.459,1.23,9.469,9.469,0,0,1-3.469,1.478,9.338,9.338,0,0,1-1.878.19H928.705a9.337,9.337,0,0,1-1.878-.19,9.47,9.47,0,0,1-3.469-1.478,9.661,9.661,0,0,1-1.459-1.23,9.789,9.789,0,0,1-1.2-1.5,10.07,10.07,0,0,1-1.437-3.567A10.168,10.168,0,0,1,919.08,5274.691Z" fill="#d5dbe0"/>
    <path id="Trazado_324" data-name="Trazado 324" d="M1098.84,4920.585q3.744,0,7.471.367t7.4,1.1q3.672.731,7.256,1.817t7.043,2.52q3.459,1.432,6.761,3.2t6.416,3.846q3.114,2.079,6.008,4.455t5.543,5.024q2.647,2.647,5.023,5.542t4.456,6.008q2.081,3.114,3.845,6.416t3.2,6.762q1.434,3.458,2.52,7.043t1.818,7.255q.73,3.673,1.1,7.4t.367,7.472q0,3.744-.367,7.47t-1.1,7.4q-.731,3.672-1.818,7.256t-2.52,7.042q-1.433,3.461-3.2,6.762t-3.845,6.416q-2.08,3.113-4.456,6.008t-5.023,5.542q-2.649,2.649-5.543,5.024t-6.008,4.455q-3.113,2.08-6.416,3.846t-6.761,3.2q-3.461,1.433-7.043,2.52t-7.256,1.817q-3.673.732-7.4,1.1t-7.471.367q-3.745,0-7.471-.367t-7.4-1.1q-3.673-.73-7.256-1.817t-7.043-2.52q-3.459-1.434-6.762-3.2t-6.416-3.846q-3.113-2.079-6.008-4.455t-5.542-5.024q-2.648-2.648-5.023-5.542t-4.456-6.008q-2.08-3.114-3.846-6.416t-3.2-6.762q-1.433-3.459-2.52-7.042t-1.817-7.256q-.73-3.673-1.1-7.4t-.367-7.47q0-3.746.367-7.472t1.1-7.4q.73-3.672,1.817-7.255t2.52-7.043q1.434-3.459,3.2-6.762t3.846-6.416q2.08-3.114,4.456-6.008t5.023-5.542q2.648-2.649,5.542-5.024t6.008-4.455q3.114-2.081,6.416-3.846t6.762-3.2q3.459-1.433,7.043-2.52t7.256-1.817q3.672-.732,7.4-1.1T1098.84,4920.585Z" fill="#6fabd5"/>
    <circle id="Elipse_28" data-name="Elipse 28" cx="71.597" cy="71.597" r="71.597" transform="translate(1027.864 4925.831)" fill="#fff"/>
    <line id="Línea_8" data-name="Línea 8" x2="310.319" transform="translate(944.608 5129.676)" fill="none" stroke="#707070" stroke-width="2"/>
    <text id="AGUA_LIMPIA_Y_SANEAMIENTO" data-name="AGUA LIMPIA Y SANEAMIENTO" transform="translate(1099.263 5110.914)" fill="#444242" font-size="18" font-family="Montserrat-Bold, Montserrat" font-weight="700"><tspan x="-145.413" y="0">AGUA LIMPIA Y SANEAMIENTO</tspan></text>
    <text id="Garantizar_la_disponibilidad_de_agua_y_su_ordenación_sostenible_y_el_saneamiento_para_todos._" data-name="Garantizar la disponibilidad de agua y su ordenación sostenible y el saneamiento para todos.




" transform="translate(943.654 5147.245)" fill="#444242" font-size="16" font-family="OpenSans, Open Sans"><tspan x="5.272" y="17">Garantizar la disponibilidad de agua y su </tspan><tspan x="8.358" y="39">ordenación sostenible y el saneamiento </tspan><tspan x="113.913" y="61">para todos.</tspan><tspan x="156.233" y="83"></tspan></text>
    <circle id="Elipse_29" data-name="Elipse 29" cx="65.13" cy="65.13" r="65.13" transform="translate(1034.33 4932.297)" fill="#6fabd5"/>
    <path id="Trazado_335" data-name="Trazado 335" d="M1096.624,4970.527c4.874,0,6.77-2.661,6.77-6.892V4959.6c0-4.472-1.772-6.73-5.078-6.73a3.933,3.933,0,0,0-3.788,2.219h-.039v-5.883c0-1.655.524-2.823,2.176-2.823s2.137.969,2.137,2.66v1.814h4.188v-1.451c0-4.031-1.331-6.849-6.406-6.849-4.836,0-6.649,3.1-6.649,7.373v13.3c0,4.233,1.853,7.3,6.689,7.3m-2.135-11.486c.079-1.53.724-2.5,2.176-2.5,1.569,0,2.174.968,2.174,2.741v4.755c0,1.731-.642,2.74-2.215,2.74-1.532,0-2.135-1.047-2.135-2.74Z" fill="#fff"/>
    <path id="Trazado_336" data-name="Trazado 336" d="M1123.554,4977.979a.6.6,0,0,0-.446-.194h-49.16a.554.554,0,0,0-.565.659l8.258,49.95a.579.579,0,0,0,.568.482h10.136l.694,8.136-4.267,0,9.926,9.925,9.949-9.948-4.265,0,.694-8.123h10.314a.568.568,0,0,0,.563-.49l7.728-49.942a.606.606,0,0,0-.127-.465m-19,39.989a9.439,9.439,0,0,1-11.738,0c-3.682-3.679-2.368-8.258-1.086-10.623.792-1.481,6.449-9.979,6.936-10.7v-.057l.022.028.021-.028v.057c.473.723,6.141,9.221,6.932,10.7,1.284,2.365,2.594,6.944-1.087,10.623m15.595-29.479a6.1,6.1,0,0,0-4.643.281c-6.1,2.472-10.251,3.361-16.667,1.352-4.04-1.265-7.82-3.914-12.287-2.3-2.965,1.068-5.728,2.086-9.082,2.059l-1.935-9.926h46.006Z" fill="#fff"/>
  </g>
</svg>
