<svg xmlns="http://www.w3.org/2000/svg" width="349.709" height="364" viewBox="0 0 349.709 364">
  <g id="Grupo_635" data-name="Grupo 635" transform="translate(-547.832 -5317.747)">
    <path id="Trazado_339" data-name="Trazado 339" d="M547.832,5671.853v-265.49a10.156,10.156,0,0,1,.185-1.931,10.026,10.026,0,0,1,.548-1.856,9.923,9.923,0,0,1,2.086-3.21,9.661,9.661,0,0,1,1.459-1.23,9.425,9.425,0,0,1,5.347-1.668H887.916a9.468,9.468,0,0,1,5.347,1.668,9.707,9.707,0,0,1,1.459,1.23,9.966,9.966,0,0,1,2.086,3.21,10.127,10.127,0,0,1,.733,3.787v265.49a10.127,10.127,0,0,1-.733,3.786,9.972,9.972,0,0,1-.89,1.711,9.843,9.843,0,0,1-1.2,1.5,9.736,9.736,0,0,1-1.459,1.23,9.57,9.57,0,0,1-1.664.915,9.4,9.4,0,0,1-3.683.753H557.457a9.389,9.389,0,0,1-3.683-.753,9.535,9.535,0,0,1-1.664-.915,9.69,9.69,0,0,1-1.459-1.23,9.79,9.79,0,0,1-1.2-1.5,10.071,10.071,0,0,1-1.437-3.567A10.163,10.163,0,0,1,547.832,5671.853Z" fill="#d5dbe0"/>
    <path id="Trazado_340" data-name="Trazado 340" d="M725.84,5317.747q3.744,0,7.471.367t7.4,1.1q3.672.731,7.256,1.817t7.043,2.52q3.459,1.433,6.761,3.2t6.416,3.845q3.114,2.081,6.008,4.456t5.543,5.024q2.648,2.648,5.023,5.542t4.456,6.008q2.081,3.114,3.845,6.416t3.2,6.762q1.434,3.459,2.52,7.042t1.818,7.256q.73,3.673,1.1,7.4t.367,7.471q0,3.746-.367,7.471t-1.1,7.4q-.73,3.672-1.818,7.255t-2.52,7.043q-1.432,3.458-3.2,6.762t-3.845,6.416q-2.081,3.113-4.456,6.008t-5.023,5.542q-2.649,2.648-5.543,5.023t-6.008,4.456q-3.112,2.08-6.416,3.846t-6.761,3.2q-3.46,1.432-7.043,2.52t-7.256,1.817q-3.674.732-7.4,1.1t-7.471.367q-3.746,0-7.471-.367t-7.4-1.1q-3.673-.731-7.256-1.817t-7.043-2.52q-3.459-1.434-6.762-3.2t-6.416-3.846q-3.112-2.079-6.008-4.456t-5.542-5.023q-2.648-2.648-5.023-5.542t-4.456-6.008q-2.08-3.114-3.846-6.416t-3.2-6.762q-1.432-3.459-2.52-7.043t-1.817-7.255q-.73-3.673-1.1-7.4t-.367-7.471q0-3.743.367-7.471t1.1-7.4q.73-3.672,1.817-7.256t2.52-7.042q1.434-3.46,3.2-6.762t3.846-6.416q2.081-3.114,4.456-6.008t5.023-5.542q2.648-2.648,5.542-5.024t6.008-4.456q3.114-2.079,6.416-3.845t6.762-3.2q3.459-1.434,7.043-2.52t7.256-1.817q3.672-.732,7.4-1.1T725.84,5317.747Z" fill="#791536"/>
    <circle id="Elipse_32" data-name="Elipse 32" cx="71.597" cy="71.597" r="71.597" transform="translate(654.864 5322.993)" fill="#fff"/>
    <line id="Línea_10" data-name="Línea 10" x2="310.319" transform="translate(571.608 5526.838)" fill="none" stroke="#707070" stroke-width="2"/>
    <text id="TRABAJO_DECENTE_Y_CRECIMIENTO_ECONÓMICO" data-name="TRABAJO DECENTE Y
 CRECIMIENTO  ECONÓMICO" transform="translate(726.263 5498.076)" fill="#444242" font-size="18" font-family="Montserrat-Bold, Montserrat" font-weight="700"><tspan x="-101.592" y="0">TRABAJO DECENTE Y</tspan><tspan x="-134.901" y="21.6" xml:space="preserve"> CRECIMIENTO  ECONÓMICO</tspan></text>
    <circle id="Elipse_33" data-name="Elipse 33" cx="65.13" cy="65.13" r="65.13" transform="translate(661.33 5329.459)" fill="#791536"/>
    <g id="Grupo_417" data-name="Grupo 417">
      <path id="Trazado_356" data-name="Trazado 356" d="M751.515,5383.527l-13.771,13.1a2.279,2.279,0,0,0-.787,1.969v36.718a.787.787,0,0,0,.787.785h14.224a.785.785,0,0,0,.784-.785V5383.86c0-.434-.338-1.226-1.237-.333" fill="#fff"/>
      <path id="Trazado_357" data-name="Trazado 357" d="M711.838,5400.6l-13.775,13.1a2.286,2.286,0,0,0-.786,1.966v19.654a.787.787,0,0,0,.786.782h14.228a.784.784,0,0,0,.785-.782v-34.392c0-.433-.343-1.226-1.238-.328" fill="#fff"/>
      <path id="Trazado_358" data-name="Trazado 358" d="M757.775,5367.639a.39.39,0,0,0-.117-.3.394.394,0,0,0-.256-.109l-.075,0-.111.007-10.548,2.379-.189.019a.4.4,0,0,0-.205.108.4.4,0,0,0,0,.567l.116.12,2.41,2.408-23.9,23.9L713.866,5385.7a.319.319,0,0,0-.45,0l-2.993,3,0,0-17.692,17.688a.321.321,0,0,0,0,.451l3,3a.31.31,0,0,0,.446,0l17.473-17.467,8.008,8.011c.01.011.013.024.026.037l3,2.992a.311.311,0,0,0,.448,0l27.12-27.121,2.53,2.528a.394.394,0,0,0,.562,0,.377.377,0,0,0,.116-.259v-.034l2.318-10.766Z" fill="#fff"/>
      <path id="Trazado_359" data-name="Trazado 359" d="M731.753,5402.9l-6.662,6.719a.319.319,0,0,1-.429-.016l-6.037-6.155c-1.106-1.1-1.345-.207-1.345.225v31.646a.782.782,0,0,0,.781.784H732.29a.784.784,0,0,0,.782-.784v-32.171c0-.433-.34-1.226-1.319-.248" fill="#fff"/>
    </g>
    <path id="Trazado_361" data-name="Trazado 361" d="M730.669,5362.813v-2.983c0-2.618-.927-4.512-3.064-5.48a4.806,4.806,0,0,0,2.659-4.754v-1.129c0-4.271-2.215-6.569-6.445-6.569-4.19,0-6.369,2.3-6.369,6.569v1.129c0,2.217.807,3.87,2.579,4.754-2.135.968-3.023,2.862-3.023,5.48v2.983c0,4.15,1.977,7.051,6.813,7.051,4.874,0,6.85-2.9,6.85-7.051m-8.906-14.627c0-1.653.566-2.62,2.056-2.62,1.528,0,2.094.967,2.094,2.62v1.852c0,1.653-.566,2.622-2.094,2.622-1.49,0-2.056-.969-2.056-2.622Zm4.311,15.111c0,1.653-.6,2.821-2.255,2.821-1.614,0-2.217-1.168-2.217-2.821v-4.434c0-1.651.6-2.819,2.217-2.819,1.65,0,2.255,1.168,2.255,2.819Z" fill="#fff"/>
    <text id="Promover_el_crecimiento_económico_sostenido_inclusivo_y_sostenible_el_empleo_pleno_y_productivo_y_el_trabajo_decente_para_todos._" data-name="Promover el crecimiento económico sostenido, inclusivo y sostenible, el empleo pleno y productivo y el trabajo decente para todos.




" transform="translate(567.605 5544.407)" fill="#444242" font-size="16" font-family="OpenSans, Open Sans"><tspan x="22.127" y="17">Promover el crecimiento económico </tspan><tspan x="26.53" y="39">sostenido, inclusivo y sostenible, el </tspan><tspan x="13.124" y="61">empleo pleno y productivo y el trabajo </tspan><tspan x="81.924" y="83">decente para todos.</tspan><tspan x="156.233" y="105"></tspan></text>
  </g>
</svg>
