<svg xmlns="http://www.w3.org/2000/svg" width="349.709" height="364" viewBox="0 0 349.709 364">
  <g id="Grupo_629" data-name="Grupo 629" transform="translate(-547.832 -4531.05)">
    <path id="Trazado_296" data-name="Trazado 296" d="M547.832,4885.156v-265.49a10.14,10.14,0,0,1,.733-3.787,9.91,9.91,0,0,1,.889-1.71,9.79,9.79,0,0,1,1.2-1.5,9.611,9.611,0,0,1,1.459-1.231,9.49,9.49,0,0,1,3.469-1.477,9.338,9.338,0,0,1,1.878-.19H887.916a9.4,9.4,0,0,1,3.683.753,9.5,9.5,0,0,1,1.664.914,9.656,9.656,0,0,1,1.459,1.231,9.948,9.948,0,0,1,2.086,3.209,10.137,10.137,0,0,1,.733,3.787v265.49a10.127,10.127,0,0,1-.733,3.786,9.938,9.938,0,0,1-2.086,3.21,9.656,9.656,0,0,1-1.459,1.231,9.533,9.533,0,0,1-1.664.914,9.4,9.4,0,0,1-3.683.753H557.457a9.389,9.389,0,0,1-3.683-.753,9.5,9.5,0,0,1-1.664-.914,9.611,9.611,0,0,1-1.459-1.231,9.9,9.9,0,0,1-2.086-3.21,10.037,10.037,0,0,1-.548-1.856A10.147,10.147,0,0,1,547.832,4885.156Z" fill="#d5dbe0"/>
    <path id="Trazado_297" data-name="Trazado 297" d="M725.84,4531.05q3.744,0,7.471.367t7.4,1.1q3.672.73,7.256,1.817t7.043,2.52q3.459,1.434,6.761,3.2t6.416,3.846q3.114,2.081,6.008,4.456t5.543,5.023q2.648,2.648,5.023,5.542t4.456,6.008q2.081,3.114,3.845,6.416t3.2,6.762q1.434,3.459,2.52,7.043t1.818,7.256q.73,3.672,1.1,7.4t.367,7.471q0,3.744-.367,7.471t-1.1,7.4q-.73,3.672-1.818,7.256t-2.52,7.043q-1.432,3.459-3.2,6.761t-3.845,6.416q-2.081,3.114-4.456,6.008t-5.023,5.542q-2.649,2.649-5.543,5.024t-6.008,4.455q-3.112,2.082-6.416,3.846t-6.761,3.2q-3.46,1.433-7.043,2.52t-7.256,1.818q-3.674.731-7.4,1.1t-7.471.367q-3.746,0-7.471-.367t-7.4-1.1q-3.673-.73-7.256-1.818t-7.043-2.52q-3.459-1.433-6.762-3.2t-6.416-3.846q-3.112-2.079-6.008-4.455t-5.542-5.024q-2.648-2.648-5.023-5.542t-4.456-6.008q-2.08-3.114-3.846-6.416t-3.2-6.761q-1.432-3.461-2.52-7.043t-1.817-7.256q-.73-3.672-1.1-7.4t-.367-7.471q0-3.746.367-7.471t1.1-7.4q.73-3.673,1.817-7.256t2.52-7.043q1.434-3.459,3.2-6.762t3.846-6.416q2.081-3.112,4.456-6.008t5.023-5.542q2.648-2.648,5.542-5.023t6.008-4.456q3.114-2.081,6.416-3.846t6.762-3.2q3.459-1.433,7.043-2.52t7.256-1.817q3.672-.731,7.4-1.1T725.84,4531.05Z" fill="#c7a216"/>
    <circle id="Elipse_20" data-name="Elipse 20" cx="71.597" cy="71.597" r="71.597" transform="translate(654.864 4536.296)" fill="#fff"/>
    <line id="Línea_4" data-name="Línea 4" x2="310.319" transform="translate(571.608 4740.141)" fill="none" stroke="#707070" stroke-width="2"/>
    <text id="HAMBRE_CERO" data-name="HAMBRE CERO" transform="translate(726.263 4721.379)" fill="#444242" font-size="18" font-family="Montserrat-Bold, Montserrat" font-weight="700"><tspan x="-71.694" y="0">HAMBRE CERO</tspan></text>
    <text id="Poner_fin_al_hambre_lograr_la_seguridad_alimentaria_y_la_mejora_de_la_nutrición_y_promover_la_agricultura_sostenible._" data-name="Poner fin al hambre, lograr la seguridad alimentaria y la mejora de la nutrición y promover la agricultura sostenible.




" transform="translate(570.654 4757.71)" fill="#444242" font-size="16" font-family="OpenSans, Open Sans"><tspan x="8.405" y="17">Poner fin al hambre, lograr la seguridad </tspan><tspan x="9.092" y="39">alimentaria y la mejora de la nutrición y </tspan><tspan x="26.405" y="61">promover la agricultura sostenible.</tspan><tspan x="156.233" y="83"></tspan><tspan x="156.233" y="105"></tspan></text>
    <circle id="Elipse_21" data-name="Elipse 21" cx="65.13" cy="65.13" r="65.13" transform="translate(661.33 4542.762)" fill="#c7a216"/>
    <path id="Trazado_311" data-name="Trazado 311" d="M730.725,4577.032h-7.536v-1.289c0-2.135.765-2.942,1.934-4.19l2.941-3.1c2.376-2.538,2.9-4.149,2.9-6.89V4558.9c0-3.907-1.894-5.762-6-5.762-4.029,0-6.086,2.137-6.086,5.964v3.3h4.193v-3.426c0-1.65.805-2.136,1.773-2.136.883,0,1.652.364,1.652,2.056v2.256c0,2.259-.2,3.146-1.693,4.716l-2.582,2.74c-2.5,2.661-3.422,4.433-3.422,7.132v5.038h11.928Z" fill="#fff"/>
    <path id="Trazado_312" data-name="Trazado 312" d="M712.789,4655.542v1.9a.3.3,0,0,0-.007.043.273.273,0,0,0,.007.045.9.9,0,0,0,.879.856s.012,0,.017,0,.015,0,.022,0h22.352c.006,0,.013,0,.019,0s.013,0,.019,0a.9.9,0,0,0,.882-.9l0-.006,0-.005v-2.157c12.583-4.125,22.008-14.323,24.083-26.751,0-.027.006-.052.01-.075a.663.663,0,0,0,.013-.125.9.9,0,0,0-.9-.9H688.944a.9.9,0,0,0-.906.9l.047.407c2.178,12.546,11.861,22.8,24.7,26.758" fill="#fff"/>
    <path id="Trazado_313" data-name="Trazado 313" d="M736.959,4597.07c-.295.417-7.177,10.326.152,18.338,3.363,3.678,3.072,6.923,2.111,9.114h4.7c.953-3.236.559-7.293-3.258-11.464-5.4-5.9.07-13.885.153-14.009a1.763,1.763,0,0,0-.766-2.631,2.5,2.5,0,0,0-3.094.652" fill="#fff"/>
    <path id="Trazado_314" data-name="Trazado 314" d="M725.05,4624.522h4.705c.95-3.238.556-7.293-3.262-11.464-5.4-5.905.063-13.881.151-14.013a1.761,1.761,0,0,0-.766-2.627,2.492,2.492,0,0,0-3.091.652c-.295.416-7.185,10.326.152,18.338,3.362,3.679,3.069,6.924,2.111,9.114" fill="#fff"/>
    <path id="Trazado_315" data-name="Trazado 315" d="M708.612,4597.07c-.3.417-7.181,10.326.149,18.338,3.365,3.679,3.075,6.924,2.117,9.114h4.7c.95-3.235.556-7.292-3.264-11.464-5.4-5.9.068-13.885.156-14.011a1.765,1.765,0,0,0-.769-2.629,2.487,2.487,0,0,0-3.091.652" fill="#fff"/>
  </g>
</svg>
