<svg xmlns="http://www.w3.org/2000/svg" width="349.709" height="427.186" viewBox="0 0 349.709 427.186">
  <g id="Grupo_640" data-name="Grupo 640" transform="translate(-176.104 -6109.152)">
    <path id="Trazado_390" data-name="Trazado 390" d="M176.1,6524.253V6199.959a15.072,15.072,0,0,1,.185-2.357,14.511,14.511,0,0,1,.548-2.268,13.342,13.342,0,0,1,.889-2.089,12.025,12.025,0,0,1,1.2-1.831,10.4,10.4,0,0,1,1.459-1.5,9.122,9.122,0,0,1,1.664-1.117,8.244,8.244,0,0,1,1.806-.688,7.711,7.711,0,0,1,1.877-.232H516.188a7.725,7.725,0,0,1,1.878.232,8.236,8.236,0,0,1,1.8.688,9.12,9.12,0,0,1,1.664,1.117,10.347,10.347,0,0,1,1.459,1.5,11.875,11.875,0,0,1,1.2,1.831,13.342,13.342,0,0,1,.889,2.089,14.4,14.4,0,0,1,.548,2.268,15.073,15.073,0,0,1,.185,2.357v324.294a15.073,15.073,0,0,1-.185,2.357,14.386,14.386,0,0,1-.548,2.268,13.342,13.342,0,0,1-.889,2.089,11.875,11.875,0,0,1-1.2,1.831,10.447,10.447,0,0,1-1.459,1.5,9.145,9.145,0,0,1-1.664,1.117,8.187,8.187,0,0,1-1.8.688,7.7,7.7,0,0,1-1.878.232H185.729a7.687,7.687,0,0,1-1.877-.232,8.2,8.2,0,0,1-1.806-.688,9.148,9.148,0,0,1-1.664-1.117,10.5,10.5,0,0,1-1.459-1.5,12.025,12.025,0,0,1-1.2-1.831,13.342,13.342,0,0,1-.889-2.089,14.5,14.5,0,0,1-.548-2.268A15.072,15.072,0,0,1,176.1,6524.253Z" fill="#d5dbe0"/>
    <path id="Trazado_391" data-name="Trazado 391" d="M352.36,6109.152q3.746,0,7.471.367t7.4,1.1q3.673.73,7.256,1.817t7.043,2.52q3.459,1.434,6.762,3.2t6.416,3.846q3.113,2.08,6.008,4.456t5.542,5.023q2.648,2.648,5.023,5.542t4.456,6.008q2.08,3.114,3.846,6.416t3.2,6.762q1.432,3.459,2.52,7.043t1.817,7.256q.73,3.672,1.1,7.4t.367,7.471q0,3.744-.367,7.471t-1.1,7.4q-.73,3.672-1.817,7.256t-2.52,7.043q-1.432,3.459-3.2,6.761t-3.846,6.416q-2.08,3.114-4.456,6.008t-5.023,5.542q-2.647,2.649-5.542,5.024t-6.008,4.455q-3.114,2.082-6.416,3.846t-6.762,3.2q-3.459,1.434-7.043,2.52t-7.256,1.818q-3.672.731-7.4,1.1t-7.471.367q-3.744,0-7.471-.367t-7.4-1.1q-3.672-.73-7.256-1.818t-7.042-2.52q-3.46-1.433-6.762-3.2t-6.416-3.846q-3.114-2.079-6.008-4.455t-5.542-5.024q-2.649-2.648-5.024-5.542t-4.456-6.008q-2.079-3.114-3.845-6.416t-3.2-6.761q-1.433-3.461-2.52-7.043t-1.818-7.256q-.73-3.672-1.1-7.4t-.367-7.471q0-3.746.367-7.471t1.1-7.4q.73-3.673,1.818-7.256t2.52-7.043q1.432-3.459,3.2-6.762t3.845-6.416q2.08-3.112,4.456-6.008t5.024-5.542q2.648-2.648,5.542-5.023t6.008-4.456q3.112-2.081,6.416-3.846t6.762-3.2q3.459-1.433,7.042-2.52t7.256-1.817q3.674-.731,7.4-1.1T352.36,6109.152Z" fill="#5b7637"/>
    <circle id="Elipse_46" data-name="Elipse 46" cx="71.597" cy="71.597" r="71.597" transform="translate(281.384 6114.398)" fill="#fff"/>
    <line id="Línea_17" data-name="Línea 17" x2="310.319" transform="translate(198.128 6318.243)" fill="none" stroke="#707070" stroke-width="2"/>
    <text id="ACCIÓN_POR_EL_CLIMA" data-name="ACCIÓN POR EL CLIMA" transform="translate(352.784 6300.849)" fill="#444242" font-size="18" font-family="Montserrat-Bold, Montserrat" font-weight="700"><tspan x="-108.072" y="0">ACCIÓN POR EL CLIMA</tspan></text>
    <circle id="Elipse_47" data-name="Elipse 47" cx="65.13" cy="65.13" r="65.13" transform="translate(287.851 6120.864)" fill="#5b7637"/>
    <text id="Adoptar_medidas_urgentes_para_combatir_el_cambio_climático_y_sus_efectos_tomando_nota_de_los_acuerdos_celebrados_en_el_foro_de_la_Convención_Marco_de_las_Naciones_Unidas_sobre_el_Cambio_Climático_._" data-name="Adoptar medidas urgentes para combatir el cambio climático y sus efectos (tomando nota de los acuerdos celebrados en el foro de la Convención Marco de las Naciones Unidas sobre el Cambio Climático).



" transform="translate(194.126 6335.813)" fill="#444242" font-size="16" font-family="OpenSans, Open Sans"><tspan x="2.198" y="17">Adoptar medidas urgentes para combatir </tspan><tspan x="35.096" y="39">el cambio climático y sus efectos </tspan><tspan x="39.971" y="61">(tomando nota de los acuerdos </tspan><tspan x="11.924" y="83">celebrados en el foro de la Convención </tspan><tspan x="12.725" y="105">Marco de las Naciones Unidas sobre el </tspan><tspan x="86.491" y="127">Cambio Climático).</tspan><tspan x="156.233" y="149"></tspan></text>
    <g id="Grupo_424" data-name="Grupo 424">
      <path id="Trazado_396" data-name="Trazado 396" d="M347.855,6130.911v27.308h-4.592v-20.9h-.04L340,6140.658h-.042v-4.795l4.23-4.953Z" fill="#fff"/>
      <path id="Trazado_397" data-name="Trazado 397" d="M363,6136.832v2.376a4.369,4.369,0,0,1-3.142,4.431c2.3.523,3.383,2.135,3.383,4.632v4.028c0,3.785-2.012,6.242-6.645,6.242-4.673,0-6.326-2.658-6.326-6.807v-3.585h4.191v3.909c0,1.61.562,2.657,2.135,2.657,1.407,0,2.051-1,2.051-2.457v-4.511c0-1.452-.644-2.215-2.254-2.215H354.46v-3.5h1.733c1.49,0,2.453-.768,2.453-2.216v-2.94c0-1.492-.521-2.456-1.971-2.456s-1.973.964-1.973,2.657v2.779h-4.191v-2.416c0-4.029,1.653-6.847,6.4-6.847,4.231,0,6.084,2.375,6.084,6.243" fill="#fff"/>
    </g>
    <path id="Trazado_402" data-name="Trazado 402" d="M399.387,6197.243a61.979,61.979,0,0,0-99.478,0c-.15.214-.283.4-.389.556.106.16.239.346.389.563a61.984,61.984,0,0,0,99.478,0c.155-.217.283-.4.387-.563-.1-.158-.232-.342-.387-.556M332.9,6184.885c.27-.4,1.17-1.53,1.279-1.674a1.606,1.606,0,0,1,1.013-.415c.317-.063.743.117.794.357a2.8,2.8,0,0,1-.28,1.329,3.478,3.478,0,0,1-2.218,1c-.489-.075-.68-.453-.588-.6m-1.072,2.132c.048-.055.09-.1.109-.127a2.808,2.808,0,0,1,1.648-.6c.522-.089,1.215.174,1.3.519s-1.3.975-1.56,1.211c-.722.667-1.853,2.021-2.513,2.167a.79.79,0,0,1-.542-.057,20.822,20.822,0,0,1,1.559-3.111m11.234,23.048a5.92,5.92,0,0,1-1.285,2.678,4.339,4.339,0,0,1-2.851,1.092c-.951-.071-1.083-2.609-1.083-3.915,0-.451-.639.885-.971-1.831-.213-1.739-1.33.18-1.407-.978s-.639-.927-1.226-1.65-1.311.07-2.127.435-.475.55-1.63.187c-.029-.008-.045-.017-.073-.027a20.854,20.854,0,0,1-1.644-8.139c0-.707.038-1.4.1-2.088a1.427,1.427,0,0,1,.13-.2c1.106-1.307,1.08-1.615,1.08-1.615l1.226-.422a20.392,20.392,0,0,1,3.425.854c1.211.455,3.121,1.483,4.23,1.032.8-.333,1.433-.771,1.356-1.439-.089-.84-.752-1.038-1.55-.474-.294.208-.923-1.264-1.416-1.188s.61,1.729.192,1.8-1.262-1.727-1.4-2.018-.792-1.012-1.376-.461c-1.234,1.173-3.235,1.1-3.639,1.4-1.225.915-1.548-.3-1.52-1.042.049-.17.1-.34.153-.508a2.507,2.507,0,0,1,2.329-.26c.539.363.927-.092,1.138-.313s.139-.56.006-.849.27-.5.549-.578a14.692,14.692,0,0,0,1.586-.945,5.235,5.235,0,0,1,3.176-.018,1.677,1.677,0,0,0,2.085-.419,5.578,5.578,0,0,1,1.518-1.265c.3-.142-.747-1.12-1.609-.053s-1.306,1.161-1.711,1.161-2.821-.6-3.119-1.366.756-1.333,1.647-1.765,3.329-.419,3.952-.56c1.267-.278,2.887-.914,3.7-.359s-3.408,1.508-2.02,2.256c.494.271,2.724-1.285,3.489-1.681,1.8-.928-1.744-1.233-1.284-3.119.519-2.132-4.344-1.307-6.77-1.126a20.907,20.907,0,0,1,31.594,12.728,3.378,3.378,0,0,1-.1.969,1.368,1.368,0,0,1-2.449.189c-.212-.306-1.109-1.153-1.079.295s1.408,1.6.071,2.468a5.194,5.194,0,0,1-2.2.88,2.834,2.834,0,0,0-1.066,2.509c.149.8,2.055,2.977.64,2.888-.33-.025-2.828-1.731-3.241-2.829-.436-1.156-.911-2.285-1.248-3.158a1.249,1.249,0,0,0-1.97-.579c-.744.51.206,1.018-.327,2.108s-.915,2.058-1.7,1.16c-2.041-2.339-5.006-1.186-5.471-3.788-.252-1.411-1.467-1.275-2.482-2.075s-1.591-1.227-1.762-.651c-.152.5,3.2,3.158,3.435,3.838.355,1.011-1,1.9-2,2.141s-1.426-.558-2.4-1.572-1.4-1.739-1.469-.942a4.581,4.581,0,0,0,1.918,3.471c.847.537,1.794.779,1.52,1.648s0,.38-.952,1.317a2.553,2.553,0,0,0-1.061,2.547c.067,1.306-.272,1.383-.477,2.467s-.674.147-1.084,1.74m22.432-8.339c.706-.057,1.761.918,1.348,1.292a1.874,1.874,0,0,1-1.995-.181c-.527-.407.333-1.085.647-1.111m-.888-.643c-.226-.084-.423-.3-.6-.811a.47.47,0,0,1,.683-.6,2.019,2.019,0,0,1,.987,1.2c0,.341-.844.3-1.075.21m-9.228-.036a1.889,1.889,0,0,1-2-.179c-.525-.41.333-1.09.646-1.113.7-.062,1.763.919,1.353,1.292m-8.54,4.152c-.289.47-1.076,3.987-1.6,3.579s.213-4.079.367-4.358c.825-1.515,2.612-1.441,1.236.779m2.842,13.63a20.889,20.889,0,0,1-5.878-.842.863.863,0,0,1-.252-1.022c.647-1.686,2.573-2.347,4.1-2.494,3.391-.331,7.847,2.2,8.556,1.794s2.145-2.273,4.248-2.2a3.291,3.291,0,0,1,1.907.479,20.83,20.83,0,0,1-12.676,4.28m14.749-6.087a3.555,3.555,0,0,1-.657-.242c-1.141-.582-1,.347-1.567.142s.635-1.511-1.052-.411-1.226-.17-1.958-2.03.842-3.988,2.164-4.469a26.292,26.292,0,0,1,3.8-1c2.512-.629,3.043-2.119,3.5-1.212l.246.482a3.327,3.327,0,0,1,.324,1.363,20.961,20.961,0,0,1-4.8,7.377m5.728-10.557c-.56-.154-2.909-3.4-1.054-5.535.309-.353-.62-1.386-.367-1.407a1.7,1.7,0,0,1,1.821,1.461c.021.4.037.8.037,1.213a21.053,21.053,0,0,1-.437,4.268" fill="#fff"/>
  </g>
</svg>
