<svg xmlns="http://www.w3.org/2000/svg" width="349.708" height="364" viewBox="0 0 349.708 364">
  <g id="Grupo_638" data-name="Grupo 638" transform="translate(-547.353 -5718.724)">
    <path id="Trazado_366" data-name="Trazado 366" d="M547.353,6072.83V5807.339a10.062,10.062,0,0,1,1.622-5.5,9.753,9.753,0,0,1,2.655-2.73,9.487,9.487,0,0,1,3.47-1.478,9.409,9.409,0,0,1,1.878-.19H887.436a9.388,9.388,0,0,1,3.684.753,9.571,9.571,0,0,1,1.664.915,9.753,9.753,0,0,1,2.655,2.73,9.987,9.987,0,0,1,.89,1.71,10.154,10.154,0,0,1,.732,3.786V6072.83a10.067,10.067,0,0,1-1.622,5.5,9.766,9.766,0,0,1-2.655,2.729,9.606,9.606,0,0,1-1.664.915,9.4,9.4,0,0,1-3.684.753H556.978a9.4,9.4,0,0,1-3.684-.753,9.57,9.57,0,0,1-1.664-.915,9.766,9.766,0,0,1-2.655-2.729,10.112,10.112,0,0,1-1.622-5.5Z" fill="#d5dbe0"/>
    <path id="Trazado_367" data-name="Trazado 367" d="M725.36,5718.724q3.746,0,7.471.367t7.4,1.1q3.674.729,7.256,1.817t7.043,2.52q3.459,1.433,6.762,3.2t6.416,3.845q3.113,2.081,6.008,4.456t5.542,5.024q2.647,2.648,5.023,5.542t4.456,6.008q2.08,3.112,3.846,6.416t3.2,6.762q1.432,3.459,2.52,7.042t1.817,7.256q.73,3.673,1.1,7.4t.367,7.471q0,3.746-.367,7.471t-1.1,7.4q-.73,3.672-1.817,7.255t-2.52,7.043q-1.433,3.459-3.2,6.762t-3.846,6.416q-2.081,3.113-4.456,6.008t-5.023,5.542q-2.648,2.649-5.542,5.023t-6.008,4.456q-3.114,2.081-6.416,3.846t-6.762,3.2q-3.459,1.432-7.043,2.52t-7.256,1.817q-3.672.73-7.4,1.1t-7.471.367q-3.744,0-7.471-.367t-7.4-1.1q-3.672-.731-7.256-1.817t-7.042-2.52q-3.461-1.434-6.762-3.2t-6.416-3.846q-3.114-2.079-6.008-4.456t-5.542-5.023q-2.649-2.647-5.024-5.542t-4.456-6.008q-2.079-3.114-3.845-6.416t-3.2-6.762q-1.432-3.458-2.52-7.043t-1.818-7.255q-.73-3.673-1.1-7.4t-.367-7.471q0-3.743.367-7.471t1.1-7.4q.73-3.672,1.818-7.256t2.52-7.042q1.433-3.46,3.2-6.762t3.845-6.416q2.08-3.114,4.456-6.008t5.024-5.542q2.648-2.648,5.542-5.024t6.008-4.456q3.113-2.079,6.416-3.845t6.762-3.2q3.459-1.434,7.042-2.52t7.256-1.817q3.674-.732,7.4-1.1T725.36,5718.724Z" fill="#dea025"/>
    <circle id="Elipse_38" data-name="Elipse 38" cx="71.597" cy="71.597" r="71.597" transform="translate(654.384 5723.97)" fill="#fff"/>
    <line id="Línea_13" data-name="Línea 13" x2="310.319" transform="translate(571.128 5927.815)" fill="none" stroke="#707070" stroke-width="2"/>
    <text id="CIUDADES_Y_COMUNIDADES_SOSTENIBLES" data-name="CIUDADES Y 
COMUNIDADES SOSTENIBLES" transform="translate(725.784 5899.053)" fill="#444242" font-size="18" font-family="Montserrat-Bold, Montserrat" font-weight="700"><tspan x="-61.272" y="0">CIUDADES Y </tspan><tspan x="-140.886" y="21.6">COMUNIDADES SOSTENIBLES</tspan></text>
    <circle id="Elipse_39" data-name="Elipse 39" cx="65.13" cy="65.13" r="65.13" transform="translate(660.851 5730.436)" fill="#dea025"/>
    <text id="Lograr_que_las_ciudades_y_los_asentamientos_humanos_sean_inclusivos_seguros_resilientes_y_sostenibles._" data-name="Lograr que las ciudades y los asentamientos humanos sean inclusivos, seguros, resilientes y sostenibles.




" transform="translate(567.126 5945.384)" fill="#444242" font-size="16" font-family="OpenSans, Open Sans"><tspan x="49.061" y="17">Lograr que las ciudades y los </tspan><tspan x="3.659" y="39">asentamientos humanos sean inclusivos, </tspan><tspan x="32.577" y="61">seguros, resilientes y sostenibles.</tspan><tspan x="156.233" y="83"></tspan><tspan x="156.233" y="105"></tspan></text>
    <g id="Grupo_420" data-name="Grupo 420">
      <path id="Trazado_372" data-name="Trazado 372" d="M713.5,5748.32v4.794h.039l3.224-3.345h.04v20.916H721.4v-27.322h-3.669Z" fill="#fff"/>
      <path id="Trazado_373" data-name="Trazado 373" d="M723.975,5748.32v4.794h.039l3.226-3.345h.038v20.916h4.6v-27.322h-3.666Z" fill="#fff"/>
    </g>
    <g id="Grupo_423" data-name="Grupo 423">
      <path id="Trazado_380" data-name="Trazado 380" d="M686.392,5820.787h17.9a.437.437,0,0,0,.325-.732l-.025-.026-8.907-11.523-.088-.1a.433.433,0,0,0-.324-.142.443.443,0,0,0-.287.112l-.055.062-.082.1-8.689,11.4-.134.164a.425.425,0,0,0-.075.245.44.44,0,0,0,.44.44" fill="#fff"/>
      <path id="Trazado_381" data-name="Trazado 381" d="M704.239,5822.412H686.3a.439.439,0,0,0-.439.439v14.038a.441.441,0,0,0,.439.44h5.774V5828.5a.437.437,0,0,1,.439-.44h5.359a.438.438,0,0,1,.438.44v8.832h5.927a.441.441,0,0,0,.439-.44v-14.038a.439.439,0,0,0-.439-.439" fill="#fff"/>
      <path id="Trazado_382" data-name="Trazado 382" d="M766.229,5818.737H748.475a.427.427,0,0,0-.433.422v17.926a.429.429,0,0,0,.433.423h17.754a.429.429,0,0,0,.434-.423v-17.926a.427.427,0,0,0-.434-.422m-9.714,11.7a.429.429,0,0,1-.433.424h-5.3a.429.429,0,0,1-.436-.424v-3.223a.427.427,0,0,1,.436-.423h5.3a.427.427,0,0,1,.433.423Zm0-5.957a.429.429,0,0,1-.433.424h-5.3a.429.429,0,0,1-.436-.424v-3.225a.428.428,0,0,1,.436-.421h5.3a.428.428,0,0,1,.433.421Zm8.106,5.957a.428.428,0,0,1-.434.424h-5.3a.429.429,0,0,1-.436-.424v-3.223a.428.428,0,0,1,.436-.423h5.3a.427.427,0,0,1,.434.423Zm0-5.957a.428.428,0,0,1-.434.424h-5.3a.429.429,0,0,1-.436-.424v-3.225a.428.428,0,0,1,.436-.421h5.3a.427.427,0,0,1,.434.421Z" fill="#fff"/>
      <path id="Trazado_383" data-name="Trazado 383" d="M724.962,5777.127H707.589a.425.425,0,0,0-.424.426v59.373a.427.427,0,0,0,.424.426h17.373a.431.431,0,0,0,.428-.426v-59.373a.429.429,0,0,0-.428-.426m-10.334,53.46a.229.229,0,0,1-.228.229h-3.979a.229.229,0,0,1-.228-.229v-4.432a.226.226,0,0,1,.228-.227H714.4a.227.227,0,0,1,.228.227Zm0-10.181a.226.226,0,0,1-.228.227h-3.979a.226.226,0,0,1-.228-.227v-4.43a.227.227,0,0,1,.228-.229H714.4a.228.228,0,0,1,.228.229Zm0-10.178a.229.229,0,0,1-.228.228h-3.979a.229.229,0,0,1-.228-.228v-4.435a.229.229,0,0,1,.228-.228H714.4a.229.229,0,0,1,.228.228Zm0-10.182a.229.229,0,0,1-.228.229h-3.979a.229.229,0,0,1-.228-.229v-4.435a.225.225,0,0,1,.228-.223H714.4a.225.225,0,0,1,.228.223Zm0-10.178a.229.229,0,0,1-.228.226h-3.979a.228.228,0,0,1-.228-.226v-4.435a.228.228,0,0,1,.228-.228H714.4a.229.229,0,0,1,.228.228Zm7.8,40.719a.229.229,0,0,1-.23.229h-3.977a.227.227,0,0,1-.227-.229v-4.432a.225.225,0,0,1,.227-.227H722.2a.227.227,0,0,1,.23.227Zm0-10.181a.226.226,0,0,1-.23.227h-3.977a.224.224,0,0,1-.227-.227v-4.43a.225.225,0,0,1,.227-.229H722.2a.227.227,0,0,1,.23.229Zm0-10.178a.229.229,0,0,1-.23.228h-3.977a.227.227,0,0,1-.227-.228v-4.435a.227.227,0,0,1,.227-.228H722.2a.229.229,0,0,1,.23.228Zm0-10.182a.229.229,0,0,1-.23.229h-3.977a.227.227,0,0,1-.227-.229v-4.435a.223.223,0,0,1,.227-.223H722.2a.225.225,0,0,1,.23.223Zm0-10.178a.229.229,0,0,1-.23.226h-3.977a.227.227,0,0,1-.227-.226v-4.435a.226.226,0,0,1,.227-.228H722.2a.228.228,0,0,1,.23.228Z" fill="#fff"/>
      <path id="Rectángulo_82" data-name="Rectángulo 82" d="M.358,0H18.225a.357.357,0,0,1,.357.357V3.931a.358.358,0,0,1-.358.358H.358A.358.358,0,0,1,0,3.931V.358A.358.358,0,0,1,.358,0Z" transform="translate(748.062 5813.003)" fill="#fff"/>
      <path id="Trazado_384" data-name="Trazado 384" d="M745.946,5788.339a.455.455,0,0,0-.435-.332.448.448,0,0,0-.249.083.2.2,0,0,0-.033.022l-.147.184-17.074,21.66-.08.1a.5.5,0,0,0-.147.339v26.616a.425.425,0,0,0,.426.424h17.356a.424.424,0,0,0,.424-.424v-48.5a.425.425,0,0,0-.041-.179m-7.188,11.764.121-.154c1.17-1.5,3.138-3.923,4.1-5.1l.126-.151a.493.493,0,0,1,.382-.18.488.488,0,0,1,.474.4v5.479a.488.488,0,0,1-.473.488c-.007,0-.014.005-.021.005s-.015-.005-.021-.005h-4.267c-.009,0-.015.005-.022.005s-.013-.005-.022-.005a.488.488,0,0,1-.472-.488.5.5,0,0,1,.1-.292m-2.7,30.334a.421.421,0,0,1-.423.424h-5.179a.423.423,0,0,1-.424-.424V5827.2a.424.424,0,0,1,.424-.424h5.179a.422.422,0,0,1,.423.424Zm0-5.988a.421.421,0,0,1-.423.424h-5.179a.423.423,0,0,1-.424-.424v-3.241a.422.422,0,0,1,.424-.425h5.179a.421.421,0,0,1,.423.425Zm0-5.989a.422.422,0,0,1-.423.423h-5.179a.423.423,0,0,1-.424-.423v-3.241a.424.424,0,0,1,.424-.426h5.179a.423.423,0,0,1,.423.426Zm.016-13.123v7.139a.426.426,0,0,1-.426.424H730.47a.425.425,0,0,1-.428-.424v-.9a.516.516,0,0,1,.032-.159.408.408,0,0,1,.026-.049c.01-.02.026-.039.037-.057l.049-.07c.661-.946,3.649-4.625,4.9-6.164l.125-.151a.486.486,0,0,1,.856.217Zm7.9,25.1a.425.425,0,0,1-.425.424h-5.177a.425.425,0,0,1-.427-.424V5827.2a.425.425,0,0,1,.427-.424h5.177a.426.426,0,0,1,.425.424Zm0-5.988a.425.425,0,0,1-.425.424h-5.177a.425.425,0,0,1-.427-.424v-3.241a.424.424,0,0,1,.427-.425h5.177a.425.425,0,0,1,.425.425Zm0-5.989a.425.425,0,0,1-.425.423h-5.177a.425.425,0,0,1-.427-.423v-3.241a.426.426,0,0,1,.427-.426h5.177a.426.426,0,0,1,.425.426Zm0-5.99a.426.426,0,0,1-.425.425h-5.177a.426.426,0,0,1-.427-.425v-3.24a.426.426,0,0,1,.427-.426h5.177a.426.426,0,0,1,.425.426Zm0-5.989a.426.426,0,0,1-.425.425h-5.177a.426.426,0,0,1-.427-.425v-3.241a.425.425,0,0,1,.427-.426h5.177a.426.426,0,0,1,.425.426Z" fill="#fff"/>
    </g>
  </g>
</svg>
