<svg xmlns="http://www.w3.org/2000/svg" xmlns:xlink="http://www.w3.org/1999/xlink" width="519.087" height="613.254" viewBox="0 0 519.087 613.254">
  <defs>
    <filter id="Trazado_1" x="0" y="0" width="519.087" height="613.254" filterUnits="userSpaceOnUse">
      <feOffset dx="7.087" dy="7" input="SourceAlpha"/>
      <feGaussianBlur stdDeviation="2.5" result="blur"/>
      <feFlood flood-color="#4c4c4c" flood-opacity="0.4"/>
      <feComposite operator="in" in2="blur"/>
      <feComposite in="SourceGraphic"/>
    </filter>
  </defs>
  <g id="Grupo_627" data-name="Grupo 627" transform="translate(-196.639 -3406.316)">
    <g transform="matrix(1, 0, 0, 1, 196.64, 3406.32)" filter="url(#Trazado_1)">
      <path id="Trazado_1-2" data-name="Trazado 1" d="M198.052,3983.391V3428.5a30.6,30.6,0,0,1,.265-4.035,28.578,28.578,0,0,1,.787-3.879,25.15,25.15,0,0,1,1.277-3.575,21.075,21.075,0,0,1,1.718-3.134,16.926,16.926,0,0,1,2.094-2.571,13.308,13.308,0,0,1,2.389-1.912,10.754,10.754,0,0,1,2.593-1.176,9.394,9.394,0,0,1,2.7-.4H686.32a9.394,9.394,0,0,1,2.7.4,10.754,10.754,0,0,1,2.593,1.176A13.307,13.307,0,0,1,694,3411.3a16.922,16.922,0,0,1,2.094,2.571,21.164,21.164,0,0,1,1.718,3.134,25.267,25.267,0,0,1,1.277,3.575,28.575,28.575,0,0,1,.787,3.879,30.6,30.6,0,0,1,.265,4.035v554.9a30.594,30.594,0,0,1-.265,4.034,28.575,28.575,0,0,1-.787,3.879,25.267,25.267,0,0,1-1.277,3.575,21.164,21.164,0,0,1-1.718,3.134,16.98,16.98,0,0,1-2.094,2.572,13.333,13.333,0,0,1-2.389,1.911,10.764,10.764,0,0,1-2.593,1.176,9.4,9.4,0,0,1-2.7.4H211.871a9.4,9.4,0,0,1-2.7-.4,10.765,10.765,0,0,1-2.593-1.176,13.334,13.334,0,0,1-2.389-1.911,16.983,16.983,0,0,1-2.094-2.572,21.075,21.075,0,0,1-1.718-3.134,25.15,25.15,0,0,1-1.277-3.575,28.578,28.578,0,0,1-.787-3.879A30.594,30.594,0,0,1,198.052,3983.391Z" transform="translate(-196.64 -3406.32)" fill="#fff" stroke="#b2b2b2" stroke-miterlimit="10" stroke-width="2"/>
    </g>
    <text id="A_través_del_análisis_de_las_políticas_públicas_es_posible_en_efecto_dar_cuenta_empíricamente_del_tipo_de_estado_de_su_evolución_y_transformación_y_cómo_las_políticas_aprobadas_e_implementadas_por_el_estado_reflejan_la_distribución_del_poder._Oszlak_y_O" data-name="A través del análisis de las políticas públicas es posible en efecto dar cuenta empíricamente del tipo de estado, de su evolución y transformación, y cómo las políticas aprobadas e implementadas por el estado reflejan la distribución del poder. (Oszlak y O" transform="translate(220.017 3516.809)" fill="#444242" font-size="16" font-family="OpenSans, Open Sans"><tspan x="0" y="17">A través del análisis de las políticas públicas es posible en </tspan><tspan x="0" y="39">efecto dar cuenta empíricamente del tipo de estado, de su </tspan><tspan x="0" y="61">evolución y transformación, y cómo las políticas aprobadas e </tspan><tspan x="0" y="83">implementadas por el estado reflejan la distribución del </tspan><tspan x="0" y="105">poder. (Oszlak y O´donnell, 1982), definen: “política estatal </tspan><tspan x="0" y="127">(o ‘pública’), en nuestra definición la concebimos como un </tspan><tspan x="0" y="149">conjunto de acciones y omisiones que manifiestan una </tspan><tspan x="0" y="171">determinada modalidad de intervención del estado en </tspan><tspan x="0" y="193">relación con una cuestión que concita la atención, interés o </tspan><tspan x="0" y="215">movilización de otros actores en la sociedad civil. De dicha </tspan><tspan x="0" y="237">intervención puede inferirse una cierta direccionalidad, una </tspan><tspan x="0" y="259">determinada orientación normativa, que previsiblemente </tspan><tspan x="0" y="281">afectará el futuro curso del proceso social, hasta entonces </tspan><tspan x="0" y="303">desarrollado en torno a la cuestión”.</tspan><tspan x="0" y="325"></tspan><tspan x="0" y="347"></tspan><tspan x="0" y="369"></tspan></text>
    <text id="Nivel_nacional" data-name="Nivel nacional" transform="translate(306.673 3494.797)" fill="#414651" font-size="20" font-family="Montserrat-Bold, Montserrat" font-weight="700"><tspan x="0" y="0">Nivel nacional</tspan></text>
    <g id="Grupo_60" data-name="Grupo 60">
      <g id="Grupo_56" data-name="Grupo 56">
        <g id="Grupo_55" data-name="Grupo 55">
          <g id="Grupo_46" data-name="Grupo 46">
            <path id="Trazado_44" data-name="Trazado 44" d="M267.115,3435.612a27.492,27.492,0,1,0,0,38.879A27.492,27.492,0,0,0,267.115,3435.612Zm-3.189,35.691a22.982,22.982,0,1,1,0-32.5A22.983,22.983,0,0,1,263.926,3471.3Z" fill="#ccdcea"/>
          </g>
          <g id="Grupo_47" data-name="Grupo 47">
            <path id="Trazado_45" data-name="Trazado 45" d="M289.043,3491.188a2.807,2.807,0,0,1,.288,3.9l-2.644,2.645a2.807,2.807,0,0,1-3.9-.289l-10.061-10.061a2.734,2.734,0,0,1-.236-3.846l2.645-2.645a2.736,2.736,0,0,1,3.847.235Z" fill="#db9600"/>
          </g>
          <g id="Grupo_48" data-name="Grupo 48">
            <path id="Trazado_46" data-name="Trazado 46" d="M246.528,3481.523a28.592,28.592,0,1,1,20.234-8.368A28.514,28.514,0,0,1,246.528,3481.523Zm0-54.97a26.368,26.368,0,1,0,18.645,7.723A26.2,26.2,0,0,0,246.528,3426.553Z" fill="#414651"/>
          </g>
          <g id="Grupo_49" data-name="Grupo 49">
            <path id="Trazado_47" data-name="Trazado 47" d="M246.528,3476.608a23.687,23.687,0,1,1,16.757-6.93A23.623,23.623,0,0,1,246.528,3476.608Zm0-46.026a22.339,22.339,0,1,0,15.8,6.536A22.274,22.274,0,0,0,246.528,3430.582Z" fill="#414651"/>
          </g>
          <g id="Grupo_50" data-name="Grupo 50">
            <path id="Trazado_48" data-name="Trazado 48" d="M272.436,3482.17l-8.162-8.163,5.234-5.234,8.162,8.162Zm-6.54-8.163,6.54,6.541,3.612-3.613-6.54-6.54Z" fill="#414651"/>
          </g>
          <g id="Grupo_51" data-name="Grupo 51">
            <path id="Trazado_49" data-name="Trazado 49" d="M285.283,3495.893c-.051,0-.1,0-.152,0a3.564,3.564,0,0,1-2.365-1.046L272.7,3484.782a3.436,3.436,0,0,1-1.02-2.347,3.143,3.143,0,0,1,.917-2.329l2.84-2.84a3.146,3.146,0,0,1,2.33-.918,3.439,3.439,0,0,1,2.347,1.02l10.062,10.061a3.559,3.559,0,0,1,1.045,2.365,3.1,3.1,0,0,1-.89,2.365L287.5,3495A3.086,3.086,0,0,1,285.283,3495.893Zm-7.6-18.559a2.162,2.162,0,0,0-1.546.629l-2.84,2.84a2.164,2.164,0,0,0-.629,1.607,2.455,2.455,0,0,0,.731,1.675l10.061,10.061a2.606,2.606,0,0,0,1.711.758,2.141,2.141,0,0,0,1.625-.6l2.839-2.84a2.133,2.133,0,0,0,.6-1.625,2.6,2.6,0,0,0-.758-1.71l-10.061-10.062a2.458,2.458,0,0,0-1.675-.731Z" fill="#414651"/>
          </g>
          <g id="Grupo_52" data-name="Grupo 52">
            <path id="Trazado_50" data-name="Trazado 50" d="M285.284,3496.3c-.057,0-.114,0-.171,0a3.962,3.962,0,0,1-2.634-1.165l-10.061-10.061a3.842,3.842,0,0,1-1.139-2.623,3.553,3.553,0,0,1,1.036-2.627l2.841-2.84a3.545,3.545,0,0,1,2.627-1.036,3.837,3.837,0,0,1,2.623,1.138l10.061,10.061a3.964,3.964,0,0,1,1.165,2.635,3.506,3.506,0,0,1-1.01,2.669l-2.839,2.84A3.491,3.491,0,0,1,285.284,3496.3Zm-7.6-18.56a1.757,1.757,0,0,0-1.259.511l-2.841,2.84a1.768,1.768,0,0,0-.51,1.31,2.051,2.051,0,0,0,.613,1.4l10.061,10.061a2.2,2.2,0,0,0,1.441.64,1.731,1.731,0,0,0,1.321-.484l2.84-2.84a1.734,1.734,0,0,0,.484-1.321,2.2,2.2,0,0,0-.64-1.441l-10.061-10.061a2.051,2.051,0,0,0-1.4-.612Z" fill="#414651"/>
          </g>
          <g id="Grupo_53" data-name="Grupo 53">
            <path id="Trazado_51" data-name="Trazado 51" d="M284.75,3492.76a.5.5,0,0,1-.349-.144l-9.437-9.437a.493.493,0,0,1,.7-.7l9.437,9.437a.493.493,0,0,1-.349.841Z" fill="#414651"/>
          </g>
          <g id="Grupo_54" data-name="Grupo 54">
            <path id="CO-AMA" d="M242.23,3465.21l.087-.021.05-.016.328-.112.4-.13.31-.1.177-.051.209.012.137,0,.057.028.172.1.111.159.231.025.249-.007h.161l.172.124.047.033.091.039.283-.022.04-.069.024-.052.078-.077h.092l.058.032.062.072.032.061.07.018.067,0,.078,0,.062-.017.075-.073.126-.017.076.087.094.1.225.129.075,0,.047-.085.209-.211.1-.008.029.082.189.087h.055l.062-.028.08-.064-.008-.135.018-.049.045-.117.043-.081.03-.045.052-.054.338-.31.066-.03h.07l.068.013.148.038.11.006.094-.064.049-.071.035-.056.023-.046.032-.059.028-.05.046-.056.211-.165.251-.254.1-.111.031-.069-.014-.095.047-.037.186.008.117.055.06.044.523.3.252.076.1-.038.128.129.064.114.1.443.1.155.185-.072.043-.077.639.2.1.1.037.055.081.072.169.053.09-.019-.045-.071.152-.108.124.062.043.054-.092.323,0,.282-.082.124,0,.092.064.052.058.058.021.1-.067.049-.087.049-.016.052.019.057.032.05.311.235.071.006.051-.021.043-.045.019-.056-.037-.036-.073-.017-.036-.039,0-.049.04-.051.083-.052.358-.022.012.088-.068.186.018.049.083.014.05-.018.175-.077.26-.059.2.164,0,.053.048.207.413-.053-.009-.184.062-.128.027.055.049.217.055.274.029.22-.031.1-.156.346-.177.929-.181.95-.034.18-.046.229-.024.126-.4,2.119-.224,1.2-.156.7-.034.058v-.066l-.082-.08-.082-.053-.05-.031-.208-.164-.033-.052-.02-.045-.021-.062-.026-.075-.048-.09-.134-.159-.224-.172-.047-.022-.052,0-.112.035-.044.032-.141.082-.054.022h-.069l-.2-.071-.3-.12.132-.2.113-.165.156-.229.3-.441.088-.131.873-1.292-.079-.137-.056.008-.187-.138-.036-.083-.025-.093-.194-.166-.1-.021-.051.013-.056.033-.472-.044-.045-.022-.17-.2-.021-.1-.509-.318-.3.127-.316.08-.22.116-.44-.032-.127-.157-.274-.113-.143.006-.247-.028-.025-.069,0-.071-.025-.045-.073.027-.219.172-.159.214-.047.137-.106,0-.128-.022-.222.091-.4.218-.182-.017-.071-.021-.312-.1-.353-.082-.236.078-.332.12-.17.039-.052-.126-.081-.128-.1,0-.07.021-.18-.094-.078-.058-.027-.044-.041-.2.077-.033.059-.076.05-.131-.081-.532-.108-.178-.163-.1-.105.093-.147.068-.3-.137-.187-.119-.043-.044.052-.225.025-.043.076-.063-.076-.138-.109-.141-.058-.061-.011-.075-.021-.147-.248-.217-.15-.013-.1.026-.224-.06-.069-.135-.531-.325-.348-.091-.064-.052-.037-.063-.069-.135.047-.075.041-.108-.107-.105-.066-.067-.058-.18-.048-.176Z" fill="#9b9b9b"/>
            <path id="CO-ANT" d="M241.493,3450l-.073-.011-.388.107-.327.035-.119.027-.064.08-.044.059-.245.163-.078-.034-.085-.062-.082-.073-.052-.021-.272-.019-.4-.112-.1-.03-.084-.012,0,.069.037.224.01.175-.042.031-.161-.015-.113-.011-.142.017-.069.017-.188.095-.052.006-.215,0-.036-.02-.1-.085-.054-.057-.118-.145-.022-.06.045-.095.007-.074-.015-.069-.038-.09-.038-.067-.027-.063-.011-.058.011-.057.039-.07.013-.184-.146-.027-.051-.017-.046-.038-.037-.1-.009-.073,0-.077-.012-.167-.037-.04-.116-.059-.059-.009-.587.1-.073.022-.056.006-.265-.011-.208-.278-.018-.056v-.261l-.017-.09-.226-.454-.054-.048-.129-.079-.024-.316.14-.045.1.007.091.031.119-.094.005-.089-.032-.082-.046-.1.041-.059.36-.013.181.036.086.04.051.014.047-.025.072-.41-.025-.1-.035-.079-.037-.054-.127-.164-.1-.025-.055-.027-.154-.117-.465-.451-.054-.053-.05-.051-.152-.165-.079-.093-.188-.04-.035-.222.092-.026.058-.035.055-.056.037-.089.014-.085.027-.128.032-.044.145-.1.067-.019.086-.024.075-.113.012.01,0,.1-.01.145-.085-.02-.058-.029-.06.037-.027.111.009.12.132.064.139.01.149-.034.034-.04.032-.25-.018-.124-.036-.258-.031-.347-.021-.17-.122-.172-.138-.095-.131-.038v-.075l.11-.13.169-.029.365-.1.611-.484.015-.073.043.032.026.043.017.047.005.049v.088l.008.064.013.075.035.118.035.062.037.045.048.043.057.034.074.036.066.025.09.043.037.042.012.062,0,.1,0,.079-.012.08-.021.063-.039.063-.046.051-.073.069-.05.033-.12.117-.063.07-.061.12-.029.083-.019.083-.022.126-.009.066-.005.122-.029.094-.1.091-.06.056-.048.078-.023.25v.085l0,.054.021.126.021.088.02.067.038.065.1.14.238.294.087.014.075,0,.056-.006.173-.006.494,0h.124l.183.009.079-.019.424-.5.033-.179.074-.119.031-.043.064-.06.079-.013.055.028.08.067.053.016.042-.036.027-.115.051-.135.062-.02.083-.026.068-.031.057-.075.018-.048.029-.068.281-.254.07-.018.15.006.134.01h.143l.07,0,.062-.017.053-.024.05-.036.039-.044.03-.043.079-.108.077-.079.128.1.137.11.049.035.1.065.133.076.068.04.05.037.059.061.023.046.013.059v.232l.011.117.054.063-.059.266-.169.4v.056l.026.044.037.043.205.2.133-.1.032-.047.058-.114.054-.067.05-.031.048.019.031.061.007.084-.03.046-.057.065-.048.087-.013.058-.017.231.008.071.147.415.09.013h.074l.1-.023.268-.22.078-.067.118-.112.143-.136.137-.132-.013.044-.013.072v.049l.03.255.033.061.047.054.028.1,0,.061-.114.1-.115.049-.086.044-.13.132-.066.1-.048.08-.04.037-.078.059-.3.221-.166.074-.08,0-.091.108-.024.083.02.206.064.1-.021.05-.239.253-.06.042-.1.041-.031.034-.037.047-.069.2v.1l.01.3-.043.041-.086.295Z" fill="#9b9b9b"/>
            <path id="CO-ARA" d="M253.687,3449.363l-.154-.09-.421-.322-.152-.131-.2-.083-.451-.009-.13.04-.134.072-.047.02-.068.027-.371.023h-.154l-.35-.01-.17-.01-.1-.01-.512-.106-.071-.027-.141.035-.081.031-.066.037-.418.114-.051,0h-.191l-.073-.054-.338.018-.548.109-.1.064-.046.038-.184.1h-.053l-.1-.021-.215-.092-.205-.257-.023-.086-.005-.058.014-.1.211-.227.253-.123.063-.051.02-.073.006-.067.144-.318.116-.194.018-.051.008-.048.013-.08.006-.079.021-.071.035-.062.116-.166.127.055h.111l.072-.038.259-.1.143-.035.112.006.122.031.164.04.062.013.333,0,.177.085.205.057.4-.05.049-.02.088-.038.158-.1.055-.065.073-.018.1-.012.252-.025.423.095.281.114.141.068.064.046.042.028.051.018.074.016.082-.018.048-.037.054-.031.161-.021.1.017,1,1.178.747.886-.1.077-.069.033-.134.044-.1.008-.148,0-.145-.015-.157-.016-.077.013-.085.035Z" fill="#9b9b9b"/>
            <path id="CO-ATL" d="M240.019,3437.835l.054-.013.464-.244.019-.073.022-.075.258-.25.135-.124.017-.014v.014l.049.118.081.049.06.054.033.052.135.238.007.334,0,.159-.014.25-.023.106-.117.073-.054.049-.046.056-.137.3-.107.246-.193-.156-.3-.173-.31-.214-.021-.1.019-.079.014-.062,0-.07-.015-.08-.048-.137.064-.056-.023-.08-.038.039.005-.084Z" fill="#9b9b9b"/>
            <path id="CO-BOL" d="M243.705,3444.252l-.067.038-.1.084-.038.089-.013.054v.081l0,.074.074.236.046.09.039.189-.048.39-.1.158-.1.228-.046.373-.137.131-.143.137-.117.111-.078.067-.268.221-.1.023h-.074l-.09-.013-.146-.415-.009-.071.017-.231.012-.058.048-.088.057-.064.031-.047-.007-.084-.031-.061-.048-.018-.05.031-.055.067-.058.114-.031.047-.134.1-.2-.2-.038-.043-.025-.043v-.057l.17-.4.059-.267-.054-.063-.012-.116,0-.181,0-.052-.013-.059-.023-.045-.058-.062-.05-.036-.068-.041-.133-.075-.1-.066-.049-.035-.137-.109-.127-.1.11-.05.04-.043.022-.085.022-.016.071-.024.094-.016.122-.015.057-.065.1-.2.068-.176-.036-.057-.038-.111-.022-.093v-.438l.094-.077-.136-.29-.081-.123-.073-.064-.146-.1-.066-.036-.049-.019-.052-.018-.149-.09-.1-.121-.085-.161-.042-.094-.011-.068.007-.057.02-.131,0-.066-.009-.056-.041-.057-.063-.071-.046-.05-.653-.512-.193-.132,0-.051-.008-.174-.023-.063-.112-.046-.232-.273-.124-.271-.106.025-.043.018.028-.111.1-.117.006-.132-.039-.44.157-.07,0-.108-.044-.144.071-.1.17-.16.305-.16.068.007.024.036.048.138.015.08-.005.07-.014.061-.019.079.021.1.311.214.3.173.194.156-.084.265.024.076.118.053.093.024.136.181-.018.094-.081.046-.075.032-.024.063.008.151.006.052.119.372.025.043.062.256-.028.166,0,.115.151.063.053-.006.056-.007.16.1.172.177.254.1.085,0,.233.1.108.064.191.163.065.1.138.131.356.111.2.039.129,0-.016.164.042.084.064.056.036.3-.016.192.073.14.032.05.064.207.027.236-.014.268Zm-3.7-6.285-.045-.017.011-.112.051,0-.012.048Z" fill="#9b9b9b"/>
            <path id="CO-BOY" d="M246.934,3447.309h.154l.169-.005.06-.019.074-.063.036-.065.041-.08.254-.138.052-.018.066.006.084.021.071,0,.049-.021.049-.038.155.11.166.016-.116.166-.035.062-.021.071-.006.079-.013.08-.008.048-.018.051-.116.194-.144.318-.006.067-.02.073-.063.051-.253.123-.211.227-.021.014-.075.07-.038.061-.019.062-.006.067-.015.3.128.131-.072.286-.035.037-.041.164.274.112.119.193,0,.057-.111.259-.2.08-.047-.027-.052.019-.039.035-.047.063-.046.066-.068.092-.046.053-.331.227-.247.032-.077-.082-.127-.089-.32.378-.068.183.025.049.128.111.027.054-.008.047-.072.077-.077.042-.086.018-.065.051-.044.07-.083.261-.015.061.008.048.081.129-.107.17-.11.014-.128-.021-.057-.03-.035-.045-.081-.1-.157-.1-.06-.028-.052-.017-.077-.028-.061-.025-.075-.044-.148-.094-.085-.077-.019-.069.044-.159.04-.061.092-.093-.044-.238-.049-.095-.048-.082-.11-.333-.175-.2-.179-.044-.2-.185-.105.022-.122.082-.034.087-.005.07-.11.111-.052.047-.048.022-.087.033-.059,0-.329-.233-.169-.056-.215-.26-.026-.09.072-.077.048-.061-.042-.231-.067-.072-.1.074-.144.065-.1-.016-.112-.032-.309.062-.045.036v-.035l-.046-.048.035-.171.086-.295.043-.041-.01-.3v-.1l.069-.2.037-.047.031-.034.085.095.133.206.1.139.087.076.072.02.048-.02.046-.024.066-.02.065.023.116.236.229.2.274.146.043.039.047.119.05.039.3-.071.333-.036.08.061.077.048.061-.039.043-.139.01-.05.048-.277.15-.346.078-.1.3.149.049.043.024.056.005.065-.006.053-.019.065-.067.121-.01.06.016.1.038.069.055.04.085.023.076-.008.141-.063.043-.044.011-.058-.032-.083.011-.072.04-.042.069-.032.054-.014.072-.008.069.013.159.024.185-.173.469-.552.067-.118.038-.1-.006-.122-.04-.069-.04-.06-.017-.084,0-.242.074-.011.145.085.033.069.047.16.132,0,.059-.012.049-.028.041-.047.029-.055.117-.322.015-.064.005-.071-.029-.353-.025-.074Z" fill="#9b9b9b"/>
            <path id="CO-CAU" d="M237.938,3461.338l-.028.06-.262.092-.071.015-.323,0-.083-.011-.057-.017-.285-.113-.062-.065-.067-.131.032-.233.016-.047.025-.042.027-.052,0-.049-.028-.067-.1-.181-.068-.058-.109-.009-.074.042-.067.1-.092.069-.073.017-.177.032.068-.115.055-.419-.007-.063-.053-.072-.478-.281-.051.006-.1.033-.055.012-.352.025h-.1l-.078-.009.025-.321.029-.042.075-.075.058-.027.058-.082.022-.058-.066-.058-.107-.09-.207-.241-.111-.178-.04-.054-.047-.023-.269.029-.118,0h-.052l-.136-.018-.072-.016-.052-.016-.067-.034-.1-.083-.031-.051-.1-.2-.088-.148-.146-.208-.069-.082-.031-.052-.026-.058-.006-.044.009-.1.086.111.016.063.091.044.186-.023.107-.1-.048-.077-.042-.273.169-.264.375-.44.047-.022.329-.482.023-.066.086.093.112.155.4.278.454.04.057-.078.148.068.15.159.337-.162.228-.13.113-.012.308-.13.058-.1-.007-.1-.042-.053.057-.094.12-.013.215.038.092.046.064.037.078.042.107.045.091.031.107.014,0,.041-.012.08-.005.058.029.047.071.1.075.125.036.076.035.046.159.446.127.263.068.1.037.063.106.256.028.072.009.051-.19.047-.049-.013-.121-.1-.111-.067-.11-.034-.082.046-.052.068-.075.1-.048.04-.063.026-.075.01-.124-.032-.054-.005-.059.03-.247.266-.007.048.046.132.025.056.027.054.021.079v.072l-.038.031-.069.018-.1-.006-.1-.033-.075-.039-.084-.037-.083-.017-.109.024-.074.049,0,.123.036.374.05.055.057,0,.085,0,.116.049.111.148.014.074-.009.088-.011.084.027.057.185.167.265.158.053.018.063,0,.122-.027v.1l-.121.243-.086.149-.086.079-.014.075.046.248.148.092.15.05.066.034Z" fill="#9b9b9b"/>
            <path id="CO-CES" d="M243.705,3444.252l.069-.286.014-.267-.027-.237-.064-.207-.032-.05-.072-.14.015-.192-.035-.3-.064-.057-.042-.084.016-.164.024-.039.086-.119.053-.09-.053-.08-.076-.076-.075-.063-.132-.273-.022-.072-.051-.081-.119-.177-.033-.047-.075-.064-.082-.031-.053-.046.16-.207.072-.037.269.014.336-.019-.138-.374-.3-.4-.291-.367.062-.224.023-.063.239-.391.137-.072.052-.016.338-.121.5-.228-.031-.085-.1-.089-.019-.066,0-.049.007-.051.035-.055.051-.116-.091-.1-.1-.1-.034-.049-.012-.073.017-.054.048-.06.043.065.044.043.073.019.064.005.225,0h.2l.118-.005.076.012.088.051.423.432.037.092-.028.165-.031.063-.079.033-.14.168.14.09.087,0,.088-.016.056-.014.1-.021.079-.006.129.012.029.007-.015.185-.061.569-.045.084-.053.194-.023.236-.046.332-.194.385-.091.117-.323.371-.3.443-.037.132-.015.022-.025.049-.032.076-.011.048-.06.391-.01.183.022.122.006.143-.036.088-.04.049-.085.078-.035.058-.019.061-.02.175.107.4.029.06.07.021.071-.056,0-.067,0-.053-.01-.078.034-.044.088-.006.057.025.027.044.012.054,0,.079-.007.113-.021.1-.072.042-.056.007-.04.042v.058l.037.085.1.126.059.117.026.068.06.23-.015.082-.154.306-.061.092-.067.059-.108.054-.072.017-.276.032-.012-.03-.065-.056-.107-.008-.156-.01-.033-.064.024-.087.058-.084.05-.077.019-.1-.086-.234-.05-.1-.1-.18Z" fill="#9b9b9b"/>
            <path id="CO-CHO" d="M234.647,3443l.05.031.117.2.04.15.11.126.053.032.052.018.091.023.074.058.039.058.094.145.286.213.033.116.018.075.154.091.125-.028-.076.112-.085.025-.068.019-.145.1-.033.044-.027.128-.014.085-.037.089-.054.056-.059.035-.092.026.035.222.188.04.079.093.152.165.05.051.054.053.465.451.153.117.056.027.1.025.127.164.037.054.034.079.025.1-.072.41-.046.025-.051-.014-.087-.041-.18-.035-.36.013-.041.059.046.1.032.083-.006.088-.118.094-.091-.031-.1-.006-.139.044.024.317.129.078.054.048.224.454.018.09v.261l.017.056.209.279.265.011.056-.007.073-.021.587-.1.059.008.116.059.037.041.013.166,0,.077.009.073.037.1.046.039.052.017.146.026-.014.185-.039.07-.01.057.01.058.027.063.038.066.038.09.015.069-.007.074-.045.1.022.06.119.144.053.057.1.085-.049.014-.06.022-.083.03-.417.188-.047.029-.212.211.016.073.24.5.028.043.045.044.049.031.057.028.042.014-.006.038-.016.06-.033.069-.048.033-.059.025-.052.029-.284.221-.035.04-.029.057-.184.4-.19.335-.032.045-.014.056-.005.053.011.106.015.067.016.048.02.046.062.069.114.107-.035.086-.283.216-.392.118-.069.009-.07,0-.055-.021-.18-.106-.35-.111-.253-.206-.082-.032-.058,0-.1.023-.046-.036-.057-.1.015-.037-.121-.025-.12.005-.114-.175.09-.242.01-.016.021-.052.054-.181-.009-.244-.013-.171-.046-.233-.02-.062-.014-.06-.021-.176-.026-.341,0-.173.044-.115.015-.091-.031-.139-.093-.379-.213-.115-.13-.035.07-.157.213-.1.1.015.059.033.082-.029.193-.223.025-.118-.011-.073-.237-.479-.175-.223-.118-.121-.054-.066-.033-.065.033-.235.174.1.055-.1.075-.264.039-.424-.171-.3-.091-.052-.057-.006-.506-.391.034-.242-.008-.057-.063-.132-.284-.232-.244-.186.208-.6.08.008.069-.022.042-.052.028-.074-.021-.078-.064-.1-.012-.051v-.081l0-.063.037-.065.2.1.1.184.035.1.025.056.058.031.624-.423,0-.059-.1-.127.149-.261.041-.044.2-.078.044-.15-.043-.214-.072-.138-.075-.13-.057-.041-.134-.126-.034-.041-.014-.126,0-.066-.016-.083-.078-.128-.058-.051-.1,0-.018-.12.06-.087.034-.023.169-.192Zm-.083,10.483.058.032.051.11.092.027-.033.029-.424.071-.122.033.025-.088.267-.237.026-.007.032.011Z" fill="#9b9b9b"/>
            <path id="CO-CAL" d="M239.627,3452.3l-.2-.167-.1-.061-.053,0-.2-.01-.264-.091-.282.063h-.09l-.055-.043-.1-.259.036-.082.277-.245.25-.135.089-.1.059-.111-.213-.144-.172.038-.1.046-.067.02-.043-.053.016-.268.188-.095.069-.017.142-.017.113.011.161.015.042-.031-.01-.175-.037-.224,0-.069.084.012.1.03.4.112.272.019.052.021.082.073.085.062.078.034.245-.163.044-.059.064-.08.119-.027.327-.035.388-.107.073.011.046.048v.035l-.019.031-.044.521.018.108-.078.188-.036.068-.039.062-.068.092,0,0-.055-.019-.1-.024-.106-.006h-.152l-.058.011-.178.041-.068.034-.077.059-.06.058-.026.042-.031.07-.043.026-.228.022h-.086l-.081.012-.071.075-.018.05-.108.375.032.067.045.057v.053l-.04.045Z" fill="#9b9b9b"/>
            <path id="CO-COR" d="M241.073,3444.178l-.077.079-.079.108-.03.043-.039.044-.05.036-.053.024-.062.017-.07,0h-.143l-.134-.01-.15-.006-.07.018-.281.254-.029.068-.018.048-.057.075-.068.031-.083.026-.062.02-.051.135-.027.115-.042.036-.053-.016-.08-.067-.055-.028-.079.013-.064.06-.031.043-.074.119-.033.179-.424.5-.079.019-.183-.009h-.124l-.494,0-.173.006-.056.006-.075,0-.087-.014-.238-.294-.1-.14-.038-.065-.02-.067-.021-.088-.021-.126,0-.054v-.085l.023-.25.048-.078.06-.056.1-.091.029-.094.005-.122.009-.066.022-.126.019-.083.029-.083.061-.12.063-.07.12-.117.05-.033.073-.069.046-.051.039-.063.021-.063.012-.08,0-.079,0-.1-.012-.062-.037-.042-.09-.043-.066-.025-.074-.036-.057-.034-.048-.043-.037-.045-.035-.062-.035-.118-.013-.075-.008-.064v-.088l-.005-.049-.017-.047-.026-.043-.043-.032h.019l.051-.01.064-.013.142-.054.135-.138.211-.476.021-.106.157-.194.053-.049.046-.024.387-.186.259-.039.23.042.042.082.042.053.046.048.047.038.326.2.235.233.048.039.192.045.053.02.049.026.15.122.1.249,0,.061-.033.147-.077-.029-.082.008-.109.014-.194.071,0,.067.148.366.072.411.074.02.1-.032.055-.007.062.034.01.13.015.1.19-.048.144-.095.05-.047.069-.071.358.143.183.155.011.093.017.09.057.073-.022.086-.04.043Z" fill="#9b9b9b"/>
            <path id="CO-CAQ" d="M248.143,3462.218l.049.04.171.187.168.279.088.258.159.038.185.16.2.121.234.123.056-.015.024-.024.014.095-.031.069-.1.111-.251.254-.211.165-.046.056-.028.05-.032.059-.023.046-.035.056-.049.071-.094.064-.11-.006-.148-.038-.068-.013h-.07l-.066.03-.338.31-.052.054-.03.045-.043.081-.045.117-.018.049.008.135-.08.064-.062.028h-.055l-.189-.087-.029-.082-.1.008-.209.211-.047.085-.075,0-.225-.129-.094-.1-.076-.087-.126.017-.075.073-.062.017-.078,0-.067,0-.07-.018-.032-.061-.062-.072-.058-.032h-.092l-.078.077-.024.052-.04.069-.283.022-.091-.039-.047-.033-.172-.124h-.161l-.249.007-.231-.025-.111-.159-.172-.1-.057-.028-.137,0-.209-.012-.216-.049-.091-.031-.169-.087-.121-.115-.088-.087-.189-.05-.219-.119-.048-.063-.115-.085-.267-.077-.041.035.009.048-.049.043-.3-.053-.2-.114-.056-.188.056-.043.038-.039-.1-.263-.041-.062-.05-.035-.272-.037-.077-.017-.266-.106-.064-.278.034-.065.007-.048-.032-.063-.04-.037-.24-.1-.071.043-.077.042-.071-.015-.078-.153-.009-.074.023-.083-.1-.257-.072-.053-.1-.023-.072.021-.05.01-.135.009-.212-.054-.057-.056-.034-.077-.234-.125-.107.038-.174.024-.231-.079-.17-.179-.029-.049.009-.084-.061-.073-.3-.021-.035.014-.115-.131-.066-.034-.15-.05-.148-.092-.046-.248.014-.075.086-.079.086-.149.121-.243v-.1l.033-.018.265-.02.1-.007h.083l.082-.055.482-.593.264-.295.212-.271.048-.138.4-.452.112-.091.1-.187.026-.133.021-.081.033-.047.081-.073.091.023.051.019.074-.018.268-.209.115-.135-.015-.077-.031-.052-.048-.07-.007-.09.033-.068.191-.227.015-.019.228.054.1.028.054.021.052.027.25.165.052.037.053.049.031.039.03.067.007.051-.006.057-.018.063-.032.064-.058.066-.036.033-.077.1-.021.067.038.469.013.061.052.143.043.093.019.062.025.164,0,.078v.1l0,.049.016.068.087.149.083.1.077.085.076.049.117.046.109.021.078.015.061.007.065,0,.08.013.155.036.161.151.062.094.312.214.08.014.125-.014.068-.011.117-.043.088-.027.19-.052.082-.011.067,0,.084.028,0,.021,0,.089.022.125.048.074.2.231.107.086.091.1.091.184.016.07,0,.079.041.07.048.049.051.047.087.059.067.04.077.05.225.181.047.077.194.078.092.006.06-.013.39-.279.031-.049-.029-.052-.01-.057.092-.13.116-.052.219-.04.166.04.053.082.212.132.051.014.1-.017.154.143.307.387.064.162.113.206.054-.015.056-.024.238.079.119.088Z" fill="#9b9b9b"/>
            <path id="CO-CAS" d="M245.575,3452.492l-.081-.129-.008-.048.015-.061.083-.261.044-.07.065-.051.086-.018.077-.042.072-.077.008-.047-.027-.054-.128-.111-.025-.049.068-.183.32-.378.127.089.077.082.247-.032.331-.227.046-.053.068-.092.046-.066.047-.063.039-.035.052-.019.047.027.2-.08.111-.259,0-.057-.119-.193-.274-.112.041-.164.035-.037.072-.286-.128-.131.015-.3.006-.067.019-.062.038-.061.075-.07.021-.014-.014.1.005.058.023.086.205.257.215.092.1.021h.053l.184-.1.046-.038.1-.064.548-.109.338-.018.073.054h.191l.051,0,.418-.114.066-.037.081-.031.141-.035.071.027.512.106.1.01.17.01.35.01h.154l.371-.023.068-.027.047-.02.134-.072.13-.04.451.009.2.083.152.131.421.322.154.09-.03.02-.083.1-.038.055-.062.125-.035.1-.062.159-.261.327-.066.071-.18.109-.065.02-.152.035-.059.01-.124,0-.068.008-.237.088-.459.26-.053.032-.071.044-.026.062v.049l-.005.05-.4.35-.073.041-.106.049-.276.444-.046.057-.056.045-.043.025-.024.026-.2.119-.094.051-.1.03-.07.006-.158.055-.06.025-.5.216-.17.12-.049.027-.074.029-.222.071-.268.163-.054.056-.218.163-.16.069-.073-.006-.055-.057-.053-.049-.078-.025-.23.026-.212.076-.072.09-.042.036-.092.053-.233.032-.263.028-.327.027-.049-.043-.436-.449-.125-.162-.028-.087-.026-.065-.076-.1-.084-.1Z" fill="#9b9b9b"/>
            <path id="CO-CUN" d="M241.272,3451.154l0,0,.068-.092.039-.062.036-.068.078-.188-.018-.108.044-.521.019-.031.045-.036.309-.062.112.032.1.016.144-.065.1-.074.067.072.042.231-.048.061-.072.077.026.09.215.26.169.056.329.233.059,0,.087-.033.048-.022.052-.047.11-.111.005-.07.034-.087.122-.082.105-.022.2.185.179.044.175.2.11.333.048.082.049.095.044.238-.092.093-.04.061-.044.159.019.069.085.077.148.094.075.044.061.025.077.028.052.017.06.028.157.1.081.1.035.045.057.03.128.021.11-.014.107-.17v.048l-.02.052-.044.226-.134.7-.2.1-.413-.1-.129.031-.063.04-.054.011-.127-.026-.057-.045-.05-.133-.012-.055-.014-.084-.032-.085-.049-.037-.07-.034-.32-.078-.08.058-.09.132-.037.088.045.056.074.018.109.216.01.054v.121l-.068.032h-.057l-.106,0-.409.2-.048.036-.053.05-.055.041-.109.066-.06.02-.065.005,0-.152.073-.282.053-.252.018-.239.014-.061.031-.07.023-.044.047-.072.061-.056.048-.055.046-.072.008-.4-.02-.115-.131-.066-.062.01-.266.438-.086.56.013.167.026.154-.012.088-.135.313-.065.023-.127,0-.142.19.006.165-.051.185-.022.044-.076.126-.08.106-.062.048.007-.013.027-.072-.009-.055-.1-.053-.036-.044,0-.015.063-.15.007-.073.009-.277.084-.163,0-.072-.025-.057-.084-.119-.06-.066-.071-.02-.089.028-.061.092-.071.031-.062-.006-.492-.181-.051-.038.042-.106.177-.32.044-.128-.031-.068-.017-.087-.01-.077-.026-.262.135-.279.111-.675-.035-.394Z" fill="#9b9b9b"/>
            <path id="CO-DC" d="M241.913,3454.9l.062-.048.08-.106.076-.126.022-.044.051-.185-.006-.165.142-.19.127,0,.065-.023.135-.313.012-.088-.026-.154-.013-.167.086-.56.266-.438.062-.01.131.066.02.115-.008.4-.046.072-.048.055-.061.056-.047.072-.023.044-.031.07-.014.061-.018.239-.053.252-.073.282,0,.152-.092,0-.076.015-.063.046-.361.374-.046.076-.037.087-.053.111-.041.044-.051.01-.047-.025Z" fill="#9b9b9b"/>
            <path id="CO-GUA" d="M259.09,3454.138l.04.186.031.116.115.3.048.093.041.044.058.02.089-.01.076,0,.052.033.137.182.022.1.083.229.037.063.046.032.054.015.089.033.034.136-.136.2-.059.022-.166.122-.163.151-.4.354-.446.4.024.119.146-.013.332.056.073.038.041.07.137.2.126.064.406.429.111.085.059.024.1.037.068.05.046.134-.026.048-.058.051-.024.048.014.075.032.086.06.13.037.05.119.254.308.791.165.565.07.421.019.078.042.061.011.012h-.037l-.374.093-.107.024-.023-.051-.009-.174v-.048l.019-.236.017-.07.025-.057.018-.2-.037-.24-.107-.274-.12-.2-.115-.136-.055-.039-.093-.131-.111-.206-.028-.072-.014-.061-.036-.059-.21-.072-.211.086-.152.1-.051.033-.2.191-.027.088-.026.041-.212.241-.1.083-.154.069-.107.024-.068.007-.066-.009-.058-.018-.049-.035-.064-.079-.076-.125-.025-.045-.034-.131-.041-.059-.048-.029-.128-.033h-.056l-.076.1-.026.057-.051.137.061.185.054.009.073.012.075.1-1.71,0-.694,0h-.682l-.07-.039-.15-.038-.239-.057-.372.093-.213.09-.154-.007-.085-.065-.232-.054-.07-.01-.078,0-.073-.023-.1-.075-.127-.1-.06-.08-.017-.217.061-.029.039-.054-.032-.139-.006-.013.04-.078.144-.1.063-.034.138-.156-.082-.131-.114-.051-.108.06-.473.085-.453,0-.381-.17-.069-.136-.075-.159-.191-.226-.161,0-.054-.068.118-.1.132-.079.187-.1.08-.048.33-.211.05-.069.121-.021.119-.03.064-.026.189-.247-.006-.074-.019-.1.018-.19.126-.2.1-.026h.1l.11-.019-.016-.177-.041-.056-.037-.079.083-.1.208-.071.071.04h.125l.3-.25.278-.1.118-.019.158-.072.094-.088.006-.059-.017-.083.051-.052.232-.012.125.062.169-.022.07-.057.211-.029.111.044.067.052.015.081.385-.072.3-.061.133.055.12-.1.136-.126.158-.043.122.01.181.012.125-.038.043-.078.032-.039.352-.295.055-.027.439-.048h.333l.206.1.036.047.006.062.045.037.123-.087.084-.087.059-.069.047-.032.185-.066Z" fill="#9b9b9b"/>
            <path id="CO-GUV" d="M252.9,3458.867l-.064,0-.459.167-.768.2-.133.012-.142,0-.286-.023-.331.245-.055.025-.115,0-.077.016-.247.145-.171.218-.312.334-.175.115-.042.069-.153.363,0,.062.011.067,0,.128-.189.247-.161.149-.061.007-.084.019-.08.059-.034.048-.022.073-.015.066-.221.2-.325.3-.044.048,0,.007H248.1l-.119-.088-.238-.079-.056.024-.054.015-.113-.206-.064-.162-.307-.387-.154-.143-.1.017-.051-.014-.212-.132-.053-.082-.166-.04-.219.04-.116.052-.092.13.01.057.029.052-.031.049-.39.279-.06.013-.092-.006-.194-.078-.047-.077-.225-.181-.077-.05-.067-.04-.087-.059-.051-.047-.048-.049-.041-.07,0-.079-.016-.07-.091-.184-.091-.1-.107-.086-.2-.231-.048-.074-.022-.125,0-.089,0-.021v-.07l.008-.575v-.077l.028-.823.068-.215.551.066.189-.021.371-.078.472-.152.1-.117.078-.165.041-.036.091-.038.074-.018.106.057.481-.111.075-.107.118-.1.43-.21.678-.059.218.042.5-.073.162-.044.343.018.461-.006.3-.066h.4l.123.011.033.022.019.125.228-.039.279.079.145.074.258.013.069-.059.026-.1.039-.058.163.058.129.055.066.02.042-.019-.05.069-.33.211-.08.048-.187.1-.132.079-.118.1.054.068.161,0,.191.226.075.159.069.136.381.17.453,0,.473-.085.108-.06.114.051.082.131-.138.156-.063.034-.144.1Z" fill="#9b9b9b"/>
            <path id="CO-HUI" d="M237.719,3460.134l-.122.027-.063,0-.053-.018-.265-.158-.185-.167-.027-.057.011-.084.009-.088-.014-.074-.111-.148-.116-.049-.085,0-.057,0-.05-.055-.036-.374,0-.123.074-.049.109-.024.083.017.084.037.075.039.1.033.1.006.069-.018.038-.031v-.072l-.021-.079-.027-.054-.025-.056-.046-.132.007-.048.247-.266.059-.03.054.005.124.032.075-.01.063-.026.048-.04.075-.1.052-.068.082-.046.11.034.111.067.121.1.049.013.19-.047-.009-.051-.028-.072-.106-.256-.037-.063-.068-.1-.127-.263-.159-.446-.035-.046.015,0,.05,0,.064,0,.153-.036.1-.038.16-.109.061-.059.137-.127.067-.025.1,0,.083,0,.076-.009.05-.019.013-.053-.008-.08.135-.219.038-.046.378-.151.07-.021.688-.1.073.021.028.052-.014.1-.036.047-.05.039-.032.069.055.06.111.026.076,0,.071-.016.169-.117.216-.248,0-.072-.022-.058.018-.049.137-.218.1-.135.183-.222.063-.073.077-.061.06-.043.02-.01,0,.015.036.044.1.053.009.055-.027.072-.007.013-.1.239-.028.054-.038.047-.063.071-.03.054-.043.142-.042.159.014.051.009.057.006.136-.14.232-.045.058-.055.063-.069.049-.043.026-.065.035-.1.067-.138.1-.065.054-.066.161-.015.019-.191.227-.033.068.007.09.048.07.031.052.015.077-.115.135-.268.209-.074.018-.051-.019-.091-.023-.081.073-.033.047-.021.081-.026.133-.1.187-.112.091-.4.452-.048.138-.212.271-.264.295-.482.593-.082.055h-.083l-.1.007-.265.02Z" fill="#9b9b9b"/>
            <path id="CO-LAG" d="M245.929,3438.745l-.029-.007-.129-.012-.079.006-.1.021-.056.014-.088.016-.087,0-.14-.09.14-.168.079-.033.031-.063.028-.165-.037-.092-.423-.432-.088-.051-.076-.012-.118.005h-.2l-.225,0-.064-.005-.073-.019-.044-.043-.043-.065-.042-.15.048-.328.076-.1.047-.04.04-.063.045-.074.017-.051v-.053l.072,0,.315-.01.1-.014.071-.016.082-.023.043-.027.155-.1.026-.067.134-.117.274-.191.673-.452.1-.046.54-.2.077.008.075,0,.1-.031.346-.191.054-.032.065-.064.238-.468v-.05l-.017-.2-.058-.035.028-.048.048-.02.279-.021.161.015-.044.064-.075.081.065.087.059.009.064-.023.185-.117.139-.252.295-.129.156-.135-.06-.043-.125.01-.081.051.031-.066.085-.045.073-.011.248.025.089.018.64.245.083.06.056.048.268.5.01.057-.008.065-.043.077-.108.081-.147.08-.128.081-.094.13-.013.03-.2.1-.164.042-.4.1-.24.082-.122.052-.5.084-.264.418-.346.6-.274.208-.081,0-.31.07-.048.029-.124.221-.237.331-.18.306-.266.438-.068.089-.169.267Z" fill="#9b9b9b"/>
            <path id="CO-MAG" d="M243.483,3442.264l-.129,0-.2-.039-.357-.111-.138-.13-.065-.1-.191-.162-.108-.064-.234-.1h-.084l-.254-.1-.173-.177-.16-.1-.056.008-.053.006-.15-.063,0-.115.028-.166-.062-.256-.025-.043-.119-.372-.007-.052-.007-.151.024-.063.075-.032.081-.047.018-.094-.135-.18-.094-.025-.118-.052-.025-.076.084-.265.107-.246.137-.3.046-.056.054-.049.117-.073.023-.106.014-.25,0-.159-.007-.334-.135-.238-.033-.052-.06-.054-.081-.049-.049-.118v-.014l.067.049.834.273.073.016.064.008h.18l.1-.008.065-.013.06-.017-.032.038-.057.02-.07.01-.162.013-.118-.014-.319.229-.04.131.036.1.187-.072.136.114.019.058h.16l.049-.033.043-.068.067-.2.105-.254.068-.12.086-.248-.023-.19,0-.094.055-.083.067-.1.086-.053.3-.061.062,0,.109.04.047.048.213.084.193.047h.3l.1-.015.093-.005h.1l.05.006v.053l-.017.051-.045.074-.04.063-.047.04-.076.1-.048.328.042.15-.048.06-.017.054.012.073.034.049.1.1.091.1-.051.116-.035.055-.007.051,0,.049.019.066.1.089.031.085-.5.228-.338.121-.052.016-.137.072-.239.391-.023.063-.062.224.291.367.3.4.138.374-.336.019-.269-.014-.072.037-.16.207.053.046.082.031.075.064.033.047.119.177.051.081.022.072.132.273.075.063.076.076.053.08-.053.09-.086.119Z" fill="#9b9b9b"/>
            <path id="CO-MET" d="M250.551,3452.091l0,.022v1.236l0,.535,0,.615,0,1.479,0,.615v.328l0,.03-.033-.022-.123-.011H250l-.3.066-.461.006-.343-.018-.162.044-.5.073-.218-.042-.678.059-.43.21-.118.1-.075.107-.481.111-.106-.057-.074.018-.091.038-.041.036-.078.165-.1.117-.472.152-.371.078-.189.021-.551-.066-.068.215-.028.823v.077l-.008.575v.07l-.084-.028-.067,0-.082.011-.19.052-.088.027-.117.043-.068.011-.125.014-.08-.014-.312-.214-.062-.094-.161-.151-.155-.036-.08-.013-.065,0-.061-.007-.078-.015-.109-.021-.117-.046-.076-.049-.077-.085-.083-.1-.087-.149-.016-.068,0-.049v-.1l0-.078-.025-.164-.019-.062-.043-.093-.052-.143-.013-.061-.038-.469.021-.067.077-.1.036-.033.058-.066.032-.064.018-.063.006-.057-.007-.051-.03-.067-.031-.039-.053-.049-.052-.037-.25-.165-.052-.027-.054-.021-.1-.028-.228-.054.066-.161.065-.054.138-.1.1-.067.065-.035.043-.026.069-.049.055-.063.045-.058.14-.232-.006-.136-.009-.057-.014-.051.042-.159.043-.142.03-.054.063-.071.038-.047.028-.054.1-.239.007.05.047.025.051-.01.041-.044.053-.111.037-.087.046-.076.361-.374.063-.046.076-.015.092,0,.065-.005.06-.02.109-.066.055-.041.053-.05.048-.036.409-.2.106,0h.057l.068-.032v-.121l-.01-.054-.109-.216-.074-.018-.045-.056.037-.088.09-.132.08-.058.32.078.07.034.049.037.032.085.014.084.012.055.05.133.057.045.127.026.054-.011.063-.04.129-.031.413.1.2-.1.134-.7.044-.226.02-.052.084.1.076.1.026.065.028.087.125.162.436.449.049.043.327-.027.263-.028.233-.032.092-.053.042-.036.072-.09.212-.076.23-.026.078.025.053.049.055.057.073.006.16-.069.218-.163.054-.056.268-.163.222-.071.074-.029.049-.027.17-.12.5-.216.06-.025.158-.055.07-.006.1-.03.094-.051.2-.119Z" fill="#9b9b9b"/>
            <path id="CO-NAR" d="M236.013,3460.692l-.049.008-.075.015-.055.021-.23.129-.056.031-.079.047-.072.049-.028.042.014.454.014.063.027.062.078.229.083.344-.005.057-.089.046-.075.024-.072.015-.039.181.031.087.024.089.016.134,0,.079-.006.07-.283.059-.069,0-.235-.064-.171-.052-.108-.067-.074-.308.013-.1.006-.088-.051-.08-.075-.024-.051.017-.057.006-.074-.044-.037-.029-.113-.059-.057-.043-.031-.052-.006-.074.013-.067-.056-.067-.051-.019-.206.042-.087.046-.1-.013-.075-.028-.117-.118-.176-.07-.083.01-.1-.01-.076-.027-.19-.131-.139-.113-.047-.029-.089-.021-.067-.012-.056-.021-.054-.038-.223-.205-.036-.049-.027-.042-.186-.04-.051.025-.079-.106-.1-.046-.063-.023-.053-.033-.334-.364-.124-.263-.177-.079-.051-.009-.093,0-.115-.033-.049-.078.2-.289.232-.175.09-.027.212.038.073.036.282.1.085-.006.1-.275.009-.084-.127-.241-.059-.028-.088-.082-.067-.217-.016-.093.113-.23.152-.268.043-.066.022.092.04-.076.046-.028.145-.022.025-.146.07-.01.1.071.052.05.056.048.206-.2.306.068.055.009.343-.085.093-.084.023-.127.006.044.026.057.031.052.068.082.147.208.087.148.1.2.032.051.1.083.067.035.052.015.072.016.136.018h.052l.118,0,.269-.03.047.024.04.054.111.178.207.241.108.09.066.058-.022.058-.058.082-.057.028-.076.074-.029.042-.024.321.077.009h.1l.351-.025.057-.011.1-.034.051-.006.479.281.052.072.007.064-.055.418Zm-3.287-2.845-.022,0-.2-.18,0-.033.007-.039.02-.035.035-.044.076-.018.03,0,.041.005.07.12.01.023.024.12-.008.025-.061.057Z" fill="#9b9b9b"/>
            <path id="CO-NSA" d="M248.093,3446.891l-.049.038-.049.021-.071,0-.084-.021-.066-.006-.052.018-.254.138-.041.08-.036.065-.074.063-.06.019-.169.005h-.154l-.034.012h-.053l-.033-.038.01-.095,0-.089-.042-.037-.183.049-.055.036-.507-.2-.015-.388.025-.278v-.056l-.01-.057-.068-.173-.033-.063-.215-.353-.062-.017-.478,0-.051.027-.03.047-.054.084-.167.014-.35-.1-.049-.015-.058-.046-.032-.085-.1-.095-.091-.042.276-.032.072-.017.108-.054.067-.059.061-.092.154-.306.015-.082-.06-.23-.026-.068-.059-.117-.1-.126-.037-.085v-.058l.04-.042.056-.007.072-.042.021-.1.007-.113,0-.079-.012-.054-.027-.044-.057-.025-.088.006-.034.044.01.078,0,.053,0,.067-.071.056-.07-.021-.029-.06-.107-.4.02-.175.019-.061.035-.058.085-.078.04-.049.036-.088-.006-.143-.022-.122.01-.183.06-.391.011-.048.032-.076.025-.049.015-.022.083.012.313-.012.142-.059.056-.069.338-.189.073.1.058.145-.011.055.2.143.268.095.108.4.183.668.611.608.045.009.009,0,.035.036.03.079.1.447.029.152-.009.066-.043.034h-.11l-.178.307-.035.638,0,.382.134.187.044.032.01,0,.187.032.156.009.273.155-.024.086,0,.065.049.154.032.061.049.084.053.084.067.1Z" fill="#9b9b9b"/>
            <path id="CO-PUT" d="M237.938,3461.338l.035-.014.3.021.061.073-.009.084.029.049.17.179.231.079.174-.024.107-.038.234.125.034.077.057.056.212.054.135-.009.05-.01.072-.021.1.023.072.053.1.257-.023.083.009.074.078.153.071.015.077-.042.071-.043.24.1.04.037.032.063-.007.048-.034.065.064.278.266.106.077.017.272.037.05.035.041.062.1.263-.038.039-.056.043.056.188.2.114.3.053.049-.043-.009-.048.041-.035.267.077.115.085.048.063.219.119.189.05.088.087.121.115.169.087.091.031.216.049-.177.051-.31.1-.4.13-.328.112-.05.016-.087.021-.015-.023-.044-.059-.413-.3-.128-.081-.064.054-.192-.107-.018-.067,0-.053-.011-.052-.031-.069-.04-.061-.058-.066-.05-.018-.052.013-.073.047-.048.017-.2-.08-.057-.068-.153-.114-.293-.186-.172-.02-.03.075-.023.066-.084.064-.068-.007-.036-.042-.064-.033-.062-.024-.125-.015-.089-.03-.214-.123-.143-.095-.3-.027-.085.018-.084-.027-.385-.279-.17-.223-.113-.152-.039-.042-.266-.079-.247-.06-.4.008-.017.289-.1.059-.244.066-.055,0-.046-.025-.068-.066-.265-.059-.026.048-.11.034-.1.018-.14,0-.426-.16-.113-.128.006-.069-.005-.079-.016-.134-.024-.089-.03-.087.039-.181.071-.015.075-.024.089-.046,0-.056-.083-.345-.078-.229-.027-.062-.013-.063-.015-.454.029-.041.072-.049.079-.048.056-.031.23-.128.056-.021.075-.016.049-.008.177-.032.073-.017.092-.069.067-.1.074-.042.109.009.068.058.1.181.028.067,0,.049-.027.052-.025.042-.016.047-.032.233.067.131.062.065.285.113.057.017.083.011.323,0,.071-.015.262-.092Z" fill="#9b9b9b"/>
            <path id="CO-QUI" d="M238.853,3452.592l.037-.017.264.018.165.024.075.02.07,0,.159-.087.018.032-.2.28-.174.2-.076.093-.029.054.005.113-.006.1-.019.049-.021.047-.024.042-.031.038-.064.07-.153.218-.025.124,0,.064-.057-.038-.046-.077-.038-.122-.047-.157-.176-.743-.018-.082.006-.056.04-.034.128.01.121,0,.114-.022.03-.047Z" fill="#9b9b9b"/>
            <path id="CO-RIS" d="M239.623,3452.547l-.159.087-.07,0-.075-.02-.165-.024-.264-.018-.037.017-.153-.068-.331-.079-.194-.267-.2-.185-.09-.072-.054-.018-.109.018-.041-.015-.057-.028-.05-.03-.044-.045-.029-.044-.24-.5-.016-.073.213-.211.047-.029.416-.188.083-.03.061-.021.049-.015.036.02.215,0,.052-.006-.016.268.043.053.067-.02.1-.046.172-.038.213.144-.059.111-.089.1-.25.135-.277.245-.036.082.1.259.055.043h.09l.282-.063.264.091.2.01.053,0,.1.061.2.167-.1.123.01.047Z" fill="#9b9b9b"/>
            <path id="CO-SAN" d="M243.349,3446.335l.046-.372.1-.228.105-.158.048-.39-.04-.189-.045-.09-.074-.236,0-.074v-.081l.013-.054.038-.089.1-.084.067-.038.034.057.1.18.05.1.086.234-.019.1-.05.077-.058.084-.024.087.033.064.156.01.107.008.065.056.012.03.091.042.1.095.032.085.058.046.049.015.35.1.167-.014.054-.084.03-.047.051-.027.478,0,.062.017.215.353.033.063.068.173.01.057v.056l-.025.278.015.388.507.2.055-.036.183-.049.042.037,0,.089-.01.095.033.038h.053l.034-.012.019.04.025.074.029.353-.005.071-.015.064-.117.322-.029.055-.041.047-.049.028-.059.012-.132,0-.047-.16-.033-.069-.145-.085-.074.011,0,.242.017.084.04.06.04.069.006.122-.038.1-.067.118-.469.552-.185.173-.159-.024-.069-.013-.072.008-.054.014-.069.032-.04.042-.011.072.032.083-.011.058-.043.044-.141.063-.076.008-.085-.023-.055-.04-.038-.069-.016-.1.01-.06.067-.121.019-.065.006-.053-.005-.065-.024-.056-.049-.043-.3-.149-.078.1-.15.346-.048.277-.01.05-.043.139-.061.039-.077-.048-.08-.061-.333.036-.3.071-.05-.039-.047-.119-.043-.039-.274-.146-.229-.2-.116-.236-.065-.023-.066.02-.046.024-.048.02-.072-.02-.087-.076-.1-.139-.133-.206-.085-.095.1-.041.06-.042.239-.253.021-.05-.064-.1-.02-.206.024-.083.091-.108.08,0,.166-.074.3-.221.078-.059.04-.037.048-.08.066-.1.13-.132.086-.044.115-.049.114-.1,0-.061-.028-.1-.047-.054-.033-.061-.03-.255v-.049l.013-.072Z" fill="#9b9b9b"/>
            <path id="CO-SUC" d="M238.8,3441.187l.1.024.078-.035.057-.055.036-.058.056-.122.018-.059.013-.088v-.056l-.016-.069-.025-.075-.064-.081-.086-.149.065-.156.1-.323.015-.053.025-.161v-.064l-.006-.041.043-.018.106-.024.124.27.231.273.112.046.024.063.009.174-.005.051.193.132.653.512.046.049.063.072.041.057.01.055,0,.067-.02.13-.007.058.011.067.041.094.086.162.1.121.149.09.052.018.049.019.065.036.146.1.073.063.082.124.135.29-.093.077v.437l.022.094.038.111.036.057-.068.176-.1.2-.056.064-.122.016-.094.015-.071.024-.022.016-.057-.073-.017-.09-.011-.093-.183-.155-.358-.143-.069.071-.05.047-.144.095-.19.048-.015-.1-.01-.13-.062-.034-.055.007-.1.032-.074-.02-.072-.411-.148-.366,0-.067.194-.071.109-.014.082-.008.077.029.033-.147,0-.061-.1-.249-.15-.122-.049-.026-.053-.02-.192-.045-.048-.039-.235-.233-.326-.2-.047-.038-.046-.048-.042-.053Z" fill="#9b9b9b"/>
            <path id="CO-SAP" d="M223.647,3433.706l-.018-.015v-.12l.016-.048.023-.038.031-.024.028.011-.025.131-.028.061-.02.041Z" fill="#9b9b9b"/>
            <path id="CO-TOL" d="M238.826,3454.066l0-.064.025-.124.153-.218.064-.07.031-.038.024-.042.021-.047.019-.049.006-.1-.005-.113.029-.054.076-.093.174-.2.2-.28-.018-.032-.084-.074-.01-.047.1-.123.136-.1.04-.045v-.053l-.045-.057-.032-.067.108-.375.018-.05.071-.075.081-.012h.086l.228-.022.043-.026.031-.07.026-.042.06-.058.077-.059.068-.034.178-.041.058-.011h.152l.106.006.1.024.055.019.011.026.035.394-.111.675-.135.279.026.262.01.077.017.087.031.068-.044.128-.177.32-.042.106.051.038.492.181.062.006.071-.031.061-.092.089-.028.071.02.06.066.084.119.025.057,0,.072-.084.163-.009.277-.007.073-.063.15-.02.01-.06.043-.077.061-.063.073-.183.222-.1.135-.137.218-.018.049.022.058,0,.072-.216.248-.169.117-.071.016-.076,0-.111-.026-.055-.06.032-.069.05-.039.036-.047.014-.1-.028-.052-.073-.021-.688.1-.07.021-.378.151-.038.046-.135.219.008.08-.013.053-.05.019-.076.009-.083,0-.1,0-.067.025-.137.127-.061.059-.16.109-.1.038-.153.036-.064,0-.05,0-.015,0-.036-.076-.075-.125-.071-.1-.029-.047.005-.058.012-.08,0-.041.031-.024.194-.624.139-.515.057-.294.019-.05.069-.117.069-.1.057-.061.051-.01.047.021.048.017.156-.118.014-.07,0-.1Z" fill="#9b9b9b"/>
            <path id="CO-VAC" d="M237.875,3456.133l-.107-.014-.091-.031-.107-.045-.078-.042-.064-.037-.092-.046-.215-.038-.12.013-.057.094.042.053.007.1-.058.1-.308.13-.113.012-.228.13-.337.162-.15-.159-.148-.068-.057.078-.454-.04-.4-.278-.112-.155-.086-.093-.059-.03-.092-.07.046-.066.218-.132.3-.368.082-.021.179-.218.032-.1.007-.143.235-.359-.127.028-.075.029-.119.077-.074.045-.122.011-.072,0-.054-.029-.028-.153.03-.084.065-.038.116-.013.069-.211-.059-.041-.127-.044-.086.077-.045.054-.042.131-.039.085-.055.06-.142-.174-.031-.079-.006-.266.029-.087.223-.093.155.006.07-.073.057.1.046.036.1-.023.058,0,.082.031.253.206.35.111.181.107.056.022.07,0,.068-.009.392-.119.283-.215.034-.086-.113-.107-.062-.07-.021-.046-.015-.047-.016-.067-.011-.107.005-.053.014-.056.032-.045.189-.335.185-.4.028-.057.035-.04.284-.221.052-.029.059-.025.048-.033.033-.07.016-.059.006-.038.109-.018.054.018.09.072.2.185.194.267.331.079.153.068.03.1-.03.047-.114.022-.121,0-.128-.01-.04.034-.006.056.018.082.176.743.047.157.038.122.046.077.057.038,0,.028,0,.1-.014.07-.156.118-.048-.017-.047-.021-.051.01-.057.061-.069.1-.069.117-.019.05-.057.294-.139.515-.194.624Z" fill="#9b9b9b"/>
            <path id="CO-VID" d="M250.551,3452.091l.043-.025.056-.045.046-.057.276-.444.106-.049.073-.041.4-.35.005-.05v-.049l.026-.062.071-.044.053-.032.459-.26.237-.088.068-.008.124,0,.059-.01.152-.035.065-.02.18-.109.066-.071.261-.327.062-.159.035-.1.062-.125.038-.055.083-.1.03-.02.032-.019.085-.035.077-.013.157.016.145.015.148,0,.1-.008.134-.044.069-.033.1-.077.064-.03.083-.036.14-.006.038.062.077.076.073.017.118-.04.106-.1.1-.092.07-.058.08-.031.077,0,.5.068.188.041.1.03.066.038.121.014.223-.07.185-.053.059-.009.087,0,.114.029.139.028.061-.019.166-.055.09-.03.1-.028.058,0,.072.005.1.02.078.018.094,0,.1-.025.1-.049.22-.167.349.035.147.019.181.055.073.046.1.091.06.026.046,0-.088.094-.008.078.017.057.041.068.087.074.054.1-.032.045-.089.051-.044.034-.134.12-.165.161-.058.078-.058.146-.022.116.007.075.017.095.021.082.046.073-.085.167-.1.072-.15.087-.054.013-.088.057-.113.184.048.421.023.091.045.129,0,.159-.031.342-.008.071-.02.155-.086.422.187.543-.042.083-.011.066v.1l.049.157.146.189.052.1-.056.017-.185.066-.047.032-.059.069-.084.087-.123.087-.045-.037-.006-.062-.036-.047-.206-.1h-.333l-.439.048-.055.027-.352.295-.032.039-.043.078-.125.038-.181-.012-.122-.01-.158.043-.136.126-.12.1-.133-.055-.3.061-.385.072-.015-.081-.067-.052-.111-.044-.211.029-.07.057-.169.022-.125-.062-.232.012-.051.052.017.083-.006.059-.094.088-.158.072-.118.019-.278.1-.3.25h-.125l-.071-.04-.208.071-.083.1.037.079.041.056.016.177-.11.019h-.1l-.1.026-.126.2-.018.19.019.1.006.074-.189.247-.064.026-.119.03-.121.021-.042.019-.066-.02-.129-.055-.163-.058-.039.058-.026.1-.069.059-.258-.013-.145-.074-.279-.079-.228.039-.019-.125,0-.03v-.328l0-.615,0-1.479,0-.615,0-.535v-1.236Z" fill="#9b9b9b"/>
            <path id="CO-VAU" d="M254.7,3466.263l-.062.128.009.184-.413.053-.048-.207,0-.053-.2-.164-.26.059-.175.077-.05.018-.083-.014-.018-.049.068-.186-.012-.088-.358.022-.083.052-.04.051,0,.049.036.039.073.017.037.036-.019.056-.043.045-.051.021-.071-.006-.311-.235-.032-.05-.019-.057.016-.052.087-.049.067-.049-.021-.1-.058-.058-.064-.052,0-.092.082-.124,0-.282.092-.323-.043-.054-.124-.062-.152.108.045.071-.09.019-.169-.053-.081-.072-.037-.055-.1-.1-.639-.2-.043.077-.185.072-.1-.155-.1-.443-.064-.114-.128-.129-.1.038-.252-.076-.523-.3-.06-.044-.117-.055-.186-.008-.047.037-.024.024-.056.015-.234-.123-.2-.121-.185-.16-.159-.038-.088-.258-.168-.279-.171-.187-.049-.04,0-.007.044-.048.325-.3.221-.2.015-.066.022-.073.034-.048.08-.059.084-.019.061-.007.161-.149.189-.247,0-.128-.011-.067,0-.062.153-.363.042-.069.175-.115.312-.334.171-.218.247-.145.077-.016.115,0,.055-.025.331-.245.286.023.142,0,.133-.012.768-.2.459-.167.064,0,.006.013.032.139-.039.054-.061.029.017.217.06.08.127.1.1.075.073.023.078,0,.07.01.232.054.085.065.009.03v1.5H254l.265-.013.451.094.148-.043.1-.039.186.094.094.082.221.325-.048.265.08.26-.207.066-.2-.016-.1-.08-.33-.191-.567.142-.168.1-.116.078-.321.009h-.155l-.154.03,0,.177-.005.341,0,.148-.007.39-.008.344,0,.21v.167l.092.11.223.241.491.362.057.012.072.014.147.066.061.062.083.275-.023.079-.035.077-.047.058.006.075.24.425.094.051.118.111Z" fill="#9b9b9b"/>
          </g>
        </g>
      </g>
      <g id="Grupo_59" data-name="Grupo 59">
        <g id="Grupo_57" data-name="Grupo 57">
          <path id="Trazado_52" data-name="Trazado 52" d="M248.1,3480.977a6.352,6.352,0,1,0-6.016-6.01A6.352,6.352,0,0,0,248.1,3480.977Z" fill="#db9600"/>
          <path id="Trazado_53" data-name="Trazado 53" d="M248.42,3481.8q-.18,0-.36-.009h0a7.189,7.189,0,1,1,.36.009Zm-.278-1.645a5.532,5.532,0,1,0-5.239-5.234,5.548,5.548,0,0,0,5.239,5.234Z" fill="#414651"/>
        </g>
        <g id="Grupo_58" data-name="Grupo 58">
          <path id="Trazado_54" data-name="Trazado 54" d="M257.711,3494.664a2.091,2.091,0,0,0,2.047-2.507c-1.1-5.51-5.6-10.44-10.981-10.44s-9.88,4.93-10.98,10.44a2.091,2.091,0,0,0,2.047,2.507Z" fill="#db9600"/>
          <path id="Trazado_55" data-name="Trazado 55" d="M257.711,3495.484H239.844a2.912,2.912,0,0,1-2.851-3.487c1.264-6.328,6.33-11.1,11.784-11.1s10.521,4.771,11.785,11.1a2.912,2.912,0,0,1-2.851,3.487Zm-8.934-12.947c-5.147,0-9.217,4.973-10.177,9.781a1.28,1.28,0,0,0,.265,1.064,1.262,1.262,0,0,0,.979.463h17.867a1.262,1.262,0,0,0,.979-.463,1.279,1.279,0,0,0,.265-1.064C257.995,3487.51,253.925,3482.537,248.777,3482.537Z" fill="#414651"/>
        </g>
      </g>
    </g>
  </g>
</svg>
