<svg xmlns="http://www.w3.org/2000/svg" width="461.13" height="329" viewBox="0 0 461.13 329">
  <g id="Grupo_20320" data-name="Grupo 20320" transform="translate(-727.87 -389)">
    <path id="Trazado_65776" data-name="Trazado 65776" d="M1.129,0A1.129,1.129,0,0,1,2.259,1.129v314a1.129,1.129,0,0,1-2.259,0v-314A1.129,1.129,0,0,1,1.129,0Z" transform="translate(727.87 389)" fill="#e8e8e8"/>
    <g id="Grupo_20318" data-name="Grupo 20318" transform="translate(0 -102)">
      <text id="Minimize_your_develo" data-name="Minimize your develo" transform="translate(887 527)" fill="#111e61" font-size="16" font-family="Roboto-Bold, Roboto" font-weight="700"><tspan x="0" y="15">Red:</tspan><tspan y="15" xml:space="preserve" font-family="Roboto-Regular, Roboto" font-weight="400"> procede del latín, más exactamente </tspan><tspan x="0" y="39" font-family="Roboto-Regular, Roboto" font-weight="400">emana del vocablo “rete”, que es </tspan><tspan x="0" y="63" font-family="Roboto-Regular, Roboto" font-weight="400">sinónimo de malla.</tspan></text>
      <text id="Minimize_your_develo-2" data-name="Minimize your develo" transform="translate(887 701)" fill="#111e61" font-size="16" font-family="Roboto-Bold, Roboto" font-weight="700"><tspan x="0" y="15">Datos:</tspan><tspan y="15" xml:space="preserve" font-family="Roboto-Regular, Roboto" font-weight="400"> esta palabra es fruto de la </tspan><tspan x="0" y="39" font-family="Roboto-Regular, Roboto" font-weight="400">evolución de la palabra latina “datum”, </tspan><tspan x="0" y="63" font-family="Roboto-Regular, Roboto" font-weight="400">que puede traducirse como “dado”. </tspan><tspan font-family="Roboto-Regular, Roboto" font-weight="400"><tspan x="0" y="87"></tspan></tspan></text>
      <text id="_01" data-name="01" transform="translate(771.5 585)" fill="none" stroke="#dee4f0" stroke-width="1" font-size="80" font-family="Roboto-Black, Roboto" font-weight="800"><tspan x="0" y="0">01</tspan></text>
      <text id="_02" data-name="02" transform="translate(771.5 763)" fill="none" stroke="#dee4f0" stroke-width="1" font-size="80" font-family="Roboto-Black, Roboto" font-weight="800"><tspan x="0" y="0">02</tspan></text>
      <circle id="Elipse_140" data-name="Elipse 140" cx="4" cy="4" r="4" transform="translate(873 534)" fill="#37a3a5"/>
      <circle id="Elipse_141" data-name="Elipse 141" cx="4" cy="4" r="4" transform="translate(873 708)" fill="#37a3a5"/>
    </g>
  </g>
</svg>
