<svg xmlns="http://www.w3.org/2000/svg" xmlns:xlink="http://www.w3.org/1999/xlink" width="447.079" height="304.431" viewBox="0 0 447.079 304.431">
  <defs>
    <linearGradient id="linear-gradient" x1="-0.06" y1="0.5" x2="0.645" y2="0.5" gradientUnits="objectBoundingBox">
      <stop offset="0" stop-color="#fff"/>
      <stop offset="1" stop-color="#d2e6ee"/>
    </linearGradient>
    <linearGradient id="linear-gradient-2" x1="0.5" y1="0" x2="0.5" y2="1" xlink:href="#linear-gradient"/>
    <linearGradient id="linear-gradient-3" x1="-0.06" y1="0.5" x2="0.645" y2="0.5" xlink:href="#linear-gradient"/>
  </defs>
  <g id="Grupo_4521" data-name="Grupo 4521" transform="translate(-394.864 -464.693)">
    <path id="Trazado_1035" data-name="Trazado 1035" d="M774.327,541.987c8.146-74.2-63.787-99.974-114.782-80.976-51.409,19.152-63.327-12.6-135.615-3.525C450.734,466.671,487.9,581.57,487.9,581.57s11.647,99.912,25.445,145.966c13.723,45.8,145.086,29.233,177.042,27.866,31.772-1.359,59.38,1.264,87.023-49.029C805,656.171,766.207,615.938,774.327,541.987Z" transform="translate(-18.473 9.693)" fill="#f4f7fa"/>
    <g id="Grupo_33110" data-name="Grupo 33110" transform="translate(295.012 419.004)">
      <path id="Trazado_81325" data-name="Trazado 81325" d="M282.86,299.674l-.218-.125L152.172,224.222l.434-.754,130.251,75.2,150.379-87.279.437.751Z" transform="translate(7.045 19.915)" fill="#00223d"/>
      <path id="Trazado_81326" data-name="Trazado 81326" d="M422.717,216.92l-.436-.751,39.161-22.73L332.7,119.113l.434-.754,130.038,75.078Z" transform="translate(31.353 7.388)" fill="#00223d"/>
      <path id="Trazado_81327" data-name="Trazado 81327" d="M143.33,227.984l-24.8-14.316,150.84-87.546.437.751L120.27,213.665l23.494,13.565Z" transform="translate(2.516 8.433)" fill="#00223d"/>
      <g id="Grupo_33076" data-name="Grupo 33076" transform="translate(435.477 159.83)">
        <path id="Trazado_81328" data-name="Trazado 81328" d="M438.415,237.472a10.811,10.811,0,0,1-5.284-1.261l-35.166-20.3a3.511,3.511,0,0,1,0-6.6l61.085-35.268a11.691,11.691,0,0,1,10.567,0l35.169,20.3a3.512,3.512,0,0,1,0,6.6L443.7,236.211A10.812,10.812,0,0,1,438.415,237.472Zm25.919-63.842a9.91,9.91,0,0,0-4.849,1.158L398.4,210.056a2.667,2.667,0,0,0,0,5.1l35.166,20.3a10.727,10.727,0,0,0,9.7,0l61.085-35.267a2.667,2.667,0,0,0,0-5.1l-35.167-20.3A9.908,9.908,0,0,0,464.334,173.63Z" transform="translate(-395.648 -145.115)" fill="#00223d"/>
        <g id="Grupo_33075" data-name="Grupo 33075" transform="translate(0.608)">
          <path id="Trazado_81329" data-name="Trazado 81329" d="M506.767,187.809h0l-.006-16.861-21.306,2.842L469.5,164.58a11.2,11.2,0,0,0-10.134,0l-28.587,16.506L396.186,185.7v17.167l.012,0a3.6,3.6,0,0,0,2.083,2.833L433.449,226a11.2,11.2,0,0,0,10.134,0l61.085-35.268a3.6,3.6,0,0,0,2.082-2.823l.017,0Z" transform="translate(-396.183 -146.381)" fill="url(#linear-gradient)"/>
          <path id="Trazado_81330" data-name="Trazado 81330" d="M504.668,169.912l-35.167-20.3a11.2,11.2,0,0,0-10.134,0l-61.085,35.267c-2.8,1.616-2.8,4.236,0,5.851l35.167,20.3a11.2,11.2,0,0,0,10.134,0l61.085-35.267C507.466,174.148,507.466,171.528,504.668,169.912Z" transform="translate(-396.184 -148.397)" fill="url(#linear-gradient-2)"/>
          <path id="Trazado_81331" data-name="Trazado 81331" d="M504.667,171.9l-61.085,35.267a11.2,11.2,0,0,1-10.134,0l-35.167-20.3a3.885,3.885,0,0,1-2.038-2.415c-.262,1.222.413,2.5,2.038,3.437l35.167,20.3a11.2,11.2,0,0,0,10.134,0l61.085-35.267c1.625-.938,2.3-2.215,2.038-3.437A3.885,3.885,0,0,1,504.667,171.9Z" transform="translate(-396.183 -145.557)" fill="#fff"/>
          <g id="Grupo_33070" data-name="Grupo 33070" transform="translate(66.342 39.768)">
            <path id="Trazado_81332" data-name="Trazado 81332" d="M456.317,199.48l-1.665.961v-1.922l1.665-.961Z" transform="translate(-454.653 -181.546)" fill="#fff"/>
            <path id="Trazado_81333" data-name="Trazado 81333" d="M459.387,197.707l-1.665.961v-1.922l1.665-.961Z" transform="translate(-454.239 -181.785)" fill="#fff"/>
            <path id="Trazado_81334" data-name="Trazado 81334" d="M462.457,195.935l-1.665.961v-1.922l1.665-.961Z" transform="translate(-453.826 -182.023)" fill="#fff"/>
            <path id="Trazado_81335" data-name="Trazado 81335" d="M459.947,200.817l-1.665.961v-1.922l1.665-.961Z" transform="translate(-454.164 -181.366)" fill="#fff"/>
            <path id="Trazado_81336" data-name="Trazado 81336" d="M462.65,199.257l-1.665.961V198.3l1.665-.961Z" transform="translate(-453.8 -181.576)" fill="#fff"/>
            <path id="Trazado_81337" data-name="Trazado 81337" d="M472.3,190.251l-1.665.961v-1.922l1.665-.961Z" transform="translate(-452.5 -182.789)" fill="#fff"/>
            <path id="Trazado_81338" data-name="Trazado 81338" d="M480.759,185.368l-1.665.961v-1.922l1.665-.961Z" transform="translate(-451.362 -183.446)" fill="#fff"/>
            <path id="Trazado_81339" data-name="Trazado 81339" d="M465.526,194.163l-1.665.961V193.2l1.665-.961Z" transform="translate(-453.413 -182.262)" fill="#fff"/>
          </g>
          <g id="Grupo_33074" data-name="Grupo 33074" transform="translate(52.541 8.887)">
            <g id="Grupo_33071" data-name="Grupo 33071" transform="translate(0 8.056)">
              <path id="Trazado_81340" data-name="Trazado 81340" d="M444.779,163.329l24.846,14.312-2.289,1.325L442.49,164.654Z" transform="translate(-442.49 -163.329)" fill="#21587b"/>
              <path id="Trazado_81341" data-name="Trazado 81341" d="M443.352,165.151l1.56-.9L468.9,178.063l.729-.422-24.846-14.312-2.29,1.325Z" transform="translate(-442.49 -163.329)" fill="#fff"/>
            </g>
            <g id="Grupo_33072" data-name="Grupo 33072" transform="translate(6.96 4.028)">
              <path id="Trazado_81342" data-name="Trazado 81342" d="M450.914,159.78l24.846,14.312-2.29,1.325L448.624,161.1Z" transform="translate(-448.624 -159.779)" fill="#21587b"/>
              <path id="Trazado_81343" data-name="Trazado 81343" d="M449.487,161.6l1.56-.9,23.984,13.815.729-.422-24.846-14.312-2.29,1.325Z" transform="translate(-448.624 -159.779)" fill="#fff"/>
            </g>
            <g id="Grupo_33073" data-name="Grupo 33073" transform="translate(13.921)">
              <path id="Trazado_81344" data-name="Trazado 81344" d="M457.048,156.23l24.846,14.312-2.29,1.325-24.846-14.312Z" transform="translate(-454.759 -156.23)" fill="#21587b"/>
              <path id="Trazado_81345" data-name="Trazado 81345" d="M455.621,158.051l1.56-.9,23.984,13.815.729-.422L457.048,156.23l-2.29,1.325Z" transform="translate(-454.759 -156.23)" fill="#fff"/>
            </g>
          </g>
        </g>
        <path id="Trazado_81346" data-name="Trazado 81346" d="M436.211,200.288a3.638,3.638,0,0,1-1.788-.419l-23.66-13.66a1.413,1.413,0,0,1-.8-1.21,1.842,1.842,0,0,1,1.072-1.493l23.121-13.348a4.447,4.447,0,0,1,4.062-.157l23.66,13.66a1.413,1.413,0,0,1,.8,1.21,1.841,1.841,0,0,1-1.072,1.493l-23.121,13.349A4.656,4.656,0,0,1,436.211,200.288Zm-1.478-.954a3.893,3.893,0,0,0,3.443-.157L461.3,185.828c.479-.276.765-.633.765-.956a.843.843,0,0,0-.5-.673l-23.66-13.66a3.894,3.894,0,0,0-3.443.155l-23.121,13.349c-.484.28-.762.629-.764.956a.849.849,0,0,0,.495.674Z" transform="translate(-393.721 -145.544)" fill="#21587b"/>
        <path id="Trazado_81347" data-name="Trazado 81347" d="M425.87,210.859l-19.524-11.273a2.019,2.019,0,0,1-.844-1.612v-1.449c0-.622.378-.908.844-.639l19.524,11.273a2.019,2.019,0,0,1,.844,1.612v1.45C426.714,210.842,426.336,211.128,425.87,210.859Z" transform="translate(-394.321 -142.016)" fill="#21587b"/>
      </g>
      <g id="Grupo_33083" data-name="Grupo 33083" transform="translate(267.797 63.489)">
        <path id="Trazado_81348" data-name="Trazado 81348" d="M290.634,152.563a10.8,10.8,0,0,1-5.284-1.262L250.183,131a3.511,3.511,0,0,1,0-6.6l61.085-35.269a11.705,11.705,0,0,1,10.567,0L357,109.43a3.512,3.512,0,0,1,0,6.6L295.918,151.3A10.8,10.8,0,0,1,290.634,152.563Zm25.918-63.841A9.906,9.906,0,0,0,311.7,89.88l-61.085,35.268a2.667,2.667,0,0,0,0,5.1l35.167,20.3a10.727,10.727,0,0,0,9.7,0L356.57,115.28a2.667,2.667,0,0,0,0-5.1L321.4,89.88A9.907,9.907,0,0,0,316.552,88.722Z" transform="translate(-247.867 -60.207)" fill="#00223d"/>
        <g id="Grupo_33082" data-name="Grupo 33082" transform="translate(0.607)">
          <path id="Trazado_81349" data-name="Trazado 81349" d="M358.985,102.9h0l0-16.86-21.306,2.842-15.954-9.211a11.2,11.2,0,0,0-10.134,0L283,96.176,248.4,100.792v17.167l.014,0a3.6,3.6,0,0,0,2.083,2.833l35.166,20.3a11.2,11.2,0,0,0,10.134,0l61.086-35.268A3.6,3.6,0,0,0,358.969,103h.016Z" transform="translate(-248.401 -61.473)" fill="url(#linear-gradient-3)"/>
          <path id="Trazado_81350" data-name="Trazado 81350" d="M356.887,85,321.72,64.7a11.2,11.2,0,0,0-10.134,0L250.5,99.968c-2.8,1.616-2.8,4.236,0,5.85l35.166,20.3a11.2,11.2,0,0,0,10.134,0l61.086-35.268C359.685,89.239,359.685,86.62,356.887,85Z" transform="translate(-248.402 -63.489)" fill="url(#linear-gradient-2)"/>
          <path id="Trazado_81351" data-name="Trazado 81351" d="M356.886,86.994,295.8,122.261a11.2,11.2,0,0,1-10.135,0l-35.166-20.3a3.884,3.884,0,0,1-2.038-2.415c-.262,1.222.413,2.5,2.038,3.436l35.166,20.3a11.2,11.2,0,0,0,10.135,0l61.085-35.268c1.625-.937,2.3-2.214,2.037-3.436A3.879,3.879,0,0,1,356.886,86.994Z" transform="translate(-248.401 -60.649)" fill="#fff"/>
          <g id="Grupo_33077" data-name="Grupo 33077" transform="translate(66.342 39.768)">
            <path id="Trazado_81352" data-name="Trazado 81352" d="M308.536,114.571l-1.665.961V113.61l1.665-.961Z" transform="translate(-306.871 -96.638)" fill="#fff"/>
            <path id="Trazado_81353" data-name="Trazado 81353" d="M311.606,112.8l-1.665.961v-1.922l1.665-.961Z" transform="translate(-306.458 -96.876)" fill="#fff"/>
            <path id="Trazado_81354" data-name="Trazado 81354" d="M314.675,111.027l-1.665.961v-1.922l1.665-.961Z" transform="translate(-306.044 -97.115)" fill="#fff"/>
            <path id="Trazado_81355" data-name="Trazado 81355" d="M312.165,115.909l-1.665.961v-1.922l1.665-.961Z" transform="translate(-306.382 -96.458)" fill="#fff"/>
            <path id="Trazado_81356" data-name="Trazado 81356" d="M314.868,114.348l-1.665.961v-1.922l1.665-.961Z" transform="translate(-306.018 -96.668)" fill="#fff"/>
            <path id="Trazado_81357" data-name="Trazado 81357" d="M324.521,105.342l-1.665.961v-1.922l1.665-.961Z" transform="translate(-304.719 -97.88)" fill="#fff"/>
            <path id="Trazado_81358" data-name="Trazado 81358" d="M332.977,100.46l-1.665.961V99.5l1.665-.961Z" transform="translate(-303.58 -98.538)" fill="#fff"/>
            <path id="Trazado_81359" data-name="Trazado 81359" d="M317.745,109.255l-1.665.961v-1.922l1.665-.961Z" transform="translate(-305.631 -97.354)" fill="#fff"/>
          </g>
          <g id="Grupo_33081" data-name="Grupo 33081" transform="translate(52.542 8.887)">
            <g id="Grupo_33078" data-name="Grupo 33078" transform="translate(0 8.056)">
              <path id="Trazado_81360" data-name="Trazado 81360" d="M297,78.421l24.846,14.312-2.289,1.325L294.708,79.746Z" transform="translate(-294.708 -78.421)" fill="#11203c"/>
              <path id="Trazado_81361" data-name="Trazado 81361" d="M295.571,80.243l1.56-.9,23.984,13.815.729-.422L297,78.421l-2.289,1.325Z" transform="translate(-294.708 -78.421)" fill="#fff"/>
            </g>
            <g id="Grupo_33079" data-name="Grupo 33079" transform="translate(6.961 4.028)">
              <path id="Trazado_81362" data-name="Trazado 81362" d="M303.132,74.871l24.846,14.312-2.289,1.325L300.843,76.2Z" transform="translate(-300.843 -74.871)" fill="#11203c"/>
              <path id="Trazado_81363" data-name="Trazado 81363" d="M301.705,76.693l1.56-.9,23.984,13.815.729-.422L303.133,74.871l-2.29,1.325Z" transform="translate(-300.843 -74.871)" fill="#fff"/>
            </g>
            <g id="Grupo_33080" data-name="Grupo 33080" transform="translate(13.921)">
              <path id="Trazado_81364" data-name="Trazado 81364" d="M309.267,71.321l24.846,14.312-2.29,1.325L306.977,72.646Z" transform="translate(-306.977 -71.321)" fill="#21587b"/>
              <path id="Trazado_81365" data-name="Trazado 81365" d="M307.84,73.143l1.56-.9,23.984,13.815.729-.422L309.267,71.321l-2.29,1.325Z" transform="translate(-306.977 -71.321)" fill="#fff"/>
            </g>
          </g>
        </g>
        <path id="Trazado_81366" data-name="Trazado 81366" d="M288.432,115.38a3.631,3.631,0,0,1-1.789-.42L262.981,101.3a1.413,1.413,0,0,1-.8-1.208,1.845,1.845,0,0,1,1.073-1.494L286.372,85.25a4.457,4.457,0,0,1,4.062-.157l23.66,13.66a1.414,1.414,0,0,1,.8,1.208,1.841,1.841,0,0,1-1.072,1.494L290.7,114.8A4.655,4.655,0,0,1,288.432,115.38Zm.224-30.081a4.071,4.071,0,0,0-1.973.487L263.561,99.134c-.479.276-.765.633-.765.958a.843.843,0,0,0,.5.672l23.66,13.661a3.886,3.886,0,0,0,3.443-.155l23.12-13.349c.479-.276.765-.633.765-.958a.842.842,0,0,0-.495-.672L290.123,85.63A3,3,0,0,0,288.655,85.3Z" transform="translate(-245.94 -60.636)" fill="#21587b"/>
        <path id="Trazado_81367" data-name="Trazado 81367" d="M278.089,125.95l-19.525-11.272a2.022,2.022,0,0,1-.843-1.612v-1.45c0-.621.378-.907.843-.638l19.525,11.273a2.022,2.022,0,0,1,.843,1.612v1.449C278.932,125.934,278.554,126.22,278.089,125.95Z" transform="translate(-246.54 -57.108)" fill="#21587b"/>
      </g>
      <g id="Grupo_33095" data-name="Grupo 33095" transform="translate(230.481 71.382)">
        <g id="Grupo_33086" data-name="Grupo 33086">
          <g id="Grupo_33084" data-name="Grupo 33084">
            <path id="Trazado_81368" data-name="Trazado 81368" d="M315.436,258.352a5.2,5.2,0,0,1-2.562-.6l-96.78-55.876a1.954,1.954,0,0,1-1.115-1.665,2.585,2.585,0,0,1,1.511-2.082L278.6,162.268a6.385,6.385,0,0,1,5.834-.228l96.78,55.876a1.951,1.951,0,0,1,1.115,1.665,2.585,2.585,0,0,1-1.511,2.083l-62.114,35.861A6.693,6.693,0,0,1,315.436,258.352Zm-2.232-1.169a5.773,5.773,0,0,0,5.174-.228l62.114-35.861a1.978,1.978,0,0,0,1.183-1.514,1.318,1.318,0,0,0-.787-1.095l-96.78-55.876a5.773,5.773,0,0,0-5.174.228L216.821,198.7a1.975,1.975,0,0,0-1.183,1.512,1.321,1.321,0,0,0,.787,1.095Z" transform="translate(-214.979 -58.193)" fill="#21587b" opacity="0.4"/>
            <path id="Trazado_81369" data-name="Trazado 81369" d="M315.435,244.91a5.209,5.209,0,0,1-2.561-.6l-96.78-55.877a1.954,1.954,0,0,1-1.115-1.665,2.582,2.582,0,0,1,1.511-2.082L278.6,148.824a6.392,6.392,0,0,1,5.834-.228l96.78,55.877a1.954,1.954,0,0,1,1.115,1.665,2.582,2.582,0,0,1-1.511,2.082l-62.114,35.863A6.7,6.7,0,0,1,315.435,244.91Zm-2.231-1.169a5.78,5.78,0,0,0,5.174-.228l62.114-35.863a1.977,1.977,0,0,0,1.183-1.512,1.319,1.319,0,0,0-.787-1.095l-96.78-55.877a5.762,5.762,0,0,0-5.174.229l-62.114,35.862a1.975,1.975,0,0,0-1.183,1.512,1.321,1.321,0,0,0,.787,1.095Z" transform="translate(-214.979 -60.003)" fill="#00223d"/>
            <path id="Trazado_81370" data-name="Trazado 81370" d="M398.494,126.475l-96.4-55.656a2.5,2.5,0,0,0-1.967-.283h0l-.009,0-1.785.622.629.149a3.092,3.092,0,0,0-.589,1.1l-21.8,70.782a4.269,4.269,0,0,0,1.767,4.763l96.4,55.657a2.822,2.822,0,0,0,.709.289l-.239.52,1.705-.6h0a2.723,2.723,0,0,0,1.551-1.8l21.8-70.782A4.27,4.27,0,0,0,398.494,126.475Z" transform="translate(-206.708 -70.445)" fill="#00223d"/>
            <path id="Trazado_81371" data-name="Trazado 81371" d="M379.515,196.724l.035.041L284.332,141.79a6.076,6.076,0,0,0-5.464.227l-61.52,35.519-2.051-.784.576,2.879,0,0a1.723,1.723,0,0,0,.924,1.153l96.1,55.482a6.072,6.072,0,0,0,5.464-.227l61.676-35.609a2.464,2.464,0,0,0,1.307-1.523l0,0,.589-2.8Z" transform="translate(-214.936 -60.912)" fill="#21587b"/>
            <path id="Trazado_81372" data-name="Trazado 81372" d="M313,234.111l-96.78-55.876c-1.41-.815-1.233-2.238.395-3.177L278.731,139.2a6.114,6.114,0,0,1,5.5-.228l96.78,55.876c1.411.815,1.235,2.236-.395,3.177l-62.114,35.862A6.117,6.117,0,0,1,313,234.111Z" transform="translate(-214.94 -61.293)" fill="url(#linear-gradient-2)"/>
            <path id="Trazado_81373" data-name="Trazado 81373" d="M216.22,172.148,313,228.024a6.117,6.117,0,0,0,5.5-.228l62.114-35.862a3.053,3.053,0,0,0,1.062-.962c.589.807.224,1.845-1.062,2.587L318.5,229.421a6.121,6.121,0,0,1-5.5.229l-96.78-55.877a1.471,1.471,0,0,1-.666-2.216A2.119,2.119,0,0,0,216.22,172.148Z" transform="translate(-214.939 -56.831)" fill="#fff"/>
            <path id="Trazado_81374" data-name="Trazado 81374" d="M373.291,204.12l-96.4-55.656a4.27,4.27,0,0,1-1.767-4.763l21.8-70.782a2.475,2.475,0,0,1,3.723-1.593l96.4,55.656a4.27,4.27,0,0,1,1.768,4.763l-21.8,70.782A2.474,2.474,0,0,1,373.291,204.12Z" transform="translate(-206.903 -70.377)" fill="#37a3a5"/>
            <path id="Trazado_81375" data-name="Trazado 81375" d="M374.64,204.726a2.856,2.856,0,0,1-1.429-.4l-96.4-55.657a4.49,4.49,0,0,1-1.861-5l21.8-70.782a2.913,2.913,0,0,1,1.682-1.941,2.661,2.661,0,0,1,2.341.229l96.4,55.657a4.491,4.491,0,0,1,1.862,5l-21.8,70.783a2.916,2.916,0,0,1-1.682,1.94A2.475,2.475,0,0,1,374.64,204.726Zm-75.3-133.543a2.093,2.093,0,0,0-.761.143,2.513,2.513,0,0,0-1.436,1.679l-21.8,70.782a4.056,4.056,0,0,0,1.672,4.523l96.4,55.657a2.27,2.27,0,0,0,1.984.2,2.516,2.516,0,0,0,1.436-1.679l21.8-70.783a4.06,4.06,0,0,0-1.674-4.523l-96.4-55.657A2.447,2.447,0,0,0,299.344,71.183Z" transform="translate(-206.928 -70.402)" fill="#03a7d3"/>
          </g>
          <g id="Grupo_33085" data-name="Grupo 33085" transform="translate(46.18 89.321)" opacity="0.5">
            <path id="Trazado_81376" data-name="Trazado 81376" d="M259.052,165.045l-3.2-1.848c-.256-.149-.225-.407.073-.579l3.777-2.182a1.118,1.118,0,0,1,1-.041l3.2,1.847c.256.149.225.408-.073.58L260.055,165A1.118,1.118,0,0,1,259.052,165.045Z" transform="translate(-255.678 -147.668)" fill="#21587b"/>
            <path id="Trazado_81377" data-name="Trazado 81377" d="M263.408,167.56l-3.2-1.848c-.258-.149-.225-.407.072-.579l3.778-2.181a1.112,1.112,0,0,1,1-.042l3.2,1.847c.258.149.225.408-.072.58l-3.778,2.181A1.118,1.118,0,0,1,263.408,167.56Z" transform="translate(-255.092 -147.33)" fill="#21587b"/>
            <path id="Trazado_81378" data-name="Trazado 81378" d="M267.765,170.075l-3.2-1.848c-.258-.149-.225-.407.071-.579l3.778-2.181a1.112,1.112,0,0,1,1-.042l3.2,1.848c.258.148.225.407-.071.579l-3.778,2.181A1.112,1.112,0,0,1,267.765,170.075Z" transform="translate(-254.505 -146.991)" fill="#21587b"/>
            <path id="Trazado_81379" data-name="Trazado 81379" d="M273.79,167.956l-3.2-1.848c-.258-.149-.225-.407.071-.579l3.171-1.831a1.114,1.114,0,0,1,1-.041l3.2,1.847c.256.149.225.407-.073.579l-3.171,1.831A1.116,1.116,0,0,1,273.79,167.956Z" transform="translate(-253.694 -147.229)" fill="#21587b"/>
            <path id="Trazado_81380" data-name="Trazado 81380" d="M278.146,170.471l-3.2-1.848c-.258-.149-.225-.407.072-.579l3.171-1.831a1.114,1.114,0,0,1,1-.041l3.2,1.847c.256.149.225.407-.073.579l-3.171,1.831A1.116,1.116,0,0,1,278.146,170.471Z" transform="translate(-253.107 -146.891)" fill="#21587b"/>
            <path id="Trazado_81381" data-name="Trazado 81381" d="M282.5,172.986l-3.2-1.848c-.256-.149-.225-.407.073-.579l3.171-1.831a1.112,1.112,0,0,1,1-.041l3.2,1.847c.258.149.225.407-.071.58l-3.171,1.83A1.115,1.115,0,0,1,282.5,172.986Z" transform="translate(-252.521 -146.552)" fill="#21587b"/>
            <path id="Trazado_81382" data-name="Trazado 81382" d="M286.858,175.5l-3.2-1.848c-.256-.147-.225-.407.073-.579l3.171-1.831a1.112,1.112,0,0,1,1-.041l3.2,1.847c.258.149.225.408-.072.58l-3.171,1.83A1.115,1.115,0,0,1,286.858,175.5Z" transform="translate(-251.934 -146.213)" fill="#21587b"/>
            <path id="Trazado_81383" data-name="Trazado 81383" d="M291.214,178.016l-3.2-1.848c-.258-.147-.225-.407.072-.579l3.171-1.83a1.111,1.111,0,0,1,1-.042l3.2,1.847c.256.149.225.408-.073.58l-3.171,1.83A1.114,1.114,0,0,1,291.214,178.016Z" transform="translate(-251.348 -145.875)" fill="#21587b"/>
            <path id="Trazado_81384" data-name="Trazado 81384" d="M295.571,180.531l-3.2-1.848c-.258-.147-.225-.407.071-.579l3.171-1.83a1.114,1.114,0,0,1,1-.042l3.2,1.848c.256.148.225.407-.073.579l-3.171,1.83A1.112,1.112,0,0,1,295.571,180.531Z" transform="translate(-250.761 -145.536)" fill="#21587b"/>
            <path id="Trazado_81385" data-name="Trazado 81385" d="M299.927,183.046l-3.2-1.848c-.256-.147-.225-.407.073-.579l3.17-1.83a1.115,1.115,0,0,1,1-.042l3.2,1.848c.256.148.225.407-.072.579l-3.171,1.831A1.114,1.114,0,0,1,299.927,183.046Z" transform="translate(-250.175 -145.197)" fill="#21587b"/>
            <path id="Trazado_81386" data-name="Trazado 81386" d="M304.283,185.561l-3.2-1.848c-.256-.148-.225-.407.073-.579l3.171-1.83a1.112,1.112,0,0,1,1-.042l3.2,1.848c.258.148.225.407-.071.579l-3.171,1.83A1.115,1.115,0,0,1,304.283,185.561Z" transform="translate(-249.588 -144.859)" fill="#21587b"/>
            <path id="Trazado_81387" data-name="Trazado 81387" d="M308.639,188.076l-3.2-1.847c-.256-.149-.225-.408.073-.579l3.171-1.831a1.112,1.112,0,0,1,1-.042l3.2,1.848c.258.149.225.407-.072.579l-3.171,1.831A1.114,1.114,0,0,1,308.639,188.076Z" transform="translate(-249.001 -144.52)" fill="#21587b"/>
            <path id="Trazado_81388" data-name="Trazado 81388" d="M313,190.591l-3.2-1.847c-.258-.149-.225-.407.071-.58l3.171-1.83a1.115,1.115,0,0,1,1-.042l3.2,1.848c.256.149.225.407-.073.579L314,190.55A1.112,1.112,0,0,1,313,190.591Z" transform="translate(-248.415 -144.181)" fill="#21587b"/>
            <path id="Trazado_81389" data-name="Trazado 81389" d="M280.208,166.765l-3.2-1.848c-.256-.148-.225-.407.073-.579l3.171-1.831a1.115,1.115,0,0,1,1-.041l3.2,1.847c.258.149.225.408-.071.58l-3.171,1.83A1.114,1.114,0,0,1,280.208,166.765Z" transform="translate(-252.83 -147.39)" fill="#21587b"/>
            <path id="Trazado_81390" data-name="Trazado 81390" d="M275.787,164.212l-3.2-1.847c-.256-.149-.225-.407.073-.579l3.171-1.831a1.112,1.112,0,0,1,1-.042l3.2,1.848c.256.149.225.407-.071.579l-3.171,1.831A1.114,1.114,0,0,1,275.787,164.212Z" transform="translate(-253.425 -147.733)" fill="#21587b"/>
            <path id="Trazado_81391" data-name="Trazado 81391" d="M271.8,161.909l-6.893-3.98c-.256-.149-.225-.407.073-.579l3.171-1.831a1.116,1.116,0,0,1,1-.042l6.894,3.98c.256.149.225.407-.073.579l-3.171,1.831A1.118,1.118,0,0,1,271.8,161.909Z" transform="translate(-254.46 -148.331)" fill="#21587b"/>
            <path id="Trazado_81392" data-name="Trazado 81392" d="M274.738,158.71l-5.594-3.229c-.258-.149-.225-.407.072-.579l3.171-1.831a1.115,1.115,0,0,1,1-.042l5.594,3.23c.256.148.225.407-.071.579l-3.171,1.831A1.114,1.114,0,0,1,274.738,158.71Z" transform="translate(-253.889 -148.66)" fill="#21587b"/>
            <path id="Trazado_81393" data-name="Trazado 81393" d="M284.564,169.28l-3.2-1.848c-.258-.148-.226-.407.072-.579l3.171-1.83a1.114,1.114,0,0,1,1-.042l3.2,1.847c.258.149.226.408-.072.58l-3.171,1.83A1.114,1.114,0,0,1,284.564,169.28Z" transform="translate(-252.243 -147.051)" fill="#21587b"/>
            <path id="Trazado_81394" data-name="Trazado 81394" d="M288.921,171.8l-3.2-1.848c-.258-.148-.225-.407.071-.579l3.171-1.83a1.114,1.114,0,0,1,1-.042l3.2,1.848c.256.147.225.407-.073.579l-3.171,1.83A1.112,1.112,0,0,1,288.921,171.8Z" transform="translate(-251.657 -146.712)" fill="#21587b"/>
            <path id="Trazado_81395" data-name="Trazado 81395" d="M293.277,174.31l-3.2-1.847c-.256-.149-.225-.408.072-.58l3.171-1.83a1.115,1.115,0,0,1,1-.042l3.2,1.848c.256.147.225.407-.073.579l-3.171,1.83A1.109,1.109,0,0,1,293.277,174.31Z" transform="translate(-251.07 -146.374)" fill="#21587b"/>
            <path id="Trazado_81396" data-name="Trazado 81396" d="M297.633,176.825l-3.2-1.847c-.256-.149-.225-.408.073-.58l3.171-1.83a1.112,1.112,0,0,1,1-.042l3.2,1.848c.258.149.225.407-.071.579l-3.171,1.831A1.114,1.114,0,0,1,297.633,176.825Z" transform="translate(-250.483 -146.035)" fill="#21587b"/>
            <path id="Trazado_81397" data-name="Trazado 81397" d="M301.989,179.34l-3.2-1.847c-.256-.149-.225-.407.073-.579l3.171-1.831a1.114,1.114,0,0,1,1-.042l3.2,1.848c.258.149.225.407-.071.579l-3.171,1.831A1.114,1.114,0,0,1,301.989,179.34Z" transform="translate(-249.897 -145.696)" fill="#21587b"/>
            <path id="Trazado_81398" data-name="Trazado 81398" d="M306.346,181.855l-3.2-1.847c-.258-.149-.225-.407.071-.579l3.171-1.831a1.114,1.114,0,0,1,1-.042l3.2,1.848c.256.149.225.407-.073.579l-3.171,1.831A1.112,1.112,0,0,1,306.346,181.855Z" transform="translate(-249.31 -145.358)" fill="#21587b"/>
            <path id="Trazado_81399" data-name="Trazado 81399" d="M310.7,184.37l-3.2-1.847c-.258-.149-.225-.407.072-.579l3.171-1.831a1.118,1.118,0,0,1,1-.042l3.2,1.848c.256.149.225.407-.073.579l-3.171,1.831A1.112,1.112,0,0,1,310.7,184.37Z" transform="translate(-248.724 -145.019)" fill="#21587b"/>
            <path id="Trazado_81400" data-name="Trazado 81400" d="M315.058,186.886l-3.2-1.848c-.256-.149-.225-.407.071-.579l3.173-1.831a1.116,1.116,0,0,1,1-.042l3.2,1.848c.258.149.225.407-.071.579l-3.171,1.831A1.118,1.118,0,0,1,315.058,186.886Z" transform="translate(-248.137 -144.68)" fill="#21587b"/>
            <path id="Trazado_81401" data-name="Trazado 81401" d="M319.414,189.4l-3.2-1.848c-.256-.149-.225-.407.073-.579l3.171-1.831a1.112,1.112,0,0,1,1-.041l3.2,1.847c.258.149.225.407-.072.579l-3.171,1.831A1.118,1.118,0,0,1,319.414,189.4Z" transform="translate(-247.551 -144.342)" fill="#21587b"/>
            <path id="Trazado_81402" data-name="Trazado 81402" d="M327.608,194.131l-6.984-4.033c-.258-.147-.225-.407.072-.579l3.171-1.831a1.114,1.114,0,0,1,1-.041l6.984,4.031c.256.149.225.407-.073.579l-3.171,1.831A1.112,1.112,0,0,1,327.608,194.131Z" transform="translate(-246.957 -143.999)" fill="#21587b"/>
            <path id="Trazado_81403" data-name="Trazado 81403" d="M335.96,189.16l-5.895-3.4c-.258-.149-.225-.407.071-.579l3.171-1.831a1.114,1.114,0,0,1,1-.041l5.895,3.4c.256.149.225.407-.073.579l-3.171,1.831A1.112,1.112,0,0,1,335.96,189.16Z" transform="translate(-245.686 -144.583)" fill="#21587b"/>
            <path id="Trazado_81404" data-name="Trazado 81404" d="M292.193,168.788l-3.2-1.848c-.256-.147-.225-.407.073-.579l3.171-1.83a1.112,1.112,0,0,1,1-.042l3.2,1.848c.258.147.225.407-.072.579l-3.171,1.83A1.114,1.114,0,0,1,292.193,168.788Z" transform="translate(-251.216 -147.117)" fill="#21587b"/>
            <path id="Trazado_81405" data-name="Trazado 81405" d="M287.728,166.21l-3.2-1.847c-.258-.149-.225-.408.072-.579l3.171-1.831a1.115,1.115,0,0,1,1-.042l3.2,1.848c.256.149.225.407-.073.579l-3.171,1.831A1.114,1.114,0,0,1,287.728,166.21Z" transform="translate(-251.817 -147.464)" fill="#21587b"/>
            <path id="Trazado_81406" data-name="Trazado 81406" d="M283.264,163.633l-3.2-1.848c-.256-.149-.225-.407.073-.579l3.17-1.831a1.114,1.114,0,0,1,1-.041l3.2,1.847c.256.149.225.407-.071.579l-3.171,1.831A1.118,1.118,0,0,1,283.264,163.633Z" transform="translate(-252.418 -147.811)" fill="#21587b"/>
            <path id="Trazado_81407" data-name="Trazado 81407" d="M278.8,161.055l-3.2-1.848c-.256-.148-.225-.407.073-.579l3.171-1.83a1.114,1.114,0,0,1,1-.042l3.2,1.848c.258.148.225.407-.071.579l-3.171,1.83A1.114,1.114,0,0,1,278.8,161.055Z" transform="translate(-253.019 -148.158)" fill="#21587b"/>
            <path id="Trazado_81408" data-name="Trazado 81408" d="M296.549,171.3l-3.2-1.848c-.256-.147-.225-.407.073-.579l3.171-1.831a1.114,1.114,0,0,1,1-.041l3.2,1.848c.258.147.225.407-.071.579l-3.171,1.83A1.115,1.115,0,0,1,296.549,171.3Z" transform="translate(-250.629 -146.779)" fill="#21587b"/>
            <path id="Trazado_81409" data-name="Trazado 81409" d="M300.906,173.818l-3.2-1.847c-.258-.149-.225-.408.072-.58l3.171-1.83a1.114,1.114,0,0,1,1-.042l3.2,1.848c.256.148.225.407-.073.579l-3.171,1.83A1.112,1.112,0,0,1,300.906,173.818Z" transform="translate(-250.043 -146.44)" fill="#21587b"/>
            <path id="Trazado_81410" data-name="Trazado 81410" d="M305.262,176.333l-3.2-1.848c-.258-.148-.225-.407.072-.579l3.171-1.83a1.115,1.115,0,0,1,1-.042l3.2,1.848c.256.148.225.407-.073.579l-3.171,1.831A1.112,1.112,0,0,1,305.262,176.333Z" transform="translate(-249.456 -146.101)" fill="#21587b"/>
            <path id="Trazado_81411" data-name="Trazado 81411" d="M309.618,178.848l-3.2-1.847c-.256-.149-.225-.408.073-.58l3.171-1.83a1.112,1.112,0,0,1,1-.042l3.2,1.848c.256.148.225.407-.071.579l-3.171,1.831A1.114,1.114,0,0,1,309.618,178.848Z" transform="translate(-248.87 -145.763)" fill="#21587b"/>
            <path id="Trazado_81412" data-name="Trazado 81412" d="M313.974,181.363l-3.2-1.847c-.256-.149-.225-.407.073-.579l3.171-1.831a1.112,1.112,0,0,1,1-.042l3.2,1.848c.258.149.225.407-.072.579l-3.171,1.831A1.114,1.114,0,0,1,313.974,181.363Z" transform="translate(-248.283 -145.424)" fill="#21587b"/>
            <path id="Trazado_81413" data-name="Trazado 81413" d="M318.33,183.878l-3.2-1.847c-.258-.149-.225-.407.071-.579l3.171-1.831a1.115,1.115,0,0,1,1-.042l3.2,1.848c.258.149.226.407-.071.579l-3.171,1.831A1.114,1.114,0,0,1,318.33,183.878Z" transform="translate(-247.697 -145.085)" fill="#21587b"/>
            <path id="Trazado_81414" data-name="Trazado 81414" d="M322.687,186.393l-3.2-1.847c-.258-.149-.225-.407.071-.579l3.171-1.831a1.118,1.118,0,0,1,1-.042l3.2,1.848c.256.149.225.407-.073.579l-3.171,1.831A1.112,1.112,0,0,1,322.687,186.393Z" transform="translate(-247.11 -144.747)" fill="#21587b"/>
            <path id="Trazado_81415" data-name="Trazado 81415" d="M327.043,188.908l-3.2-1.847c-.256-.149-.225-.407.071-.579l3.171-1.831a1.118,1.118,0,0,1,1-.042l3.2,1.848c.256.149.225.407-.072.579l-3.172,1.831A1.112,1.112,0,0,1,327.043,188.908Z" transform="translate(-246.523 -144.408)" fill="#21587b"/>
            <path id="Trazado_81416" data-name="Trazado 81416" d="M331.4,191.423l-3.2-1.847c-.256-.149-.225-.407.073-.579l3.171-1.831a1.112,1.112,0,0,1,1-.041l3.2,1.847c.258.149.225.407-.071.579l-3.171,1.831A1.114,1.114,0,0,1,331.4,191.423Z" transform="translate(-245.937 -144.069)" fill="#21587b"/>
            <path id="Trazado_81417" data-name="Trazado 81417" d="M289.9,162.567l-3.2-1.847c-.256-.149-.225-.408.073-.58l3.171-1.83a1.112,1.112,0,0,1,1-.042l3.2,1.848c.258.148.225.407-.071.579l-3.171,1.83A1.115,1.115,0,0,1,289.9,162.567Z" transform="translate(-251.525 -147.955)" fill="#21587b"/>
            <path id="Trazado_81418" data-name="Trazado 81418" d="M285.565,160.065l-3.2-1.848c-.258-.149-.225-.407.072-.579l3.171-1.831a1.118,1.118,0,0,1,1-.042l3.2,1.848c.256.149.225.407-.073.579l-3.171,1.831A1.116,1.116,0,0,1,285.565,160.065Z" transform="translate(-252.108 -148.292)" fill="#21587b"/>
            <path id="Trazado_81419" data-name="Trazado 81419" d="M281.23,157.562l-3.2-1.848c-.256-.147-.225-.407.073-.579l3.171-1.831a1.112,1.112,0,0,1,1-.041l3.2,1.848c.258.147.225.407-.071.579l-3.171,1.83A1.114,1.114,0,0,1,281.23,157.562Z" transform="translate(-252.692 -148.629)" fill="#21587b"/>
            <path id="Trazado_81420" data-name="Trazado 81420" d="M276.9,155.059l-3.2-1.847c-.258-.149-.225-.407.072-.579l3.171-1.831a1.115,1.115,0,0,1,1-.042l3.2,1.848c.256.149.225.407-.073.579l-3.171,1.831A1.112,1.112,0,0,1,276.9,155.059Z" transform="translate(-253.276 -148.966)" fill="#21587b"/>
            <path id="Trazado_81421" data-name="Trazado 81421" d="M281.353,152.341l-3.2-1.848c-.256-.148-.225-.407.072-.579l1.048-.6a1.114,1.114,0,0,1,1-.042l3.2,1.848c.256.149.225.407-.073.579l-1.048.6A1.112,1.112,0,0,1,281.353,152.341Z" transform="translate(-252.676 -149.167)" fill="#21587b"/>
            <path id="Trazado_81422" data-name="Trazado 81422" d="M287.009,155.607l-3.2-1.848c-.258-.148-.225-.407.071-.579l1.048-.6a1.115,1.115,0,0,1,1-.042l3.2,1.848c.258.147.226.407-.072.579l-1.048.6A1.114,1.114,0,0,1,287.009,155.607Z" transform="translate(-251.914 -148.727)" fill="#21587b"/>
            <path id="Trazado_81423" data-name="Trazado 81423" d="M291.326,158.1l-3.2-1.848c-.256-.148-.225-.407.073-.579l1.047-.6a1.115,1.115,0,0,1,1-.042l3.2,1.848c.256.149.225.407-.071.579l-1.048.6A1.115,1.115,0,0,1,291.326,158.1Z" transform="translate(-251.333 -148.391)" fill="#21587b"/>
            <path id="Trazado_81424" data-name="Trazado 81424" d="M295.642,160.591l-3.2-1.847c-.258-.149-.226-.408.071-.58l1.048-.6a1.114,1.114,0,0,1,1-.042l3.2,1.848c.258.149.226.407-.072.579l-1.048.6A1.111,1.111,0,0,1,295.642,160.591Z" transform="translate(-250.751 -148.056)" fill="#21587b"/>
            <path id="Trazado_81425" data-name="Trazado 81425" d="M299.959,163.083l-3.2-1.847c-.256-.149-.225-.408.073-.579l1.047-.606a1.118,1.118,0,0,1,1-.042l3.2,1.848c.256.149.225.407-.073.579l-1.047.606A1.114,1.114,0,0,1,299.959,163.083Z" transform="translate(-250.17 -147.72)" fill="#21587b"/>
            <path id="Trazado_81426" data-name="Trazado 81426" d="M324.057,177l-3.2-1.847c-.256-.149-.225-.407.073-.579l1.048-.606a1.116,1.116,0,0,1,1-.042l3.2,1.848c.258.149.225.407-.072.579l-1.048.606A1.114,1.114,0,0,1,324.057,177Z" transform="translate(-246.925 -145.847)" fill="#21587b"/>
            <path id="Trazado_81427" data-name="Trazado 81427" d="M328.374,179.488l-3.2-1.847c-.258-.149-.225-.407.072-.579l1.048-.606a1.114,1.114,0,0,1,1-.041l3.2,1.847c.256.149.225.408-.073.579l-1.048.606A1.112,1.112,0,0,1,328.374,179.488Z" transform="translate(-246.344 -145.511)" fill="#21587b"/>
            <path id="Trazado_81428" data-name="Trazado 81428" d="M332.69,181.981l-3.2-1.848c-.256-.149-.225-.407.073-.579l1.048-.606a1.112,1.112,0,0,1,1-.041l3.2,1.847c.258.149.225.408-.072.58l-1.048.6A1.118,1.118,0,0,1,332.69,181.981Z" transform="translate(-245.763 -145.176)" fill="#21587b"/>
            <path id="Trazado_81429" data-name="Trazado 81429" d="M337.007,184.473l-3.2-1.848c-.258-.149-.225-.407.071-.579l1.048-.6a1.114,1.114,0,0,1,1-.042l3.2,1.848c.256.147.225.407-.073.579l-1.048.6A1.116,1.116,0,0,1,337.007,184.473Z" transform="translate(-245.182 -144.84)" fill="#21587b"/>
            <path id="Trazado_81430" data-name="Trazado 81430" d="M294.255,165.082l-3.2-1.848c-.258-.148-.225-.407.071-.579l3.171-1.83a1.115,1.115,0,0,1,1-.042l3.2,1.848c.256.148.225.407-.073.579l-3.171,1.831A1.114,1.114,0,0,1,294.255,165.082Z" transform="translate(-250.938 -147.616)" fill="#21587b"/>
            <path id="Trazado_81431" data-name="Trazado 81431" d="M298.612,167.6l-3.2-1.847c-.258-.149-.225-.408.072-.58l3.171-1.83a1.114,1.114,0,0,1,1-.042l3.2,1.848c.256.149.225.407-.073.579l-3.171,1.831A1.112,1.112,0,0,1,298.612,167.6Z" transform="translate(-250.352 -147.278)" fill="#21587b"/>
            <path id="Trazado_81432" data-name="Trazado 81432" d="M302.968,170.112l-3.2-1.847c-.256-.149-.225-.408.073-.579l3.171-1.831a1.112,1.112,0,0,1,1-.042l3.2,1.848c.256.149.225.407-.071.579l-3.171,1.831A1.114,1.114,0,0,1,302.968,170.112Z" transform="translate(-249.765 -146.939)" fill="#21587b"/>
            <path id="Trazado_81433" data-name="Trazado 81433" d="M307.324,172.627l-3.2-1.847c-.256-.149-.225-.407.073-.579l3.171-1.831a1.116,1.116,0,0,1,1-.042l3.2,1.848c.258.149.225.407-.071.579l-3.171,1.831A1.114,1.114,0,0,1,307.324,172.627Z" transform="translate(-249.179 -146.6)" fill="#21587b"/>
            <path id="Trazado_81434" data-name="Trazado 81434" d="M311.68,175.142l-3.2-1.847c-.258-.149-.226-.407.071-.579l3.171-1.831a1.118,1.118,0,0,1,1-.042l3.2,1.848c.258.149.226.407-.071.579l-3.171,1.831A1.114,1.114,0,0,1,311.68,175.142Z" transform="translate(-248.592 -146.262)" fill="#21587b"/>
            <path id="Trazado_81435" data-name="Trazado 81435" d="M316.037,177.657l-3.2-1.847c-.258-.149-.225-.407.071-.579l3.171-1.831a1.118,1.118,0,0,1,1-.042l3.2,1.848c.256.149.225.407-.073.579l-3.171,1.831A1.112,1.112,0,0,1,316.037,177.657Z" transform="translate(-248.005 -145.923)" fill="#21587b"/>
            <path id="Trazado_81436" data-name="Trazado 81436" d="M320.393,180.173l-3.2-1.848c-.256-.149-.225-.407.071-.579l3.171-1.831a1.118,1.118,0,0,1,1-.042l3.2,1.848c.256.149.225.407-.073.579l-3.171,1.831A1.116,1.116,0,0,1,320.393,180.173Z" transform="translate(-247.419 -145.584)" fill="#21587b"/>
            <path id="Trazado_81437" data-name="Trazado 81437" d="M324.749,182.688l-3.2-1.848c-.256-.149-.225-.407.073-.579l3.171-1.831a1.116,1.116,0,0,1,1-.042l3.2,1.848c.258.149.225.407-.071.579l-3.171,1.831A1.118,1.118,0,0,1,324.749,182.688Z" transform="translate(-246.832 -145.246)" fill="#21587b"/>
            <path id="Trazado_81438" data-name="Trazado 81438" d="M329.105,185.2l-3.2-1.848c-.256-.149-.225-.407.073-.579l3.171-1.831a1.114,1.114,0,0,1,1-.041l3.2,1.847c.258.149.225.407-.071.579l-3.171,1.831A1.118,1.118,0,0,1,329.105,185.2Z" transform="translate(-246.246 -144.907)" fill="#21587b"/>
            <path id="Trazado_81439" data-name="Trazado 81439" d="M270.089,165.82l-9.426-5.443c-.258-.148-.226-.407.071-.579l3.171-1.831a1.114,1.114,0,0,1,1-.041l9.426,5.442c.258.149.225.407-.071.579l-3.171,1.831A1.118,1.118,0,0,1,270.089,165.82Z" transform="translate(-255.031 -148.001)" fill="#21587b"/>
            <path id="Trazado_81440" data-name="Trazado 81440" d="M323.607,196.718l-9.427-5.443c-.258-.148-.225-.407.071-.579l3.171-1.83a1.115,1.115,0,0,1,1-.042l9.427,5.442c.256.149.225.408-.073.58l-3.171,1.83A1.112,1.112,0,0,1,323.607,196.718Z" transform="translate(-247.824 -143.84)" fill="#21587b"/>
            <path id="Trazado_81441" data-name="Trazado 81441" d="M305.446,191.83l-3.2-1.847c-.258-.149-.226-.408.071-.58l3.778-2.181a1.112,1.112,0,0,1,1-.041l3.2,1.847c.256.149.225.407-.071.579l-3.778,2.182A1.114,1.114,0,0,1,305.446,191.83Z" transform="translate(-249.431 -144.062)" fill="#21587b"/>
            <path id="Trazado_81442" data-name="Trazado 81442" d="M274.039,173.7l-5.118-2.956c-.256-.149-.225-.407.072-.579l3.778-2.181a1.114,1.114,0,0,1,1-.042l5.118,2.956c.256.147.225.407-.071.579l-3.778,2.181A1.114,1.114,0,0,1,274.039,173.7Z" transform="translate(-253.919 -146.652)" fill="#21587b"/>
            <path id="Trazado_81443" data-name="Trazado 81443" d="M301.477,189.538l-5.118-2.956c-.258-.147-.225-.407.071-.579l3.778-2.181a1.116,1.116,0,0,1,1-.042l5.12,2.956c.256.149.225.407-.073.579L302.48,189.5A1.114,1.114,0,0,1,301.477,189.538Z" transform="translate(-250.224 -144.519)" fill="#21587b"/>
            <path id="Trazado_81444" data-name="Trazado 81444" d="M280.324,177.326l-5.118-2.956c-.256-.149-.225-.407.073-.579l3.777-2.182a1.114,1.114,0,0,1,1-.041l5.118,2.955c.258.149.225.407-.072.579l-3.778,2.182A1.118,1.118,0,0,1,280.324,177.326Z" transform="translate(-253.072 -146.164)" fill="#21587b"/>
            <path id="Trazado_81445" data-name="Trazado 81445" d="M280.068,171.574l22.255,12.85a.3.3,0,0,1,0,.576l-3.852,2.225a1.108,1.108,0,0,1-1,0l-22.255-12.849Z" transform="translate(-253.048 -146.15)" fill="#21587b"/>
            <path id="Trazado_81446" data-name="Trazado 81446" d="M317.526,195.836l3.565,2.059c.211.121.185.334-.059.474l-1.545.892a.913.913,0,0,1-.822.034l-3.565-2.058c-.211-.121-.184-.334.059-.474l1.545-.893A.916.916,0,0,1,317.526,195.836Z" transform="translate(-247.696 -142.894)" fill="#21587b"/>
            <path id="Trazado_81447" data-name="Trazado 81447" d="M313.134,193.3l3.565,2.059c.211.121.184.334-.059.474l-1.545.892a.913.913,0,0,1-.822.034l-3.565-2.058c-.211-.121-.185-.334.059-.474l1.545-.893A.916.916,0,0,1,313.134,193.3Z" transform="translate(-248.288 -143.235)" fill="#21587b"/>
            <path id="Trazado_81448" data-name="Trazado 81448" d="M308.778,190.785l3.565,2.059c.211.121.184.334-.059.474l-1.545.892a.913.913,0,0,1-.822.034l-3.566-2.058c-.21-.121-.184-.335.059-.474l1.545-.893A.919.919,0,0,1,308.778,190.785Z" transform="translate(-248.874 -143.574)" fill="#21587b"/>
            <path id="Trazado_81449" data-name="Trazado 81449" d="M315.54,191.912l3.565,2.058c.21.121.184.334-.059.474l-1.545.892a.915.915,0,0,1-.823.034l-3.565-2.058c-.21-.121-.184-.334.059-.474l1.545-.892A.911.911,0,0,1,315.54,191.912Z" transform="translate(-247.964 -143.422)" fill="#21587b"/>
          </g>
          <path id="Trazado_81450" data-name="Trazado 81450" d="M283.249,203.627a4.611,4.611,0,0,1-2.269-.531l-24.841-14.343a1.738,1.738,0,0,1-.992-1.478,2.293,2.293,0,0,1,1.341-1.849l12.786-7.383a5.662,5.662,0,0,1,5.165-.2l24.842,14.343a1.738,1.738,0,0,1,.992,1.48,2.293,2.293,0,0,1-1.341,1.848l-12.787,7.383A5.916,5.916,0,0,1,283.249,203.627Zm-1.969-1.052a5.081,5.081,0,0,0,4.564-.2l12.786-7.383a1.735,1.735,0,0,0,1.04-1.328,1.185,1.185,0,0,0-.691-.959l-24.842-14.343a5.08,5.08,0,0,0-4.561.2l-12.787,7.383a1.738,1.738,0,0,0-1.04,1.329,1.184,1.184,0,0,0,.692.958Z" transform="translate(-209.57 -56.056)" fill="#21587b" opacity="0.5"/>
        </g>
        <g id="Grupo_33091" data-name="Grupo 33091" transform="translate(79.789 21.313)">
          <g id="Grupo_33088" data-name="Grupo 33088" transform="translate(7.375)">
            <g id="Grupo_33087" data-name="Grupo 33087" transform="translate(3.023 2.252)">
              <path id="Trazado_81451" data-name="Trazado 81451" d="M306.8,95.416l-2.821-1.627a.738.738,0,0,1-.313-.811h0a.418.418,0,0,1,.634-.264l2.82,1.628a.736.736,0,0,1,.314.811h0A.417.417,0,0,1,306.8,95.416Z" transform="translate(-293.228 -91.021)" fill="#fff"/>
              <path id="Trazado_81452" data-name="Trazado 81452" d="M312.879,98.925l-4.159-2.4a.738.738,0,0,1-.313-.811h0a.418.418,0,0,1,.634-.264l4.158,2.4a.736.736,0,0,1,.313.811h0A.417.417,0,0,1,312.879,98.925Z" transform="translate(-292.59 -90.653)" fill="#fff"/>
              <path id="Trazado_81453" data-name="Trazado 81453" d="M301.788,106.481l-2.821-1.628a.736.736,0,0,1-.313-.81h0a.418.418,0,0,1,.634-.264l2.82,1.628a.735.735,0,0,1,.313.811h0A.417.417,0,0,1,301.788,106.481Z" transform="translate(-293.903 -89.531)" fill="#fff"/>
              <path id="Trazado_81454" data-name="Trazado 81454" d="M307.224,109.619l-4.159-2.4a.736.736,0,0,1-.313-.81h0a.418.418,0,0,1,.634-.264l4.157,2.4a.735.735,0,0,1,.314.811h0A.418.418,0,0,1,307.224,109.619Z" transform="translate(-293.351 -89.213)" fill="#fff"/>
              <path id="Trazado_81455" data-name="Trazado 81455" d="M299.229,93.371l-1.762-1.017a.737.737,0,0,1-.313-.811h0a.418.418,0,0,1,.634-.263l1.761,1.017a.735.735,0,0,1,.314.811h0A.417.417,0,0,1,299.229,93.371Z" transform="translate(-294.105 -91.214)" fill="#fff"/>
              <path id="Trazado_81456" data-name="Trazado 81456" d="M304.331,98.643l-5.383-3.108a.734.734,0,0,1-.313-.81h0a.417.417,0,0,1,.633-.264l5.383,3.108a.735.735,0,0,1,.313.811h0A.417.417,0,0,1,304.331,98.643Z" transform="translate(-293.906 -90.786)" fill="#fff"/>
              <path id="Trazado_81457" data-name="Trazado 81457" d="M299.525,100.522l-1.761-1.017a.735.735,0,0,1-.313-.811h0a.417.417,0,0,1,.633-.264l1.762,1.018a.735.735,0,0,1,.313.811h0A.418.418,0,0,1,299.525,100.522Z" transform="translate(-294.065 -90.251)" fill="#fff"/>
              <path id="Trazado_81458" data-name="Trazado 81458" d="M307.861,114.641l-4.705-2.717a.736.736,0,0,1-.313-.81h0a.418.418,0,0,1,.634-.264l4.705,2.716a.737.737,0,0,1,.313.811h0A.418.418,0,0,1,307.861,114.641Z" transform="translate(-293.339 -88.579)" fill="#fff"/>
              <path id="Trazado_81459" data-name="Trazado 81459" d="M297.711,104.127l-1.13-.652a.736.736,0,0,1-.314-.811h0a.418.418,0,0,1,.634-.263l1.131.652a.736.736,0,0,1,.313.811h0A.418.418,0,0,1,297.711,104.127Z" transform="translate(-294.224 -89.717)" fill="#fff"/>
              <path id="Trazado_81460" data-name="Trazado 81460" d="M296.8,108.255l-1.4-.811a.735.735,0,0,1-.314-.81h0a.418.418,0,0,1,.634-.264l1.4.811a.736.736,0,0,1,.313.81h0A.418.418,0,0,1,296.8,108.255Z" transform="translate(-294.384 -89.182)" fill="#fff"/>
              <path id="Trazado_81461" data-name="Trazado 81461" d="M301.888,111.192l-3.7-2.138a.735.735,0,0,1-.313-.811h0a.416.416,0,0,1,.633-.263l3.7,2.137a.737.737,0,0,1,.314.811h0A.418.418,0,0,1,301.888,111.192Z" transform="translate(-294.008 -88.966)" fill="#fff"/>
              <path id="Trazado_81462" data-name="Trazado 81462" d="M297.466,110.966l-2.663-1.537a.736.736,0,0,1-.313-.811h0a.418.418,0,0,1,.634-.263l2.662,1.536a.735.735,0,0,1,.313.811h0A.417.417,0,0,1,297.466,110.966Z" transform="translate(-294.464 -88.915)" fill="#fff"/>
              <path id="Trazado_81463" data-name="Trazado 81463" d="M311.063,116.5l-1.71-.987a.735.735,0,0,1-.313-.811h0a.417.417,0,0,1,.634-.263l1.709.986a.735.735,0,0,1,.314.811h0A.418.418,0,0,1,311.063,116.5Z" transform="translate(-292.504 -88.096)" fill="#fff"/>
              <path id="Trazado_81464" data-name="Trazado 81464" d="M305.651,104.058l-4.705-2.716a.734.734,0,0,1-.313-.81h0a.417.417,0,0,1,.633-.264l4.705,2.716a.735.735,0,0,1,.313.811h0A.416.416,0,0,1,305.651,104.058Z" transform="translate(-293.637 -90.004)" fill="#fff"/>
            </g>
            <path id="Trazado_81465" data-name="Trazado 81465" d="M306.556,102.255l-8.2-4.735a.735.735,0,0,1-.313-.811h0a.417.417,0,0,1,.633-.263l8.2,4.735a.736.736,0,0,1,.313.81h0A.418.418,0,0,1,306.556,102.255Z" transform="translate(-290.962 -88.266)" fill="#fff"/>
            <path id="Trazado_81466" data-name="Trazado 81466" d="M301.878,104.207l-4.705-2.717a.735.735,0,0,1-.314-.81h0a.418.418,0,0,1,.634-.264l4.705,2.716a.735.735,0,0,1,.313.811h0A.417.417,0,0,1,301.878,104.207Z" transform="translate(-291.122 -87.732)" fill="#fff"/>
            <path id="Trazado_81467" data-name="Trazado 81467" d="M308.44,105.668l-1.71-.987a.736.736,0,0,1-.313-.81h0a.418.418,0,0,1,.634-.264l1.709.987a.735.735,0,0,1,.314.811h0A.417.417,0,0,1,308.44,105.668Z" transform="translate(-289.835 -87.302)" fill="#fff"/>
            <path id="Trazado_81468" data-name="Trazado 81468" d="M320.665,103.4l-6.025-3.461a.735.735,0,0,1-.313-.81h0a.418.418,0,0,1,.634-.264l6.024,3.461a.735.735,0,0,1,.314.81h0A.418.418,0,0,1,320.665,103.4Z" transform="translate(-288.77 -87.94)" fill="#fff"/>
            <path id="Trazado_81469" data-name="Trazado 81469" d="M301.644,108.725l-5.655-3.266a.736.736,0,0,1-.314-.811h0a.418.418,0,0,1,.634-.264l5.656,3.266a.735.735,0,0,1,.313.811h0A.418.418,0,0,1,301.644,108.725Z" transform="translate(-291.281 -87.197)" fill="#fff"/>
            <path id="Trazado_81470" data-name="Trazado 81470" d="M302.218,92.77l-4.158-2.4a.735.735,0,0,1-.313-.81h0a.418.418,0,0,1,.634-.264l4.159,2.4a.737.737,0,0,1,.313.811h0A.418.418,0,0,1,302.218,92.77Z" transform="translate(-291.002 -89.229)" fill="#fff"/>
            <path id="Trazado_81471" data-name="Trazado 81471" d="M296.955,113l-4.815-2.781a.735.735,0,0,1-.313-.811h0a.417.417,0,0,1,.633-.263l4.817,2.78a.737.737,0,0,1,.313.811h0A.418.418,0,0,1,296.955,113Z" transform="translate(-291.8 -86.557)" fill="#fff"/>
          </g>
          <g id="Grupo_33090" data-name="Grupo 33090" transform="translate(0 24.949)">
            <g id="Grupo_33089" data-name="Grupo 33089" transform="translate(3.023 2.252)">
              <path id="Trazado_81472" data-name="Trazado 81472" d="M300.3,117.4l-2.82-1.628a.733.733,0,0,1-.313-.811h0a.417.417,0,0,1,.633-.263l2.821,1.627a.738.738,0,0,1,.313.811h0A.418.418,0,0,1,300.3,117.4Z" transform="translate(-286.729 -113.009)" fill="#fff"/>
              <path id="Trazado_81473" data-name="Trazado 81473" d="M306.379,120.914l-4.157-2.4a.736.736,0,0,1-.314-.811h0a.418.418,0,0,1,.634-.263l4.158,2.4a.738.738,0,0,1,.313.811h0A.418.418,0,0,1,306.379,120.914Z" transform="translate(-286.09 -112.641)" fill="#fff"/>
              <path id="Trazado_81474" data-name="Trazado 81474" d="M295.288,128.47l-2.82-1.628a.735.735,0,0,1-.314-.811h0a.418.418,0,0,1,.634-.263l2.82,1.628a.735.735,0,0,1,.314.81h0A.418.418,0,0,1,295.288,128.47Z" transform="translate(-287.404 -111.519)" fill="#fff"/>
              <path id="Trazado_81475" data-name="Trazado 81475" d="M300.724,131.608l-4.159-2.4a.737.737,0,0,1-.313-.811h0a.418.418,0,0,1,.634-.263l4.158,2.4a.738.738,0,0,1,.313.811h0A.418.418,0,0,1,300.724,131.608Z" transform="translate(-286.852 -111.201)" fill="#fff"/>
              <path id="Trazado_81476" data-name="Trazado 81476" d="M292.729,115.36l-1.761-1.018a.735.735,0,0,1-.314-.81h0a.418.418,0,0,1,.634-.264l1.762,1.018a.736.736,0,0,1,.313.81h0A.418.418,0,0,1,292.729,115.36Z" transform="translate(-287.605 -113.202)" fill="#fff"/>
              <path id="Trazado_81477" data-name="Trazado 81477" d="M297.831,120.632l-5.383-3.108a.737.737,0,0,1-.313-.811h0a.417.417,0,0,1,.634-.263l5.382,3.107a.736.736,0,0,1,.314.811h0A.418.418,0,0,1,297.831,120.632Z" transform="translate(-287.406 -112.774)" fill="#fff"/>
              <path id="Trazado_81478" data-name="Trazado 81478" d="M293.026,122.511l-1.762-1.018a.735.735,0,0,1-.313-.811h0a.418.418,0,0,1,.634-.263l1.761,1.017a.735.735,0,0,1,.313.811h0A.417.417,0,0,1,293.026,122.511Z" transform="translate(-287.566 -112.239)" fill="#fff"/>
              <path id="Trazado_81479" data-name="Trazado 81479" d="M301.361,136.629l-4.7-2.716a.736.736,0,0,1-.314-.811h0a.417.417,0,0,1,.634-.263l4.705,2.716a.736.736,0,0,1,.313.81h0A.418.418,0,0,1,301.361,136.629Z" transform="translate(-286.84 -110.567)" fill="#fff"/>
              <path id="Trazado_81480" data-name="Trazado 81480" d="M291.21,126.116l-1.13-.654a.734.734,0,0,1-.313-.81h0a.417.417,0,0,1,.633-.264l1.131.654a.734.734,0,0,1,.313.81h0A.418.418,0,0,1,291.21,126.116Z" transform="translate(-287.725 -111.705)" fill="#fff"/>
              <path id="Trazado_81481" data-name="Trazado 81481" d="M290.3,130.243l-1.4-.81a.735.735,0,0,1-.313-.811h0a.417.417,0,0,1,.633-.264l1.4.811a.735.735,0,0,1,.313.811h0A.418.418,0,0,1,290.3,130.243Z" transform="translate(-287.884 -111.17)" fill="#fff"/>
              <path id="Trazado_81482" data-name="Trazado 81482" d="M295.388,133.18l-3.7-2.138a.736.736,0,0,1-.313-.81h0a.418.418,0,0,1,.634-.264l3.7,2.138a.736.736,0,0,1,.313.81h0A.418.418,0,0,1,295.388,133.18Z" transform="translate(-287.509 -110.953)" fill="#fff"/>
              <path id="Trazado_81483" data-name="Trazado 81483" d="M290.966,132.954l-2.662-1.537a.732.732,0,0,1-.313-.81h0a.417.417,0,0,1,.633-.264l2.662,1.537a.735.735,0,0,1,.314.81h0A.418.418,0,0,1,290.966,132.954Z" transform="translate(-287.964 -110.903)" fill="#fff"/>
              <path id="Trazado_81484" data-name="Trazado 81484" d="M304.563,138.487l-1.71-.987a.737.737,0,0,1-.313-.811h0a.418.418,0,0,1,.634-.263l1.71.987a.736.736,0,0,1,.313.81h0A.418.418,0,0,1,304.563,138.487Z" transform="translate(-286.005 -110.084)" fill="#fff"/>
              <path id="Trazado_81485" data-name="Trazado 81485" d="M299.151,126.047l-4.705-2.716a.736.736,0,0,1-.313-.811h0a.417.417,0,0,1,.634-.263l4.7,2.716a.735.735,0,0,1,.314.81h0A.418.418,0,0,1,299.151,126.047Z" transform="translate(-287.137 -111.992)" fill="#fff"/>
            </g>
            <path id="Trazado_81486" data-name="Trazado 81486" d="M300.056,124.243l-8.2-4.735a.734.734,0,0,1-.313-.81h0a.418.418,0,0,1,.634-.264l8.2,4.735a.735.735,0,0,1,.313.811h0A.418.418,0,0,1,300.056,124.243Z" transform="translate(-284.462 -110.255)" fill="#fff"/>
            <path id="Trazado_81487" data-name="Trazado 81487" d="M295.378,126.195l-4.705-2.716a.735.735,0,0,1-.313-.811h0a.418.418,0,0,1,.634-.264l4.7,2.717a.735.735,0,0,1,.314.81h0A.418.418,0,0,1,295.378,126.195Z" transform="translate(-284.622 -109.72)" fill="#fff"/>
            <path id="Trazado_81488" data-name="Trazado 81488" d="M301.94,127.658l-1.71-.987a.737.737,0,0,1-.313-.811h0a.417.417,0,0,1,.634-.263l1.71.986a.738.738,0,0,1,.313.811h0A.418.418,0,0,1,301.94,127.658Z" transform="translate(-283.335 -109.291)" fill="#fff"/>
            <path id="Trazado_81489" data-name="Trazado 81489" d="M295.145,130.713l-5.656-3.266a.735.735,0,0,1-.313-.811h0a.417.417,0,0,1,.633-.263l5.656,3.266a.734.734,0,0,1,.313.81h0A.417.417,0,0,1,295.145,130.713Z" transform="translate(-284.781 -109.186)" fill="#fff"/>
            <path id="Trazado_81490" data-name="Trazado 81490" d="M295.718,114.759l-4.157-2.4a.736.736,0,0,1-.314-.811h0a.417.417,0,0,1,.634-.263l4.158,2.4a.738.738,0,0,1,.313.811h0A.418.418,0,0,1,295.718,114.759Z" transform="translate(-284.502 -111.218)" fill="#fff"/>
            <path id="Trazado_81491" data-name="Trazado 81491" d="M290.455,134.985l-4.815-2.781a.734.734,0,0,1-.313-.81h0a.418.418,0,0,1,.634-.264l4.815,2.781a.734.734,0,0,1,.313.81h0A.418.418,0,0,1,290.455,134.985Z" transform="translate(-285.3 -108.545)" fill="#fff"/>
          </g>
        </g>
        <g id="Grupo_33093" data-name="Grupo 33093" transform="translate(112.224 39.871)">
          <path id="Trazado_81492" data-name="Trazado 81492" d="M363.4,182.38a3.519,3.519,0,0,1-1.761-.5l-45.24-26.118a5.436,5.436,0,0,1-2.3-6.027L326.8,108.085a3.433,3.433,0,0,1,1.983-2.29,3.27,3.27,0,0,1,2.87.288L376.9,132.2a5.436,5.436,0,0,1,2.3,6.025L366.489,179.88a3.435,3.435,0,0,1-1.983,2.291A3.015,3.015,0,0,1,363.4,182.38Zm-1.554-.854a2.865,2.865,0,0,0,2.512.26,3.029,3.029,0,0,0,1.741-2.025l12.711-41.652a5.008,5.008,0,0,0-2.116-5.55L331.448,106.44a2.866,2.866,0,0,0-2.512-.262A3.032,3.032,0,0,0,327.2,108.2l-12.711,41.651a5.006,5.006,0,0,0,2.116,5.551Z" transform="translate(-313.885 -105.585)" fill="#fff"/>
          <g id="Grupo_33092" data-name="Grupo 33092" transform="translate(5.035 6.533)">
            <path id="Trazado_81493" data-name="Trazado 81493" d="M368.764,145.834a2.483,2.483,0,0,1-1.245-.352l-39.573-22.847a3.81,3.81,0,0,1-1.616-4.222l1.619-5.3a2.423,2.423,0,0,1,1.4-1.617,2.3,2.3,0,0,1,2.031.2l39.573,22.848a3.81,3.81,0,0,1,1.616,4.221l-1.619,5.3a2.425,2.425,0,0,1-1.4,1.616A2.13,2.13,0,0,1,368.764,145.834Zm-38.627-34.077a1.744,1.744,0,0,0-.635.119,2.027,2.027,0,0,0-1.157,1.354l-1.619,5.3a3.378,3.378,0,0,0,1.426,3.744l39.574,22.847a1.912,1.912,0,0,0,1.671.176,2.022,2.022,0,0,0,1.161-1.352l1.618-5.3a3.378,3.378,0,0,0-1.426-3.744l-39.573-22.847A2.1,2.1,0,0,0,330.137,111.757Z" transform="translate(-317.264 -111.343)" fill="#fff"/>
            <path id="Trazado_81494" data-name="Trazado 81494" d="M359.912,155.755l-7.418-4.283a3.587,3.587,0,0,1-1.522-3.983l1.619-5.3a2.069,2.069,0,0,1,3.132-1.3l7.418,4.283a3.587,3.587,0,0,1,1.522,3.983l-1.618,5.3A2.069,2.069,0,0,1,359.912,155.755Z" transform="translate(-313.945 -107.408)" fill="#fff"/>
            <path id="Trazado_81495" data-name="Trazado 81495" d="M357.208,168.99a2.484,2.484,0,0,1-1.244-.353l-7.418-4.282a3.808,3.808,0,0,1-1.616-4.221l1.618-5.3a2.424,2.424,0,0,1,1.4-1.617,2.307,2.307,0,0,1,2.031.2L359.4,157.7a3.81,3.81,0,0,1,1.616,4.221l-1.619,5.3a2.43,2.43,0,0,1-1.4,1.617A2.132,2.132,0,0,1,357.208,168.99Zm-6.471-15.513a1.74,1.74,0,0,0-.635.119,2.027,2.027,0,0,0-1.158,1.353l-1.619,5.3A3.377,3.377,0,0,0,348.751,164l7.418,4.283a1.908,1.908,0,0,0,1.672.176A2.022,2.022,0,0,0,359,167.1l1.619-5.3a3.377,3.377,0,0,0-1.427-3.744l-7.418-4.284A2.1,2.1,0,0,0,350.737,153.477Z" transform="translate(-314.49 -105.725)" fill="#fff"/>
            <path id="Trazado_81496" data-name="Trazado 81496" d="M343.722,163.448a2.476,2.476,0,0,1-1.244-.352l-22.4-12.932a3.808,3.808,0,0,1-1.616-4.22l6.151-20.156a2.43,2.43,0,0,1,1.4-1.617,2.311,2.311,0,0,1,2.03.2l22.4,12.93a3.809,3.809,0,0,1,1.616,4.221l-6.152,20.155a2.425,2.425,0,0,1-1.4,1.617A2.137,2.137,0,0,1,343.722,163.448Zm-1.038-.709a1.911,1.911,0,0,0,1.672.176,2.025,2.025,0,0,0,1.16-1.354l6.152-20.154a3.379,3.379,0,0,0-1.427-3.744l-22.4-12.932a1.915,1.915,0,0,0-1.672-.176,2.024,2.024,0,0,0-1.161,1.354l-6.15,20.155a3.377,3.377,0,0,0,1.426,3.744Z" transform="translate(-318.323 -109.635)" fill="#fff"/>
          </g>
        </g>
        <path id="Trazado_81497" data-name="Trazado 81497" d="M368.2,121.758a1.489,1.489,0,0,1-.735-.2,1.585,1.585,0,0,1-.726-1.94,1.174,1.174,0,0,1,.716-.652,1.4,1.4,0,0,1,1.136.137,1.59,1.59,0,0,1,.727,1.94h0a1.179,1.179,0,0,1-.717.652A1.264,1.264,0,0,1,368.2,121.758Zm-.345-2.444a.863.863,0,0,0-.271.042.765.765,0,0,0-.467.428,1.165,1.165,0,0,0,.553,1.415,1.006,1.006,0,0,0,.8.106.768.768,0,0,0,.467-.428h0a1.168,1.168,0,0,0-.555-1.416A1.077,1.077,0,0,0,367.859,119.314Z" transform="translate(-194.559 -63.921)" fill="#fff"/>
        <path id="Trazado_81498" data-name="Trazado 81498" d="M371.083,123.4a1.487,1.487,0,0,1-.735-.2,1.586,1.586,0,0,1-.726-1.94,1.172,1.172,0,0,1,.716-.654,1.4,1.4,0,0,1,1.136.138,1.588,1.588,0,0,1,.726,1.94h0a1.177,1.177,0,0,1-.716.652A1.264,1.264,0,0,1,371.083,123.4Zm-.345-2.444a.9.9,0,0,0-.271.042.768.768,0,0,0-.467.428,1.164,1.164,0,0,0,.553,1.415,1.006,1.006,0,0,0,.8.106.765.765,0,0,0,.467-.428h0a1.165,1.165,0,0,0-.554-1.415A1.066,1.066,0,0,0,370.738,120.959Z" transform="translate(-194.171 -63.7)" fill="#fff"/>
        <path id="Trazado_81499" data-name="Trazado 81499" d="M374.865,124.225a1.065,1.065,0,0,1-1.56.42,1.376,1.376,0,0,1-.641-1.678,1.067,1.067,0,0,1,1.561-.419A1.374,1.374,0,0,1,374.865,124.225Z" transform="translate(-193.759 -63.453)" fill="#fff"/>
        <g id="Grupo_33094" data-name="Grupo 33094" transform="translate(121.775 73.98)">
          <path id="Trazado_81500" data-name="Trazado 81500" d="M327.869,137.071l-2.472-1.425L322.3,145.782l2.472,1.425Z" transform="translate(-322.303 -135.646)" fill="#fff"/>
          <path id="Trazado_81501" data-name="Trazado 81501" d="M331.973,141.668l-2.472-1.425-2.449,8.025,2.472,1.425Z" transform="translate(-321.663 -135.027)" fill="#fff"/>
          <path id="Trazado_81502" data-name="Trazado 81502" d="M338.359,139.675l-2.472-1.425L331.8,151.642l2.472,1.425Z" transform="translate(-321.024 -135.295)" fill="#fff"/>
          <path id="Trazado_81503" data-name="Trazado 81503" d="M344.72,137.757l-2.472-1.425-5.7,18.673,2.472,1.425Z" transform="translate(-320.384 -135.554)" fill="#fff"/>
        </g>
      </g>
      <g id="Grupo_33102" data-name="Grupo 33102" transform="translate(267.991 256.182)">
        <path id="Trazado_81504" data-name="Trazado 81504" d="M290.7,322.272a10.684,10.684,0,0,1-5.231-1.25l-35.167-20.3a3.407,3.407,0,0,1,0-6.418l61.086-35.268a11.579,11.579,0,0,1,10.461,0l35.167,20.3a3.408,3.408,0,0,1,0,6.419l-61.086,35.267A10.7,10.7,0,0,1,290.7,322.272Zm25.918-63.843a10.009,10.009,0,0,0-4.9,1.172l-61.086,35.268a2.77,2.77,0,0,0,0,5.283l35.167,20.3a10.839,10.839,0,0,0,9.806,0l61.086-35.267a2.771,2.771,0,0,0,0-5.284l-35.168-20.3A10.007,10.007,0,0,0,316.615,258.428Z" transform="translate(-248.038 -230.02)" fill="#00223d"/>
        <g id="Grupo_33101" data-name="Grupo 33101" transform="translate(0.499)">
          <path id="Trazado_81505" data-name="Trazado 81505" d="M359.061,272.727h0l0-16.861-21.306,2.842L321.8,249.5a11.2,11.2,0,0,0-10.134,0L283.073,266l-34.593,4.615v17.167l.014,0a3.6,3.6,0,0,0,2.083,2.833l35.166,20.3a11.2,11.2,0,0,0,10.134,0l61.086-35.268a3.6,3.6,0,0,0,2.082-2.823l.016,0Z" transform="translate(-248.477 -231.299)" fill="url(#linear-gradient-3)"/>
          <path id="Trazado_81506" data-name="Trazado 81506" d="M356.963,254.83l-35.167-20.3a11.2,11.2,0,0,0-10.134,0l-61.085,35.267c-2.8,1.616-2.8,4.236,0,5.851l35.166,20.3a11.2,11.2,0,0,0,10.134,0l61.086-35.267C359.761,259.066,359.761,256.446,356.963,254.83Z" transform="translate(-248.478 -233.315)" fill="url(#linear-gradient-2)"/>
          <path id="Trazado_81507" data-name="Trazado 81507" d="M356.962,256.82l-61.086,35.267a11.2,11.2,0,0,1-10.134,0l-35.166-20.3a3.881,3.881,0,0,1-2.038-2.415c-.262,1.222.413,2.5,2.038,3.437l35.166,20.3a11.2,11.2,0,0,0,10.134,0l61.086-35.267c1.625-.938,2.3-2.215,2.037-3.437A3.879,3.879,0,0,1,356.962,256.82Z" transform="translate(-248.477 -230.475)" fill="#fff"/>
          <g id="Grupo_33096" data-name="Grupo 33096" transform="translate(66.342 39.768)">
            <path id="Trazado_81508" data-name="Trazado 81508" d="M308.612,284.4l-1.665.961v-1.922l1.665-.961Z" transform="translate(-306.947 -266.464)" fill="#fff"/>
            <path id="Trazado_81509" data-name="Trazado 81509" d="M311.682,282.625l-1.665.961v-1.922l1.665-.961Z" transform="translate(-306.534 -266.703)" fill="#fff"/>
            <path id="Trazado_81510" data-name="Trazado 81510" d="M314.751,280.853l-1.665.961v-1.922l1.665-.961Z" transform="translate(-306.12 -266.941)" fill="#fff"/>
            <path id="Trazado_81511" data-name="Trazado 81511" d="M312.241,285.735l-1.665.961v-1.922l1.665-.961Z" transform="translate(-306.458 -266.284)" fill="#fff"/>
            <path id="Trazado_81512" data-name="Trazado 81512" d="M314.944,284.175l-1.665.961v-1.922l1.665-.961Z" transform="translate(-306.094 -266.494)" fill="#fff"/>
            <path id="Trazado_81513" data-name="Trazado 81513" d="M324.6,275.169l-1.665.961v-1.922l1.665-.961Z" transform="translate(-304.795 -267.707)" fill="#fff"/>
            <path id="Trazado_81514" data-name="Trazado 81514" d="M333.053,270.286l-1.665.961v-1.922l1.665-.961Z" transform="translate(-303.656 -268.364)" fill="#fff"/>
            <path id="Trazado_81515" data-name="Trazado 81515" d="M317.821,279.081l-1.665.961V278.12l1.665-.961Z" transform="translate(-305.707 -267.18)" fill="#fff"/>
          </g>
          <g id="Grupo_33100" data-name="Grupo 33100" transform="translate(52.542 8.887)">
            <g id="Grupo_33097" data-name="Grupo 33097" transform="translate(0 8.056)">
              <path id="Trazado_81516" data-name="Trazado 81516" d="M297.074,248.247,321.92,262.56l-2.289,1.325-24.846-14.312Z" transform="translate(-294.784 -248.247)" fill="#21587b"/>
              <path id="Trazado_81517" data-name="Trazado 81517" d="M295.647,250.069l1.56-.9,23.984,13.815.729-.422-24.846-14.312-2.29,1.325Z" transform="translate(-294.784 -248.247)" fill="#fff"/>
            </g>
            <g id="Grupo_33098" data-name="Grupo 33098" transform="translate(6.96 4.028)">
              <path id="Trazado_81518" data-name="Trazado 81518" d="M303.208,244.7l24.846,14.312-2.289,1.325-24.846-14.312Z" transform="translate(-300.919 -244.697)" fill="#21587b"/>
              <path id="Trazado_81519" data-name="Trazado 81519" d="M301.781,246.519l1.56-.9,23.984,13.815.729-.422L303.208,244.7l-2.289,1.325Z" transform="translate(-300.919 -244.697)" fill="#fff"/>
            </g>
            <g id="Grupo_33099" data-name="Grupo 33099" transform="translate(13.921)">
              <path id="Trazado_81520" data-name="Trazado 81520" d="M309.343,241.148l24.846,14.312-2.289,1.325-24.846-14.312Z" transform="translate(-307.053 -241.148)" fill="#21587b"/>
              <path id="Trazado_81521" data-name="Trazado 81521" d="M307.916,242.969l1.56-.9,23.984,13.815.729-.422-24.846-14.312-2.29,1.325Z" transform="translate(-307.053 -241.148)" fill="#fff"/>
            </g>
          </g>
        </g>
        <path id="Trazado_81522" data-name="Trazado 81522" d="M288.506,285.206a3.638,3.638,0,0,1-1.788-.419l-23.66-13.66a1.414,1.414,0,0,1-.8-1.21,1.842,1.842,0,0,1,1.072-1.493l23.121-13.348a4.461,4.461,0,0,1,4.062-.157l23.66,13.66a1.416,1.416,0,0,1,.8,1.21,1.841,1.841,0,0,1-1.072,1.493L290.78,284.631A4.656,4.656,0,0,1,288.506,285.206Zm-1.477-.954a3.891,3.891,0,0,0,3.441-.157l23.121-13.349c.479-.276.764-.633.764-.956a.842.842,0,0,0-.495-.673L290.2,255.456a3.9,3.9,0,0,0-3.441.155l-23.121,13.349c-.484.28-.764.629-.765.957a.85.85,0,0,0,.5.674Z" transform="translate(-246.124 -230.462)" fill="#21587b"/>
        <path id="Trazado_81523" data-name="Trazado 81523" d="M278.165,295.777,258.64,284.5a2.022,2.022,0,0,1-.843-1.612v-1.449c0-.622.378-.908.843-.639l19.525,11.273a2.022,2.022,0,0,1,.843,1.612v1.45C279.008,295.76,278.63,296.046,278.165,295.777Z" transform="translate(-246.724 -226.934)" fill="#21587b"/>
      </g>
      <g id="Grupo_33109" data-name="Grupo 33109" transform="translate(99.852 159.83)">
        <path id="Trazado_81524" data-name="Trazado 81524" d="M142.619,237.472a10.811,10.811,0,0,1-5.284-1.261l-35.166-20.3a3.511,3.511,0,0,1,0-6.6l61.085-35.268a11.691,11.691,0,0,1,10.567,0l35.168,20.3a3.513,3.513,0,0,1,0,6.6L147.9,236.211A10.812,10.812,0,0,1,142.619,237.472Zm25.919-63.842a9.91,9.91,0,0,0-4.849,1.158L102.6,210.056a2.667,2.667,0,0,0,0,5.1l35.166,20.3a10.727,10.727,0,0,0,9.7,0l61.085-35.267a2.667,2.667,0,0,0,0-5.1l-35.167-20.3A9.907,9.907,0,0,0,168.538,173.63Z" transform="translate(-99.852 -145.115)" fill="#00223d"/>
        <g id="Grupo_33108" data-name="Grupo 33108" transform="translate(0.608)">
          <path id="Trazado_81525" data-name="Trazado 81525" d="M210.971,187.809h0l-.006-16.861-21.306,2.842L173.7,164.58a11.2,11.2,0,0,0-10.134,0l-28.587,16.506L100.39,185.7v17.167l.012,0a3.6,3.6,0,0,0,2.083,2.833L137.653,226a11.2,11.2,0,0,0,10.134,0l61.085-35.268a3.6,3.6,0,0,0,2.082-2.823l.017,0Z" transform="translate(-100.387 -146.381)" fill="url(#linear-gradient-3)"/>
          <path id="Trazado_81526" data-name="Trazado 81526" d="M208.872,169.912l-35.167-20.3a11.2,11.2,0,0,0-10.134,0l-61.085,35.267c-2.8,1.616-2.8,4.236,0,5.851l35.167,20.3a11.2,11.2,0,0,0,10.134,0l61.085-35.267C211.67,174.148,211.67,171.528,208.872,169.912Z" transform="translate(-100.387 -148.397)" fill="url(#linear-gradient-2)"/>
          <path id="Trazado_81527" data-name="Trazado 81527" d="M208.871,171.9l-61.085,35.267a11.2,11.2,0,0,1-10.134,0l-35.167-20.3a3.885,3.885,0,0,1-2.038-2.415c-.262,1.222.413,2.5,2.038,3.437l35.167,20.3a11.2,11.2,0,0,0,10.134,0l61.085-35.267c1.625-.938,2.3-2.215,2.038-3.437A3.885,3.885,0,0,1,208.871,171.9Z" transform="translate(-100.387 -145.557)" fill="#fff"/>
          <g id="Grupo_33103" data-name="Grupo 33103" transform="translate(66.342 39.768)">
            <path id="Trazado_81528" data-name="Trazado 81528" d="M160.521,199.48l-1.665.961v-1.922l1.665-.961Z" transform="translate(-158.857 -181.546)" fill="#fff"/>
            <path id="Trazado_81529" data-name="Trazado 81529" d="M163.591,197.707l-1.665.961v-1.922l1.665-.961Z" transform="translate(-158.443 -181.785)" fill="#fff"/>
            <path id="Trazado_81530" data-name="Trazado 81530" d="M166.661,195.935,165,196.9v-1.922l1.665-.961Z" transform="translate(-158.03 -182.023)" fill="#fff"/>
            <path id="Trazado_81531" data-name="Trazado 81531" d="M164.151,200.817l-1.665.961v-1.922l1.665-.961Z" transform="translate(-158.368 -181.366)" fill="#fff"/>
            <path id="Trazado_81532" data-name="Trazado 81532" d="M166.854,199.257l-1.665.961V198.3l1.665-.961Z" transform="translate(-158.004 -181.576)" fill="#fff"/>
            <path id="Trazado_81533" data-name="Trazado 81533" d="M176.507,190.251l-1.665.961v-1.922l1.665-.961Z" transform="translate(-156.704 -182.789)" fill="#fff"/>
            <path id="Trazado_81534" data-name="Trazado 81534" d="M184.963,185.368l-1.665.961v-1.922l1.665-.961Z" transform="translate(-155.566 -183.446)" fill="#fff"/>
            <path id="Trazado_81535" data-name="Trazado 81535" d="M169.73,194.163l-1.665.961V193.2l1.665-.961Z" transform="translate(-157.617 -182.262)" fill="#fff"/>
          </g>
          <g id="Grupo_33107" data-name="Grupo 33107" transform="translate(52.541 8.887)">
            <g id="Grupo_33104" data-name="Grupo 33104" transform="translate(0 8.056)">
              <path id="Trazado_81536" data-name="Trazado 81536" d="M148.983,163.329l24.846,14.312-2.29,1.325-24.846-14.312Z" transform="translate(-146.694 -163.329)" fill="#21587b"/>
              <path id="Trazado_81537" data-name="Trazado 81537" d="M147.556,165.151l1.56-.9L173.1,178.063l.729-.422-24.846-14.312-2.289,1.325Z" transform="translate(-146.694 -163.329)" fill="#fff"/>
            </g>
            <g id="Grupo_33105" data-name="Grupo 33105" transform="translate(6.961 4.028)">
              <path id="Trazado_81538" data-name="Trazado 81538" d="M155.118,159.78l24.846,14.312-2.289,1.325L152.828,161.1Z" transform="translate(-152.828 -159.779)" fill="#21587b"/>
              <path id="Trazado_81539" data-name="Trazado 81539" d="M153.691,161.6l1.56-.9,23.984,13.815.729-.422-24.846-14.312-2.289,1.325Z" transform="translate(-152.828 -159.779)" fill="#fff"/>
            </g>
            <g id="Grupo_33106" data-name="Grupo 33106" transform="translate(13.921)">
              <path id="Trazado_81540" data-name="Trazado 81540" d="M161.252,156.23,186.1,170.542l-2.29,1.325-24.846-14.312Z" transform="translate(-158.963 -156.23)" fill="#21587b"/>
              <path id="Trazado_81541" data-name="Trazado 81541" d="M159.825,158.051l1.56-.9,23.984,13.815.729-.422L161.252,156.23l-2.29,1.325Z" transform="translate(-158.963 -156.23)" fill="#fff"/>
            </g>
          </g>
        </g>
        <path id="Trazado_81542" data-name="Trazado 81542" d="M140.415,200.288a3.638,3.638,0,0,1-1.788-.419l-23.66-13.66a1.413,1.413,0,0,1-.8-1.21,1.842,1.842,0,0,1,1.072-1.493l23.121-13.348a4.457,4.457,0,0,1,4.062-.157l23.66,13.66a1.413,1.413,0,0,1,.8,1.21,1.841,1.841,0,0,1-1.072,1.493l-23.121,13.349A4.655,4.655,0,0,1,140.415,200.288Zm-1.477-.954a3.891,3.891,0,0,0,3.441-.157L165.5,185.828c.479-.276.765-.633.765-.956a.843.843,0,0,0-.5-.673l-23.66-13.66a3.9,3.9,0,0,0-3.443.155l-23.121,13.349c-.484.28-.762.629-.764.957a.849.849,0,0,0,.495.674Z" transform="translate(-97.925 -145.544)" fill="#21587b"/>
        <path id="Trazado_81543" data-name="Trazado 81543" d="M130.074,210.859,110.55,199.586a2.02,2.02,0,0,1-.844-1.612v-1.449c0-.622.378-.908.844-.639l19.524,11.273a2.02,2.02,0,0,1,.844,1.612v1.45C130.918,210.842,130.54,211.128,130.074,210.859Z" transform="translate(-98.525 -142.016)" fill="#21587b"/>
      </g>
    </g>
  </g>
</svg>
