<svg xmlns="http://www.w3.org/2000/svg" xmlns:xlink="http://www.w3.org/1999/xlink" width="392.885" height="304.431" viewBox="0 0 392.885 304.431">
  <defs>
    <linearGradient id="linear-gradient" x1="-0.06" y1="0.5" x2="0.645" y2="0.5" gradientUnits="objectBoundingBox">
      <stop offset="0" stop-color="#fff"/>
      <stop offset="1" stop-color="#d2e6ee"/>
    </linearGradient>
    <linearGradient id="linear-gradient-2" x1="0.5" y1="0" x2="0.5" y2="1" xlink:href="#linear-gradient"/>
  </defs>
  <g id="Grupo_4521" data-name="Grupo 4521" transform="translate(-459.48 -464.693)">
    <path id="Trazado_1035" data-name="Trazado 1035" d="M774.327,541.987c8.146-74.2-63.787-99.974-114.782-80.976-51.409,19.152-63.327-12.6-135.615-3.525C450.734,466.671,487.9,581.57,487.9,581.57s11.647,99.912,25.445,145.966c13.723,45.8,145.086,29.233,177.042,27.866,31.772-1.359,59.38,1.264,87.023-49.029C805,656.171,766.207,615.938,774.327,541.987Z" transform="translate(-18.473 9.693)" fill="#f4f7fa"/>
    <g id="Grupo_33045" data-name="Grupo 33045" transform="translate(190.196 329.052)">
      <g id="Grupo_33043" data-name="Grupo 33043" transform="translate(269.284 142.112)">
        <path id="Trazado_81241" data-name="Trazado 81241" d="M373.87,346.623a25.855,25.855,0,0,1-12.647-3.02l-86.6-50c-3.444-1.988-5.339-4.65-5.339-7.5s1.9-5.511,5.339-7.5l150.425-86.848c6.975-4.026,18.323-4.029,25.295,0l86.6,50c3.444,1.988,5.339,4.65,5.339,7.5s-1.9,5.511-5.339,7.5L386.518,343.6A25.861,25.861,0,0,1,373.87,346.623ZM437.7,189.41a25.171,25.171,0,0,0-12.307,2.938L274.963,279.2c-3.221,1.862-5,4.315-5,6.909s1.776,5.047,5,6.909l86.6,50c6.788,3.918,17.827,3.918,24.614,0L536.6,256.164c3.223-1.862,5-4.315,5-6.909s-1.774-5.047-5-6.909l-86.6-50A25.157,25.157,0,0,0,437.7,189.41Z" transform="translate(-269.284 -119.908)" fill="#37a3a5"/>
        <g id="Grupo_33042" data-name="Grupo 33042" transform="translate(0.765)">
          <path id="Trazado_81242" data-name="Trazado 81242" d="M542.117,230.636h0l-.013-41.52-52.469,7-39.286-22.683c-6.891-3.978-18.063-3.978-24.955,0l-70.4,40.646-85.187,11.365v42.274l.031-.006c.1,2.532,1.786,5.046,5.13,6.978l86.6,50c6.891,3.978,18.063,3.978,24.954,0l150.425-86.85c3.335-1.923,5.019-4.43,5.127-6.953l.041-.006Z" transform="translate(-269.8 -128.617)" fill="url(#linear-gradient)"/>
          <path id="Trazado_81243" data-name="Trazado 81243" d="M536.951,195.095l-86.6-50c-6.891-3.978-18.063-3.978-24.955,0L274.972,231.944c-6.892,3.978-6.892,10.429,0,14.408l86.6,50c6.891,3.978,18.063,3.978,24.954,0L536.951,209.5C543.842,205.524,543.842,199.073,536.951,195.095Z" transform="translate(-269.802 -142.112)" fill="url(#linear-gradient-2)"/>
          <path id="Trazado_81244" data-name="Trazado 81244" d="M536.946,187.976,386.52,274.824c-6.891,3.978-18.063,3.978-24.954,0l-86.6-50c-2.889-1.67-4.55-3.773-5.016-5.946-.645,3.01,1.016,6.151,5.016,8.462l86.6,50c6.891,3.978,18.063,3.978,24.954,0l150.425-86.848c4-2.31,5.663-5.453,5.018-8.462C541.5,184.2,539.836,186.308,536.946,187.976Z" transform="translate(-269.797 -123.102)" fill="#fff"/>
          <g id="Grupo_33037" data-name="Grupo 33037" transform="translate(163.371 97.932)">
            <path id="Trazado_81245" data-name="Trazado 81245" d="M384.571,239.9l-4.1,2.367v-4.734l4.1-2.367Z" transform="translate(-380.471 -195.733)" fill="#37a3a5"/>
            <path id="Trazado_81246" data-name="Trazado 81246" d="M390.381,236.541l-4.1,2.367v-4.734l4.1-2.367Z" transform="translate(-377.705 -197.33)" fill="#37a3a5"/>
            <path id="Trazado_81247" data-name="Trazado 81247" d="M396.191,233.186l-4.1,2.367v-4.734l4.1-2.367Z" transform="translate(-374.938 -198.928)" fill="#37a3a5"/>
            <path id="Trazado_81248" data-name="Trazado 81248" d="M391.441,242.427l-4.1,2.367V240.06l4.1-2.367Z" transform="translate(-377.2 -194.527)" fill="#37a3a5"/>
            <path id="Trazado_81249" data-name="Trazado 81249" d="M396.557,239.473l-4.1,2.367v-4.734l4.1-2.367Z" transform="translate(-374.764 -195.934)" fill="#37a3a5"/>
            <path id="Trazado_81250" data-name="Trazado 81250" d="M414.828,222.426l-4.1,2.367V220.06l4.1-2.367Z" transform="translate(-366.063 -204.051)" fill="#37a3a5"/>
            <path id="Trazado_81251" data-name="Trazado 81251" d="M430.833,213.186l-4.1,2.367v-4.734l4.1-2.367Z" transform="translate(-358.441 -208.452)" fill="#37a3a5"/>
            <path id="Trazado_81252" data-name="Trazado 81252" d="M402,229.832l-4.1,2.367v-4.734L402,225.1Z" transform="translate(-372.171 -200.525)" fill="#37a3a5"/>
          </g>
          <g id="Grupo_33041" data-name="Grupo 33041" transform="translate(129.386 21.885)">
            <g id="Grupo_33038" data-name="Grupo 33038" transform="translate(0 19.838)">
              <path id="Trazado_81253" data-name="Trazado 81253" d="M363.088,170.376l61.184,35.244-5.638,3.262L357.45,173.638Z" transform="translate(-357.45 -170.375)" fill="#21587b"/>
              <path id="Trazado_81254" data-name="Trazado 81254" d="M359.574,174.861l3.842-2.223,59.061,34.021,1.795-1.039-61.184-35.245-5.638,3.263Z" transform="translate(-357.45 -170.375)" fill="#fff"/>
            </g>
            <g id="Grupo_33039" data-name="Grupo 33039" transform="translate(17.141 9.919)">
              <path id="Trazado_81255" data-name="Trazado 81255" d="M374.7,163.657,435.883,198.9l-5.638,3.262-61.184-35.244Z" transform="translate(-369.061 -163.656)" fill="#21587b"/>
              <path id="Trazado_81256" data-name="Trazado 81256" d="M371.185,168.142l3.842-2.223,59.061,34.021,1.795-1.039L374.7,163.656l-5.638,3.263Z" transform="translate(-369.061 -163.656)" fill="#fff"/>
            </g>
            <g id="Grupo_33040" data-name="Grupo 33040" transform="translate(34.281)">
              <path id="Trazado_81257" data-name="Trazado 81257" d="M386.311,156.937l61.184,35.244-5.638,3.262L380.673,160.2Z" transform="translate(-380.673 -156.937)" fill="#21587b"/>
              <path id="Trazado_81258" data-name="Trazado 81258" d="M382.8,161.423l3.842-2.223L445.7,193.22l1.8-1.039-61.184-35.245-5.638,3.263Z" transform="translate(-380.673 -156.937)" fill="#fff"/>
            </g>
          </g>
        </g>
        <path id="Trazado_81259" data-name="Trazado 81259" d="M360.524,257.823a8.93,8.93,0,0,1-4.4-1.03l-58.264-33.638a3.487,3.487,0,0,1-1.98-2.979c0-1.367.964-2.707,2.642-3.677l56.937-32.871c2.991-1.726,7.383-1.9,10-.382l58.264,33.638a3.484,3.484,0,0,1,1.981,2.978c0,1.365-.964,2.706-2.644,3.677l-56.937,32.871A11.435,11.435,0,0,1,360.524,257.823Zm-3.642-2.35c2.123,1.221,6,1.047,8.479-.384L422.3,222.217c1.178-.681,1.879-1.56,1.879-2.356a2.079,2.079,0,0,0-1.216-1.658L364.7,184.565c-2.118-1.222-6-1.048-8.478.382l-56.936,32.872c-1.177.679-1.879,1.56-1.879,2.356a2.077,2.077,0,0,0,1.218,1.658Z" transform="translate(-256.62 -123.015)" fill="#21587b"/>
        <path id="Trazado_81260" data-name="Trazado 81260" d="M337.6,268.926l-48.079-27.759a4.975,4.975,0,0,1-2.078-3.971v-3.569c0-1.531.93-2.234,2.078-1.571L337.6,259.815a4.977,4.977,0,0,1,2.077,3.97v3.569C339.675,268.885,338.745,269.588,337.6,268.926Z" transform="translate(-260.637 -99.398)" fill="#37a3a5"/>
      </g>
      <g id="Grupo_33044" data-name="Grupo 33044" transform="translate(425.406 296.593)">
        <path id="Trazado_81261" data-name="Trazado 81261" d="M458.671,369a.375.375,0,0,1-.185-.049l-36.431-21.033c-4.877-2.815-7.412-6.736-6.954-10.753l3.149-27.652c.422-3.713-1.981-7.368-6.591-10.029l-36.431-21.033a.369.369,0,1,1,.369-.639l36.431,21.033c4.877,2.815,7.411,6.734,6.954,10.753l-3.149,27.651c-.422,3.713,1.981,7.368,6.591,10.029l36.431,21.033a.37.37,0,0,1-.185.689Z" transform="translate(-375.043 -231.994)" fill="#37a3a5"/>
        <path id="Trazado_81262" data-name="Trazado 81262" d="M522.266,332.285a.375.375,0,0,1-.184-.049l-120-69.286a.369.369,0,1,1,.369-.639l120,69.284a.369.369,0,0,1-.185.689Z" transform="translate(-362.256 -239.377)" fill="#37a3a5"/>
        <path id="Trazado_81263" data-name="Trazado 81263" d="M564.664,307.808a.374.374,0,0,1-.184-.049L526.135,285.62a31.919,31.919,0,0,0-13.172-3.769l-41.154-3.234a32.63,32.63,0,0,1-13.484-3.863l-38.346-22.139a.369.369,0,1,1,.369-.639l38.346,22.139a31.905,31.905,0,0,0,13.172,3.767l41.155,3.234a32.649,32.649,0,0,1,13.482,3.863l38.345,22.139a.369.369,0,0,1-.185.689Z" transform="translate(-353.732 -244.298)" fill="#37a3a5"/>
        <path id="Trazado_81264" data-name="Trazado 81264" d="M479.869,356.763a.375.375,0,0,1-.185-.049L441.34,334.577c-3.668-2.118-6.078-4.935-6.783-7.93l-5.6-23.762c-.658-2.8-2.944-5.446-6.435-7.461l-38.344-22.139a.369.369,0,0,1,.369-.639l38.344,22.139c3.668,2.118,6.079,4.933,6.785,7.93l5.6,23.761c.658,2.8,2.944,5.447,6.433,7.461l38.344,22.137a.369.369,0,0,1-.185.689Z" transform="translate(-370.781 -234.455)" fill="#37a3a5"/>
        <path id="Trazado_81265" data-name="Trazado 81265" d="M501.068,344.524a.375.375,0,0,1-.185-.049l-40.87-23.6a16.663,16.663,0,0,1-4.885-4.094l-16.46-21.164A15.89,15.89,0,0,0,434,291.715l-40.867-23.6a.369.369,0,1,1,.369-.639l40.867,23.6a16.649,16.649,0,0,1,4.886,4.094l16.458,21.164a15.959,15.959,0,0,0,4.672,3.908l40.87,23.594a.369.369,0,0,1-.185.689Z" transform="translate(-366.518 -236.916)" fill="#37a3a5"/>
        <path id="Trazado_81266" data-name="Trazado 81266" d="M543.466,320.047a.375.375,0,0,1-.185-.049l-40.87-23.6a27.4,27.4,0,0,0-6.836-2.721l-36.656-9.505a28.284,28.284,0,0,1-7.019-2.794l-40.87-23.6a.369.369,0,1,1,.369-.639l40.87,23.6a27.483,27.483,0,0,0,6.835,2.721l36.656,9.5a28.2,28.2,0,0,1,7.021,2.8l40.87,23.6a.369.369,0,0,1-.185.689Z" transform="translate(-357.994 -241.837)" fill="#37a3a5"/>
        <path id="Trazado_81267" data-name="Trazado 81267" d="M585.863,295.568a.375.375,0,0,1-.185-.049l-36.433-21.034c-4.685-2.7-11.166-4.107-17.8-3.862l-47.894,1.817c-6.764.245-13.394-1.187-18.194-3.959l-36.433-21.033a.369.369,0,0,1,.369-.639l36.433,21.033c4.682,2.7,11.184,4.129,17.8,3.86l47.893-1.817c6.764-.247,13.392,1.188,18.194,3.959l36.433,21.034a.369.369,0,0,1-.185.689Z" transform="translate(-349.47 -246.759)" fill="#37a3a5"/>
      </g>
    </g>
  </g>
</svg>
