<svg xmlns="http://www.w3.org/2000/svg" width="373.295" height="388.555" viewBox="0 0 373.295 388.555">
  <g id="Grupo_33145" data-name="Grupo 33145" transform="translate(-902.637 -393.889)">
    <ellipse id="Elipse_3428" data-name="Elipse 3428" cx="186.648" cy="12.211" rx="186.648" ry="12.211" transform="translate(902.637 758.022)" fill="#fff"/>
    <g id="Grupo_33173" data-name="Grupo 33173" transform="translate(928.596 393.888)">
      <path id="Trazado_81597" data-name="Trazado 81597" d="M1079.891,778.2c16.135,0,24.421-4.361,24.421-82.858s34.452-45.353,34.452-45.353" transform="translate(-988.747 -478.439)" fill="none" stroke="#242638" stroke-miterlimit="10" stroke-width="2.63"/>
      <g id="Grupo_33145-2" data-name="Grupo 33145" transform="translate(115.7 86.182)">
        <circle id="Elipse_3429" data-name="Elipse 3429" cx="5.124" cy="5.124" r="5.124" transform="translate(117.498 277.372) rotate(-9.24)" fill="#242638"/>
        <circle id="Elipse_3430" data-name="Elipse 3430" cx="5.124" cy="5.124" r="5.124" transform="translate(10.001 277.372) rotate(-9.24)" fill="#242638"/>
        <rect id="Rectángulo_26701" data-name="Rectángulo 26701" width="8.286" height="119.053" transform="translate(66.577 149.58)" fill="#a9bdd2"/>
        <path id="Trazado_81599" data-name="Trazado 81599" d="M1230.881,746.132H1123.6a6.561,6.561,0,0,0-6.542,6.542h0a6.561,6.561,0,0,0,6.542,6.541h107.278a6.561,6.561,0,0,0,6.542-6.541h0A6.561,6.561,0,0,0,1230.881,746.132Z" transform="translate(-1117.061 -599.605)" fill="#356493"/>
        <rect id="Rectángulo_26702" data-name="Rectángulo 26702" width="88.963" height="159.61" rx="17.493" transform="translate(47.97)" fill="#727997"/>
        <path id="Trazado_81600" data-name="Trazado 81600" d="M1189.232,680.349h74.281a5.669,5.669,0,0,0,5.669-5.669v-122.4" transform="translate(-1141.552 -533.822)" fill="none" stroke="#242638" stroke-linecap="round" stroke-linejoin="round" stroke-width="1.32"/>
        <path id="Trazado_81602" data-name="Trazado 81602" d="M1135.984,937.78l57.855-8.14,56.4,8.14" transform="translate(-1123.483 -661.879)" fill="none" stroke="#a9bdd2" stroke-miterlimit="10" stroke-width="7.921"/>
      </g>
      <g id="Grupo_33151" data-name="Grupo 33151" transform="translate(79.369)">
        <g id="Grupo_33147" data-name="Grupo 33147" transform="translate(46.735 320.946)">
          <path id="Trazado_81603" data-name="Trazado 81603" d="M1180.064,920.038l-4.762-40.344-14.549,1.876,9.669,41.441Z" transform="translate(-1142.292 -879.694)" fill="#fac5c2"/>
          <g id="Grupo_33146" data-name="Grupo 33146" transform="translate(0 36.547)">
            <path id="Trazado_81604" data-name="Trazado 81604" d="M1169.965,935.013s7.392,8.993,7.181,17.07l-43.323,8.812s-4.361-7.765,5.009-11.834,21.6-13.551,21.6-13.551S1166.91,939.346,1169.965,935.013Z" transform="translate(-1132.809 -935.013)" fill="#37a3a5"/>
            <path id="Trazado_81605" data-name="Trazado 81605" d="M1177.166,958.561l-43.324,8.812a9.308,9.308,0,0,1-1.007-4.327l43.938-8.937A21.59,21.59,0,0,1,1177.166,958.561Z" transform="translate(-1132.817 -941.493)" fill="#f7ead5"/>
            <path id="Trazado_81606" data-name="Trazado 81606" d="M1169.144,938.3a6.13,6.13,0,0,0-1.813-1.681,6.339,6.339,0,0,0-3.483-.485,26.8,26.8,0,0,0-3.077.4,6.669,6.669,0,0,0-3.641,1.61,1.076,1.076,0,0,0-.373,1.1,1,1,0,0,0,.73.5,5.044,5.044,0,0,0,2.847-.442q3.315-1.229,6.507-2.76a14.248,14.248,0,0,0,.326,3.8,7.666,7.666,0,0,0,1.448,3.25,2.853,2.853,0,0,0,1.214.92,1.509,1.509,0,0,0,1.457-.211,1.592,1.592,0,0,0,.465-1.395,4.09,4.09,0,0,0-.527-1.428A21.427,21.427,0,0,0,1169.144,938.3Z" transform="translate(-1140.918 -935.382)" fill="none" stroke="#fff" stroke-linecap="round" stroke-linejoin="round" stroke-width="0.917"/>
          </g>
        </g>
        <g id="Grupo_33149" data-name="Grupo 33149" transform="translate(82.058 317.457)">
          <path id="Trazado_81607" data-name="Trazado 81607" d="M1233.532,914.757l-4.762-40.344-14.549,1.876,9.669,41.441Z" transform="translate(-1195.76 -874.413)" fill="#fac5c2"/>
          <g id="Grupo_33148" data-name="Grupo 33148" transform="translate(0 36.546)">
            <path id="Trazado_81608" data-name="Trazado 81608" d="M1223.433,929.732s7.391,8.993,7.18,17.07l-43.323,8.812s-4.361-7.765,5.009-11.834,21.6-13.55,21.6-13.55S1220.378,934.065,1223.433,929.732Z" transform="translate(-1186.277 -929.732)" fill="#37a3a5"/>
            <path id="Trazado_81609" data-name="Trazado 81609" d="M1230.634,953.28l-43.323,8.812a9.311,9.311,0,0,1-1.008-4.328l43.938-8.937A21.538,21.538,0,0,1,1230.634,953.28Z" transform="translate(-1186.285 -936.212)" fill="#f7ead5"/>
            <path id="Trazado_81610" data-name="Trazado 81610" d="M1222.612,933.024a6.132,6.132,0,0,0-1.813-1.681,6.339,6.339,0,0,0-3.483-.485,26.942,26.942,0,0,0-3.077.4,6.673,6.673,0,0,0-3.641,1.61,1.077,1.077,0,0,0-.373,1.1,1,1,0,0,0,.73.5,5.039,5.039,0,0,0,2.847-.442q3.315-1.229,6.507-2.76a14.242,14.242,0,0,0,.326,3.8,7.668,7.668,0,0,0,1.448,3.25,2.85,2.85,0,0,0,1.214.92,1.508,1.508,0,0,0,1.457-.211,1.592,1.592,0,0,0,.465-1.395,4.1,4.1,0,0,0-.527-1.428A21.43,21.43,0,0,0,1222.612,933.024Z" transform="translate(-1194.386 -930.101)" fill="none" stroke="#fff" stroke-linecap="round" stroke-linejoin="round" stroke-width="0.917"/>
          </g>
        </g>
        <path id="Trazado_81611" data-name="Trazado 81611" d="M1230.816,672.621s1.541,41.538-2.326,44.191-34.887,20.932-34.887,20.932l15.118,94.2s-15.778,8.956-30.817,2.325l-20.351-73.845,15.118,74.427s-16.208,7.3-30.817,4.652c0,0-24.76-108.544-23.695-110.767,2.544-5.306,41.139-39.83,41.139-39.83l2.907-16.862Z" transform="translate(-1081.091 -488.28)" fill="#00223d"/>
        <path id="Trazado_81612" data-name="Trazado 81612" d="M1261,678.2s-1.686,26.808-2.76,30.122-37.6,23.988-39.1,26.861,19.77,100.592,19.77,100.592" transform="translate(-1115.342 -490.37)" fill="none" stroke="#fff" stroke-miterlimit="10" stroke-width="1.32"/>
        <path id="Trazado_81613" data-name="Trazado 81613" d="M1174.771,777.544s-9.947-27.781-9.3-31.98,25-29.072,25-29.072,12.188-9.583,31.309-4.5" transform="translate(-1097.147 -501.333)" fill="none" stroke="#fff" stroke-miterlimit="10" stroke-width="1.32"/>
        <path id="Trazado_81614" data-name="Trazado 81614" d="M1211.067,705.829l.6-12.747-7.949-2.431L1203,702.123l5.451,4.361" transform="translate(-1109.893 -494.596)" fill="none" stroke="#fff" stroke-miterlimit="10" stroke-width="1.32"/>
        <path id="Trazado_81615" data-name="Trazado 81615" d="M1143.181,575.665s-10.757,44.772-13.083,46.226-68.03-.291-68.03-.291l4.07-15.99,10.466,7.268,33.434-6.4,10.175-27.328Z" transform="translate(-1062.068 -455.575)" fill="#fac5c2"/>
        <rect id="Rectángulo_26703" data-name="Rectángulo 26703" width="48.515" height="3.598" transform="translate(28.564 163.808)" fill="#242638"/>
        <path id="Trazado_81616" data-name="Trazado 81616" d="M1199.431,491.339s36.25,7.5,40.705,10.965,9.65,42.71,9.65,42.71l-6.251.872-5.875,33.644,1.8,54.447-74.717-7.559,1.163-66.286-1.745,9.885-27.408-8.473s10.311-40.922,15.756-46.862,22.277-17.822,22.277-17.822Z" transform="translate(-1087.414 -426.958)" fill="#37a3a5"/>
        <path id="Trazado_81617" data-name="Trazado 81617" d="M1258.557,545.3l1.672,23.222,1.672-.545" transform="translate(-1128.747 -445.27)" fill="none" stroke="#242638" stroke-linecap="round" stroke-linejoin="round" stroke-width="0.721"/>
        <path id="Trazado_81618" data-name="Trazado 81618" d="M1246.924,573.465s4.361,37.794,2.908,41.283-77.625,6.4-77.625,6.4l-13.373-4.361-6.978.582-7.849,3.488-5.234.873-1.453-.582,9.885-12.5,12.211-4.361,14.828,7.268,48.842-12.21-2.326-21.8Z" transform="translate(-1087.605 -454.828)" fill="#fac5c2"/>
        <path id="Trazado_81619" data-name="Trazado 81619" d="M1212.534,457.49l6.824,23.3s1.18,12.363-12.645,14.972c-13.405,2.53-13.07-10.1-13.07-10.1l.881-4.189-1.283-13.937Z" transform="translate(-1106.582 -415.472)" fill="#fac5c2"/>
        <path id="Trazado_81620" data-name="Trazado 81620" d="M1213.889,461.882l-.976-3.336-6.015,2.328-5.683,2.96-7.458,7.763.7,7.6C1198.39,478.625,1212.014,475.669,1213.889,461.882Z" transform="translate(-1106.757 -415.83)" fill="#d88080"/>
        <g id="Grupo_33150" data-name="Grupo 33150" transform="translate(64.472)">
          <path id="Trazado_81621" data-name="Trazado 81621" d="M1170.079,425.674c1.339,10.674,6.659,31.652,17.394,30.986,11.3-.7,16.624-7.152,17.815-17.768,0,0,5.749,1.842,5.07-5.826-.3-3.383-4.01-1.444-4.01-1.444s5.448-28.059-12.216-29.7S1168.246,411.063,1170.079,425.674Z" transform="translate(-1163.109 -396.558)" fill="#fac5c2"/>
          <path id="Trazado_81622" data-name="Trazado 81622" d="M1198.494,436.409a3.221,3.221,0,0,1-.955.49.872.872,0,0,1-.947-.362,1.705,1.705,0,0,1,.181-1.727,4.111,4.111,0,0,1,2.675-1.532,8.766,8.766,0,0,1,3.052-.345,3.906,3.906,0,0,1,2.756,1.553.74.74,0,0,1,.171.4.468.468,0,0,1-.316.453,1,1,0,0,1-.514-.03A8.057,8.057,0,0,0,1198.494,436.409Z" transform="translate(-1172.135 -407.127)" fill="#242638"/>
          <path id="Trazado_81623" data-name="Trazado 81623" d="M1180.375,439.3a2.74,2.74,0,0,0,.948.229.736.736,0,0,0,.706-.585,1.889,1.889,0,0,0-.636-1.613,3.557,3.557,0,0,0-2.7-.8,6.934,6.934,0,0,0-2.691.435,3.409,3.409,0,0,0-1.911,2.183.793.793,0,0,0-.034.427.467.467,0,0,0,.4.355.787.787,0,0,0,.428-.159A6.46,6.46,0,0,1,1180.375,439.3Z" transform="translate(-1164.537 -408.358)" fill="#242638"/>
          <path id="Trazado_81624" data-name="Trazado 81624" d="M1190.748,449.012c.534,2.438-.172,4.956-.845,7.358a.955.955,0,0,0-.006.727.814.814,0,0,0,.224.229,2.986,2.986,0,0,0,1.583.595c.815.057,1.763-.182,2.358.377" transform="translate(-1169.895 -412.595)" fill="none" stroke="#242638" stroke-miterlimit="10" stroke-width="0.679"/>
          <path id="Trazado_81625" data-name="Trazado 81625" d="M1179.9,448.429c-.246-1.8.3-3.366,1.23-3.493s1.876,1.233,2.122,3.035-.3,3.367-1.23,3.493S1180.145,450.232,1179.9,448.429Z" transform="translate(-1166.506 -411.209)" fill="#242638"/>
          <path id="Trazado_81626" data-name="Trazado 81626" d="M1201.407,445.175c-.246-1.8.3-3.367,1.23-3.493s1.875,1.232,2.122,3.034-.3,3.367-1.23,3.493S1201.653,446.977,1201.407,445.175Z" transform="translate(-1173.805 -410.104)" fill="#242638"/>
          <path id="Trazado_81627" data-name="Trazado 81627" d="M1186.033,467.25a30.081,30.081,0,0,0,13.636-1.5s-2.072,5.518-6.518,5.774S1186.033,467.25,1186.033,467.25Z" transform="translate(-1168.608 -418.273)" fill="#fff"/>
          <path id="Trazado_81628" data-name="Trazado 81628" d="M1162.024,414.527c-.975-.558-2.194-1.118-2.351-2.23-.151-1.074.826-1.968,1.795-2.454a6.7,6.7,0,0,0,2.713-1.72c-2.259-.159-3.439-3.07-2.726-5.22a7.423,7.423,0,0,1,4.007-4.163,18.2,18.2,0,0,1,5.751-1.379,68.921,68.921,0,0,1,11.15-.342c3.121.157,6.58.429,9.03-1.51a7.007,7.007,0,0,1,2.162-1.533,3.031,3.031,0,0,1,3.367,1.965,8.83,8.83,0,0,1,.3,4.214c1.448-.581,3.169-.908,4.515-.119s1.741,3.079.382,3.846c-.441.249-1.041.353-1.236.821-.219.523.239,1.062.639,1.465a17.249,17.249,0,0,1-.053,24.386c-1.491-3.778-3.577-7.293-5.207-11.014s-2.814-7.776-2.344-11.811c-6.773,5.258-15.82,6.817-24.371,6.192a2.622,2.622,0,0,0-1.872.324,2.568,2.568,0,0,0-.668,1.9q-.249,3.825-.5,7.652A9.358,9.358,0,0,0,1162.024,414.527Z" transform="translate(-1159.657 -393.888)" fill="#242638"/>
          <path id="Trazado_81629" data-name="Trazado 81629" d="M1203.73,434.262a83.339,83.339,0,0,1-7.037-23.929c.1.846-3.143,2.168-3.721,2.464a32.031,32.031,0,0,1-6.709,2.536c-6.16,1.553-12.344,1.16-18.618,1.327a4.258,4.258,0,0,0-2.475.595,1.52,1.52,0,0,0-.317,2.235" transform="translate(-1161.296 -399.469)" fill="none" stroke="#fff" stroke-linecap="round" stroke-linejoin="round" stroke-width="0.69"/>
          <path id="Trazado_81630" data-name="Trazado 81630" d="M1167.383,412.594c3.156-1.88,7.088-1.6,10.756-1.394,5.392.3,11.005.264,15.907-2" transform="translate(-1162.279 -399.084)" fill="none" stroke="#fff" stroke-linecap="round" stroke-linejoin="round" stroke-width="0.69"/>
        </g>
        <rect id="Rectángulo_26704" data-name="Rectángulo 26704" width="10.521" height="9.322" rx="1.976" transform="matrix(0.984, -0.18, 0.18, 0.984, 87.369, 31.124)" fill="none" stroke="#242638" stroke-miterlimit="10" stroke-width="0.855"/>
        <rect id="Rectángulo_26705" data-name="Rectángulo 26705" width="9.758" height="9.321" rx="1.903" transform="matrix(0.984, -0.18, 0.18, 0.984, 73.374, 33.685)" fill="none" stroke="#242638" stroke-miterlimit="10" stroke-width="0.823"/>
        <line id="Línea_272" data-name="Línea 272" x1="6.955" y2="0.756" transform="translate(98.906 34.057)" fill="none" stroke="#242638" stroke-miterlimit="10" stroke-width="0.66"/>
        <path id="Trazado_81631" data-name="Trazado 81631" d="M1193.576,449.123s-3.5-1.105-4.47,1.012" transform="translate(-1105.179 -412.534)" fill="none" stroke="#242638" stroke-miterlimit="10" stroke-width="0.66"/>
        <line id="Línea_273" data-name="Línea 273" x1="0.91" y2="0.277" transform="translate(73.363 39.099)" fill="none" stroke="#242638" stroke-miterlimit="10" stroke-width="0.66"/>
        <path id="Trazado_81632" data-name="Trazado 81632" d="M1161.086,620.839l-1.672-.727-12.937,4.652-9.158,12.21s.509,1.163,6.687-.291l7.849-3.488,5.742-.582" transform="translate(-1087.605 -470.658)" fill="none" stroke="#242638" stroke-linecap="round" stroke-miterlimit="10" stroke-width="0.66"/>
      </g>
      <g id="Grupo_33168" data-name="Grupo 33168" transform="translate(11.239 66.267)">
        <g id="Grupo_33152" data-name="Grupo 33152" transform="translate(188.193 108.732)">
          <path id="Trazado_81633" data-name="Trazado 81633" d="M1346.718,858.073a1.783,1.783,0,0,1-1.74-1.709l-12.1-193.929h-79.823L1247.288,856.3a1.745,1.745,0,1,1-3.485-.114l5.813-195.638a1.786,1.786,0,0,1,1.744-1.771h83.149a1.781,1.781,0,0,1,1.741,1.709l12.211,195.637a1.8,1.8,0,0,1-1.627,1.944C1346.794,858.071,1346.755,858.073,1346.718,858.073Z" transform="translate(-1243.802 -658.778)" fill="#242638"/>
          <rect id="Rectángulo_26706" data-name="Rectángulo 26706" width="91.289" height="3.124" transform="translate(4.941 87.459)" fill="#242638"/>
        </g>
        <g id="Grupo_33153" data-name="Grupo 33153" transform="translate(2.708 108.732)">
          <path id="Trazado_81634" data-name="Trazado 81634" d="M1065.956,858.073a1.783,1.783,0,0,1-1.74-1.709l-12.1-193.929H972.29L966.526,856.3a1.745,1.745,0,1,1-3.485-.114l5.812-195.638a1.786,1.786,0,0,1,1.744-1.771h83.149a1.781,1.781,0,0,1,1.741,1.709L1067.7,856.125a1.8,1.8,0,0,1-1.627,1.944C1066.032,858.071,1065.993,858.073,1065.956,858.073Z" transform="translate(-963.041 -658.778)" fill="#242638"/>
          <rect id="Rectángulo_26707" data-name="Rectángulo 26707" width="91.289" height="3.124" transform="translate(4.941 87.459)" fill="#242638"/>
        </g>
        <rect id="Rectángulo_26708" data-name="Rectángulo 26708" width="284.332" height="11.72" transform="translate(2.125 101.273)" fill="#fbdbd0"/>
        <rect id="Rectángulo_26709" data-name="Rectángulo 26709" width="284.332" height="3.198" transform="translate(2.125 110.186)" fill="#242638"/>
        <line id="Línea_274" data-name="Línea 274" y1="10.466" transform="translate(189.354 100.883)" fill="none" stroke="#242638" stroke-miterlimit="10" stroke-width="1.32"/>
        <g id="Grupo_33154" data-name="Grupo 33154" transform="translate(15.304)">
          <path id="Trazado_81635" data-name="Trazado 81635" d="M1077.06,494.2h-92.27a2.683,2.683,0,0,0-2.659,3.042l9.741,71.968a2.682,2.682,0,0,0,2.658,2.323h92.27a2.683,2.683,0,0,0,2.659-3.043l-9.74-71.968A2.682,2.682,0,0,0,1077.06,494.2Z" transform="translate(-982.107 -494.195)" fill="#242638"/>
          <path id="Trazado_81636" data-name="Trazado 81636" d="M1053.956,626.565l8.14-25-31.4-.872L1018.486,631.8h55.239v-5.233Zm-13.737-5.233a5.16,5.16,0,1,1,5.16-5.16A5.16,5.16,0,0,1,1040.219,621.332Z" transform="translate(-994.452 -530.334)" fill="#242638"/>
          <path id="Trazado_81637" data-name="Trazado 81637" d="M1064.811,608.694l2.18-6.105h-32l-2.617,5.96" transform="translate(-999.166 -530.978)" fill="none" stroke="#fff" stroke-linecap="round" stroke-linejoin="round" stroke-width="0.66"/>
          <line id="Línea_275" data-name="Línea 275" x2="11.12" y2="78.279" transform="translate(93.01)" fill="none" stroke="#fff" stroke-linecap="round" stroke-linejoin="round" stroke-width="0.66"/>
        </g>
        <g id="Grupo_33165" data-name="Grupo 33165" transform="translate(0 36.883)">
          <g id="Grupo_33156" data-name="Grupo 33156" transform="translate(14.749)">
            <g id="Grupo_33155" data-name="Grupo 33155">
              <path id="Trazado_81638" data-name="Trazado 81638" d="M991.028,550.085c-.811-.3-1.576.571-1.873,1.385-.757,2.078-.536,4.667-2.166,6.161-.321.295-.7.526-.992.849a3.3,3.3,0,0,0-.741,2.014,23.33,23.33,0,0,0,.534,4.36,4.742,4.742,0,0,1-1.07,4.1,16.956,16.956,0,0,0-1.67,1.313c-.949,1.132-.523,2.826-.083,4.236s.765,3.159-.295,4.188c-.286.277-.65.47-.914.768a3.3,3.3,0,0,0-.369,2.753q.865,5.2,2.125,10.333a1.054,1.054,0,0,0,1.379.957l2.712-.139a2.667,2.667,0,0,0,1.405-.338,2.618,2.618,0,0,0,.828-1.32q1.209-3.278,2.1-6.661a6.363,6.363,0,0,0,.089-4.224c-.312-.685-.855-1.253-1.116-1.959-.973-2.628,2.291-5.083,2.223-7.885-.044-1.806-1.48-3.361-1.5-5.168-.022-2.082,1.838-4.133.99-6.034-.28-.628-.821-1.1-1.151-1.708-1.023-1.87.24-4.126.339-6.255C991.848,551.134,991.662,550.323,991.028,550.085Z" transform="translate(-981.266 -550.023)" fill="#356493"/>
              <path id="Trazado_81639" data-name="Trazado 81639" d="M992.266,552.586c-1.03,2.727-2.078,5.623-1.554,8.49a9.605,9.605,0,0,1,.256,1.608c.017,1.63-1.255,3-1.527,4.611-.283,1.677.552,3.378.347,5.066-.194,1.591-1.267,2.909-2.049,4.309s-1.257,3.246-.3,4.532c.445.6,1.141.976,1.557,1.594.8,1.186.329,2.781-.193,4.113-.889,2.267-1.871,4.722-1.2,7.064" transform="translate(-983.181 -550.893)" fill="none" stroke="#242638" stroke-linecap="round" stroke-linejoin="round" stroke-width="0.217"/>
              <path id="Trazado_81640" data-name="Trazado 81640" d="M991.326,577.087a2.332,2.332,0,0,1,.211-1.339c.363-.585,1.182-.76,1.546-1.345a3.865,3.865,0,0,0,.215-1.86,2.986,2.986,0,0,1,1.3-2.271" transform="translate(-984.677 -556.894)" fill="none" stroke="#242638" stroke-linecap="round" stroke-linejoin="round" stroke-width="0.217"/>
              <path id="Trazado_81641" data-name="Trazado 81641" d="M994.473,562.6a2.253,2.253,0,0,1-.918,1.094,1.891,1.891,0,0,0-.841,1.141" transform="translate(-985.151 -554.291)" fill="none" stroke="#242638" stroke-linecap="round" stroke-linejoin="round" stroke-width="0.217"/>
              <path id="Trazado_81642" data-name="Trazado 81642" d="M989.477,566.879c.639,1.393.225,3.128.984,4.461" transform="translate(-984.053 -555.743)" fill="none" stroke="#242638" stroke-linecap="round" stroke-linejoin="round" stroke-width="0.217"/>
              <path id="Trazado_81643" data-name="Trazado 81643" d="M989.293,585.449a3.188,3.188,0,0,1,2.064-1.359c.239-.044.483-.059.719-.118a2.193,2.193,0,0,0,1.527-1.461c.058-.184.152-.423.344-.407" transform="translate(-983.99 -560.91)" fill="none" stroke="#242638" stroke-linecap="round" stroke-linejoin="round" stroke-width="0.217"/>
            </g>
            <path id="Trazado_81644" data-name="Trazado 81644" d="M986.09,581.186a4.141,4.141,0,0,1,.854,2.569,10.058,10.058,0,0,0,.334,2.73" transform="translate(-982.903 -560.598)" fill="none" stroke="#242638" stroke-linecap="round" stroke-linejoin="round" stroke-width="0.217"/>
          </g>
          <g id="Grupo_33158" data-name="Grupo 33158" transform="translate(23.46 22.033)">
            <path id="Trazado_81645" data-name="Trazado 81645" d="M1012.016,583.605c-.241-.412-.859-.209-1.259.11-1.019.815-1.8,2.2-2.989,2.443-.235.048-.473.046-.7.117a2.1,2.1,0,0,0-.992.788,16.637,16.637,0,0,0-1.239,2.382A3.1,3.1,0,0,1,1003,591.19a8.379,8.379,0,0,0-1.149.138c-.782.274-1.171,1.269-1.459,2.125s-.739,1.846-1.533,2.033c-.214.05-.433.033-.645.1-.511.163-.83.751-1.082,1.281q-1.383,2.918-2.574,5.921a.967.967,0,0,0-.1.49.692.692,0,0,0,.363.433l1.2.788a1.213,1.213,0,0,0,.708.274,1.538,1.538,0,0,0,.795-.408q1.613-1.282,3.13-2.717a4.426,4.426,0,0,0,1.458-2.117c.1-.447.06-.907.186-1.348.472-1.643,2.679-1.856,3.593-3.3.589-.931.5-2.176,1.1-3.1.691-1.064,2.168-1.517,2.448-2.752.092-.408.024-.821.087-1.231.2-1.273,1.489-2.02,2.247-3.069C1012.011,584.4,1012.2,583.927,1012.016,583.605Z" transform="translate(-994.452 -583.374)" fill="#fbdbd0"/>
            <g id="Grupo_33157" data-name="Grupo 33157" transform="translate(1.853 2.318)">
              <path id="Trazado_81646" data-name="Trazado 81646" d="M1010.948,586.883a5.061,5.061,0,0,0-2.148,2.5c-.072.27-.1.55-.192.813-.458,1.287-2.257,1.64-2.82,2.885-.171.379-.209.809-.392,1.182a3.557,3.557,0,0,1-1.956,1.423,2.889,2.889,0,0,0-1.81,1.564,5.392,5.392,0,0,0-.116.97,3.4,3.4,0,0,1-1.357,2.35c-.308.225-.655.4-.939.652a4.238,4.238,0,0,0-.9,1.38l-1.058,2.2" transform="translate(-997.257 -586.883)" fill="none" stroke="#242638" stroke-linecap="round" stroke-linejoin="round" stroke-width="0.084"/>
              <path id="Trazado_81647" data-name="Trazado 81647" d="M1006.794,596.912a1.806,1.806,0,0,1,.009.776c-.131.538-.608.956-.68,1.5" transform="translate(-1000.266 -590.286)" fill="none" stroke="#242638" stroke-linecap="round" stroke-linejoin="round" stroke-width="0.084"/>
              <path id="Trazado_81648" data-name="Trazado 81648" d="M1012.666,589.153a5.6,5.6,0,0,0-.37,1.971,3.39,3.39,0,0,1-.743,1.617" transform="translate(-1002.108 -587.653)" fill="none" stroke="#242638" stroke-linecap="round" stroke-linejoin="round" stroke-width="0.084"/>
              <path id="Trazado_81649" data-name="Trazado 81649" d="M1015.689,591.5c-.485.422-1.255.394-1.721.838" transform="translate(-1002.928 -588.451)" fill="none" stroke="#242638" stroke-linecap="round" stroke-linejoin="round" stroke-width="0.084"/>
              <path id="Trazado_81650" data-name="Trazado 81650" d="M1008.434,600.04a4.188,4.188,0,0,1-2.205.961,7.638,7.638,0,0,0-2.336.667c-.022.013-.047.032-.045.057s.054.024.044,0" transform="translate(-999.494 -591.348)" fill="none" stroke="#242638" stroke-linecap="round" stroke-linejoin="round" stroke-width="0.084"/>
              <path id="Trazado_81651" data-name="Trazado 81651" d="M1001.176,602.714a9.675,9.675,0,0,0,.3,1.659,2.536,2.536,0,0,1-.116,1.652" transform="translate(-998.587 -592.255)" fill="none" stroke="#242638" stroke-linecap="round" stroke-linejoin="round" stroke-width="0.084"/>
              <path id="Trazado_81652" data-name="Trazado 81652" d="M1002.379,609.171a.959.959,0,0,1-.329.221,10.149,10.149,0,0,1-2.666.51c-.262.042-.567.137-.646.39" transform="translate(-997.759 -594.447)" fill="none" stroke="#242638" stroke-linecap="round" stroke-linejoin="round" stroke-width="0.084"/>
            </g>
          </g>
          <g id="Grupo_33160" data-name="Grupo 33160" transform="translate(18.752 13.74)">
            <path id="Trazado_81653" data-name="Trazado 81653" d="M1003.565,571c-.423-.444-1.136-.009-1.542.507-1.036,1.319-1.6,3.279-3.022,3.933-.279.129-.578.2-.848.353a2.693,2.693,0,0,0-1.008,1.276,21.358,21.358,0,0,0-.852,3.344,3.981,3.981,0,0,1-1.779,2.717,10.923,10.923,0,0,0-1.4.51c-.9.573-1.093,1.932-1.2,3.086s-.381,2.527-1.321,2.993c-.253.126-.532.169-.777.315a2.868,2.868,0,0,0-.978,1.92q-.874,4.055-1.482,8.161a1.238,1.238,0,0,0,.018.642.89.89,0,0,0,.58.435l1.726.635a1.554,1.554,0,0,0,.967.134,1.969,1.969,0,0,0,.874-.744q1.642-2.077,3.118-4.316a5.688,5.688,0,0,0,1.2-3.075c-.009-.588-.192-1.152-.163-1.741.108-2.193,2.806-3.108,3.525-5.182.463-1.337-.009-2.87.47-4.2.552-1.533,2.266-2.534,2.255-4.159,0-.537-.211-1.033-.253-1.566-.129-1.65,1.27-2.962,1.909-4.5A1.459,1.459,0,0,0,1003.565,571Z" transform="translate(-987.326 -570.82)" fill="#698eae"/>
            <g id="Grupo_33159" data-name="Grupo 33159" transform="translate(2.459 3.387)">
              <path id="Trazado_81654" data-name="Trazado 81654" d="M1002.913,575.947a6.505,6.505,0,0,0-1.954,3.756c-.011.357.038.717,0,1.073-.194,1.744-2.341,2.714-2.68,4.436-.1.524-.024,1.073-.143,1.594a4.572,4.572,0,0,1-2.029,2.354,3.715,3.715,0,0,0-1.806,2.487,6.885,6.885,0,0,0,.14,1.247,4.366,4.366,0,0,1-1.008,3.338c-.32.372-.7.69-.984,1.091a5.459,5.459,0,0,0-.722,1.991q-.339,1.533-.677,3.065" transform="translate(-991.048 -575.947)" fill="none" stroke="#d6dde5" stroke-linecap="round" stroke-linejoin="round" stroke-width="0.217"/>
              <path id="Trazado_81655" data-name="Trazado 81655" d="M998.3,591.674a2.315,2.315,0,0,1,.238.967c-.005.712-.48,1.374-.408,2.082" transform="translate(-993.449 -581.284)" fill="none" stroke="#d6dde5" stroke-linecap="round" stroke-linejoin="round" stroke-width="0.217"/>
              <path id="Trazado_81656" data-name="Trazado 81656" d="M1003.567,580.179a7.183,7.183,0,0,0,.116,2.574,4.36,4.36,0,0,1-.455,2.242" transform="translate(-995.182 -577.383)" fill="none" stroke="#d6dde5" stroke-linecap="round" stroke-linejoin="round" stroke-width="0.217"/>
              <path id="Trazado_81657" data-name="Trazado 81657" d="M1007.624,582.137c-.484.671-1.453.862-1.907,1.554" transform="translate(-996.026 -578.048)" fill="none" stroke="#d6dde5" stroke-linecap="round" stroke-linejoin="round" stroke-width="0.217"/>
              <path id="Trazado_81658" data-name="Trazado 81658" d="M1001.182,594.515a5.389,5.389,0,0,1-2.476,1.849,9.8,9.8,0,0,0-2.727,1.52c-.024.022-.05.054-.04.085s.075.014.056-.013" transform="translate(-992.707 -582.248)" fill="none" stroke="#d6dde5" stroke-linecap="round" stroke-linejoin="round" stroke-width="0.217"/>
              <path id="Trazado_81659" data-name="Trazado 81659" d="M992.636,600.681a12.436,12.436,0,0,0,.861,1.987,3.258,3.258,0,0,1,.34,2.1" transform="translate(-991.587 -584.341)" fill="none" stroke="#d6dde5" stroke-linecap="round" stroke-linejoin="round" stroke-width="0.217"/>
              <path id="Trazado_81660" data-name="Trazado 81660" d="M996.2,607.854a1.23,1.23,0,0,1-.348.373,13,13,0,0,1-3.185,1.42c-.315.13-.669.337-.693.678" transform="translate(-991.364 -586.775)" fill="none" stroke="#d6dde5" stroke-linecap="round" stroke-linejoin="round" stroke-width="0.217"/>
            </g>
          </g>
          <g id="Grupo_33162" data-name="Grupo 33162" transform="translate(0 13.449)">
            <path id="Trazado_81661" data-name="Trazado 81661" d="M959.154,570.565c.423-.444,1.136-.009,1.542.507,1.036,1.319,1.6,3.279,3.021,3.933.28.129.578.2.848.353a2.693,2.693,0,0,1,1.008,1.276,21.321,21.321,0,0,1,.852,3.344A3.98,3.98,0,0,0,968.2,582.7a10.9,10.9,0,0,1,1.4.51c.9.573,1.093,1.932,1.2,3.086s.381,2.527,1.321,2.993c.254.126.532.168.778.315a2.868,2.868,0,0,1,.977,1.92q.875,4.055,1.482,8.161a1.242,1.242,0,0,1-.018.641.892.892,0,0,1-.581.436l-1.726.635a1.552,1.552,0,0,1-.966.134,1.969,1.969,0,0,1-.874-.744q-1.643-2.077-3.118-4.316a5.688,5.688,0,0,1-1.2-3.076c.009-.587.192-1.151.163-1.741-.108-2.193-2.807-3.108-3.525-5.182-.463-1.337.009-2.87-.47-4.2-.552-1.533-2.266-2.534-2.255-4.159,0-.537.211-1.033.253-1.566.129-1.65-1.27-2.963-1.909-4.5A1.459,1.459,0,0,1,959.154,570.565Z" transform="translate(-958.941 -570.38)" fill="#698eae"/>
            <g id="Grupo_33161" data-name="Grupo 33161" transform="translate(2.127 3.387)">
              <path id="Trazado_81662" data-name="Trazado 81662" d="M962.161,575.507a6.506,6.506,0,0,1,1.954,3.755c.011.358-.038.718,0,1.074.195,1.743,2.342,2.714,2.68,4.435.1.525.024,1.073.144,1.594a4.576,4.576,0,0,0,2.028,2.354,3.71,3.71,0,0,1,1.806,2.487,6.886,6.886,0,0,1-.139,1.247,4.36,4.36,0,0,0,1.008,3.338c.32.372.7.69.984,1.091a5.459,5.459,0,0,1,.722,1.991l.677,3.065" transform="translate(-962.161 -575.507)" fill="none" stroke="#d6dde5" stroke-linecap="round" stroke-linejoin="round" stroke-width="0.217"/>
              <path id="Trazado_81663" data-name="Trazado 81663" d="M972.654,591.234a2.315,2.315,0,0,0-.238.967c.006.712.48,1.374.409,2.082" transform="translate(-965.641 -580.844)" fill="none" stroke="#d6dde5" stroke-linecap="round" stroke-linejoin="round" stroke-width="0.217"/>
              <path id="Trazado_81664" data-name="Trazado 81664" d="M967.363,579.739a7.2,7.2,0,0,1-.116,2.574,4.366,4.366,0,0,0,.454,2.242" transform="translate(-963.884 -576.943)" fill="none" stroke="#d6dde5" stroke-linecap="round" stroke-linejoin="round" stroke-width="0.217"/>
              <path id="Trazado_81665" data-name="Trazado 81665" d="M962.565,581.7c.484.671,1.453.862,1.907,1.554" transform="translate(-962.298 -577.608)" fill="none" stroke="#d6dde5" stroke-linecap="round" stroke-linejoin="round" stroke-width="0.217"/>
              <path id="Trazado_81666" data-name="Trazado 81666" d="M967.293,594.075a5.385,5.385,0,0,0,2.476,1.848,9.8,9.8,0,0,1,2.726,1.52c.024.022.05.054.04.085s-.075.014-.056-.013" transform="translate(-963.903 -581.808)" fill="none" stroke="#d6dde5" stroke-linecap="round" stroke-linejoin="round" stroke-width="0.217"/>
              <path id="Trazado_81667" data-name="Trazado 81667" d="M977.882,600.241a12.33,12.33,0,0,1-.861,1.987,3.258,3.258,0,0,0-.34,2.1" transform="translate(-967.067 -583.901)" fill="none" stroke="#d6dde5" stroke-linecap="round" stroke-linejoin="round" stroke-width="0.217"/>
              <path id="Trazado_81668" data-name="Trazado 81668" d="M972.794,607.414a1.237,1.237,0,0,0,.347.373,13.025,13.025,0,0,0,3.185,1.42c.316.13.669.337.694.677" transform="translate(-965.769 -586.335)" fill="none" stroke="#d6dde5" stroke-linecap="round" stroke-linejoin="round" stroke-width="0.217"/>
            </g>
          </g>
          <g id="Grupo_33164" data-name="Grupo 33164" transform="translate(11.789 18.284)">
            <path id="Trazado_81669" data-name="Trazado 81669" d="M977.074,577.783c.392-.272.868.171,1.1.629.582,1.168.706,2.751,1.686,3.472.193.142.41.24.591.4a2.1,2.1,0,0,1,.568,1.131,16.608,16.608,0,0,1,.124,2.684,3.1,3.1,0,0,0,.93,2.351,8.547,8.547,0,0,1,.984.608,3.136,3.136,0,0,1,.432,2.542c-.1.9-.106,1.986.537,2.489.174.136.379.211.544.362a2.233,2.233,0,0,1,.444,1.617q.03,3.229-.151,6.455a.968.968,0,0,1-.114.486.7.7,0,0,1-.511.241l-1.416.213a1.21,1.21,0,0,1-.758-.05,1.533,1.533,0,0,1-.55-.7q-.927-1.841-1.7-3.78a4.424,4.424,0,0,1-.433-2.533c.1-.447.327-.848.4-1.3.262-1.689-1.652-2.81-1.874-4.5-.143-1.092.457-2.187.3-3.276-.18-1.256-1.33-2.287-1.066-3.525.087-.409.323-.755.439-1.155.357-1.237-.5-2.458-.75-3.729C976.746,578.5,976.768,578,977.074,577.783Z" transform="translate(-976.786 -577.7)" fill="#fbdbd0"/>
            <g id="Grupo_33163" data-name="Grupo 33163" transform="translate(0.807 2.826)">
              <path id="Trazado_81670" data-name="Trazado 81670" d="M978.672,581.977a5.068,5.068,0,0,1,.9,3.17c-.048.274-.141.541-.167.818-.125,1.36,1.36,2.436,1.347,3.8,0,.416-.15.823-.14,1.238a3.561,3.561,0,0,0,1.177,2.113,2.887,2.887,0,0,1,.986,2.179,5.394,5.394,0,0,1-.3.928,3.4,3.4,0,0,0,.245,2.7,11.246,11.246,0,0,1,.579.987,4.236,4.236,0,0,1,.239,1.63q.018,1.222.036,2.443" transform="translate(-978.233 -581.977)" fill="none" stroke="#242638" stroke-linecap="round" stroke-linejoin="round" stroke-width="0.084"/>
              <path id="Trazado_81671" data-name="Trazado 81671" d="M984.112,595.632a1.8,1.8,0,0,0-.333.7c-.108.544.15,1.123-.015,1.652" transform="translate(-979.957 -586.611)" fill="none" stroke="#242638" stroke-linecap="round" stroke-linejoin="round" stroke-width="0.084"/>
              <path id="Trazado_81672" data-name="Trazado 81672" d="M981.707,586.03a5.576,5.576,0,0,1-.492,1.944,3.4,3.4,0,0,0-.005,1.78" transform="translate(-979.055 -583.352)" fill="none" stroke="#242638" stroke-linecap="round" stroke-linejoin="round" stroke-width="0.084"/>
              <path id="Trazado_81673" data-name="Trazado 81673" d="M978.008,586.76c.264.587.973.885,1.21,1.483" transform="translate(-978.008 -583.6)" fill="none" stroke="#242638" stroke-linecap="round" stroke-linejoin="round" stroke-width="0.084"/>
              <path id="Trazado_81674" data-name="Trazado 81674" d="M979.67,596.938a4.194,4.194,0,0,0,1.6,1.8,7.622,7.622,0,0,1,1.84,1.587c.015.021.03.048.017.071s-.059,0-.04-.019" transform="translate(-978.572 -587.054)" fill="none" stroke="#242638" stroke-linecap="round" stroke-linejoin="round" stroke-width="0.084"/>
              <path id="Trazado_81675" data-name="Trazado 81675" d="M986.471,603.4a9.682,9.682,0,0,1-.968,1.38,2.532,2.532,0,0,0-.589,1.548" transform="translate(-980.351 -589.248)" fill="none" stroke="#242638" stroke-linecap="round" stroke-linejoin="round" stroke-width="0.084"/>
              <path id="Trazado_81676" data-name="Trazado 81676" d="M981.772,607.971a.947.947,0,0,0,.206.339,10.124,10.124,0,0,0,2.205,1.582c.22.149.456.362.422.626" transform="translate(-979.285 -590.798)" fill="none" stroke="#242638" stroke-linecap="round" stroke-linejoin="round" stroke-width="0.084"/>
            </g>
          </g>
          <path id="Trazado_81677" data-name="Trazado 81677" d="M995.354,614.333H970.932l1.249,16.658a5.562,5.562,0,0,0,5.547,5.146h10.829a5.561,5.561,0,0,0,5.546-5.146Z" transform="translate(-963.01 -571.847)" fill="#37a3a5"/>
        </g>
        <g id="Grupo_33167" data-name="Grupo 33167" transform="translate(174.672 40.45)">
          <g id="Grupo_33166" data-name="Grupo 33166">
            <path id="Trazado_81678" data-name="Trazado 81678" d="M1364.9,555.422l-82.068,1.126-10.55,59.977,81.522-.32Z" transform="translate(-1239.947 -555.422)" fill="#a9bdd2"/>
            <rect id="Rectángulo_26710" data-name="Rectángulo 26710" width="52.286" height="5.192" transform="translate(0 55.984) rotate(-0.786)" fill="#a9bdd2"/>
          </g>
          <path id="Trazado_81679" data-name="Trazado 81679" d="M1351.329,591.513a7.045,7.045,0,1,0-6.948,7.142A7.046,7.046,0,0,0,1351.329,591.513Z" transform="translate(-1261.99 -565.311)" fill="#fff"/>
        </g>
      </g>
      <g id="Grupo_33172" data-name="Grupo 33172" transform="translate(0 252.662)">
        <rect id="Rectángulo_26711" data-name="Rectángulo 26711" width="102.046" height="121.67" fill="#242638"/>
        <line id="Línea_276" data-name="Línea 276" y1="120.798" transform="translate(45.354 0.436)" fill="none" stroke="#a9bdd2" stroke-miterlimit="10" stroke-width="1.32"/>
        <circle id="Elipse_3431" data-name="Elipse 3431" cx="1.744" cy="1.744" r="1.744" transform="translate(35.105 47.316)" fill="none" stroke="#a9bdd2" stroke-miterlimit="10" stroke-width="1.32"/>
        <path id="Trazado_81680" data-name="Trazado 81680" d="M998.557,861a1.744,1.744,0,1,0-1.745,1.745A1.745,1.745,0,0,0,998.557,861Z" transform="translate(-959.962 -804.476)" fill="none" stroke="#a9bdd2" stroke-miterlimit="10" stroke-width="1.32"/>
        <rect id="Rectángulo_26712" data-name="Rectángulo 26712" width="35.323" height="2.617" transform="translate(3.053 65.85)" fill="none" stroke="#a9bdd2" stroke-miterlimit="10" stroke-width="1.32"/>
        <rect id="Rectángulo_26713" data-name="Rectángulo 26713" width="35.323" height="2.617" transform="translate(3.053 72.064)" fill="none" stroke="#a9bdd2" stroke-miterlimit="10" stroke-width="1.32"/>
        <rect id="Rectángulo_26714" data-name="Rectángulo 26714" width="35.323" height="2.617" transform="translate(3.053 85.365)" fill="none" stroke="#a9bdd2" stroke-miterlimit="10" stroke-width="1.32"/>
        <rect id="Rectángulo_26715" data-name="Rectángulo 26715" width="35.323" height="2.617" transform="translate(3.053 90.598)" fill="none" stroke="#a9bdd2" stroke-miterlimit="10" stroke-width="1.32"/>
        <g id="Grupo_33171" data-name="Grupo 33171" transform="translate(6.363 7.101)">
          <g id="Grupo_33170" data-name="Grupo 33170">
            <g id="Grupo_33169" data-name="Grupo 33169">
              <path id="Trazado_81681" data-name="Trazado 81681" d="M982.2,805.855c0-9.512-6.563-17.223-14.659-17.223s-14.658,7.711-14.658,17.223,6.563,17.224,14.658,17.224S982.2,815.368,982.2,805.855Z" transform="translate(-952.009 -787.609)" fill="#242638"/>
              <path id="Trazado_81682" data-name="Trazado 81682" d="M967.091,823.577c-8.563,0-15.529-8.185-15.529-18.247s6.966-18.246,15.529-18.246,15.53,8.185,15.53,18.246S975.654,823.577,967.091,823.577Zm0-34.448c-7.6,0-13.787,7.268-13.787,16.2s6.185,16.2,13.787,16.2,13.788-7.267,13.788-16.2S974.693,789.129,967.091,789.129Z" transform="translate(-951.562 -787.083)" fill="#d4dee8"/>
            </g>
            <path id="Trazado_81683" data-name="Trazado 81683" d="M981.452,805.486a9.88,9.88,0,0,0-10.382.333,12.819,12.819,0,0,1,9.161-4.849,14.118,14.118,0,0,0-4.821-6.657s-5.516,2.549-6.49,10.285a17.893,17.893,0,0,1,2.941-11.734,10.43,10.43,0,0,0-7.438-.17,15.315,15.315,0,0,0,2.074,12.264,15.079,15.079,0,0,1-6.715-8.765,14.534,14.534,0,0,0-3.923,7.427s3.4,4.9,9.4,4.271a12.48,12.48,0,0,1-9.085,1.448,13.2,13.2,0,0,0,2.771,7.3,12.047,12.047,0,0,0,8.022-6.064A14.82,14.82,0,0,1,960.134,818a12.008,12.008,0,0,0,6.485,4.284,14.508,14.508,0,0,0,3.283-10.427,18.192,18.192,0,0,1,1.494,9.648,11.668,11.668,0,0,0,6.429-4.4,13.669,13.669,0,0,0-4.975-7.953,13.212,13.212,0,0,1,7.3,4.936A16.292,16.292,0,0,0,981.452,805.486Zm-11.363,2.185-1.581,1.507-.7-.307c.007-.018.016-.032.023-.05l-1.089-1.921.536-1.484,1.712-.273s-.007-.043-.017-.106l1.344,1.362-.025,1.361C970.224,807.731,970.162,807.7,970.089,807.671Z" transform="translate(-953.02 -788.783)" fill="#a2bed4" opacity="0.32"/>
            <path id="Trazado_81684" data-name="Trazado 81684" d="M976.61,813.931a2.757,2.757,0,1,0-2.721,3.2A2.988,2.988,0,0,0,976.61,813.931Z" transform="translate(-958.215 -795.109)" fill="#242638"/>
          </g>
          <path id="Trazado_81685" data-name="Trazado 81685" d="M978.819,821.685,959.55,793.6l.758-.719,19.269,28.086Z" transform="translate(-954.273 -789.05)" fill="#d4dee8"/>
          <path id="Trazado_81686" data-name="Trazado 81686" d="M960.308,821.685,979.578,793.6l-.759-.719L959.55,820.966Z" transform="translate(-954.273 -789.05)" fill="#d4dee8"/>
          <path id="Trazado_81687" data-name="Trazado 81687" d="M968.708,822.417c-6.837,0-12.4-6.536-12.4-14.569s5.563-14.568,12.4-14.568,12.4,6.536,12.4,14.568S975.545,822.417,968.708,822.417Zm0-28.563c-6.569,0-11.912,6.278-11.912,13.994s5.343,14,11.912,14,11.911-6.278,11.911-14S975.276,793.854,968.708,793.854Z" transform="translate(-953.173 -789.186)" fill="#d4dee8"/>
          <path id="Trazado_81688" data-name="Trazado 81688" d="M969.506,820.825c-5.648,0-10.245-5.4-10.245-12.038s4.6-12.037,10.245-12.037,10.245,5.4,10.245,12.037S975.154,820.825,969.506,820.825Zm0-23.5c-5.379,0-9.756,5.143-9.756,11.464s4.377,11.464,9.756,11.464,9.756-5.143,9.756-11.464S974.885,797.323,969.506,797.323Z" transform="translate(-954.175 -790.364)" fill="#d4dee8"/>
          <path id="Trazado_81689" data-name="Trazado 81689" d="M971.626,819.733c-3.967,0-7.2-3.793-7.2-8.454s3.229-8.454,7.2-8.454,7.2,3.793,7.2,8.454S975.593,819.733,971.626,819.733Zm0-16.336c-3.7,0-6.708,3.536-6.708,7.882s3.009,7.881,6.708,7.881,6.708-3.535,6.708-7.881S975.324,803.4,971.626,803.4Z" transform="translate(-955.929 -792.425)" fill="#d4dee8"/>
        </g>
        <path id="Trazado_81690" data-name="Trazado 81690" d="M995.1,928.818h0a.8.8,0,0,0-.8.8v15.554a.8.8,0,0,0,.8.8h0a.8.8,0,0,0,.8-.8V929.617A.8.8,0,0,0,995.1,928.818Z" transform="translate(-959.701 -828.081)" fill="#a2bed4"/>
        <rect id="Rectángulo_26716" data-name="Rectángulo 26716" width="1.599" height="17.153" rx="0.799" transform="translate(31.544 100.737)" fill="#a2bed4"/>
        <path id="Trazado_81691" data-name="Trazado 81691" d="M972.984,928.818h0a.8.8,0,0,0-.8.8v15.554a.8.8,0,0,0,.8.8h0a.8.8,0,0,0,.8-.8V929.617A.8.8,0,0,0,972.984,928.818Z" transform="translate(-952.197 -828.081)" fill="#a2bed4"/>
        <path id="Trazado_81692" data-name="Trazado 81692" d="M968.363,928.818h0a.8.8,0,0,0-.8.8v15.554a.8.8,0,0,0,.8.8h0a.8.8,0,0,0,.8-.8V929.617A.8.8,0,0,0,968.363,928.818Z" transform="translate(-950.629 -828.081)" fill="#a2bed4"/>
        <path id="Trazado_81693" data-name="Trazado 81693" d="M953.511,928.818h0a.8.8,0,0,0-.8.8v15.554a.8.8,0,0,0,.8.8h0a.8.8,0,0,0,.8-.8V929.617A.8.8,0,0,0,953.511,928.818Z" transform="translate(-945.588 -828.081)" fill="#a2bed4"/>
        <path id="Trazado_81694" data-name="Trazado 81694" d="M948.89,928.818h0a.8.8,0,0,0-.8.8v15.554a.8.8,0,0,0,.8.8h0a.8.8,0,0,0,.8-.8V929.617A.8.8,0,0,0,948.89,928.818Z" transform="translate(-944.021 -828.081)" fill="#a2bed4"/>
      </g>
      <path id="Trazado_81695" data-name="Trazado 81695" d="M1037.183,741.735s-.872-28.985-.872-54.509-1.036-53.971,9.948-53.971" transform="translate(-973.949 -475.118)" fill="none" stroke="#242638" stroke-miterlimit="10" stroke-width="2.63"/>
    </g>
  </g>
</svg>
