<svg xmlns="http://www.w3.org/2000/svg" xmlns:xlink="http://www.w3.org/1999/xlink" width="100" height="102" viewBox="0 0 100 102">
  <defs>
    <filter id="Rectángulo_2216" x="1" y="4" width="98" height="98" filterUnits="userSpaceOnUse">
      <feOffset dy="3" input="SourceAlpha"/>
      <feGaussianBlur stdDeviation="3" result="blur"/>
      <feFlood flood-opacity="0.161"/>
      <feComposite operator="in" in2="blur"/>
      <feComposite in="SourceGraphic"/>
    </filter>
  </defs>
  <g id="Grupo_33926" data-name="Grupo 33926" transform="translate(-714 -12561)">
    <g id="Grupo_33242" data-name="Grupo 33242" transform="translate(5 10011)">
      <rect id="Rectángulo_2212" data-name="Rectángulo 2212" width="100" height="100" rx="8" transform="translate(709 2550)" fill="#50b3b8"/>
      <g transform="matrix(1, 0, 0, 1, 709, 2550)" filter="url(#Rectángulo_2216)">
        <rect id="Rectángulo_2216-2" data-name="Rectángulo 2216" width="80" height="80" rx="8" transform="translate(10 10)" fill="#fff" opacity="0.21"/>
      </g>
    </g>
    <g id="Grupo_33738" data-name="Grupo 33738" transform="translate(-62.751 11967.001)">
      <path id="Trazado_82745" data-name="Trazado 82745" d="M796.107,637.315h6.643v-4.928c0-1.829,0-3.657,0-5.485.01-4.129,2.68-6.807,6.843-6.84,2.866-.023,5.732-.013,8.6-.022a3.536,3.536,0,0,0,.5-.111v-5.113h15.815V627.77H818.8v-5.208h-4.53c-1.532,0-3.065-.036-4.6.012-2.544.081-4.285,1.518-4.374,3.913-.133,3.544-.034,7.1-.034,10.792h6.638v13.316h-15.8ZM826.6,625.4c1.434,0,2.869-.035,4.3.013.861.029,1.259-.207,1.231-1.158-.058-1.976-.046-3.955,0-5.932.018-.839-.287-1.126-1.12-1.116q-4.3.052-8.6,0c-.8-.009-1.172.209-1.152,1.082.044,2.026.036,4.054,0,6.081-.013.77.276,1.058,1.042,1.038C823.736,625.372,825.17,625.4,826.6,625.4Zm-27.893,22.5h10.557v-7.812H798.711Z" fill="#fff"/>
      <path id="Trazado_82746" data-name="Trazado 82746" d="M955.643,663.14H939.75V649.877h6.636c0-2.051,0-3.962,0-5.872,0-1.335.008-2.67,0-4-.025-3.313-1.62-4.918-4.907-4.935-1.866-.01-3.732,0-5.683,0v-2.38a68.05,68.05,0,0,1,8.118.07c2.737.332,4.868,3.09,4.929,5.895.079,3.65.019,7.3.019,11.106h6.782V663.14ZM942.4,652.565V660.4h10.512v-7.836Z" transform="translate(-98.249 -12.501)" fill="#fff"/>
      <path id="Trazado_82747" data-name="Trazado 82747" d="M834.419,751.792h15.847v13H834.5c0-1.332-.042-2.694.015-4.052.037-.9-.283-1.215-1.192-1.2-2.718.044-5.437.039-8.155.008a6.379,6.379,0,0,1-6.681-6.7c-.023-2.563,0-5.127,0-7.79h2.5c0,1.807,0,3.66,0,5.513,0,5.462,1.016,6.479,6.475,6.479h6.955Zm7.9,10.6c1.433,0,2.868-.033,4.3.013.838.026,1.282-.159,1.253-1.132-.058-1.975-.044-3.954-.005-5.931.016-.814-.244-1.15-1.1-1.14q-4.374.054-8.749,0c-.792-.009-1.031.313-1.021,1.057.029,2.026.041,4.054,0,6.079-.02.894.394,1.083,1.172,1.062C839.549,762.369,840.933,762.4,842.318,762.4Z" transform="translate(-15.736 -91.61)" fill="#fff"/>
      <path id="Trazado_82748" data-name="Trazado 82748" d="M935.674,759.564v-2.5c1.777,0,3.533,0,5.288,0,3.873,0,5.336-1.479,5.339-5.388,0-2.167,0-4.334,0-6.6h2.5c0,.86,0,1.771,0,2.682,0,1.778.022,3.556-.009,5.333a6.394,6.394,0,0,1-6.468,6.47C940.163,759.594,938,759.564,935.674,759.564Z" transform="translate(-98.164 -91.616)" fill="#fff"/>
    </g>
  </g>
</svg>
