<svg xmlns="http://www.w3.org/2000/svg" xmlns:xlink="http://www.w3.org/1999/xlink" width="180.074" height="176.852" viewBox="0 0 180.074 176.852">
  <defs>
    <linearGradient id="linear-gradient" x1="0.167" y1="-0.077" x2="0.833" y2="1.077" gradientUnits="objectBoundingBox">
      <stop offset="0" stop-color="#b1b2f3"/>
      <stop offset="1" stop-color="#9d9ef0"/>
    </linearGradient>
    <linearGradient id="linear-gradient-4" x1="0.314" y1="-0.604" x2="0.686" y2="1.604" xlink:href="#linear-gradient"/>
  </defs>
  <g id="Grupo_29088" data-name="Grupo 29088" transform="translate(-336.881 -103.953)">
    <g id="Grupo_29020" data-name="Grupo 29020" transform="translate(423.181 110.333)">
      <path id="Trazado_68871" data-name="Trazado 68871" d="M543.705,126.019h0Z" transform="translate(-526.914 -121.4)" fill="#e8e8e8"/>
      <path id="Trazado_68872" data-name="Trazado 68872" d="M527.767,124l-1.041.2a7.9,7.9,0,0,0-.843-2.317l.927-.513a8.947,8.947,0,0,0-2.816-3.081l-.593.877a7.892,7.892,0,0,0-2.234-1.046l.293-1.015-.047-.013a8.924,8.924,0,0,0-4.125-.179l.2,1.041a7.913,7.913,0,0,0-2.32.837l-.51-.928a8.95,8.95,0,0,0-3.089,2.808l.875.595a7.908,7.908,0,0,0-1.052,2.232l-1.014-.3-.02.07a8.926,8.926,0,0,0-.185,4.1l1.041-.2a7.909,7.909,0,0,0,.831,2.322l-.929.508h0a8.957,8.957,0,0,0,2.8,3.1l.6-.873a7.9,7.9,0,0,0,2.229,1.056l-.3,1.014h0l.093.027a8.933,8.933,0,0,0,4.172.17l-.206-1.04a7.91,7.91,0,0,0,2.315-.85l.516.926a8.953,8.953,0,0,0,3.073-2.824l-.879-.591a7.912,7.912,0,0,0,1.042-2.236l1.015.29.006-.023a8.909,8.909,0,0,0,.175-4.149Zm-8.788,7.042a5.338,5.338,0,1,1,5.125-3.88A5.32,5.32,0,0,1,518.979,131.04Z" transform="translate(-510.018 -116.752)" fill="#e8e8e8"/>
    </g>
    <g id="Grupo_29021" data-name="Grupo 29021" transform="translate(356.387 138.55)">
      <path id="Trazado_68873" data-name="Trazado 68873" d="M592.3,408.548a31.2,31.2,0,1,0-54.826,0Z" transform="translate(-455.095 -268.196)" fill="#fff"/>
      <circle id="Elipse_3363" data-name="Elipse 3363" cx="41.543" cy="41.543" r="41.543" transform="translate(0 26.527)" fill="#fff"/>
      <circle id="Elipse_3364" data-name="Elipse 3364" cx="31.199" cy="31.199" r="31.199" transform="translate(19.103)" fill="#fff"/>
      <circle id="Elipse_3365" data-name="Elipse 3365" cx="31.199" cy="31.199" r="31.199" transform="translate(52.089 61.986) rotate(-79.905)" fill="#fff"/>
      <circle id="Elipse_3366" data-name="Elipse 3366" cx="24.503" cy="24.503" r="24.503" transform="translate(75.652 55.252)" fill="#fff"/>
      <path id="Trazado_68874" data-name="Trazado 68874" d="M399.145,364.223a31.2,31.2,0,0,0,8.9,34.62H476.4a31.194,31.194,0,0,0-34.479-51.772,31.208,31.208,0,0,0-36.886,7.393,5.7,5.7,0,1,0-5.892,9.759Z" transform="translate(-386.187 -258.491)" fill="#dfe1f7"/>
    </g>
    <g id="Grupo_29048" data-name="Grupo 29048" transform="translate(389.613 131.38)">
      <g id="Grupo_29044" data-name="Grupo 29044">
        <g id="Grupo_29043" data-name="Grupo 29043">
          <g id="Grupo_29042" data-name="Grupo 29042">
            <path id="Rectángulo_26499" data-name="Rectángulo 26499" d="M8.851,0H68.406a8.85,8.85,0,0,1,8.85,8.85V137.8a8.851,8.851,0,0,1-8.851,8.851H8.85A8.85,8.85,0,0,1,0,137.8V8.851A8.851,8.851,0,0,1,8.851,0Z" transform="translate(0.498 0.498)" fill="#00223d"/>
            <path id="Trazado_68906" data-name="Trazado 68906" d="M516.014,159.975a3.913,3.913,0,0,1,3.913,3.913V301.711a3.913,3.913,0,0,1-3.913,3.913H447.582a3.913,3.913,0,0,1-3.913-3.913V163.888a3.913,3.913,0,0,1,3.913-3.913h68.433m0-1H447.582a4.915,4.915,0,0,0-4.91,4.91V301.711a4.916,4.916,0,0,0,4.91,4.91h68.433a4.915,4.915,0,0,0,4.91-4.91V163.888a4.915,4.915,0,0,0-4.91-4.91Z" transform="translate(-442.672 -158.978)" fill="#b4b7c6"/>
          </g>
        </g>
      </g>
      <g id="Grupo_29045" data-name="Grupo 29045" transform="translate(0.997 8.511)">
        <path id="Trazado_68907" data-name="Trazado 68907" d="M520.931,180.574V302.152a4.521,4.521,0,0,1-4.521,4.522H449.193a4.521,4.521,0,0,1-4.521-4.522V180.574a4.521,4.521,0,0,1,4.521-4.521H516.41A4.521,4.521,0,0,1,520.931,180.574Z" transform="translate(-444.672 -176.053)" fill="#00926e"/>
      </g>
      <g id="Grupo_29046" data-name="Grupo 29046" transform="translate(33.592 3.993)">
        <path id="Trazado_68908" data-name="Trazado 68908" d="M520.26,168.734h-9.323a.873.873,0,0,1-.873-.873h0a.873.873,0,0,1,.873-.873h9.323a.873.873,0,0,1,.873.873h0A.873.873,0,0,1,520.26,168.734Z" transform="translate(-510.065 -166.988)" fill="#fff"/>
      </g>
      <g id="Grupo_29047" data-name="Grupo 29047" transform="translate(29.992 3.993)">
        <path id="Trazado_68909" data-name="Trazado 68909" d="M504.589,167.861a.873.873,0,1,1-.873-.873A.872.872,0,0,1,504.589,167.861Z" transform="translate(-502.843 -166.988)" fill="#fff"/>
      </g>
    </g>
    <path id="Rectángulo_26500" data-name="Rectángulo 26500" d="M2.949,0h55.11a2.949,2.949,0,0,1,2.949,2.949V4.225a2.948,2.948,0,0,1-2.948,2.948H2.948A2.948,2.948,0,0,1,0,4.225V2.949A2.949,2.949,0,0,1,2.949,0Z" transform="translate(398.235 189.472)" fill="#e6e7e8" style="mix-blend-mode: multiply;isolation: isolate"/>
    <rect id="Rectángulo_26501" data-name="Rectángulo 26501" width="17.975" height="8.469" rx="2.106" transform="translate(397.922 146.68)" fill="#e6e7e8" style="mix-blend-mode: multiply;isolation: isolate"/>
    <rect id="Rectángulo_26502" data-name="Rectángulo 26502" width="17.975" height="8.469" rx="2.106" transform="translate(419.752 146.68)" fill="#e6e7e8" style="mix-blend-mode: multiply;isolation: isolate"/>
    <rect id="Rectángulo_26503" data-name="Rectángulo 26503" width="17.975" height="8.469" rx="2.106" transform="translate(441.581 146.68)" fill="#e6e7e8" style="mix-blend-mode: multiply;isolation: isolate"/>
    <rect id="Rectángulo_26504" data-name="Rectángulo 26504" width="26.882" height="26.882" rx="2.455" transform="translate(400.48 218.204)" stroke="#707070" stroke-miterlimit="10" stroke-width="8" opacity="0.4" fill="url(#linear-gradient)" style="mix-blend-mode: multiply;isolation: isolate"/>
    <rect id="Rectángulo_26505" data-name="Rectángulo 26505" width="26.882" height="26.882" rx="2.455" transform="translate(435.356 218.204)" stroke="#707070" stroke-miterlimit="10" stroke-width="8" opacity="0.4" fill="url(#linear-gradient)" style="mix-blend-mode: multiply;isolation: isolate"/>
    <rect id="Rectángulo_26506" data-name="Rectángulo 26506" width="26.882" height="26.882" rx="2.455" transform="translate(470.233 218.204)" stroke="#707070" stroke-miterlimit="10" stroke-width="8" opacity="0.4" fill="url(#linear-gradient)" style="mix-blend-mode: multiply;isolation: isolate"/>
    <rect id="Rectángulo_26507" data-name="Rectángulo 26507" width="26.882" height="26.882" rx="2.455" transform="translate(398.562 216.286)" fill="#e8e8e8"/>
    <rect id="Rectángulo_26508" data-name="Rectángulo 26508" width="26.882" height="26.882" rx="2.455" transform="translate(433.438 216.286)" fill="#e8e8e8"/>
    <rect id="Rectángulo_26509" data-name="Rectángulo 26509" width="26.882" height="12.917" rx="1.702" transform="translate(433.438 248.383)" fill="#e6e7e8" style="mix-blend-mode: multiply;isolation: isolate"/>
    <rect id="Rectángulo_26510" data-name="Rectángulo 26510" width="26.882" height="12.917" rx="1.702" transform="translate(398.29 248.383)" fill="#e6e7e8" style="mix-blend-mode: multiply;isolation: isolate"/>
    <rect id="Rectángulo_26511" data-name="Rectángulo 26511" width="26.882" height="26.882" rx="2.455" transform="translate(468.314 216.286)" fill="#e8e8e8"/>
    <g id="Grupo_29049" data-name="Grupo 29049" transform="translate(397.922 157.403)">
      <rect id="Rectángulo_26512" data-name="Rectángulo 26512" width="17.975" height="2.002" rx="1.001" fill="#e8e8e8"/>
      <rect id="Rectángulo_26513" data-name="Rectángulo 26513" width="17.975" height="2.002" rx="1.001" transform="translate(21.829)" fill="#e8e8e8"/>
      <rect id="Rectángulo_26514" data-name="Rectángulo 26514" width="17.975" height="2.002" rx="1.001" transform="translate(43.659)" fill="#e8e8e8"/>
    </g>
    <g id="Grupo_29050" data-name="Grupo 29050" transform="translate(397.922 161.637)" style="mix-blend-mode: multiply;isolation: isolate">
      <rect id="Rectángulo_26515" data-name="Rectángulo 26515" width="17.975" height="2.002" rx="1.001" fill="#e6e7e8"/>
      <rect id="Rectángulo_26516" data-name="Rectángulo 26516" width="17.975" height="2.002" rx="1.001" transform="translate(21.829)" fill="#e6e7e8"/>
      <rect id="Rectángulo_26517" data-name="Rectángulo 26517" width="17.975" height="2.002" rx="1.001" transform="translate(43.659)" fill="#e6e7e8"/>
    </g>
    <g id="Grupo_29053" data-name="Grupo 29053" transform="translate(485.187 220.043)">
      <path id="Trazado_68910" data-name="Trazado 68910" d="M668.665,404.528c-1.348-.113-1.444-7.657-1.236-10.86s.97-5.686,2.615-5.548,1.983,2.715,1.653,5.907S670.013,404.642,668.665,404.528Z" transform="translate(-650.93 -362.564)" fill="#ffc8af"/>
      <path id="Trazado_68911" data-name="Trazado 68911" d="M675.693,432.176c-1.113.449-5.2-9.317-6.091-11.525s-1.663-4.609-.416-5.112,2.359,1.759,3.251,3.967S676.805,431.727,675.693,432.176Z" transform="translate(-651.527 -376.283)" fill="#ffc8af"/>
      <path id="Trazado_68912" data-name="Trazado 68912" d="M680.432,440.1c-.729.5-2.238.824-2.375.57s.1-.971.306-1.487l0,0c.063-.153.122-.289.167-.389.054-.127.09-.2.09-.2s-2.416-9.546-1.969-9.667c.485-.131,3.718,9.342,3.718,9.342s.016.06.043.145l.037.122.246.822C680.729,439.451,680.967,439.739,680.432,440.1Z" transform="translate(-655.572 -383.03)" fill="#ffc8af"/>
      <path id="Trazado_68913" data-name="Trazado 68913" d="M681.857,449.77c-.729.5-2.237.824-2.375.57s.1-.971.306-1.487l0,0c.063-.153.122-.289.167-.389.046.1.116.237.169.362.1.218.22.221.665-.071a8.647,8.647,0,0,1,1.084-.549s.288.6.367.812C682.282,449.11,682.392,449.409,681.857,449.77Z" transform="translate(-656.997 -392.7)" fill="#00223d"/>
      <g id="Grupo_29052" data-name="Grupo 29052" transform="translate(17.287 9.814)">
        <path id="Trazado_68914" data-name="Trazado 68914" d="M677.492,368.084c-.9.374-3.558-4.651-4.528-6.869s-1.338-4.137-.239-4.594,2.2,1.158,3.089,3.408S678.392,367.71,677.492,368.084Z" transform="translate(-670.578 -356.544)" fill="#ffc8af"/>
        <g id="Grupo_29051" data-name="Grupo 29051" transform="translate(0 9.991)">
          <path id="Trazado_68915" data-name="Trazado 68915" d="M672.618,387.418c-.786-.36,1.648-6.241,2.4-7.873s1.658-3.3,2.539-2.9.212,2.182-.536,3.815S673.4,387.778,672.618,387.418Z" transform="translate(-670.785 -376.587)" fill="#ffc8af"/>
          <path id="Trazado_68916" data-name="Trazado 68916" d="M671.576,395.174c.957.355.139,1.972-.161,2.514a2.4,2.4,0,0,1-2.195,1.133c-.345-.184.909-2.1.866-2.207s-.615.981-.921.774.454-1.5.951-1.895A1.3,1.3,0,0,1,671.576,395.174Z" transform="translate(-669.096 -385.857)" fill="#ffc8af"/>
        </g>
      </g>
      <path id="Trazado_68917" data-name="Trazado 68917" d="M665.8,439.915c.081.324.246.687.069,1.007a.888.888,0,0,1-.63.372,7.138,7.138,0,0,1-1.048.15,3.834,3.834,0,0,1-.427.034c-.119,0-.235-.022-.353-.029-.231-.014-.464,0-.695-.024-.022,0-.178,0-.2-.027s.019-.073.038-.09c.1-.087.231-.127.333-.209s.221-.2.338-.29a3.223,3.223,0,0,1,.756-.458c.052-.022-1.546-10.039-1.069-10.143C663.344,430.113,665.8,439.911,665.8,439.915Z" transform="translate(-648.505 -383.675)" fill="#ffc8af"/>
      <path id="Trazado_68918" data-name="Trazado 68918" d="M656.4,405.626c-1.322-.289-.432-7.78.192-10.929s1.7-5.511,3.318-5.159,1.611,2.95.867,6.072S657.723,405.915,656.4,405.626Z" transform="translate(-645.099 -363.261)" fill="#ffc8af"/>
      <path id="Trazado_68919" data-name="Trazado 68919" d="M661.826,433.287c-1.144.359-4.629-9.652-5.342-11.925s-1.289-4.727-.006-5.129,2.211,1.941,2.924,4.214S662.971,432.928,661.826,433.287Z" transform="translate(-645.099 -376.644)" fill="#ffc8af"/>
      <path id="Trazado_68920" data-name="Trazado 68920" d="M665.3,450.573V451.7a.205.205,0,0,1-.2.205l-3.624,0a.328.328,0,0,1-.2-.592,13.729,13.729,0,0,1,2-1.085c.148.131.371.534.632.583A7.284,7.284,0,0,0,665.3,450.573Z" transform="translate(-647.819 -393.716)" fill="#00223d"/>
      <path id="Trazado_68921" data-name="Trazado 68921" d="M638.022,365.173c.565-.644,5.461,3.338,6.8,4.512s2.665,2.512,2.031,3.234-2.133-.418-3.472-1.592S637.457,365.817,638.022,365.173Z" transform="translate(-636.2 -351.022)" fill="#ffc8af"/>
      <path id="Trazado_68922" data-name="Trazado 68922" d="M667.329,374.3l-8.392-.349-.368-14.357.58-3.606,3.876-1.425,2.5.477a2.928,2.928,0,0,1,2.378,2.979l-.91,10.161Z" transform="translate(-646.529 -345.734)" fill="#ffc8af"/>
      <path id="Trazado_68923" data-name="Trazado 68923" d="M666.389,351.011V353.9a4.284,4.284,0,0,1-2.036.364c-.769,0-.942-.364-.942-.364v-1.067Z" transform="translate(-648.958 -343.955)" fill="#ffc8af"/>
      <path id="Trazado_68924" data-name="Trazado 68924" d="M664.089,342.419c-.006.1-.01.2-.017.3,0,.034,0,.067,0,.1.071,1.713-1.028,3.546-2.683,3.8l-.037.007c-.013,0-.033,0-.057,0-.354.044-1.635.149-2.1-.367a4.36,4.36,0,0,1-1.038-2.479,9.711,9.711,0,0,1,.139-1.247c0-.239-.129-.988-.131-1.313a2.872,2.872,0,0,1,2.845-3.045C663.749,338.175,664.167,340.578,664.089,342.419Z" transform="translate(-646.322 -337.517)" fill="#ffc8af"/>
      <path id="Trazado_68925" data-name="Trazado 68925" d="M663.414,356.6" transform="translate(-648.959 -346.759)" fill="#6ebaad"/>
      <path id="Trazado_68926" data-name="Trazado 68926" d="M657.913,356.18c-.583.541-1.037,1.487-1.146,3.424a7.144,7.144,0,0,0,.294,3.837,14.562,14.562,0,0,1,.5,7.149l8.695.321s.183-5.829.48-7.689c.9-5.611-.007-7.417-1.57-7.856C662.819,354.709,658.5,355.638,657.913,356.18Z" transform="translate(-645.556 -346.025)" fill="#21587b"/>
      <path id="Trazado_68927" data-name="Trazado 68927" d="M654.482,369.179c-.936-.242-.037-5.807.519-8.142s1.413-4.073,2.555-3.779,1.05,2.231.409,4.543S655.418,369.42,654.482,369.179Z" transform="translate(-644.276 -347.072)" fill="#ffc8af"/>
      <path id="Trazado_68928" data-name="Trazado 68928" d="M634.5,361.3c.225-.251,1.448.951,1.841,1.261.059.047.1.075.116.073s.014-.023,0-.054c-.064-.192-.546-.864-.312-1.077.258-.233,1.22.68,1.546,1.264.018.032.042.067.056.1a1.294,1.294,0,0,1-.035,1.481c-.568.838-1.933-.33-2.384-.746a3.168,3.168,0,0,1-.8-1.341A1.212,1.212,0,0,1,634.5,361.3Z" transform="translate(-634.414 -349.099)" fill="#ffc8af"/>
      <path id="Trazado_68929" data-name="Trazado 68929" d="M657.116,339.611a2.6,2.6,0,0,0,.053.277c.188.766.788,1.211.728,2.047a3.491,3.491,0,0,0,.472,2.164c.924,1.566-.353,1.219-.1,3.623.126,1.181,1.247,1.667,3.461,1.635s4.65-.064,4.586-1.732a3.061,3.061,0,0,0-.61-1.656,2.217,2.217,0,0,1-.558-1.977,4.61,4.61,0,0,0,.254-1c.05-.837-.55-1.107-1.016-1.65-.5-.583-.207-1.569-.375-2.271-.545-2.283-2.912-2.552-4.835-1.933C658,337.52,656.934,338.262,657.116,339.611Z" transform="translate(-645.79 -336.854)" fill="#00223d"/>
      <path id="Trazado_68930" data-name="Trazado 68930" d="M671.52,382.215c-.073,1.824,1.3,4.217,1.516,6.034.427,3.641-2.092,10.46-2.092,10.9s2.357,6.355,3.27,9.962c0,0-.513.737-2.982,1.186,0,0-3.786-8.239-4.137-10.1s.08-17.643.08-17.643Z" transform="translate(-650.737 -359.605)" fill="#00223d"/>
      <path id="Trazado_68931" data-name="Trazado 68931" d="M661.342,382.816h-4.761a89.26,89.26,0,0,0-1.8,10.15c-.705,5.835-.481,7.566-.352,8.5s3.345,9.713,3.345,9.713a5.608,5.608,0,0,0,3.316-.769,63.563,63.563,0,0,0-2.012-7.309,22.96,22.96,0,0,1-1.031-2.821,47.547,47.547,0,0,0,3.345-9.778A24.086,24.086,0,0,0,661.342,382.816Z" transform="translate(-644.383 -359.906)" fill="#00223d"/>
    </g>
    <rect id="Rectángulo_26518" data-name="Rectángulo 26518" width="87.006" height="25.429" rx="1.881" transform="translate(365.841 169.295)" stroke="#707070" stroke-miterlimit="10" stroke-width="8" opacity="0.3" fill="url(#linear-gradient-4)" style="mix-blend-mode: multiply;isolation: isolate"/>
    <g id="Grupo_29065" data-name="Grupo 29065" transform="translate(361.798 166.098)">
      <g id="Grupo_29054" data-name="Grupo 29054" transform="translate(0 78.21)">
        <path id="Trazado_68932" data-name="Trazado 68932" d="M398.118,385.535v6.789h-2.4v5.369h2.4v.021h-4.875v5.369h4.875v.021h-6.831v5.369h6.831v.021h-9.308v5.369h9.308v.021H386.871v5.369h28V385.535Z" transform="translate(-386.871 -385.535)" fill="#00223d"/>
      </g>
      <path id="Trazado_68933" data-name="Trazado 68933" d="M418.99,385.535v6.789h-2.4v5.369h2.4v.021h-4.875v5.369h4.875v.021h-6.831v5.369h6.831v.021h-9.307v5.369h9.307v.021H407.742v5.369h17.6V385.535Z" transform="translate(-397.339 -307.325)" fill="#8998a5"/>
      <g id="Grupo_29064" data-name="Grupo 29064" transform="translate(4.682)">
        <path id="Trazado_68934" data-name="Trazado 68934" d="M426.482,333.682c1.425-.12,1.526-8.092,1.307-11.477s-1.025-6.009-2.764-5.863-2.095,2.869-1.747,6.243S425.057,333.8,426.482,333.682Z" transform="translate(-409.752 -272.618)" fill="#ffc8af"/>
        <path id="Trazado_68935" data-name="Trazado 68935" d="M415.96,362.9c1.175.475,5.495-9.846,6.437-12.18s1.758-4.87.44-5.4-2.493,1.859-3.436,4.192S414.785,362.424,415.96,362.9Z" transform="translate(-406.028 -287.116)" fill="#ffc8af"/>
        <path id="Trazado_68936" data-name="Trazado 68936" d="M414.352,371.273c.771.53,2.365.872,2.51.6s-.1-1.026-.323-1.572l0-.005c-.066-.161-.129-.305-.177-.411-.057-.134-.095-.212-.095-.212s2.553-10.089,2.081-10.216c-.512-.139-3.929,9.873-3.929,9.873s-.017.063-.045.153l-.039.129-.26.868C414.039,370.588,413.787,370.893,414.352,371.273Z" transform="translate(-405.153 -294.246)" fill="#ffc8af"/>
        <path id="Trazado_68937" data-name="Trazado 68937" d="M414.271,381.493c.771.53,2.365.872,2.51.6s-.1-1.026-.323-1.572l0-.005c-.066-.161-.129-.306-.176-.411-.048.1-.122.25-.179.383-.1.231-.232.233-.7-.076a9.09,9.09,0,0,0-1.146-.58s-.3.638-.388.858C413.823,380.8,413.706,381.112,414.271,381.493Z" transform="translate(-405.072 -304.466)" fill="#21587b"/>
        <path id="Trazado_68938" data-name="Trazado 68938" d="M423.737,326.928s.059,7.284-.267,8.809-6.671,16.106-6.671,16.106a9.019,9.019,0,0,1-2.43-.691s2.372-8.334,3.354-11.316,1.863-4.37,1.8-5.455-1.152-10.13-1.152-10.13l5.374-.227Z" transform="translate(-405.345 -276.475)" fill="#00223d"/>
        <g id="Grupo_29057" data-name="Grupo 29057" transform="translate(13.466 15.861)">
          <g id="Grupo_29055" data-name="Grupo 29055" transform="translate(10.189)">
            <path id="Trazado_68939" data-name="Trazado 68939" d="M453.711,265.018c-.565-.718-6,3.24-7.494,4.414s-2.979,2.522-2.346,3.327,2.294-.324,3.786-1.5S454.276,265.736,453.711,265.018Z" transform="translate(-443.722 -262.698)" fill="#ffc8af"/>
            <path id="Trazado_68940" data-name="Trazado 68940" d="M460.7,263.811c.6.9,2.061-.347,2.542-.789a2.54,2.54,0,0,0,.621-2.536c-.275-.309-1.929,1.454-2.052,1.438s.855-.875.567-1.138-1.427.838-1.711,1.447A1.378,1.378,0,0,0,460.7,263.811Z" transform="translate(-452.104 -260.45)" fill="#ffc8af"/>
          </g>
          <g id="Grupo_29056" data-name="Grupo 29056" transform="translate(0 8.555)">
            <path id="Trazado_68941" data-name="Trazado 68941" d="M436.329,277.98c-.3-.984-6.184.251-8.641.96s-4.266,1.707-3.895,2.908,2.427,1.007,4.857.208S436.633,278.964,436.329,277.98Z" transform="translate(-423.513 -277.614)" fill="#ffc8af"/>
            <path id="Trazado_68942" data-name="Trazado 68942" d="M423.51,282.43c-.592-1.069-.04-2.226,1.608-2.877A48.208,48.208,0,0,1,430.973,278c.043.093.083.186.12.276.976,2.282.536,3.006.536,3.006-2.822,1.134-6.129,2.029-7.238,1.651A3.234,3.234,0,0,1,423.51,282.43Z" transform="translate(-423.28 -277.808)" fill="#80eb9a"/>
          </g>
        </g>
        <g id="Grupo_29060" data-name="Grupo 29060">
          <rect id="Rectángulo_26519" data-name="Rectángulo 26519" width="87.006" height="25.429" rx="1.47" fill="#57cc98"/>
          <g id="Grupo_29058" data-name="Grupo 29058" transform="translate(3.94 3.704)">
            <rect id="Rectángulo_26520" data-name="Rectángulo 26520" width="18.021" height="18.021" rx="0.634" fill="#eef0f2"/>
            <path id="Trazado_68943" data-name="Trazado 68943" d="M423.174,248.714l-8.313-4.8a.316.316,0,0,0-.475.274v9.6a.316.316,0,0,0,.475.274l8.313-4.8A.317.317,0,0,0,423.174,248.714Z" transform="translate(-409.294 -239.978)" fill="#00926e"/>
          </g>
          <g id="Grupo_29059" data-name="Grupo 29059" transform="translate(27.719 4.733)">
            <rect id="Rectángulo_26521" data-name="Rectángulo 26521" width="50.692" height="2.26" rx="1.13" fill="#eef0f2"/>
            <rect id="Rectángulo_26522" data-name="Rectángulo 26522" width="50.692" height="2.26" rx="1.13" transform="translate(0 6.852)" fill="#eef0f2"/>
            <rect id="Rectángulo_26523" data-name="Rectángulo 26523" width="39.247" height="2.26" rx="1.13" transform="translate(0 13.705)" fill="#eef0f2"/>
          </g>
        </g>
        <path id="Trazado_68944" data-name="Trazado 68944" d="M430.58,371.078c-.069.276-.313.851-.089,1.1.139.156.474.167.662.175a2.084,2.084,0,0,0,.7-.059c.3-.085.475-.151.552-.466.177-.717.249-1.46.354-2.192.158-1.105.315-2.211.462-3.317.15-1.123.293-2.247.4-3.375.041-.42.078-.842.1-1.264a2.384,2.384,0,0,0-.02-.744c-.011-.037-.018-.112-.066-.122C433.173,360.719,430.581,371.074,430.58,371.078Z" transform="translate(-413.384 -294.928)" fill="#ffc8af"/>
        <path id="Trazado_68945" data-name="Trazado 68945" d="M438.3,334.842c1.4-.305.456-8.222-.2-11.549s-1.8-5.824-3.506-5.452-1.7,3.118-.917,6.417S436.9,335.147,438.3,334.842Z" transform="translate(-414.771 -273.355)" fill="#ffc8af"/>
        <path id="Trazado_68946" data-name="Trazado 68946" d="M431.679,364.074c1.209.379,4.892-10.2,5.645-12.6s1.363-4.995.007-5.42-2.337,2.052-3.09,4.453S430.469,363.695,431.679,364.074Z" transform="translate(-413.885 -287.498)" fill="#ffc8af"/>
        <path id="Trazado_68947" data-name="Trazado 68947" d="M430.245,382.343v1.19a.217.217,0,0,0,.217.216l3.829,0a.347.347,0,0,0,.209-.626,14.53,14.53,0,0,0-2.109-1.146c-.156.138-.392.565-.667.616A7.681,7.681,0,0,1,430.245,382.343Z" transform="translate(-413.307 -305.54)" fill="#21587b"/>
        <path id="Trazado_68948" data-name="Trazado 68948" d="M422.72,301.732h9.434l.388-15.172-.7-4.281-4.571-1.4-2.638.5a3.1,3.1,0,0,0-2.513,3.149l.961,10.738Z" transform="translate(-409.23 -254.832)" fill="#ffc8af"/>
        <path id="Trazado_68949" data-name="Trazado 68949" d="M430.47,276.8v3.049a4.528,4.528,0,0,0,2.152.385c.813,0,1-.385,1-.385v-1.127Z" transform="translate(-413.42 -252.791)" fill="#ffc8af"/>
        <path id="Trazado_68950" data-name="Trazado 68950" d="M429.749,267.724c.007.111.01.214.017.314,0,.036,0,.071,0,.111-.075,1.81,1.087,3.748,2.836,4.011l.039.007c.014,0,.035,0,.06,0,.374.046,1.728.156,2.223-.388a4.608,4.608,0,0,0,1.1-2.62,10.29,10.29,0,0,0-.146-1.317c0-.253.136-1.045.138-1.388A3.034,3.034,0,0,0,433,263.239C430.109,263.239,429.667,265.779,429.749,267.724Z" transform="translate(-413.054 -245.988)" fill="#ffc8af"/>
        <path id="Trazado_68951" data-name="Trazado 68951" d="M436.781,283.034" transform="translate(-416.585 -255.916)" fill="#6ebaad"/>
        <g id="Grupo_29062" data-name="Grupo 29062" transform="translate(30.494 24.284)">
          <path id="Trazado_68952" data-name="Trazado 68952" d="M467.418,281.031c-.553-.717-5.983,3.155-7.474,4.3s-2.979,2.471-2.359,3.276,2.278-.3,3.768-1.447S467.971,281.749,467.418,281.031Z" transform="translate(-457.441 -279.151)" fill="#ffc8af"/>
          <g id="Grupo_29061" data-name="Grupo 29061" transform="translate(8.127)">
            <path id="Trazado_68953" data-name="Trazado 68953" d="M475.534,278.5a.331.331,0,0,1-.128.069c-.016,0-.013-.025,0-.057.08-.2.634-.875.4-1.115-.256-.263-1.332.637-1.715,1.23-.021.033-.049.069-.066.1a1.367,1.367,0,0,0-.062,1.564c.542.922,2.061-.219,2.564-.628a2.706,2.706,0,0,0,.866-1.2C476.781,278.5,476.228,278.462,475.534,278.5Z" transform="translate(-473.746 -277.348)" fill="#ffc8af"/>
          </g>
        </g>
        <path id="Trazado_68954" data-name="Trazado 68954" d="M436.55,325.8a37.366,37.366,0,0,1,1.463,12.178c-.152,2.49-5.111,15.447-5.111,15.447a3.723,3.723,0,0,1-2.49-.564s3.637-15.29,3.434-16.51-2.944-11.085-2.944-11.085Z" transform="translate(-413.392 -277.096)" fill="#00223d"/>
        <path id="Trazado_68955" data-name="Trazado 68955" d="M429.193,281.557a9.622,9.622,0,0,1,2.5.845,11.045,11.045,0,0,1,.89,3.685c.033.572.03,2.213.009,4.274-.057,5.29-.23,13.361-.23,13.361H421.57s.793-11.847.479-13.812c-.947-5.93.007-7.838,1.66-8.3C426.184,280.914,427.58,281.423,429.193,281.557Z" transform="translate(-408.956 -255.022)" fill="#80eb9a"/>
        <path id="Trazado_68956" data-name="Trazado 68956" d="M434.885,267.07s-.034,1.186-.2,1.271-.2-.323-.237-.636c-.038-.353-.068-.957-.61-.889s-.366,1.267-.248,1.673-.609,2.037-1.078,2.088-2.35.2-2.6-.186a7.994,7.994,0,0,1-.881-3.32c-.051-1.474-.339-3.49,1.033-3.93,0,0,.2-1.06,2.187-.806s2.114.518,2.912.535a2.789,2.789,0,0,0,.94-.2s.366,1.69-.718,1.995c0,0,.253,1.139-.137,1.325S434.906,266.677,434.885,267.07Z" transform="translate(-412.665 -245.514)" fill="#00223d"/>
        <g id="Grupo_29063" data-name="Grupo 29063" transform="translate(20.165 27.113)">
          <path id="Trazado_68957" data-name="Trazado 68957" d="M448.5,289.913c.461-.912-4.587-4.077-6.829-5.262s-4.22-1.717-4.783-.6,1.041,2.39,3.324,3.491S448.044,290.824,448.5,289.913Z" transform="translate(-436.75 -283.231)" fill="#ffc8af"/>
          <path id="Trazado_68958" data-name="Trazado 68958" d="M437.232,283.283c-.949.77-.542,2.16.917,3.166a48.212,48.212,0,0,0,5.354,2.833c.063-.081.122-.163.178-.242,1.466-2,1.2-2.807,1.2-2.807C442.39,284.492,438.5,282.256,437.232,283.283Z" transform="translate(-436.72 -283.024)" fill="#80eb9a"/>
        </g>
        <path id="Trazado_68959" data-name="Trazado 68959" d="M466.926,288c-.237-.265-1.529,1-1.945,1.332.7-.11,1.356-.219,1.912-.32C467.036,288.555,467.058,288.149,466.926,288Z" transform="translate(-430.729 -258.389)" fill="#ffc8af"/>
      </g>
    </g>
    <path id="Trazado_68960" data-name="Trazado 68960" d="M360.73,216.176a11.928,11.928,0,1,0-6.454,10.6c1.946.632,5.537,1.781,5.537,1.781l-1.511-5.166A11.871,11.871,0,0,0,360.73,216.176Z" transform="translate(0 -50.305)" fill="#e8e8e8"/>
    <g id="Grupo_29066" data-name="Grupo 29066" transform="translate(363.891 138.301)">
      <path id="Trazado_68961" data-name="Trazado 68961" d="M397.765,172.936a3.905,3.905,0,1,0,3.06,3.059A3.907,3.907,0,0,0,397.765,172.936Zm1.39,7.73a4.438,4.438,0,0,1-4.324,0,5.925,5.925,0,0,0-3.762,5.518v.129a9.1,9.1,0,0,0,11.852,0v-.129A5.929,5.929,0,0,0,399.155,180.667Z" transform="translate(-391.069 -172.862)" fill="#e8e8e8"/>
    </g>
    <g id="Grupo_29067" data-name="Grupo 29067" transform="translate(441.8 226.394)">
      <path id="Trazado_68962" data-name="Trazado 68962" d="M547.372,355.633V354.6l2.86-1.336v.828L548,355.118l2.234,1.023v.828Z" transform="translate(-547.372 -351.437)" fill="#00926e"/>
      <path id="Trazado_68963" data-name="Trazado 68963" d="M556.673,349.6h.96l-2.679,6.666H554Z" transform="translate(-550.697 -349.596)" fill="#00926e"/>
      <path id="Trazado_68964" data-name="Trazado 68964" d="M562.012,356.969v-.828l2.227-1.023-2.227-1.023v-.828l2.86,1.336v1.03Z" transform="translate(-554.715 -351.437)" fill="#00926e"/>
    </g>
    <path id="Rectángulo_26524" data-name="Rectángulo 26524" d="M2.949,0h55.11a2.949,2.949,0,0,1,2.949,2.949V4.225a2.949,2.949,0,0,1-2.949,2.949H2.948A2.948,2.948,0,0,1,0,4.226V2.949A2.949,2.949,0,0,1,2.949,0Z" transform="translate(398.235 200.113)" fill="#e8e8e8"/>
    <path id="Trazado_68965" data-name="Trazado 68965" d="M486.621,353.585a2.823,2.823,0,0,0-.352-1.2l.349-.194a3.224,3.224,0,0,0-.674-.841l-.266.3a2.813,2.813,0,0,0-1.1-.605l.109-.383h-.005a3.227,3.227,0,0,0-.879-.122c-.063,0-.126,0-.189.005l.024.4a2.821,2.821,0,0,0-1.2.351l-.194-.349a3.234,3.234,0,0,0-.842.674l.3.267a2.813,2.813,0,0,0-.605,1.1l-.383-.11,0,.008a3.222,3.222,0,0,0-.123.878c0,.062,0,.124.005.186l.4-.023a2.814,2.814,0,0,0,.351,1.2l-.35.194a3.233,3.233,0,0,0,.673.842l.267-.3a2.806,2.806,0,0,0,1.1.606l-.11.383.01,0a3.229,3.229,0,0,0,.879.123c.065,0,.13,0,.194-.006l-.024-.4a2.819,2.819,0,0,0,1.2-.353l.195.349a3.214,3.214,0,0,0,.84-.675l-.3-.266a2.808,2.808,0,0,0,.6-1.1l.383.109v0a3.225,3.225,0,0,0,.123-.878q0-.1-.006-.191Zm-3.516,2.641h0l.02-.07Zm2.342-2.008a1.7,1.7,0,1,1,.065-.466A1.707,1.707,0,0,1,485.447,354.219Z" transform="translate(-72.074 -123.672)" fill="#00926e"/>
    <path id="Trazado_68966" data-name="Trazado 68966" d="M625.9,353.757v-1.616H625v1.616h-1.616v.9H625v1.616h.9v-1.616h1.616v-.9Z" transform="translate(-143.698 -124.478)" fill="#00926e"/>
    <g id="Grupo_29070" data-name="Grupo 29070" transform="translate(447.076 110.474)">
      <g id="Grupo_29069" data-name="Grupo 29069" transform="translate(0)">
        <rect id="Rectángulo_26525" data-name="Rectángulo 26525" width="63.201" height="40.154" rx="2.658" fill="#57cc98"/>
        <g id="Grupo_29068" data-name="Grupo 29068" transform="translate(5.706 4.638)">
          <rect id="Rectángulo_26526" data-name="Rectángulo 26526" width="10.629" height="0.644" rx="0.322" transform="translate(32.061)" fill="#00223d"/>
          <rect id="Rectángulo_26527" data-name="Rectángulo 26527" width="30.372" height="0.644" rx="0.322" fill="#00223d"/>
          <rect id="Rectángulo_26528" data-name="Rectángulo 26528" width="10.592" height="0.644" rx="0.322" transform="translate(41.198 3.359)" fill="#00223d"/>
          <rect id="Rectángulo_26529" data-name="Rectángulo 26529" width="9.349" height="0.644" rx="0.322" transform="translate(0 3.359)" fill="#00223d"/>
          <rect id="Rectángulo_26530" data-name="Rectángulo 26530" width="28.558" height="0.644" rx="0.322" transform="translate(11.119 3.359)" fill="#00223d"/>
          <rect id="Rectángulo_26531" data-name="Rectángulo 26531" width="17.966" height="0.644" rx="0.322" transform="translate(30.021 6.719)" fill="#00223d"/>
          <rect id="Rectángulo_26532" data-name="Rectángulo 26532" width="28.236" height="0.644" rx="0.322" transform="translate(0 6.719)" fill="#00223d"/>
          <rect id="Rectángulo_26533" data-name="Rectángulo 26533" width="13.396" height="0.644" rx="0.322" transform="translate(0 10.078)" fill="#00223d"/>
          <rect id="Rectángulo_26534" data-name="Rectángulo 26534" width="36.792" height="0.644" rx="0.322" transform="translate(14.998 10.078)" fill="#00223d"/>
          <rect id="Rectángulo_26535" data-name="Rectángulo 26535" width="43.714" height="0.644" rx="0.322" transform="translate(0 13.437)" fill="#00223d"/>
          <rect id="Rectángulo_26536" data-name="Rectángulo 26536" width="7.52" height="0.644" rx="0.322" transform="translate(0 16.796)" fill="#00223d"/>
          <rect id="Rectángulo_26537" data-name="Rectángulo 26537" width="28.733" height="0.644" rx="0.322" transform="translate(9.509 16.796)" fill="#00223d"/>
          <rect id="Rectángulo_26538" data-name="Rectángulo 26538" width="8.661" height="0.644" rx="0.322" transform="translate(40.349 16.796)" fill="#00223d"/>
          <rect id="Rectángulo_26539" data-name="Rectángulo 26539" width="29.611" height="0.644" rx="0.322" transform="translate(0 20.156)" fill="#00223d"/>
          <rect id="Rectángulo_26540" data-name="Rectángulo 26540" width="20.219" height="0.644" rx="0.322" transform="translate(31.571 20.156)" fill="#00223d"/>
          <rect id="Rectángulo_26541" data-name="Rectángulo 26541" width="4.755" height="0.644" rx="0.322" transform="translate(44.885 23.515)" fill="#00223d"/>
          <rect id="Rectángulo_26542" data-name="Rectángulo 26542" width="12.75" height="0.644" rx="0.322" transform="translate(0 23.515)" fill="#00223d"/>
          <rect id="Rectángulo_26543" data-name="Rectángulo 26543" width="28.331" height="0.644" rx="0.322" transform="translate(14.593 23.515)" fill="#00223d"/>
          <rect id="Rectángulo_26544" data-name="Rectángulo 26544" width="23.408" height="0.644" rx="0.322" transform="translate(28.382 26.874)" fill="#00223d"/>
          <rect id="Rectángulo_26545" data-name="Rectángulo 26545" width="26.626" height="0.644" rx="0.322" transform="translate(0 26.874)" fill="#00223d"/>
          <rect id="Rectángulo_26546" data-name="Rectángulo 26546" width="31.25" height="0.644" rx="0.322" transform="translate(5.706 30.234)" fill="#00223d"/>
          <rect id="Rectángulo_26547" data-name="Rectángulo 26547" width="3.657" height="0.644" rx="0.322" transform="translate(0 30.234)" fill="#00223d"/>
        </g>
      </g>
    </g>
    <rect id="Rectángulo_26548" data-name="Rectángulo 26548" width="176.431" height="2.779" rx="1.389" transform="translate(340.524 278.026)" fill="#b3b5c4"/>
    <rect id="Rectángulo_26549" data-name="Rectángulo 26549" width="66.638" height="14.275" rx="3.608" transform="translate(348.927 113.712)" fill="#00223d"/>
    <g id="Grupo_29071" data-name="Grupo 29071" transform="translate(365.095 117.436)">
      <rect id="Rectángulo_26550" data-name="Rectángulo 26550" width="44.823" height="0.966" rx="0.483" fill="#e6eef3"/>
      <rect id="Rectángulo_26551" data-name="Rectángulo 26551" width="44.823" height="0.966" rx="0.483" transform="translate(0 2.93)" fill="#e6eef3"/>
      <rect id="Rectángulo_26552" data-name="Rectángulo 26552" width="34.703" height="0.966" rx="0.483" transform="translate(0 5.861)" fill="#e6eef3"/>
    </g>
    <circle id="Elipse_3367" data-name="Elipse 3367" cx="5.137" cy="5.137" r="5.137" transform="translate(349.66 120.85) rotate(-45)" fill="#e6eef3"/>
    <g id="Grupo_29072" data-name="Grupo 29072" transform="translate(354.568 117.737)">
      <path id="Trazado_68967" data-name="Trazado 68967" d="M375.029,131.636a1.554,1.554,0,1,0,1.218,1.217A1.554,1.554,0,0,0,375.029,131.636Zm.553,3.076a1.768,1.768,0,0,1-1.72,0,2.357,2.357,0,0,0-1.5,2.2v.051a3.62,3.62,0,0,0,4.716,0v-.051A2.359,2.359,0,0,0,375.582,134.712Z" transform="translate(-372.365 -131.607)" fill="#00223d"/>
    </g>
    <g id="Grupo_29077" data-name="Grupo 29077" transform="translate(337.82 205.059)">
      <rect id="Rectángulo_26553" data-name="Rectángulo 26553" width="33.603" height="20.955" rx="2.294" fill="#cbd9e4"/>
      <g id="Grupo_29075" data-name="Grupo 29075" transform="translate(2.919 4.543)">
        <g id="Grupo_29073" data-name="Grupo 29073">
          <rect id="Rectángulo_26554" data-name="Rectángulo 26554" width="2.036" height="11.87" fill="#00223d"/>
          <rect id="Rectángulo_26555" data-name="Rectángulo 26555" width="2.036" height="11.87" transform="translate(4.362)" fill="#00223d"/>
          <rect id="Rectángulo_26556" data-name="Rectángulo 26556" width="2.036" height="11.87" transform="translate(8.724)" fill="#00223d"/>
          <rect id="Rectángulo_26557" data-name="Rectángulo 26557" width="2.036" height="11.87" transform="translate(13.085)" fill="#00223d"/>
          <rect id="Rectángulo_26558" data-name="Rectángulo 26558" width="2.036" height="11.87" transform="translate(17.447)" fill="#00223d"/>
        </g>
        <g id="Grupo_29074" data-name="Grupo 29074">
          <rect id="Rectángulo_26559" data-name="Rectángulo 26559" width="2.036" height="2.964" fill="#57cc98"/>
          <rect id="Rectángulo_26560" data-name="Rectángulo 26560" width="2.036" height="6.918" transform="translate(4.362)" fill="#57cc98"/>
          <rect id="Rectángulo_26561" data-name="Rectángulo 26561" width="2.036" height="5.047" transform="translate(8.724)" fill="#57cc98"/>
          <rect id="Rectángulo_26562" data-name="Rectángulo 26562" width="2.036" height="8.563" transform="translate(13.085)" fill="#57cc98"/>
          <rect id="Rectángulo_26563" data-name="Rectángulo 26563" width="2.036" height="10.095" transform="translate(17.447)" fill="#57cc98"/>
        </g>
      </g>
      <g id="Grupo_29076" data-name="Grupo 29076" transform="translate(24.599 4.543)" style="mix-blend-mode: multiply;isolation: isolate">
        <rect id="Rectángulo_26564" data-name="Rectángulo 26564" width="6.172" height="0.99" fill="#dce8ef"/>
        <rect id="Rectángulo_26565" data-name="Rectángulo 26565" width="6.172" height="0.99" transform="translate(0 2.176)" fill="#dce8ef"/>
        <rect id="Rectángulo_26566" data-name="Rectángulo 26566" width="6.172" height="0.99" transform="translate(0 4.352)" fill="#dce8ef"/>
        <rect id="Rectángulo_26567" data-name="Rectángulo 26567" width="6.172" height="0.99" transform="translate(0 6.528)" fill="#dce8ef"/>
        <rect id="Rectángulo_26568" data-name="Rectángulo 26568" width="6.172" height="0.99" transform="translate(0 8.704)" fill="#dce8ef"/>
        <rect id="Rectángulo_26569" data-name="Rectángulo 26569" width="6.172" height="0.99" transform="translate(0 10.88)" fill="#dce8ef"/>
      </g>
    </g>
    <g id="Grupo_29082" data-name="Grupo 29082" transform="translate(471.934 156.327)">
      <rect id="Rectángulo_26570" data-name="Rectángulo 26570" width="33.603" height="20.955" rx="2.294" transform="translate(0)" fill="#57cc98"/>
      <g id="Grupo_29078" data-name="Grupo 29078" transform="translate(3.803 1.993)" style="mix-blend-mode: multiply;isolation: isolate">
        <line id="Línea_260" data-name="Línea 260" y2="16.968" transform="translate(25.998)" fill="none" stroke="#dce8ef" stroke-miterlimit="10" stroke-width="0.5"/>
        <line id="Línea_261" data-name="Línea 261" y2="16.968" transform="translate(21.665)" fill="none" stroke="#dce8ef" stroke-miterlimit="10" stroke-width="0.5"/>
        <line id="Línea_262" data-name="Línea 262" y2="16.968" transform="translate(17.332)" fill="none" stroke="#dce8ef" stroke-miterlimit="10" stroke-width="0.5"/>
        <line id="Línea_263" data-name="Línea 263" y2="16.968" transform="translate(12.999)" fill="none" stroke="#dce8ef" stroke-miterlimit="10" stroke-width="0.5"/>
        <line id="Línea_264" data-name="Línea 264" y2="16.968" transform="translate(8.666)" fill="none" stroke="#dce8ef" stroke-miterlimit="10" stroke-width="0.5"/>
        <line id="Línea_265" data-name="Línea 265" y2="16.968" fill="none" stroke="#dce8ef" stroke-miterlimit="10" stroke-width="0.5"/>
        <line id="Línea_266" data-name="Línea 266" y2="16.968" transform="translate(4.333)" fill="none" stroke="#dce8ef" stroke-miterlimit="10" stroke-width="0.5"/>
      </g>
      <g id="Grupo_29081" data-name="Grupo 29081" transform="translate(2.939 2.265)">
        <g id="Grupo_29080" data-name="Grupo 29080">
          <path id="Trazado_68968" data-name="Trazado 68968" d="M615.456,227.711l4.333-4.2,4.333-1.089,4.333-4.29,4.333,1.727,4.333-2.187,4.333-2.374" transform="translate(-614.592 -214.439)" fill="none" stroke="#00926e" stroke-linecap="round" stroke-miterlimit="10" stroke-width="1"/>
          <g id="Grupo_29079" data-name="Grupo 29079">
            <rect id="Rectángulo_26571" data-name="Rectángulo 26571" width="1.727" height="1.727" transform="translate(0 12.409)" fill="#002b45"/>
            <rect id="Rectángulo_26572" data-name="Rectángulo 26572" width="1.727" height="1.727" transform="translate(4.333 8.213)" fill="#00223d"/>
            <rect id="Rectángulo_26573" data-name="Rectángulo 26573" width="1.727" height="1.727" transform="translate(8.666 7.124)" fill="#00223d"/>
            <rect id="Rectángulo_26574" data-name="Rectángulo 26574" width="1.727" height="1.727" transform="translate(12.999 2.834)" fill="#00223d"/>
            <rect id="Rectángulo_26575" data-name="Rectángulo 26575" width="1.727" height="1.727" transform="translate(17.332 4.561)" fill="#00223d"/>
            <rect id="Rectángulo_26576" data-name="Rectángulo 26576" width="1.727" height="1.727" transform="translate(21.665 2.374)" fill="#00223d"/>
            <rect id="Rectángulo_26577" data-name="Rectángulo 26577" width="1.727" height="1.727" transform="translate(25.998)" fill="#00223d"/>
          </g>
        </g>
      </g>
    </g>
    <path id="Trazado_68969" data-name="Trazado 68969" d="M361.649,221.714h.185a.507.507,0,1,0,0-1.015h-.185l.765-1.47h-1.972a6.85,6.85,0,1,0,0,3.957h1.973Zm-7.764,5.327a5.834,5.834,0,1,1,5.489-7.812h-.026l-.765,1.47h-.217a4.509,4.509,0,1,0,0,1.015h.216l.766,1.471h.026A5.844,5.844,0,0,1,353.885,227.041Zm1.744-6.342a1.817,1.817,0,1,0,0,1.015h1.714a3.495,3.495,0,1,1,0-1.015Z" transform="translate(-5.093 -55.373)" fill="#57cc98"/>
    <path id="Trazado_68970" data-name="Trazado 68970" d="M635.568,296.473h4.747V294.7h-4.747Zm6.238-6.735c.035-.422.057-.848.057-1.28a15.146,15.146,0,0,0-3.3-9.46.8.8,0,0,0-1.244,0,15.147,15.147,0,0,0-3.3,9.46c0,.431.022.857.057,1.28-2.366,1.593-3.926,5.536-2.2,8.58a.316.316,0,0,0,.586-.076c.266-1.145.984-3.254,2.727-4.071h5.495c1.743.817,2.461,2.926,2.727,4.071a.316.316,0,0,0,.586.076C645.732,295.274,644.172,291.331,641.806,289.738Zm-3.865-3.845a1.4,1.4,0,1,1,1.4-1.4A1.4,1.4,0,0,1,637.942,285.893Z" transform="translate(-147.589 -87.644)" fill="#00926e"/>
    <g id="Grupo_29083" data-name="Grupo 29083" transform="translate(350.437 131.913)">
      <path id="Trazado_68971" data-name="Trazado 68971" d="M365.125,162.143a1.048,1.048,0,1,0-.741-.307,1.057,1.057,0,0,0,.741.307" transform="translate(-364.077 -160.047)" fill="#dfe1f7"/>
      <path id="Trazado_68972" data-name="Trazado 68972" d="M387.028,162.143h.005a1.048,1.048,0,1,0,0-2.1h-.005a1.048,1.048,0,0,0,0,2.1Zm-7.289,0h0a1.048,1.048,0,1,0,0-2.1h0a1.048,1.048,0,1,0,0,2.1Z" transform="translate(-371.406 -160.047)" fill="#dfe1f7"/>
      <path id="Trazado_68973" data-name="Trazado 68973" d="M409,162.143a1.047,1.047,0,1,0-.741-.307,1.056,1.056,0,0,0,.741.307" transform="translate(-386.081 -160.047)" fill="#dfe1f7"/>
    </g>
    <g id="Grupo_29084" data-name="Grupo 29084" transform="translate(478.461 103.953)">
      <path id="Trazado_68974" data-name="Trazado 68974" d="M621.969,106.049a1.048,1.048,0,1,0-.741-.307,1.054,1.054,0,0,0,.741.307" transform="translate(-620.921 -103.953)" fill="#dfe1f7"/>
      <path id="Trazado_68975" data-name="Trazado 68975" d="M643.872,106.049h.005a1.048,1.048,0,1,0,0-2.1h-.005a1.048,1.048,0,1,0,0,2.1Zm-7.289,0h.005a1.048,1.048,0,1,0,0-2.1h-.005a1.048,1.048,0,0,0,0,2.1Z" transform="translate(-628.251 -103.953)" fill="#dfe1f7"/>
      <path id="Trazado_68976" data-name="Trazado 68976" d="M665.841,106.049a1.048,1.048,0,1,0-.741-.307,1.055,1.055,0,0,0,.741.307" transform="translate(-642.925 -103.953)" fill="#dfe1f7"/>
    </g>
    <g id="Grupo_29085" data-name="Grupo 29085" transform="translate(350.951 262.05)">
      <path id="Trazado_68977" data-name="Trazado 68977" d="M369.723,425.745h-4.615V421.13h4.615Zm-3.829-.786h3.043v-3.043h-3.043Z" transform="translate(-365.108 -421.13)" fill="#dfe1f7"/>
    </g>
    <g id="Grupo_29086" data-name="Grupo 29086" transform="translate(503.907 200.144)">
      <path id="Trazado_68978" data-name="Trazado 68978" d="M676.586,301.548h-4.615v-4.615h4.615Zm-3.829-.787H675.8v-3.042h-3.042Z" transform="translate(-671.971 -296.933)" fill="#e8e8e8"/>
    </g>
    <g id="Grupo_29087" data-name="Grupo 29087" transform="translate(503.907 207.741)">
      <path id="Trazado_68979" data-name="Trazado 68979" d="M676.586,316.789h-4.615v-4.615h4.615ZM672.757,316H675.8v-3.042h-3.042Z" transform="translate(-671.971 -312.174)" fill="#e8e8e8"/>
    </g>
    <path id="Trazado_68980" data-name="Trazado 68980" d="M380.94,372.291v-2.748h-1.525v2.748h-2.749v1.525h2.749v2.749h1.525v-2.749h2.748v-1.525Z" transform="translate(-19.954 -133.207)" fill="#002b45"/>
    <path id="Trazado_68981" data-name="Trazado 68981" d="M638.157,433.275a.9.9,0,1,0,.639.265A.909.909,0,0,0,638.157,433.275Zm4.66,0h0a.9.9,0,0,0,0,1.807h0a.9.9,0,0,0,0-1.807Zm-4.66-4.614a.9.9,0,1,0,.639.265A.911.911,0,0,0,638.157,428.661Zm4.656,1.807h0a.9.9,0,0,0,0-1.807h0a.9.9,0,0,0,0,1.807Z" transform="translate(-150.652 -162.857)" fill="#f9fbfc"/>
    <path id="Trazado_68982" data-name="Trazado 68982" d="M348.936,289.479a1.048,1.048,0,1,0,.741.307A1.057,1.057,0,0,0,348.936,289.479Zm5.407,0h0a1.048,1.048,0,0,0,0,2.1h0a1.048,1.048,0,0,0,0-2.1Zm-5.407-5.353a1.048,1.048,0,1,0,.741.307A1.056,1.056,0,0,0,348.936,284.126Zm5.4,2.1h0a1.048,1.048,0,1,0,0-2.1h0a1.048,1.048,0,1,0,0,2.1Z" transform="translate(-5.521 -90.366)" fill="#dfe1f7"/>
    <path id="Trazado_68983" data-name="Trazado 68983" d="M655.641,263.037H651.31v.7h4.331Zm-2.811,4.368.494.495,3.062-3.062-.495-.495Zm6.215-4.368v.7h4.331v-.7Zm-6.215-3.669,3.062,3.062.495-.495-3.062-3.062Zm9.025,0-.495-.494-3.062,3.062.494.495Zm-3.556,5.469,3.062,3.062.495-.495-3.062-3.062Zm-1.305-3.153h.7v-4.33h-.7Zm0,7.735h.7v-4.33h-.7Z" transform="translate(-157.702 -76.938)" fill="#e8e8e8"/>
    <path id="Trazado_68984" data-name="Trazado 68984" d="M367.985,179.931h-15.4a2.321,2.321,0,0,0-2.322,2.322v8.611" transform="translate(-6.712 -38.107)" fill="none" stroke="#e8e8e8" stroke-miterlimit="10" stroke-width="2"/>
    <path id="Trazado_68985" data-name="Trazado 68985" d="M660,290.711h12.388a1.647,1.647,0,0,1,1.647,1.646V314.1a1.647,1.647,0,0,1-1.647,1.646h-4.612" transform="translate(-162.06 -93.668)" fill="none" stroke="#e8e8e8" stroke-miterlimit="10" stroke-width="2"/>
    <path id="Trazado_68986" data-name="Trazado 68986" d="M359.939,365.027H351.3a2.229,2.229,0,0,1-2.229-2.229v-9.26" transform="translate(-6.114 -125.179)" fill="none" stroke="#e8e8e8" stroke-miterlimit="10" stroke-width="2"/>
    <path id="Trazado_68987" data-name="Trazado 68987" d="M413.173,112.639V108.23a2.174,2.174,0,0,1,2.175-2.174h95.981" transform="translate(-38.264 -1.055)" fill="none" stroke="#e8e8e8" stroke-miterlimit="10" stroke-width="2"/>
    <line id="Línea_267" data-name="Línea 267" y2="21.159" transform="translate(360.223 245.505)" fill="none" stroke="#e8e8e8" stroke-miterlimit="10" stroke-width="2"/>
  </g>
</svg>
