<svg xmlns="http://www.w3.org/2000/svg" xmlns:xlink="http://www.w3.org/1999/xlink" width="313.267" height="325.624" viewBox="0 0 313.267 325.624">
  <defs>
    <linearGradient id="linear-gradient" x1="0.5" x2="0.5" y2="1" gradientUnits="objectBoundingBox">
      <stop offset="0" stop-color="#fff"/>
      <stop offset="1" stop-color="#d2e6ee"/>
    </linearGradient>
  </defs>
  <g id="Grupo_4521" data-name="Grupo 4521" transform="translate(-457.583 -443.5)">
    <path id="Trazado_1035" data-name="Trazado 1035" d="M774.327,541.987c8.146-74.2-63.787-99.974-114.782-80.976-51.409,19.152-63.327-12.6-135.615-3.525C450.734,466.671,487.9,581.57,487.9,581.57s11.647,99.912,25.445,145.966c13.723,45.8,145.086,29.233,177.042,27.866,31.772-1.359,59.38,1.264,87.023-49.029C805,656.171,766.207,615.938,774.327,541.987Z" transform="translate(-18.473 9.693)" fill="#f4f7fa"/>
    <g id="Grupo_29278" data-name="Grupo 29278" transform="translate(410.194 398.468)">
      <g id="Shadow" transform="translate(208.653 248.341)">
        <path id="Shadow-2" data-name="Shadow" d="M252.594,352.139,302.2,380.662a2.286,2.286,0,0,0,2.072,0l87.813-50.7a.631.631,0,0,0,0-1.2l-49.609-28.524a2.286,2.286,0,0,0-2.072,0l-87.813,50.7A.631.631,0,0,0,252.594,352.139Z" transform="translate(-252.165 -299.996)" fill="#e0e0e0"/>
        <path id="Shadow-3" data-name="Shadow" d="M423.012,378.2c-.161-1.269-1.683-1.914-2.521-2.4l-33.878-19.617a4.851,4.851,0,0,0-4.845-.034L347.9,375.681c-1,.576-2.63,1.678-2.63,2.967s.891,1.574,2.533,2.522L381.431,400.6a5.538,5.538,0,0,0,5.54,0l34.7-19.878A2.6,2.6,0,0,0,423.012,378.2Z" transform="translate(-271.028 -311.244)" fill="#e0e0e0"/>
      </g>
      <g id="Servers" transform="translate(47.389 45.032)">
        <g id="Server" transform="translate(93.934)">
          <g id="Grupo_29191" data-name="Grupo 29191" transform="translate(93.933 153.49)">
            <path id="Trazado_69480" data-name="Trazado 69480" d="M297.728,256.617,305.719,252a3.818,3.818,0,0,1,3.453,0l50.1,28.925" transform="translate(-288 -240.37)" fill="none" stroke="#57cc98" stroke-miterlimit="10" stroke-width="1"/>
            <path id="Trazado_69481" data-name="Trazado 69481" d="M293.665,253.8l11.231-6.484a3.813,3.813,0,0,1,3.453,0l53.338,30.795" transform="translate(-287.177 -239.419)" fill="none" stroke="#57cc98" stroke-miterlimit="10" stroke-width="1"/>
            <path id="Trazado_69482" data-name="Trazado 69482" d="M364.1,275.287l-56.577-32.665a3.817,3.817,0,0,0-3.453,0L289.6,250.97" transform="translate(-286.354 -238.469)" fill="none" stroke="#57cc98" stroke-miterlimit="10" stroke-width="1"/>
            <path id="Trazado_69483" data-name="Trazado 69483" d="M366.516,272.467,306.7,237.932a3.818,3.818,0,0,0-3.453,0l-17.719,10.225" transform="translate(-285.528 -237.519)" fill="none" stroke="#57cc98" stroke-miterlimit="10" stroke-width="1"/>
          </g>
          <g id="Grupo_29201" data-name="Grupo 29201" transform="translate(0 0.157)">
            <path id="Trazado_69484" data-name="Trazado 69484" d="M221.067,45.642l-51.612,29.8a3.817,3.817,0,0,0-1.726,2.99V220.31a3.817,3.817,0,0,0,1.726,2.99l51.612,29.8a3.819,3.819,0,0,0,3.454,0l51.61-29.8a3.815,3.815,0,0,0,1.726-2.99V78.43a3.817,3.817,0,0,0-1.726-2.99l-51.611-29.8A3.813,3.813,0,0,0,221.067,45.642Z" transform="translate(-167.729 -45.229)" fill="url(#linear-gradient)"/>
            <path id="Trazado_69485" data-name="Trazado 69485" d="M291.847,86.38V228.262a3.825,3.825,0,0,1-1.723,2.99l-51.616,29.8a3.458,3.458,0,0,1-1.722.415V115.6a3.569,3.569,0,0,0,1.722-.415l51.616-29.8.471-.391.614-.51A3.579,3.579,0,0,1,291.847,86.38Z" transform="translate(-181.72 -53.181)" fill="url(#linear-gradient)"/>
            <g id="Grupo_29192" data-name="Grupo 29192" transform="translate(6.478 46.929)">
              <path id="Trazado_69486" data-name="Trazado 69486" d="M177.579,104.317l38.656,22.318a3.815,3.815,0,0,1,1.726,2.99V144.34c0,1.1-.773,1.547-1.726,1l-38.655-22.319a3.817,3.817,0,0,1-1.726-2.99V105.314C175.853,104.213,176.626,103.767,177.579,104.317Z" transform="translate(-175.853 -104.081)" fill="#455a64"/>
              <path id="Trazado_69487" data-name="Trazado 69487" d="M179.915,112.223a3.7,3.7,0,0,0,1.726,2.867l32.177,18.578c.954.55,1.727.159,1.726-.873a3.7,3.7,0,0,0-1.726-2.867L181.641,111.35C180.688,110.8,179.915,111.19,179.915,112.223Z" transform="translate(-176.676 -105.503)" fill="#57cc98"/>
              <path id="Trazado_69488" data-name="Trazado 69488" d="M179.915,121.6a3.7,3.7,0,0,0,1.726,2.867l32.177,18.578c.954.55,1.727.159,1.726-.873a3.7,3.7,0,0,0-1.726-2.867l-32.177-18.577C180.688,120.18,179.915,120.571,179.915,121.6Z" transform="translate(-176.676 -107.404)" fill="#263238"/>
              <path id="Trazado_69489" data-name="Trazado 69489" d="M181.641,120.731l17.708,10.224v3.74L181.641,124.47a3.7,3.7,0,0,1-1.726-2.867C179.915,120.571,180.688,120.18,181.641,120.731Z" transform="translate(-176.676 -107.404)" fill="#57cc98"/>
            </g>
            <g id="Grupo_29193" data-name="Grupo 29193" transform="translate(6.478 73.111)">
              <path id="Trazado_69490" data-name="Trazado 69490" d="M177.579,137.15l38.656,22.318a3.815,3.815,0,0,1,1.726,2.99v14.714c0,1.1-.773,1.547-1.726,1l-38.655-22.318a3.819,3.819,0,0,1-1.726-2.99V138.147C175.853,137.046,176.626,136.6,177.579,137.15Z" transform="translate(-175.853 -136.914)" fill="#455a64"/>
              <path id="Trazado_69491" data-name="Trazado 69491" d="M179.915,145.056a3.7,3.7,0,0,0,1.726,2.867L213.818,166.5c.954.55,1.727.16,1.726-.873a3.7,3.7,0,0,0-1.726-2.867l-32.177-18.577C180.688,143.632,179.915,144.023,179.915,145.056Z" transform="translate(-176.676 -138.336)" fill="#57cc98"/>
              <path id="Trazado_69492" data-name="Trazado 69492" d="M179.915,154.437a3.7,3.7,0,0,0,1.726,2.867l32.177,18.578c.954.55,1.727.159,1.726-.873a3.7,3.7,0,0,0-1.726-2.867l-32.177-18.578C180.688,153.013,179.915,153.4,179.915,154.437Z" transform="translate(-176.676 -140.237)" fill="#263238"/>
              <path id="Trazado_69493" data-name="Trazado 69493" d="M181.641,153.564,209.067,169.4v3.74L181.641,157.3a3.7,3.7,0,0,1-1.726-2.867C179.915,153.4,180.688,153.013,181.641,153.564Z" transform="translate(-176.676 -140.237)" fill="#57cc98"/>
            </g>
            <g id="Grupo_29194" data-name="Grupo 29194" transform="translate(6.478 99.292)">
              <path id="Trazado_69494" data-name="Trazado 69494" d="M177.579,169.983,216.235,192.3a3.815,3.815,0,0,1,1.726,2.99v14.714c0,1.1-.773,1.547-1.726,1l-38.655-22.318a3.819,3.819,0,0,1-1.726-2.99V170.98C175.853,169.879,176.626,169.433,177.579,169.983Z" transform="translate(-175.853 -169.747)" fill="#455a64"/>
              <path id="Trazado_69495" data-name="Trazado 69495" d="M179.915,177.889a3.7,3.7,0,0,0,1.726,2.867l32.177,18.578c.954.55,1.727.159,1.726-.873a3.7,3.7,0,0,0-1.726-2.867l-32.177-18.578C180.688,176.465,179.915,176.856,179.915,177.889Z" transform="translate(-176.676 -171.169)" fill="#57cc98"/>
              <path id="Trazado_69496" data-name="Trazado 69496" d="M179.915,187.27a3.7,3.7,0,0,0,1.726,2.867l32.177,18.578c.954.55,1.727.159,1.726-.873a3.7,3.7,0,0,0-1.726-2.867L181.641,186.4C180.688,185.846,179.915,186.237,179.915,187.27Z" transform="translate(-176.676 -173.07)" fill="#263238"/>
              <path id="Trazado_69497" data-name="Trazado 69497" d="M181.641,186.4l11.23,6.484v3.74l-11.23-6.484a3.7,3.7,0,0,1-1.726-2.867C179.915,186.237,180.688,185.846,181.641,186.4Z" transform="translate(-176.676 -173.07)" fill="#57cc98"/>
            </g>
            <g id="Grupo_29195" data-name="Grupo 29195" transform="translate(6.478 125.473)">
              <path id="Trazado_69498" data-name="Trazado 69498" d="M177.579,202.816l38.656,22.318a3.816,3.816,0,0,1,1.726,2.99v14.714c0,1.1-.773,1.547-1.726,1l-38.655-22.318a3.819,3.819,0,0,1-1.726-2.99V203.813C175.853,202.712,176.626,202.266,177.579,202.816Z" transform="translate(-175.853 -202.581)" fill="#455a64"/>
              <path id="Trazado_69499" data-name="Trazado 69499" d="M179.915,210.722a3.7,3.7,0,0,0,1.726,2.867l32.177,18.578c.954.55,1.727.16,1.726-.873a3.7,3.7,0,0,0-1.726-2.867l-32.177-18.578C180.688,209.3,179.915,209.689,179.915,210.722Z" transform="translate(-176.676 -204.003)" fill="#57cc98"/>
              <path id="Trazado_69500" data-name="Trazado 69500" d="M179.915,220.1a3.7,3.7,0,0,0,1.726,2.867l32.177,18.577c.954.55,1.727.159,1.726-.873a3.7,3.7,0,0,0-1.726-2.867L181.641,219.23C180.688,218.679,179.915,219.07,179.915,220.1Z" transform="translate(-176.676 -205.903)" fill="#263238"/>
              <path id="Trazado_69501" data-name="Trazado 69501" d="M181.641,219.23l17.708,10.224v3.74L181.641,222.97a3.7,3.7,0,0,1-1.726-2.867C179.915,219.07,180.688,218.679,181.641,219.23Z" transform="translate(-176.676 -205.903)" fill="#57cc98"/>
            </g>
            <g id="Grupo_29196" data-name="Grupo 29196" transform="translate(6.478 151.654)">
              <path id="Trazado_69502" data-name="Trazado 69502" d="M177.579,235.649l38.656,22.318a3.816,3.816,0,0,1,1.726,2.99v14.714c0,1.1-.773,1.547-1.726,1l-38.655-22.318a3.818,3.818,0,0,1-1.726-2.99V236.646C175.853,235.545,176.626,235.1,177.579,235.649Z" transform="translate(-175.853 -235.414)" fill="#455a64"/>
              <path id="Trazado_69503" data-name="Trazado 69503" d="M179.915,243.555a3.7,3.7,0,0,0,1.726,2.867L213.818,265c.954.55,1.727.16,1.726-.873a3.7,3.7,0,0,0-1.726-2.867l-32.177-18.578C180.688,242.131,179.915,242.522,179.915,243.555Z" transform="translate(-176.676 -236.836)" fill="#57cc98"/>
              <path id="Trazado_69504" data-name="Trazado 69504" d="M179.915,252.936a3.7,3.7,0,0,0,1.726,2.867l32.177,18.577c.954.551,1.727.159,1.726-.873a3.7,3.7,0,0,0-1.726-2.867l-32.177-18.578C180.688,251.512,179.915,251.9,179.915,252.936Z" transform="translate(-176.676 -238.736)" fill="#263238"/>
              <path id="Trazado_69505" data-name="Trazado 69505" d="M181.641,252.063l24.187,13.964v3.74L181.641,255.8a3.7,3.7,0,0,1-1.726-2.867C179.915,251.9,180.688,251.512,181.641,252.063Z" transform="translate(-176.676 -238.736)" fill="#57cc98"/>
            </g>
            <g id="Grupo_29197" data-name="Grupo 29197" transform="translate(59.923 48.561)">
              <path id="Trazado_69506" data-name="Trazado 69506" d="M246.116,134.69c1.789-1.037,3.239-.092,3.239,2.109v85.538a7.422,7.422,0,0,1-3.239,5.865c-1.789,1.037-3.239.093-3.239-2.109V140.555A7.426,7.426,0,0,1,246.116,134.69Z" transform="translate(-242.876 -111.829)" fill="#37474f"/>
              <path id="Trazado_69507" data-name="Trazado 69507" d="M246.527,226.835a3.7,3.7,0,0,0,1.62-2.929V138.128c0-1.1-.726-1.575-1.62-1.058a3.7,3.7,0,0,0-1.62,2.929v85.778C244.908,226.877,245.633,227.351,246.527,226.835Z" transform="translate(-243.287 -112.354)" fill="#263238"/>
              <path id="Trazado_69508" data-name="Trazado 69508" d="M246.527,238.53a3.7,3.7,0,0,0,1.62-2.929v-41.01l-3.24,1.87v41.011C244.908,238.573,245.633,239.047,246.527,238.53Z" transform="translate(-243.287 -124.05)" fill="#57cc98"/>
              <path id="Trazado_69509" data-name="Trazado 69509" d="M258.3,127.655c1.789-1.037,3.239-.092,3.239,2.109V215.3a7.426,7.426,0,0,1-3.239,5.865c-1.789,1.037-3.239.092-3.24-2.109V133.52A7.422,7.422,0,0,1,258.3,127.655Z" transform="translate(-245.345 -110.404)" fill="#37474f"/>
              <path id="Trazado_69510" data-name="Trazado 69510" d="M258.714,219.8a3.7,3.7,0,0,0,1.62-2.929V131.093c0-1.1-.726-1.575-1.62-1.058a3.7,3.7,0,0,0-1.62,2.928v85.778C257.094,219.842,257.82,220.315,258.714,219.8Z" transform="translate(-245.757 -110.929)" fill="#57cc98"/>
              <path id="Trazado_69511" data-name="Trazado 69511" d="M270.488,120.619c1.789-1.037,3.239-.092,3.239,2.11v85.538a7.427,7.427,0,0,1-3.239,5.865c-1.789,1.037-3.239.092-3.239-2.11V126.484A7.427,7.427,0,0,1,270.488,120.619Z" transform="translate(-247.814 -108.978)" fill="#37474f"/>
              <path id="Trazado_69512" data-name="Trazado 69512" d="M270.9,212.764a3.7,3.7,0,0,0,1.62-2.928V124.058c0-1.1-.725-1.575-1.62-1.059a3.7,3.7,0,0,0-1.62,2.929v85.778C269.281,212.807,270.006,213.28,270.9,212.764Z" transform="translate(-248.225 -109.504)" fill="#263238"/>
              <path id="Trazado_69513" data-name="Trazado 69513" d="M270.9,218.045a3.7,3.7,0,0,0,1.62-2.928V148.859l-3.239,1.87v66.258C269.281,218.088,270.006,218.562,270.9,218.045Z" transform="translate(-248.225 -114.785)" fill="#57cc98"/>
              <path id="Trazado_69514" data-name="Trazado 69514" d="M282.674,113.584c1.789-1.037,3.24-.092,3.24,2.109v85.538a7.422,7.422,0,0,1-3.239,5.865c-1.789,1.037-3.239.093-3.239-2.109V119.449A7.427,7.427,0,0,1,282.674,113.584Z" transform="translate(-250.283 -107.553)" fill="#37474f"/>
              <path id="Trazado_69515" data-name="Trazado 69515" d="M283.086,205.729a3.7,3.7,0,0,0,1.62-2.929V117.022c0-1.1-.726-1.575-1.62-1.058a3.7,3.7,0,0,0-1.62,2.929V204.67C281.467,205.771,282.192,206.245,283.086,205.729Z" transform="translate(-250.694 -108.078)" fill="#263238"/>
              <path id="Trazado_69516" data-name="Trazado 69516" d="M283.086,224.166a3.7,3.7,0,0,0,1.62-2.929V206.76l-3.24,1.87v14.478C281.467,224.208,282.192,224.682,283.086,224.166Z" transform="translate(-250.694 -126.515)" fill="#57cc98"/>
              <path id="Trazado_69517" data-name="Trazado 69517" d="M294.861,106.549c1.789-1.037,3.239-.092,3.239,2.109V194.2a7.425,7.425,0,0,1-3.239,5.865c-1.789,1.037-3.239.092-3.239-2.109V112.414A7.42,7.42,0,0,1,294.861,106.549Z" transform="translate(-252.752 -106.128)" fill="#37474f"/>
              <path id="Trazado_69518" data-name="Trazado 69518" d="M295.273,198.693a3.7,3.7,0,0,0,1.62-2.929V109.987c0-1.1-.726-1.575-1.62-1.058a3.7,3.7,0,0,0-1.62,2.928v85.778C293.653,198.736,294.379,199.209,295.273,198.693Z" transform="translate(-253.163 -106.653)" fill="#263238"/>
              <path id="Trazado_69519" data-name="Trazado 69519" d="M295.272,209.439a3.7,3.7,0,0,0,1.62-2.929V161.758l-3.24,1.87V208.38C293.653,209.481,294.378,209.955,295.272,209.439Z" transform="translate(-253.163 -117.398)" fill="#57cc98"/>
            </g>
            <g id="Grupo_29200" data-name="Grupo 29200" transform="translate(59.923 150.567)">
              <path id="Trazado_69520" data-name="Trazado 69520" d="M244.258,258.825l42.585-24.586c.763-.44,1.381-.084,1.381.8v15.511a3.051,3.051,0,0,1-1.381,2.392l-42.585,24.587c-.762.44-1.381.083-1.381-.8V261.218A3.054,3.054,0,0,1,244.258,258.825Z" transform="translate(-242.877 -234.05)" fill="#37474f"/>
              <g id="Grupo_29198" data-name="Grupo 29198" transform="translate(3.132 5.681)">
                <path id="Trazado_69521" data-name="Trazado 69521" d="M246.8,264.868c0,1.033.773,1.423,1.726.873l35.63-20.578a3.7,3.7,0,0,0,1.726-2.866c0-1.033-.773-1.424-1.726-.874L248.531,262A3.7,3.7,0,0,0,246.8,264.868Z" transform="translate(-246.805 -241.174)" fill="#263238"/>
                <path id="Trazado_69522" data-name="Trazado 69522" d="M246.8,266.357c0,1.033.773,1.423,1.726.873l25.912-14.968v-3.74L248.531,263.49A3.7,3.7,0,0,0,246.8,266.357Z" transform="translate(-246.805 -242.663)" fill="#57cc98"/>
              </g>
              <g id="Grupo_29199" data-name="Grupo 29199" transform="translate(3.132 13.161)">
                <path id="Trazado_69523" data-name="Trazado 69523" d="M246.8,274.249c0,1.033.773,1.424,1.726.873l35.63-20.577a3.7,3.7,0,0,0,1.726-2.867c0-1.033-.773-1.423-1.726-.872l-35.631,20.577A3.7,3.7,0,0,0,246.8,274.249Z" transform="translate(-246.805 -250.556)" fill="#263238"/>
                <path id="Trazado_69524" data-name="Trazado 69524" d="M246.8,278.115c0,1.033.773,1.424,1.726.873l9.717-5.611v-3.74l-9.719,5.611A3.7,3.7,0,0,0,246.8,278.115Z" transform="translate(-246.805 -254.422)" fill="#57cc98"/>
              </g>
            </g>
            <path id="Trazado_69525" data-name="Trazado 69525" d="M276.388,75.439l-51.612-29.8a3.813,3.813,0,0,0-3.453,0l-51.611,29.8a1.052,1.052,0,0,0,0,1.994l51.612,29.8a3.814,3.814,0,0,0,3.454,0l51.61-29.8A1.052,1.052,0,0,0,276.388,75.439Z" transform="translate(-167.986 -45.229)" fill="url(#linear-gradient)"/>
          </g>
          <g id="Grupo_29202" data-name="Grupo 29202" transform="translate(12.955 3.664)">
            <path id="Trazado_69526" data-name="Trazado 69526" d="M225.049,101.04,185.013,77.925a2.287,2.287,0,0,1-1.036-1.794V74.783a2.287,2.287,0,0,1,1.036-1.794l40.036-23.115a2.291,2.291,0,0,1,2.072,0l40.037,23.115a2.291,2.291,0,0,1,1.036,1.794v1.348a2.289,2.289,0,0,1-1.036,1.794L227.121,101.04A2.292,2.292,0,0,1,225.049,101.04Z" transform="translate(-183.976 -49.626)" fill="#263238"/>
            <path id="Trazado_69527" data-name="Trazado 69527" d="M185.167,74.388,225.2,97.5a2.292,2.292,0,0,0,2.072,0l40.036-23.115a.631.631,0,0,0,0-1.2L227.275,50.875a2.291,2.291,0,0,0-2.072,0L185.167,73.192A.631.631,0,0,0,185.167,74.388Z" transform="translate(-184.13 -49.829)" fill="url(#linear-gradient)"/>
            <path id="Trazado_69528" data-name="Trazado 69528" d="M226.087,103.516v3.74a2.1,2.1,0,0,1-1.037-.247L185.013,83.892a2.278,2.278,0,0,1-1.037-1.794V80.751a2.3,2.3,0,0,1,.845-1.659c-.375.327-.311.773.191,1.061l40.038,23.117A2.1,2.1,0,0,0,226.087,103.516Z" transform="translate(-183.976 -55.596)" fill="#37474f"/>
          </g>
          <g id="Grupo_29205" data-name="Grupo 29205" transform="translate(25.912)">
            <path id="Trazado_69529" data-name="Trazado 69529" d="M228.341,88.889l-27.08-15.635a2.291,2.291,0,0,1-1.036-1.794V70.113a2.29,2.29,0,0,1,1.036-1.794l17.363-10.024a6.9,6.9,0,0,0,1.749-1.559l8.292-11.17a1.374,1.374,0,0,1,1.749-.362l27.081,15.634a2.291,2.291,0,0,1,1.036,1.794V71.46a2.291,2.291,0,0,1-1.036,1.794l-27.08,15.635A2.292,2.292,0,0,1,228.341,88.889Z" transform="translate(-200.225 -45.032)" fill="#263238"/>
            <path id="Trazado_69530" data-name="Trazado 69530" d="M230.567,85.149l17.363-10.025a5.93,5.93,0,0,0,.907-.673,6.2,6.2,0,0,0,.843-.885L257.971,62.4a1.041,1.041,0,0,0-.323-1.558L230.567,45.2a1.374,1.374,0,0,0-1.749.362l-8.292,11.17a6.56,6.56,0,0,1-1.605,1.622l-17.506,9.961a.631.631,0,0,0,0,1.2l27.08,15.635A2.291,2.291,0,0,0,230.567,85.149Z" transform="translate(-200.379 -45.032)" fill="#455a64"/>
            <path id="Trazado_69531" data-name="Trazado 69531" d="M262.4,60.837,235.317,45.2a1.374,1.374,0,0,0-1.749.362l-8.292,11.17a6.12,6.12,0,0,1-.848.883s29.146,16.839,29.155,16.831a6.174,6.174,0,0,0,.845-.883L262.72,62.4A1.041,1.041,0,0,0,262.4,60.837Z" transform="translate(-205.128 -45.032)" fill="#37474f"/>
            <g id="Grupo_29203" data-name="Grupo 29203" transform="translate(7.103 16.961)">
              <path id="Trazado_69532" data-name="Trazado 69532" d="M209.636,74.505a2.682,2.682,0,0,1,2.429,0,.74.74,0,0,1,0,1.4,2.682,2.682,0,0,1-2.429,0A.74.74,0,0,1,209.636,74.505Z" transform="translate(-209.133 -67.905)" fill="#27debf"/>
              <path id="Trazado_69533" data-name="Trazado 69533" d="M215.729,78.022a2.687,2.687,0,0,1,2.429,0,.74.74,0,0,1,0,1.4,2.683,2.683,0,0,1-2.429,0A.74.74,0,0,1,215.729,78.022Z" transform="translate(-210.368 -68.618)" fill="#27debf"/>
              <path id="Trazado_69534" data-name="Trazado 69534" d="M221.822,81.54a2.682,2.682,0,0,1,2.429,0,.74.74,0,0,1,0,1.4,2.682,2.682,0,0,1-2.429,0A.74.74,0,0,1,221.822,81.54Z" transform="translate(-211.602 -69.33)" fill="#263238"/>
              <path id="Trazado_69535" data-name="Trazado 69535" d="M227.914,85.058a2.684,2.684,0,0,1,2.43,0,.74.74,0,0,1,0,1.4,2.689,2.689,0,0,1-2.43,0A.74.74,0,0,1,227.914,85.058Z" transform="translate(-212.836 -70.043)" fill="#263238"/>
              <ellipse id="Elipse_3371" data-name="Elipse 3371" cx="1.718" cy="0.992" rx="1.718" ry="0.992" transform="translate(3.643 4.205)" fill="#27debf"/>
              <path id="Trazado_69536" data-name="Trazado 69536" d="M220.3,75.384a2.684,2.684,0,0,1,2.43,0,.74.74,0,0,1,0,1.4,2.684,2.684,0,0,1-2.43,0A.74.74,0,0,1,220.3,75.384Z" transform="translate(-211.293 -68.083)" fill="#263238"/>
              <ellipse id="Elipse_3372" data-name="Elipse 3372" cx="1.718" cy="0.992" rx="1.718" ry="0.992" transform="translate(13.36 9.815)" fill="#27debf"/>
              <path id="Trazado_69537" data-name="Trazado 69537" d="M232.484,82.419a2.687,2.687,0,0,1,2.429,0,.74.74,0,0,1,0,1.4,2.683,2.683,0,0,1-2.429,0A.74.74,0,0,1,232.484,82.419Z" transform="translate(-213.762 -69.509)" fill="#263238"/>
              <path id="Trazado_69538" data-name="Trazado 69538" d="M218.775,69.228a2.683,2.683,0,0,1,2.429,0,.74.74,0,0,1,0,1.4,2.687,2.687,0,0,1-2.429,0A.74.74,0,0,1,218.775,69.228Z" transform="translate(-210.985 -66.836)" fill="#263238"/>
              <path id="Trazado_69539" data-name="Trazado 69539" d="M224.868,72.745a2.687,2.687,0,0,1,2.429,0,.74.74,0,0,1,0,1.4,2.682,2.682,0,0,1-2.429,0A.74.74,0,0,1,224.868,72.745Z" transform="translate(-212.219 -67.549)" fill="#27debf"/>
              <path id="Trazado_69540" data-name="Trazado 69540" d="M230.96,76.263a2.684,2.684,0,0,1,2.43,0,.74.74,0,0,1,0,1.4,2.684,2.684,0,0,1-2.43,0A.74.74,0,0,1,230.96,76.263Z" transform="translate(-213.453 -68.261)" fill="#263238"/>
              <path id="Trazado_69541" data-name="Trazado 69541" d="M234.042,88.505a2.682,2.682,0,0,1,2.429,0,.74.74,0,0,1,0,1.4,2.682,2.682,0,0,1-2.429,0A.74.74,0,0,1,234.042,88.505Z" transform="translate(-214.078 -70.742)" fill="#27debf"/>
              <ellipse id="Elipse_3373" data-name="Elipse 3373" cx="1.718" cy="0.992" rx="1.718" ry="0.992" transform="translate(23.105 15.369)" fill="#263238"/>
              <path id="Trazado_69542" data-name="Trazado 69542" d="M237.053,79.784a2.684,2.684,0,0,1,2.43,0,.74.74,0,0,1,0,1.4,2.689,2.689,0,0,1-2.43,0A.74.74,0,0,1,237.053,79.784Z" transform="translate(-214.688 -68.975)" fill="#263238"/>
              <path id="Trazado_69543" data-name="Trazado 69543" d="M223.344,66.592a2.689,2.689,0,0,1,2.43,0,.74.74,0,0,1,0,1.4,2.684,2.684,0,0,1-2.43,0A.74.74,0,0,1,223.344,66.592Z" transform="translate(-211.91 -66.302)" fill="#27debf"/>
              <ellipse id="Elipse_3374" data-name="Elipse 3374" cx="1.718" cy="0.992" rx="1.718" ry="0.992" transform="translate(15.789 2.805)" fill="#263238"/>
              <path id="Trazado_69544" data-name="Trazado 69544" d="M235.53,73.628a2.684,2.684,0,0,1,2.43,0,.74.74,0,0,1,0,1.4,2.689,2.689,0,0,1-2.43,0A.74.74,0,0,1,235.53,73.628Z" transform="translate(-214.379 -67.728)" fill="#27debf"/>
              <ellipse id="Elipse_3375" data-name="Elipse 3375" cx="1.718" cy="0.992" rx="1.718" ry="0.992" transform="translate(25.506 8.415)" fill="#263238"/>
              <path id="Trazado_69545" data-name="Trazado 69545" d="M243.181,83.231a2.683,2.683,0,0,1,2.429,0,.74.74,0,0,1,0,1.4,2.682,2.682,0,0,1-2.429,0A.74.74,0,0,1,243.181,83.231Z" transform="translate(-215.929 -69.673)" fill="#27debf"/>
              <path id="Trazado_69546" data-name="Trazado 69546" d="M247.75,80.593a2.684,2.684,0,0,1,2.43,0,.74.74,0,0,1,0,1.4,2.689,2.689,0,0,1-2.43,0A.74.74,0,0,1,247.75,80.593Z" transform="translate(-216.855 -69.139)" fill="#263238"/>
            </g>
            <path id="Trazado_69547" data-name="Trazado 69547" d="M229.435,91.347v3.732a2.138,2.138,0,0,1-1.092-.239L201.263,79.2a2.278,2.278,0,0,1-1.037-1.794V76.061a2.3,2.3,0,0,1,.845-1.659c-.375.327-.311.773.191,1.061L228.342,91.1A2.141,2.141,0,0,0,229.435,91.347Z" transform="translate(-200.225 -50.982)" fill="#37474f"/>
            <g id="Grupo_29204" data-name="Grupo 29204" transform="translate(23.582 3.003)">
              <path id="Trazado_69548" data-name="Trazado 69548" d="M229.945,59.024l.024-.032a.914.914,0,0,1,1.165-.242L254.7,72.356a.693.693,0,0,1,.214,1.038l-.024.033a.918.918,0,0,1-1.167.24l-23.56-13.6A.7.7,0,0,1,229.945,59.024Z" transform="translate(-229.798 -50.791)" fill="#263238"/>
              <path id="Trazado_69549" data-name="Trazado 69549" d="M229.945,59.024l.024-.032a.914.914,0,0,1,1.165-.242l17.52,10.115-.978,1.312L230.162,60.065A.7.7,0,0,1,229.945,59.024Z" transform="translate(-229.798 -50.791)" fill="#27debf"/>
              <path id="Trazado_69550" data-name="Trazado 69550" d="M232.388,55.745l.025-.032a.914.914,0,0,1,1.164-.243l23.566,13.607a.691.691,0,0,1,.214,1.037l-.024.033a.918.918,0,0,1-1.167.24l-23.56-13.6A.7.7,0,0,1,232.388,55.745Z" transform="translate(-230.293 -50.127)" fill="#263238"/>
              <path id="Trazado_69551" data-name="Trazado 69551" d="M232.388,55.745l.025-.032a.914.914,0,0,1,1.164-.243l5.858,3.381-.978,1.311L232.6,56.786A.7.7,0,0,1,232.388,55.745Z" transform="translate(-230.293 -50.127)" fill="#27debf"/>
              <path id="Trazado_69552" data-name="Trazado 69552" d="M234.832,52.466l.024-.032a.913.913,0,0,1,1.164-.242L259.585,65.8a.692.692,0,0,1,.215,1.037l-.025.033a.919.919,0,0,1-1.167.24l-23.56-13.6A.7.7,0,0,1,234.832,52.466Z" transform="translate(-230.788 -49.463)" fill="#263238"/>
              <path id="Trazado_69553" data-name="Trazado 69553" d="M234.832,52.466l.024-.032a.916.916,0,0,1,1.165-.244l12.274,7.065-.978,1.312-12.268-7.062A.694.694,0,0,1,234.832,52.466Z" transform="translate(-230.788 -49.462)" fill="#27debf"/>
              <path id="Trazado_69554" data-name="Trazado 69554" d="M237.275,49.187l.024-.032a.913.913,0,0,1,1.164-.243l23.566,13.607a.692.692,0,0,1,.214,1.037l-.025.033a.917.917,0,0,1-1.167.24l-23.56-13.6A.7.7,0,0,1,237.275,49.187Z" transform="translate(-231.283 -48.798)" fill="#263238"/>
              <path id="Trazado_69555" data-name="Trazado 69555" d="M237.275,49.187l.024-.032a.913.913,0,0,1,1.164-.243l21.392,12.35-.978,1.312L237.491,50.228A.7.7,0,0,1,237.275,49.187Z" transform="translate(-231.283 -48.798)" fill="#27debf"/>
            </g>
          </g>
        </g>
        <g id="Server-2" data-name="Server" transform="translate(0 54.224)">
          <g id="Grupo_29206" data-name="Grupo 29206" transform="translate(97.162 149.893)">
            <path id="Trazado_69556" data-name="Trazado 69556" d="M183.977,319l7.991-4.613a3.827,3.827,0,0,1,3.453,0l47.465,27.4a1.757,1.757,0,0,0,2.635-1.521V301.008" transform="translate(-174.249 -301.008)" fill="none" stroke="#57cc98" stroke-miterlimit="10" stroke-width="1"/>
            <path id="Trazado_69557" data-name="Trazado 69557" d="M179.915,317.127l11.23-6.484a3.832,3.832,0,0,1,3.453,0l50.7,29.274a1.756,1.756,0,0,0,2.635-1.521V301.008" transform="translate(-173.426 -301.008)" fill="none" stroke="#57cc98" stroke-miterlimit="10" stroke-width="1"/>
            <path id="Trazado_69558" data-name="Trazado 69558" d="M175.854,315.307l14.468-8.348a3.83,3.83,0,0,1,3.453,0L247.718,338.1a1.756,1.756,0,0,0,2.635-1.521V301.288" transform="translate(-172.603 -301.065)" fill="none" stroke="#57cc98" stroke-miterlimit="10" stroke-width="1"/>
            <path id="Trazado_69559" data-name="Trazado 69559" d="M171.777,313.444,189.5,303.219a3.832,3.832,0,0,1,3.453,0l57.182,33.014a1.756,1.756,0,0,0,2.635-1.521V301.288" transform="translate(-171.777 -301.065)" fill="none" stroke="#57cc98" stroke-miterlimit="10" stroke-width="1"/>
          </g>
          <g id="Grupo_29216" data-name="Grupo 29216" transform="translate(0 0.157)">
            <path id="Trazado_69560" data-name="Trazado 69560" d="M103.267,113.642l-51.612,29.8a3.815,3.815,0,0,0-1.726,2.99V288.31a3.815,3.815,0,0,0,1.726,2.99l51.613,29.8a3.818,3.818,0,0,0,3.453,0l51.61-29.8a3.815,3.815,0,0,0,1.726-2.99V146.431a3.815,3.815,0,0,0-1.726-2.99l-51.611-29.8A3.818,3.818,0,0,0,103.267,113.642Z" transform="translate(-49.929 -113.229)" fill="url(#linear-gradient)"/>
            <path id="Trazado_69561" data-name="Trazado 69561" d="M174.047,154.38V296.262a3.824,3.824,0,0,1-1.722,2.99l-51.616,29.8a3.464,3.464,0,0,1-1.722.415V183.6a3.572,3.572,0,0,0,1.722-.415l51.616-29.8.47-.391.614-.51A3.579,3.579,0,0,1,174.047,154.38Z" transform="translate(-63.92 -121.182)" fill="url(#linear-gradient)"/>
            <g id="Grupo_29207" data-name="Grupo 29207" transform="translate(6.478 46.929)">
              <path id="Trazado_69562" data-name="Trazado 69562" d="M59.779,172.317l38.656,22.318a3.817,3.817,0,0,1,1.726,2.99V212.34c0,1.1-.773,1.547-1.727,1L59.78,191.019a3.815,3.815,0,0,1-1.727-2.99V173.314C58.053,172.213,58.826,171.767,59.779,172.317Z" transform="translate(-58.053 -172.082)" fill="#455a64"/>
              <path id="Trazado_69563" data-name="Trazado 69563" d="M62.115,180.223a3.7,3.7,0,0,0,1.726,2.867l32.178,18.577c.953.551,1.726.159,1.726-.873a3.7,3.7,0,0,0-1.726-2.867L63.841,179.35C62.888,178.8,62.115,179.19,62.115,180.223Z" transform="translate(-58.876 -173.504)" fill="#57cc98"/>
              <path id="Trazado_69564" data-name="Trazado 69564" d="M62.115,189.6a3.7,3.7,0,0,0,1.726,2.867l32.178,18.577c.953.55,1.726.159,1.726-.873a3.7,3.7,0,0,0-1.726-2.867L63.841,188.731C62.888,188.18,62.115,188.571,62.115,189.6Z" transform="translate(-58.876 -175.404)" fill="#263238"/>
              <path id="Trazado_69565" data-name="Trazado 69565" d="M63.841,188.731,81.55,198.955v3.74L63.841,192.471a3.7,3.7,0,0,1-1.726-2.867C62.115,188.571,62.888,188.18,63.841,188.731Z" transform="translate(-58.876 -175.404)" fill="#57cc98"/>
            </g>
            <g id="Grupo_29208" data-name="Grupo 29208" transform="translate(6.478 73.11)">
              <path id="Trazado_69566" data-name="Trazado 69566" d="M59.779,205.15l38.656,22.318a3.817,3.817,0,0,1,1.726,2.99v14.715c0,1.1-.773,1.547-1.727,1L59.78,223.852a3.815,3.815,0,0,1-1.727-2.99V206.147C58.053,205.047,58.826,204.6,59.779,205.15Z" transform="translate(-58.053 -204.915)" fill="#455a64"/>
              <path id="Trazado_69567" data-name="Trazado 69567" d="M62.115,213.057a3.7,3.7,0,0,0,1.726,2.867L96.019,234.5c.953.551,1.726.16,1.726-.873a3.7,3.7,0,0,0-1.726-2.867L63.841,212.183C62.888,211.632,62.115,212.023,62.115,213.057Z" transform="translate(-58.876 -206.337)" fill="#57cc98"/>
              <path id="Trazado_69568" data-name="Trazado 69568" d="M62.115,222.438a3.7,3.7,0,0,0,1.726,2.867l32.178,18.577c.953.551,1.726.159,1.726-.873a3.7,3.7,0,0,0-1.726-2.867L63.841,221.564C62.888,221.013,62.115,221.4,62.115,222.438Z" transform="translate(-58.876 -208.237)" fill="#263238"/>
              <path id="Trazado_69569" data-name="Trazado 69569" d="M63.841,221.564,91.267,237.4v3.74L63.841,225.3a3.7,3.7,0,0,1-1.726-2.867C62.115,221.4,62.888,221.013,63.841,221.564Z" transform="translate(-58.876 -208.237)" fill="#57cc98"/>
            </g>
            <g id="Grupo_29209" data-name="Grupo 29209" transform="translate(6.478 99.291)">
              <path id="Trazado_69570" data-name="Trazado 69570" d="M59.779,237.983,98.435,260.3a3.817,3.817,0,0,1,1.726,2.99v14.715c0,1.1-.773,1.548-1.727,1L59.78,256.685a3.815,3.815,0,0,1-1.727-2.99V238.98C58.053,237.879,58.826,237.433,59.779,237.983Z" transform="translate(-58.053 -237.748)" fill="#455a64"/>
              <path id="Trazado_69571" data-name="Trazado 69571" d="M62.115,245.89a3.7,3.7,0,0,0,1.726,2.867l32.178,18.577c.953.551,1.726.159,1.726-.873a3.7,3.7,0,0,0-1.726-2.867L63.841,245.016C62.888,244.465,62.115,244.856,62.115,245.89Z" transform="translate(-58.876 -239.17)" fill="#57cc98"/>
              <path id="Trazado_69572" data-name="Trazado 69572" d="M62.115,255.271a3.7,3.7,0,0,0,1.726,2.867l32.178,18.577c.953.551,1.726.159,1.726-.873a3.7,3.7,0,0,0-1.726-2.867L63.841,254.4C62.888,253.847,62.115,254.237,62.115,255.271Z" transform="translate(-58.876 -241.07)" fill="#263238"/>
              <path id="Trazado_69573" data-name="Trazado 69573" d="M63.841,254.4l11.23,6.483v3.74l-11.231-6.483a3.7,3.7,0,0,1-1.726-2.867C62.115,254.237,62.888,253.847,63.841,254.4Z" transform="translate(-58.876 -241.07)" fill="#57cc98"/>
            </g>
            <g id="Grupo_29210" data-name="Grupo 29210" transform="translate(6.478 125.473)">
              <path id="Trazado_69574" data-name="Trazado 69574" d="M59.779,270.817l38.656,22.317a3.817,3.817,0,0,1,1.726,2.99v14.714c0,1.1-.773,1.548-1.727,1L59.78,289.518a3.815,3.815,0,0,1-1.727-2.99V271.814C58.053,270.713,58.826,270.266,59.779,270.817Z" transform="translate(-58.053 -270.581)" fill="#455a64"/>
              <path id="Trazado_69575" data-name="Trazado 69575" d="M62.115,278.723a3.7,3.7,0,0,0,1.726,2.867l32.178,18.577c.953.551,1.726.159,1.726-.873a3.7,3.7,0,0,0-1.726-2.867L63.841,277.85C62.888,277.3,62.115,277.689,62.115,278.723Z" transform="translate(-58.876 -272.003)" fill="#57cc98"/>
              <path id="Trazado_69576" data-name="Trazado 69576" d="M62.115,288.1a3.7,3.7,0,0,0,1.726,2.867l32.178,18.578c.953.55,1.726.159,1.726-.874a3.7,3.7,0,0,0-1.726-2.867L63.841,287.231C62.888,286.68,62.115,287.07,62.115,288.1Z" transform="translate(-58.876 -273.903)" fill="#263238"/>
              <path id="Trazado_69577" data-name="Trazado 69577" d="M63.841,287.231,81.55,297.454v3.74L63.841,290.97a3.7,3.7,0,0,1-1.726-2.867C62.115,287.07,62.888,286.68,63.841,287.231Z" transform="translate(-58.876 -273.903)" fill="#57cc98"/>
            </g>
            <g id="Grupo_29211" data-name="Grupo 29211" transform="translate(6.478 151.654)">
              <path id="Trazado_69578" data-name="Trazado 69578" d="M59.779,303.65l38.656,22.318a3.815,3.815,0,0,1,1.726,2.99v14.714c0,1.1-.773,1.548-1.727,1L59.78,322.351a3.815,3.815,0,0,1-1.727-2.99V304.647C58.053,303.546,58.826,303.1,59.779,303.65Z" transform="translate(-58.053 -303.414)" fill="#455a64"/>
              <path id="Trazado_69579" data-name="Trazado 69579" d="M62.115,311.556a3.7,3.7,0,0,0,1.726,2.867L96.019,333c.953.55,1.726.159,1.726-.874a3.7,3.7,0,0,0-1.726-2.867L63.841,310.683C62.888,310.132,62.115,310.523,62.115,311.556Z" transform="translate(-58.876 -304.836)" fill="#57cc98"/>
              <path id="Trazado_69580" data-name="Trazado 69580" d="M62.115,320.937a3.7,3.7,0,0,0,1.726,2.867l32.178,18.578c.953.55,1.726.159,1.726-.874a3.7,3.7,0,0,0-1.726-2.867L63.841,320.064C62.888,319.513,62.115,319.9,62.115,320.937Z" transform="translate(-58.876 -306.737)" fill="#263238"/>
              <path id="Trazado_69581" data-name="Trazado 69581" d="M63.841,320.064l24.187,13.963v3.74L63.841,323.8a3.7,3.7,0,0,1-1.726-2.867C62.115,319.9,62.888,319.513,63.841,320.064Z" transform="translate(-58.876 -306.737)" fill="#57cc98"/>
            </g>
            <g id="Grupo_29212" data-name="Grupo 29212" transform="translate(59.923 48.561)">
              <path id="Trazado_69582" data-name="Trazado 69582" d="M128.316,202.691c1.789-1.037,3.239-.093,3.239,2.109v85.538a7.427,7.427,0,0,1-3.239,5.865c-1.789,1.037-3.24.092-3.24-2.109V208.555A7.422,7.422,0,0,1,128.316,202.691Z" transform="translate(-125.077 -179.83)" fill="#37474f"/>
              <path id="Trazado_69583" data-name="Trazado 69583" d="M128.728,294.835a3.7,3.7,0,0,0,1.62-2.928V206.129c0-1.1-.725-1.575-1.62-1.059a3.7,3.7,0,0,0-1.62,2.929v85.778C127.108,294.878,127.834,295.351,128.728,294.835Z" transform="translate(-125.488 -180.355)" fill="#263238"/>
              <path id="Trazado_69584" data-name="Trazado 69584" d="M128.728,306.53a3.7,3.7,0,0,0,1.62-2.928V262.591l-3.239,1.87v41.011C127.108,306.573,127.834,307.047,128.728,306.53Z" transform="translate(-125.488 -192.05)" fill="#57cc98"/>
              <path id="Trazado_69585" data-name="Trazado 69585" d="M140.5,195.655c1.789-1.037,3.239-.092,3.239,2.109V283.3a7.424,7.424,0,0,1-3.239,5.865c-1.789,1.037-3.239.093-3.239-2.109V201.52A7.427,7.427,0,0,1,140.5,195.655Z" transform="translate(-127.546 -178.404)" fill="#37474f"/>
              <path id="Trazado_69586" data-name="Trazado 69586" d="M140.914,287.8a3.7,3.7,0,0,0,1.62-2.929V199.094c0-1.1-.725-1.576-1.62-1.059a3.7,3.7,0,0,0-1.62,2.929v85.778C139.295,287.842,140.02,288.316,140.914,287.8Z" transform="translate(-127.957 -178.929)" fill="#57cc98"/>
              <path id="Trazado_69587" data-name="Trazado 69587" d="M152.688,188.62c1.789-1.037,3.24-.093,3.24,2.109v85.538a7.425,7.425,0,0,1-3.239,5.865c-1.789,1.037-3.239.093-3.239-2.109V194.485A7.425,7.425,0,0,1,152.688,188.62Z" transform="translate(-130.015 -176.979)" fill="#37474f"/>
              <path id="Trazado_69588" data-name="Trazado 69588" d="M153.1,280.764a3.7,3.7,0,0,0,1.62-2.929V192.058c0-1.1-.725-1.575-1.62-1.058a3.7,3.7,0,0,0-1.62,2.928v85.778C151.481,280.807,152.206,281.28,153.1,280.764Z" transform="translate(-130.426 -177.504)" fill="#263238"/>
              <path id="Trazado_69589" data-name="Trazado 69589" d="M153.1,286.046a3.7,3.7,0,0,0,1.62-2.929V216.859l-3.239,1.87v66.258C151.481,286.088,152.206,286.562,153.1,286.046Z" transform="translate(-130.426 -182.785)" fill="#57cc98"/>
              <path id="Trazado_69590" data-name="Trazado 69590" d="M164.875,181.585c1.789-1.037,3.239-.093,3.239,2.109v85.538a7.425,7.425,0,0,1-3.239,5.865c-1.789,1.037-3.239.093-3.239-2.109V187.449A7.422,7.422,0,0,1,164.875,181.585Z" transform="translate(-132.484 -175.554)" fill="#37474f"/>
              <path id="Trazado_69591" data-name="Trazado 69591" d="M165.286,273.729a3.7,3.7,0,0,0,1.62-2.928V185.023c0-1.1-.726-1.575-1.62-1.059a3.7,3.7,0,0,0-1.62,2.929V272.67C163.667,273.772,164.392,274.245,165.286,273.729Z" transform="translate(-132.895 -176.079)" fill="#263238"/>
              <path id="Trazado_69592" data-name="Trazado 69592" d="M165.286,292.166a3.7,3.7,0,0,0,1.62-2.928V274.76l-3.24,1.87v14.478C163.667,292.209,164.392,292.682,165.286,292.166Z" transform="translate(-132.895 -194.516)" fill="#57cc98"/>
              <path id="Trazado_69593" data-name="Trazado 69593" d="M177.061,174.549c1.789-1.037,3.239-.093,3.239,2.109V262.2a7.425,7.425,0,0,1-3.239,5.865c-1.789,1.037-3.239.093-3.239-2.109V180.414A7.425,7.425,0,0,1,177.061,174.549Z" transform="translate(-134.953 -174.128)" fill="#37474f"/>
              <path id="Trazado_69594" data-name="Trazado 69594" d="M177.473,266.694a3.7,3.7,0,0,0,1.62-2.929V177.987c0-1.1-.725-1.575-1.62-1.058a3.7,3.7,0,0,0-1.62,2.928v85.778C175.854,266.736,176.579,267.21,177.473,266.694Z" transform="translate(-135.364 -174.653)" fill="#263238"/>
              <path id="Trazado_69595" data-name="Trazado 69595" d="M177.473,277.439a3.7,3.7,0,0,0,1.62-2.929V229.758l-3.239,1.87v44.753C175.854,277.481,176.579,277.956,177.473,277.439Z" transform="translate(-135.364 -185.399)" fill="#57cc98"/>
            </g>
            <g id="Grupo_29215" data-name="Grupo 29215" transform="translate(59.924 150.567)">
              <path id="Trazado_69596" data-name="Trazado 69596" d="M126.459,326.826l42.585-24.587c.762-.44,1.381-.083,1.381.8v15.512a3.056,3.056,0,0,1-1.381,2.392l-42.585,24.586c-.763.44-1.381.083-1.381-.8V329.219A3.051,3.051,0,0,1,126.459,326.826Z" transform="translate(-125.078 -302.051)" fill="#37474f"/>
              <g id="Grupo_29213" data-name="Grupo 29213" transform="translate(3.131 5.681)">
                <path id="Trazado_69597" data-name="Trazado 69597" d="M129.005,332.869c0,1.033.773,1.423,1.727.873l35.63-20.578a3.7,3.7,0,0,0,1.726-2.867c0-1.033-.773-1.424-1.726-.873L130.731,330A3.7,3.7,0,0,0,129.005,332.869Z" transform="translate(-129.005 -309.175)" fill="#263238"/>
                <path id="Trazado_69598" data-name="Trazado 69598" d="M129.005,334.358c0,1.033.773,1.423,1.726.872l25.912-14.968v-3.74L130.731,331.49A3.7,3.7,0,0,0,129.005,334.358Z" transform="translate(-129.005 -310.663)" fill="#57cc98"/>
              </g>
              <g id="Grupo_29214" data-name="Grupo 29214" transform="translate(3.131 13.162)">
                <path id="Trazado_69599" data-name="Trazado 69599" d="M129.005,342.25c0,1.033.773,1.423,1.727.873l35.63-20.578a3.7,3.7,0,0,0,1.726-2.867c0-1.033-.773-1.423-1.726-.873l-35.632,20.578A3.7,3.7,0,0,0,129.005,342.25Z" transform="translate(-129.005 -318.556)" fill="#263238"/>
                <path id="Trazado_69600" data-name="Trazado 69600" d="M129.005,346.116c0,1.033.773,1.423,1.727.873l9.717-5.611v-3.74l-9.719,5.611A3.7,3.7,0,0,0,129.005,346.116Z" transform="translate(-129.005 -322.422)" fill="#57cc98"/>
              </g>
            </g>
            <path id="Trazado_69601" data-name="Trazado 69601" d="M158.588,143.44l-51.611-29.8a3.819,3.819,0,0,0-3.454,0l-51.611,29.8a1.052,1.052,0,0,0,0,1.994l51.613,29.8a3.817,3.817,0,0,0,3.453,0l51.61-29.8A1.052,1.052,0,0,0,158.588,143.44Z" transform="translate(-50.186 -113.229)" fill="url(#linear-gradient)"/>
          </g>
          <g id="Grupo_29217" data-name="Grupo 29217" transform="translate(12.955 3.663)">
            <path id="Trazado_69602" data-name="Trazado 69602" d="M107.25,169.041,67.213,145.926a2.291,2.291,0,0,1-1.036-1.794v-1.348a2.289,2.289,0,0,1,1.036-1.794l40.036-23.115a2.292,2.292,0,0,1,2.072,0l40.036,23.116a2.287,2.287,0,0,1,1.036,1.794v1.348a2.289,2.289,0,0,1-1.036,1.794l-40.036,23.115A2.291,2.291,0,0,1,107.25,169.041Z" transform="translate(-66.176 -117.627)" fill="#263238"/>
            <path id="Trazado_69603" data-name="Trazado 69603" d="M67.367,142.388,107.4,165.5a2.286,2.286,0,0,0,2.072,0l40.036-23.114a.631.631,0,0,0,0-1.2l-40.036-22.318a2.292,2.292,0,0,0-2.072,0L67.367,141.192A.631.631,0,0,0,67.367,142.388Z" transform="translate(-66.33 -117.829)" fill="url(#linear-gradient)"/>
            <path id="Trazado_69604" data-name="Trazado 69604" d="M108.287,171.516v3.74a2.1,2.1,0,0,1-1.037-.247L67.213,151.892a2.278,2.278,0,0,1-1.037-1.794v-1.348a2.3,2.3,0,0,1,.845-1.659c-.375.327-.311.773.191,1.061l40.038,23.117A2.1,2.1,0,0,0,108.287,171.516Z" transform="translate(-66.176 -123.596)" fill="#37474f"/>
          </g>
          <g id="Grupo_29220" data-name="Grupo 29220" transform="translate(25.912)">
            <path id="Trazado_69605" data-name="Trazado 69605" d="M110.541,156.889,83.461,141.255a2.29,2.29,0,0,1-1.036-1.794v-1.348a2.291,2.291,0,0,1,1.036-1.794l17.363-10.024a6.88,6.88,0,0,0,1.749-1.558l8.292-11.171a1.375,1.375,0,0,1,1.749-.362l27.081,15.634a2.29,2.29,0,0,1,1.036,1.794v8.829a2.29,2.29,0,0,1-1.036,1.794l-27.08,15.635A2.286,2.286,0,0,1,110.541,156.889Z" transform="translate(-82.425 -113.032)" fill="#263238"/>
            <path id="Trazado_69606" data-name="Trazado 69606" d="M112.767,153.149l17.363-10.024a6.074,6.074,0,0,0,.906-.673,6.2,6.2,0,0,0,.843-.886l8.292-11.17a1.041,1.041,0,0,0-.323-1.559L112.767,113.2a1.375,1.375,0,0,0-1.749.362l-8.292,11.171a6.529,6.529,0,0,1-1.605,1.621l-17.506,9.961a.631.631,0,0,0,0,1.2L110.7,153.149A2.291,2.291,0,0,0,112.767,153.149Z" transform="translate(-82.579 -113.032)" fill="#455a64"/>
            <path id="Trazado_69607" data-name="Trazado 69607" d="M144.6,128.837,117.517,113.2a1.375,1.375,0,0,0-1.749.362l-8.292,11.171a6.117,6.117,0,0,1-.848.882s29.147,16.839,29.155,16.832a6.21,6.21,0,0,0,.844-.884l8.292-11.17A1.042,1.042,0,0,0,144.6,128.837Z" transform="translate(-87.328 -113.032)" fill="#37474f"/>
            <g id="Grupo_29218" data-name="Grupo 29218" transform="translate(7.103 16.961)">
              <path id="Trazado_69608" data-name="Trazado 69608" d="M91.836,142.505a2.684,2.684,0,0,1,2.43,0,.74.74,0,0,1,0,1.4,2.684,2.684,0,0,1-2.43,0A.74.74,0,0,1,91.836,142.505Z" transform="translate(-91.333 -135.905)" fill="#57cc98"/>
              <path id="Trazado_69609" data-name="Trazado 69609" d="M97.929,146.023a2.682,2.682,0,0,1,2.429,0,.74.74,0,0,1,0,1.4,2.682,2.682,0,0,1-2.429,0A.74.74,0,0,1,97.929,146.023Z" transform="translate(-92.568 -136.618)" fill="#57cc98"/>
              <path id="Trazado_69610" data-name="Trazado 69610" d="M104.022,149.54a2.687,2.687,0,0,1,2.429,0,.74.74,0,0,1,0,1.4,2.683,2.683,0,0,1-2.429,0A.74.74,0,0,1,104.022,149.54Z" transform="translate(-93.802 -137.331)" fill="#263238"/>
              <path id="Trazado_69611" data-name="Trazado 69611" d="M110.115,153.058a2.682,2.682,0,0,1,2.429,0,.74.74,0,0,1,0,1.4,2.683,2.683,0,0,1-2.429,0A.74.74,0,0,1,110.115,153.058Z" transform="translate(-95.036 -138.043)" fill="#263238"/>
              <path id="Trazado_69612" data-name="Trazado 69612" d="M96.405,139.867a2.684,2.684,0,0,1,2.43,0,.74.74,0,0,1,0,1.4,2.684,2.684,0,0,1-2.43,0A.74.74,0,0,1,96.405,139.867Z" transform="translate(-92.259 -135.371)" fill="#57cc98"/>
              <ellipse id="Elipse_3376" data-name="Elipse 3376" cx="1.718" cy="0.992" rx="1.718" ry="0.992" transform="translate(8.502 7.011)" fill="#263238"/>
              <path id="Trazado_69613" data-name="Trazado 69613" d="M108.591,146.9a2.684,2.684,0,0,1,2.43,0,.74.74,0,0,1,0,1.4,2.684,2.684,0,0,1-2.43,0A.74.74,0,0,1,108.591,146.9Z" transform="translate(-94.728 -136.796)" fill="#57cc98"/>
              <ellipse id="Elipse_3377" data-name="Elipse 3377" cx="1.718" cy="0.992" rx="1.718" ry="0.992" transform="translate(18.219 12.621)" fill="#263238"/>
              <path id="Trazado_69614" data-name="Trazado 69614" d="M100.975,137.228a2.684,2.684,0,0,1,2.43,0,.74.74,0,0,1,0,1.4,2.684,2.684,0,0,1-2.43,0A.74.74,0,0,1,100.975,137.228Z" transform="translate(-93.185 -134.836)" fill="#263238"/>
              <path id="Trazado_69615" data-name="Trazado 69615" d="M107.068,140.746a2.684,2.684,0,0,1,2.43,0,.74.74,0,0,1,0,1.4,2.684,2.684,0,0,1-2.43,0A.74.74,0,0,1,107.068,140.746Z" transform="translate(-94.419 -135.549)" fill="#57cc98"/>
              <path id="Trazado_69616" data-name="Trazado 69616" d="M113.161,144.264a2.682,2.682,0,0,1,2.429,0,.74.74,0,0,1,0,1.4,2.682,2.682,0,0,1-2.429,0A.74.74,0,0,1,113.161,144.264Z" transform="translate(-95.654 -136.262)" fill="#263238"/>
              <path id="Trazado_69617" data-name="Trazado 69617" d="M116.242,156.505a2.687,2.687,0,0,1,2.429,0,.74.74,0,0,1,0,1.4,2.682,2.682,0,0,1-2.429,0A.74.74,0,0,1,116.242,156.505Z" transform="translate(-96.278 -138.742)" fill="#57cc98"/>
              <path id="Trazado_69618" data-name="Trazado 69618" d="M120.811,153.867a2.684,2.684,0,0,1,2.43,0,.74.74,0,0,1,0,1.4,2.684,2.684,0,0,1-2.43,0A.74.74,0,0,1,120.811,153.867Z" transform="translate(-97.203 -138.207)" fill="#263238"/>
              <path id="Trazado_69619" data-name="Trazado 69619" d="M119.254,147.784a2.682,2.682,0,0,1,2.429,0,.74.74,0,0,1,0,1.4,2.683,2.683,0,0,1-2.429,0A.74.74,0,0,1,119.254,147.784Z" transform="translate(-96.888 -136.975)" fill="#263238"/>
              <ellipse id="Elipse_3378" data-name="Elipse 3378" cx="1.718" cy="0.992" rx="1.718" ry="0.992" transform="translate(10.931)" fill="#57cc98"/>
              <path id="Trazado_69620" data-name="Trazado 69620" d="M111.637,138.11a2.689,2.689,0,0,1,2.43,0,.74.74,0,0,1,0,1.4,2.684,2.684,0,0,1-2.43,0A.74.74,0,0,1,111.637,138.11Z" transform="translate(-95.345 -135.015)" fill="#263238"/>
              <ellipse id="Elipse_3379" data-name="Elipse 3379" cx="1.718" cy="0.992" rx="1.718" ry="0.992" transform="translate(20.648 5.61)" fill="#57cc98"/>
              <path id="Trazado_69621" data-name="Trazado 69621" d="M123.823,145.146a2.684,2.684,0,0,1,2.43,0,.74.74,0,0,1,0,1.4,2.689,2.689,0,0,1-2.43,0A.74.74,0,0,1,123.823,145.146Z" transform="translate(-97.814 -136.44)" fill="#263238"/>
              <path id="Trazado_69622" data-name="Trazado 69622" d="M125.381,151.232a2.682,2.682,0,0,1,2.429,0,.74.74,0,0,1,0,1.4,2.682,2.682,0,0,1-2.429,0A.74.74,0,0,1,125.381,151.232Z" transform="translate(-98.129 -137.673)" fill="#57cc98"/>
              <ellipse id="Elipse_3380" data-name="Elipse 3380" cx="1.718" cy="0.992" rx="1.718" ry="0.992" transform="translate(30.392 11.164)" fill="#263238"/>
            </g>
            <path id="Trazado_69623" data-name="Trazado 69623" d="M111.635,159.347v3.732a2.141,2.141,0,0,1-1.092-.239L83.463,147.2a2.278,2.278,0,0,1-1.037-1.794v-1.348a2.3,2.3,0,0,1,.845-1.659c-.375.327-.311.773.191,1.061l27.08,15.637A2.145,2.145,0,0,0,111.635,159.347Z" transform="translate(-82.425 -118.983)" fill="#37474f"/>
            <g id="Grupo_29219" data-name="Grupo 29219" transform="translate(23.582 3.004)">
              <path id="Trazado_69624" data-name="Trazado 69624" d="M112.145,127.025l.025-.033a.914.914,0,0,1,1.164-.242L136.9,140.356a.692.692,0,0,1,.214,1.038l-.024.033a.919.919,0,0,1-1.167.241l-23.56-13.6A.7.7,0,0,1,112.145,127.025Z" transform="translate(-111.998 -118.792)" fill="#263238"/>
              <path id="Trazado_69625" data-name="Trazado 69625" d="M112.145,127.025l.025-.033a.914.914,0,0,1,1.164-.242l17.521,10.115-.978,1.312-17.515-10.112A.7.7,0,0,1,112.145,127.025Z" transform="translate(-111.998 -118.792)" fill="#57cc98"/>
              <path id="Trazado_69626" data-name="Trazado 69626" d="M114.589,123.746l.024-.033a.914.914,0,0,1,1.164-.242l23.566,13.606a.692.692,0,0,1,.215,1.038l-.025.033a.919.919,0,0,1-1.167.241l-23.56-13.6A.7.7,0,0,1,114.589,123.746Z" transform="translate(-112.493 -118.128)" fill="#263238"/>
              <path id="Trazado_69627" data-name="Trazado 69627" d="M114.589,123.746l.024-.033a.914.914,0,0,1,1.164-.242l5.858,3.38-.978,1.312-5.851-3.377A.7.7,0,0,1,114.589,123.746Z" transform="translate(-112.493 -118.128)" fill="#57cc98"/>
              <path id="Trazado_69628" data-name="Trazado 69628" d="M117.032,120.467l.024-.033a.914.914,0,0,1,1.164-.242L141.786,133.8a.693.693,0,0,1,.214,1.038l-.025.033a.919.919,0,0,1-1.167.241l-23.559-13.6A.7.7,0,0,1,117.032,120.467Z" transform="translate(-112.988 -117.463)" fill="#263238"/>
              <path id="Trazado_69629" data-name="Trazado 69629" d="M117.032,120.467l.024-.033a.915.915,0,0,1,1.165-.243l12.274,7.064-.978,1.312-12.268-7.061A.7.7,0,0,1,117.032,120.467Z" transform="translate(-112.988 -117.463)" fill="#57cc98"/>
              <path id="Trazado_69630" data-name="Trazado 69630" d="M119.475,117.188l.024-.033a.914.914,0,0,1,1.164-.242l23.566,13.606a.693.693,0,0,1,.214,1.038l-.025.033a.919.919,0,0,1-1.167.241l-23.559-13.6A.7.7,0,0,1,119.475,117.188Z" transform="translate(-113.483 -116.799)" fill="#263238"/>
              <path id="Trazado_69631" data-name="Trazado 69631" d="M119.475,117.188l.024-.033a.914.914,0,0,1,1.164-.242l21.392,12.35-.978,1.311-21.386-12.346A.7.7,0,0,1,119.475,117.188Z" transform="translate(-113.483 -116.799)" fill="#57cc98"/>
            </g>
          </g>
        </g>
      </g>
      <g id="Desk" transform="translate(208.046 171.629)">
        <g id="Desk-2" data-name="Desk" transform="translate(0 0)">
          <g id="Desk-3" data-name="Desk" transform="translate(0 29.211)">
            <g id="Grupo_29223" data-name="Grupo 29223" transform="translate(4.082 53.926)">
              <g id="Grupo_29221" data-name="Grupo 29221">
                <path id="Trazado_69632" data-name="Trazado 69632" d="M256.523,308.65v43.671a1.145,1.145,0,0,0,.518.9L298.9,377.357a1.147,1.147,0,0,0,1.037,0l1.393-.8a1.145,1.145,0,0,0,.518-.9V331.984a.6.6,0,0,0-.6-.6l-44.13-23.334A.6.6,0,0,0,256.523,308.65Z" transform="translate(-256.523 -308.052)" fill="#fafafa"/>
              </g>
              <g id="Grupo_29222" data-name="Grupo 29222" transform="translate(42.896 23.334)">
                <path id="Trazado_69633" data-name="Trazado 69633" d="M312.15,337.314h-1.234a.6.6,0,0,0-.6.6v45.074c0,.33.232.464.518.3l1.393-.8a1.145,1.145,0,0,0,.517-.9V337.912A.6.6,0,0,0,312.15,337.314Z" transform="translate(-310.318 -337.314)" fill="#f5f5f5"/>
              </g>
            </g>
            <g id="Grupo_29226" data-name="Grupo 29226" transform="translate(87.447 3.884)">
              <g id="Grupo_29224" data-name="Grupo 29224">
                <path id="Trazado_69634" data-name="Trazado 69634" d="M361.068,245.894v43.671a1.143,1.143,0,0,0,.518.9l43.514,25.1a1.145,1.145,0,0,0,1.036,0l1.393-.8a1.145,1.145,0,0,0,.518-.9V270.191a.6.6,0,0,0-.6-.6l-45.783-24.3A.6.6,0,0,0,361.068,245.894Z" transform="translate(-361.068 -245.296)" fill="#e0e0e0"/>
              </g>
              <g id="Grupo_29225" data-name="Grupo 29225" transform="translate(44.549 24.297)">
                <path id="Trazado_69635" data-name="Trazado 69635" d="M418.768,275.766h-1.234a.6.6,0,0,0-.6.6v45.074c0,.33.232.464.518.3l1.393-.8a1.145,1.145,0,0,0,.518-.9V276.364A.6.6,0,0,0,418.768,275.766Z" transform="translate(-416.936 -275.766)" fill="#ebebeb"/>
              </g>
            </g>
            <g id="Grupo_29230" data-name="Grupo 29230">
              <g id="Grupo_29227" data-name="Grupo 29227">
                <path id="Trazado_69636" data-name="Trazado 69636" d="M251.4,293.578v-.412a2.29,2.29,0,0,1,1.036-1.794l87.813-50.7a2.291,2.291,0,0,1,2.072,0l46.515,26.855a2.291,2.291,0,0,1,1.036,1.794v.413a2.29,2.29,0,0,1-1.036,1.794l-87.813,50.7a2.29,2.29,0,0,1-2.072,0L252.44,295.373A2.29,2.29,0,0,1,251.4,293.578Z" transform="translate(-251.404 -240.426)" fill="#f5f5f5"/>
              </g>
              <g id="Grupo_29228" data-name="Grupo 29228" transform="translate(0.001 51.083)">
                <path id="Trazado_69637" data-name="Trazado 69637" d="M299.991,332.651v2.807a2.188,2.188,0,0,1-1.037-.247l-46.513-26.857a2.29,2.29,0,0,1-1.037-1.794v-.415a2.288,2.288,0,0,1,.845-1.659c-.375.319-.311.766.191,1.061L298.954,332.4A2.1,2.1,0,0,0,299.991,332.651Z" transform="translate(-251.405 -304.487)" fill="#ebebeb"/>
              </g>
              <g id="Grupo_29229" data-name="Grupo 29229" transform="translate(0.607)">
                <path id="Trazado_69638" data-name="Trazado 69638" d="M252.594,292.568l46.515,26.855a2.29,2.29,0,0,0,2.072,0l87.813-50.7a.631.631,0,0,0,0-1.2l-46.515-26.855a2.291,2.291,0,0,0-2.072,0l-87.813,50.7A.631.631,0,0,0,252.594,292.568Z" transform="translate(-252.165 -240.426)" fill="#fafafa"/>
              </g>
              <path id="Trazado_69639" data-name="Trazado 69639" d="M346.63,278.386l26.3-15.213a1.882,1.882,0,0,1,1.7,0l8.326,4.863a.519.519,0,0,1,0,.982l-26.3,15.213a1.883,1.883,0,0,1-1.7,0l-8.326-4.863A.519.519,0,0,1,346.63,278.386Z" transform="translate(-270.625 -244.993)" fill="#ebebeb"/>
              <path id="Trazado_69640" data-name="Trazado 69640" d="M347.4,266.369l-.024-.013-2.786-1.612a.421.421,0,0,1,0-.8l21.852-12.619a.421.421,0,0,0,0-.8l-.222-.128a1.527,1.527,0,0,0-1.381,0L343.6,262.663c-.382.22-.735.239-.747.038a1.532,1.532,0,0,1,.022-.364l1.2-6.234a1.19,1.19,0,0,0-.541-1.179l-.219-.125a.534.534,0,0,0-.842.387l-1.389,7.239a2.423,2.423,0,0,0-.013.8,1.161,1.161,0,0,1-.474,1.164l-13.255,7.654a.421.421,0,0,0,0,.8l.226.13a1.522,1.522,0,0,0,1.381,0l12.668-7.315a3.025,3.025,0,0,1,.745-.36.406.406,0,0,0,.054.037l4.308,2.488a1.531,1.531,0,0,0,1.382,0c1.89-1.087,7.125-4.1,9.014-5.19.382-.22.507-.5.28-.63a1.465,1.465,0,0,0-1.13.115l-8.136,3.915A8.12,8.12,0,0,1,347.4,266.369Z" transform="translate(-266.732 -242.413)" fill="#ebebeb"/>
            </g>
          </g>
          <g id="Device" transform="translate(59.937)">
            <g id="Keyboard" transform="translate(15.964 45.173)">
              <path id="Trazado_69641" data-name="Trazado 69641" d="M374.58,260.647l7.877,4.548a1.6,1.6,0,0,1,0,2.826l-25.437,14.687a1.882,1.882,0,0,1-1.7,0l-7.877-4.548a1.6,1.6,0,0,1,0-2.825l25.437-14.687A1.877,1.877,0,0,1,374.58,260.647Z" transform="translate(-346.589 -260.443)" fill="#37474f"/>
              <path id="Trazado_69642" data-name="Trazado 69642" d="M356.168,286.574a1.739,1.739,0,0,1-.851-.2l-7.877-4.548a1.6,1.6,0,0,1,0-2.825l.818-.473h7.909Z" transform="translate(-346.589 -264.106)" fill="#263238"/>
              <path id="Trazado_69643" data-name="Trazado 69643" d="M347.56,275.333,373,260.647a1.882,1.882,0,0,1,1.7,0l7.878,4.548a.519.519,0,0,1,0,.982L357.14,280.864a1.882,1.882,0,0,1-1.7,0l-7.878-4.548A.519.519,0,0,1,347.56,275.333Z" transform="translate(-346.714 -260.443)" fill="#455a64"/>
              <path id="Trazado_69644" data-name="Trazado 69644" d="M371.126,267.645l.8-.462c.034-.02.032-.053,0-.073l-.927-.535a.141.141,0,0,0-.128,0l-.8.462c-.033.019-.032.053,0,.073l.927.535A.141.141,0,0,0,371.126,267.645Zm-1.58-1.837-.8.462c-.034.019-.032.053,0,.073l.926.535a.143.143,0,0,0,.128,0l.8-.462c.034-.02.032-.053,0-.073l-.926-.535A.141.141,0,0,0,369.546,265.808Zm-2.588,1.494-1.356.783c-.034.019-.032.053,0,.073l.926.535a.141.141,0,0,0,.128,0l1.356-.782c.034-.02.032-.053,0-.074l-.926-.534A.141.141,0,0,0,366.958,267.3Zm1.417-.818-.8.462c-.034.02-.032.053,0,.074l.926.534a.143.143,0,0,0,.128,0l.8-.462c.034-.02.032-.053,0-.074l-.926-.534A.141.141,0,0,0,368.375,266.483Zm-3.143,1.814-.8.462c-.034.02-.032.053,0,.074l.926.534a.141.141,0,0,0,.128,0l.8-.462c.034-.02.032-.053,0-.074l-.927-.534A.141.141,0,0,0,365.233,268.3Zm-1.171.676-.8.462c-.034.019-.032.053,0,.073l.927.535a.141.141,0,0,0,.128,0l.8-.463c.034-.019.032-.053,0-.073l-.927-.535A.141.141,0,0,0,364.062,268.974Zm3.643,2.174.8-.462c.034-.02.032-.053,0-.074l-.927-.534a.139.139,0,0,0-.128,0l-.8.462c-.034.02-.032.053,0,.074l.927.534A.141.141,0,0,0,367.705,271.148Zm-1.171.675.8-.463c.034-.019.032-.053,0-.073l-.926-.535a.141.141,0,0,0-.128,0l-.8.462c-.034.019-.032.053,0,.073l.926.535A.143.143,0,0,0,366.535,271.824Zm-1.171.676.8-.462c.034-.02.032-.053,0-.074l-.927-.534a.139.139,0,0,0-.128,0l-.8.462c-.034.02-.032.053,0,.074l.927.534A.141.141,0,0,0,365.364,272.5Zm-1.171.675.8-.462c.034-.019.032-.053,0-.073l-.926-.535a.141.141,0,0,0-.128,0l-.8.462c-.034.02-.032.053,0,.074l.927.534A.141.141,0,0,0,364.194,273.175Zm5.762-4.855.8-.462c.034-.02.032-.053,0-.074l-.927-.535a.144.144,0,0,0-.128,0l-.8.463c-.034.02-.032.053,0,.074l.927.534A.139.139,0,0,0,369.956,268.321Zm-1.08,2.151,1.786-1.031c.034-.02.033-.053,0-.074l-2.249-1.3a.144.144,0,0,0-.128,0l-.924.533c-.034.02-.032.053,0,.074l1.191.687c.037.021.038.054,0,.074l-.739.427c-.034.019-.032.053,0,.073l.927.535A.141.141,0,0,0,368.876,270.472Zm-5.985-.823-.8.462c-.034.02-.032.053,0,.074l.926.534a.141.141,0,0,0,.128,0l.8-.462c.034-.02.032-.053,0-.074l-.926-.534A.143.143,0,0,0,362.891,269.649Zm-1.171.676-.8.462c-.034.02-.032.053,0,.073l.926.535a.141.141,0,0,0,.128,0l.8-.462c.034-.019.032-.053,0-.073l-.927-.535A.141.141,0,0,0,361.721,270.325Zm-5.849,7.579a.141.141,0,0,0,.128,0l.8-.462c.034-.019.032-.053,0-.073l-.926-.535a.141.141,0,0,0-.128,0l-.8.462c-.033.02-.032.053,0,.073Zm-3.516-2.172-.8.462c-.034.02-.032.053,0,.074l.926.534a.141.141,0,0,0,.128,0l.8-.462c.033-.02.032-.053,0-.074l-.926-.534A.143.143,0,0,0,352.356,275.732Zm1.884,1.586a.141.141,0,0,0,.128,0l.8-.463c.034-.019.032-.053,0-.073l-.927-.535a.141.141,0,0,0-.128,0l-.8.462c-.034.02-.032.053,0,.073Zm3.7,1,.8-.462c.034-.02.032-.053,0-.073l-.926-.535a.141.141,0,0,0-.128,0l-.8.462c-.034.019-.032.053,0,.073l.926.535A.143.143,0,0,0,357.939,278.314Zm-1.3.673a.143.143,0,0,0,.128,0l.8-.463c.034-.02.032-.053,0-.074l-.926-.534a.141.141,0,0,0-.128,0l-.8.463c-.034.02-.032.053,0,.074Zm-3.113-3.931-.8.462c-.034.019-.032.053,0,.073l.926.535a.141.141,0,0,0,.128,0l.8-.462c.034-.02.032-.053,0-.073l-.927-.535A.141.141,0,0,0,353.527,275.056Zm5.853-3.379-.8.462c-.034.02-.032.053,0,.074l.926.534a.139.139,0,0,0,.128,0l.8-.462c.033-.019.032-.053,0-.073l-.927-.535A.141.141,0,0,0,359.38,271.677Zm-4.682,2.7-.8.462c-.034.02-.032.053,0,.074l.926.534a.141.141,0,0,0,.128,0l.8-.462c.033-.02.032-.053,0-.074l-.926-.534A.143.143,0,0,0,354.7,274.38ZM360.55,271l-.8.463c-.034.019-.032.053,0,.073l.926.535a.144.144,0,0,0,.128,0l.8-.463c.034-.02.032-.053,0-.074l-.926-.534A.143.143,0,0,0,360.55,271Zm-2.341,1.352-.8.462c-.034.019-.032.053,0,.073l.927.535a.141.141,0,0,0,.128,0l.8-.462c.034-.02.032-.053,0-.073l-.927-.535A.141.141,0,0,0,358.209,272.353Zm-1.171.675-.8.462c-.034.02-.032.053,0,.073l.926.535a.139.139,0,0,0,.128,0l.8-.462c.033-.02.032-.053,0-.074l-.926-.535A.145.145,0,0,0,357.038,273.028Zm-1.171.676-.8.462c-.034.019-.032.053,0,.073l.927.535a.141.141,0,0,0,.128,0l.8-.462c.034-.019.032-.053,0-.074l-.926-.534A.143.143,0,0,0,355.868,273.7Zm5.984.823.8-.462c.034-.02.032-.053,0-.074l-.927-.534a.141.141,0,0,0-.128,0l-.8.462c-.034.02-.032.053,0,.074l.927.534A.141.141,0,0,0,361.852,274.528Zm10.281-10.214-.8.462c-.034.02-.032.053,0,.074l.927.534a.139.139,0,0,0,.128,0l.8-.462c.034-.02.032-.053,0-.074l-.926-.535A.144.144,0,0,0,372.133,264.314Zm-1.417.818-.8.462c-.034.02-.032.053,0,.074l.926.534a.143.143,0,0,0,.128,0l.8-.462c.034-.02.032-.053,0-.074l-.926-.535A.144.144,0,0,0,370.716,265.132Zm2.588-1.494-.8.462c-.034.019-.032.053,0,.073l.926.535a.143.143,0,0,0,.128,0l.8-.462c.034-.02.032-.053,0-.073l-.926-.535A.141.141,0,0,0,373.3,263.638Zm-6.06,6.248.8-.463c.034-.019.032-.053,0-.073l-.926-.535a.143.143,0,0,0-.128,0l-.8.462c-.034.02-.032.053,0,.073l.926.535A.141.141,0,0,0,367.244,269.886Zm7.358-6.921a.141.141,0,0,0-.128,0l-.8.463c-.034.02-.032.053,0,.074l.927.534a.139.139,0,0,0,.128,0l.8-.463c.034-.019.032-.052,0-.073Zm-11.579,10.887.8-.463c.034-.02.032-.053,0-.074l-.926-.534a.141.141,0,0,0-.128,0l-.8.462c-.033.019-.032.053,0,.073l.926.535A.145.145,0,0,0,363.023,273.851Zm14.355-8.288.8-.462c.034-.019.032-.053,0-.073l-.927-.535a.141.141,0,0,0-.128,0l-.8.462c-.034.019-.032.053,0,.073l.927.535A.141.141,0,0,0,377.378,265.563Zm-2.493-.088.8-.462c.034-.02.032-.053,0-.074l-.927-.534a.139.139,0,0,0-.128,0l-.8.462c-.034.02-.033.053,0,.074l.927.535A.144.144,0,0,0,374.884,265.475Zm1.041-1.747a.141.141,0,0,0-.128,0l-.8.462c-.034.02-.033.053,0,.073l.927.535a.141.141,0,0,0,.128,0l.8-.463c.034-.019.032-.053,0-.073Zm.246-.142,2.25,1.3a.141.141,0,0,0,.128,0l.8-.462c.034-.02.033-.053,0-.074l-2.25-1.3a.139.139,0,0,0-.128,0l-.8.462C376.133,263.532,376.135,263.565,376.171,263.586Zm-2.715,1.491-.8.462c-.034.02-.033.053,0,.074l.927.534a.139.139,0,0,0,.128,0l.8-.462c.034-.02.033-.053,0-.074l-.927-.535A.144.144,0,0,0,373.456,265.078Zm-8.81,5.087-.8.462c-.034.02-.032.053,0,.073l.926.535a.139.139,0,0,0,.128,0l.8-.462c.034-.02.032-.053,0-.074l-.926-.535A.143.143,0,0,0,364.646,270.164Zm11.434-3.927a.144.144,0,0,0,.128,0l.8-.462c.034-.02.032-.053,0-.074l-.927-.534a.139.139,0,0,0-.128,0l-.8.462c-.034.019-.032.053,0,.073Zm-10.263,3.252-.8.462c-.034.02-.032.053,0,.074l.926.535a.144.144,0,0,0,.128,0l.8-.462c.033-.02.032-.053,0-.074l-.926-.534A.14.14,0,0,0,365.816,269.489Zm-8.775,7.739a.143.143,0,0,0,.128,0l.8-.462c.034-.02.032-.053,0-.074l-.926-.534a.141.141,0,0,0-.128,0l-.8.462c-.034.02-.032.053,0,.074Zm-1.761-1.656-.8.463c-.034.019-.032.053,0,.073l.926.535a.144.144,0,0,0,.128,0l.8-.462c.034-.02.032-.053,0-.074l-.926-.534A.141.141,0,0,0,355.281,275.571Zm3.06.983.8-.462c.034-.019.032-.053,0-.073l-.926-.535a.141.141,0,0,0-.128,0l-.8.462c-.033.019-.032.053,0,.073l.927.535A.141.141,0,0,0,358.341,276.555Zm1.171-.675.8-.463c.034-.02.032-.053,0-.074l-.927-.534a.141.141,0,0,0-.128,0l-.8.463c-.033.02-.032.053,0,.074l.927.534A.141.141,0,0,0,359.511,275.879Zm1.171-.676.8-.462c.034-.02.032-.053,0-.073l-.927-.535a.141.141,0,0,0-.128,0l-.8.462c-.033.019-.032.053,0,.073l.926.535A.143.143,0,0,0,360.682,275.2Zm-4.23-.308-.8.462c-.034.019-.032.053,0,.073l.927.535a.141.141,0,0,0,.128,0l.8-.462c.034-.019.032-.053,0-.073l-.926-.535A.143.143,0,0,0,356.452,274.9Zm1.171-.676-.8.462c-.034.02-.032.053,0,.074l.926.534a.141.141,0,0,0,.128,0l.8-.462c.034-.02.032-.053,0-.074l-.927-.534A.141.141,0,0,0,357.622,274.219Zm4.682-2.7-.8.462c-.034.02-.032.053,0,.074l.926.534a.139.139,0,0,0,.128,0l.8-.462c.033-.02.032-.053,0-.074l-.927-.534A.139.139,0,0,0,362.3,271.516Zm-1.171.676-.8.462c-.034.019-.032.053,0,.073l.926.535a.141.141,0,0,0,.128,0l.8-.462c.033-.02.032-.053,0-.073l-.926-.535A.143.143,0,0,0,361.134,272.192Zm2.341-1.352-.8.462c-.034.019-.032.053,0,.073l.926.535a.141.141,0,0,0,.128,0l.8-.463c.033-.02.032-.053,0-.073l-.926-.535A.143.143,0,0,0,363.475,270.84Zm-4.682,2.7-.8.463c-.034.019-.032.053,0,.073l.926.535a.141.141,0,0,0,.128,0l.8-.462c.034-.02.032-.053,0-.073l-.926-.535A.143.143,0,0,0,358.793,273.544Zm1.171-.676-.8.462c-.034.02-.032.053,0,.074l.926.534a.142.142,0,0,0,.128,0l.8-.463c.034-.02.032-.053,0-.074l-.927-.534A.141.141,0,0,0,359.963,272.867Zm-.855,4.772.8-.462c.034-.02.032-.053,0-.074l-.926-.534a.141.141,0,0,0-.128,0l-.8.462c-.034.02-.032.053,0,.074l.926.534A.141.141,0,0,0,359.109,277.639Zm-6.869-.694-.927-.535a.141.141,0,0,0-.128,0l-.8.463c-.034.019-.032.053,0,.073l.926.535a.141.141,0,0,0,.128,0l.8-.463C352.278,277,352.276,276.966,352.24,276.945Zm1.754.515-.926-.535a.14.14,0,0,0-.128,0l-1.232.711c-.034.019-.032.053,0,.073l.926.535a.141.141,0,0,0,.128,0l1.233-.711C354.032,277.514,354.031,277.481,353.994,277.46Zm-3.175-1.549-.926-.534a.14.14,0,0,0-.128,0l-.986.569c-.034.02-.032.053,0,.074l.926.534a.141.141,0,0,0,.128,0l.986-.569C350.857,275.965,350.855,275.933,350.819,275.911Zm.756-.436a.141.141,0,0,0,.128,0l.8-.463c.034-.02.033-.053,0-.074l-.927-.534a.141.141,0,0,0-.128,0l-.8.463c-.034.02-.032.053,0,.074Zm4.05,2.571-.926-.534a.139.139,0,0,0-.128,0l-1.541.889c-.034.019-.032.053,0,.073l.926.535a.141.141,0,0,0,.128,0l1.541-.889C355.664,278.1,355.661,278.067,355.625,278.046Zm.769,1.084-.926-.535a.141.141,0,0,0-.128,0l-.986.569c-.034.019-.032.053,0,.073l.926.535a.143.143,0,0,0,.128,0l.986-.569C356.432,279.184,356.43,279.151,356.393,279.13Zm3.885-8.68a.141.141,0,0,0,.128,0l.8-.463c.034-.02.032-.053,0-.073l-.926-.535a.139.139,0,0,0-.128,0l-.8.462c-.034.02-.032.053,0,.074Zm-2.341,1.352a.144.144,0,0,0,.128,0l.8-.462c.034-.02.032-.053,0-.074l-.926-.534a.139.139,0,0,0-.128,0l-.8.462c-.034.019-.032.053,0,.073Zm-5.192,3a.141.141,0,0,0,.128,0l.8-.462c.034-.02.033-.053,0-.074l-.927-.534a.139.139,0,0,0-.128,0l-.8.462c-.034.019-.033.053,0,.073Zm6.362-3.674a.141.141,0,0,0,.128,0l.8-.462c.034-.02.032-.053,0-.074l-.926-.535a.144.144,0,0,0-.128,0l-.8.462c-.034.02-.032.053,0,.074Zm-2.341,1.352a.14.14,0,0,0,.128,0l.8-.462c.034-.02.032-.053,0-.074l-.926-.534a.142.142,0,0,0-.128,0l-.8.463c-.033.02-.032.053,0,.074Zm.271,6.74a.141.141,0,0,0-.128,0l-1.232.712c-.034.019-.032.053,0,.073l.927.535a.141.141,0,0,0,.128,0l1.232-.711c.034-.02.032-.053,0-.074Zm-1.95-5.77a.141.141,0,0,0,.128,0l.8-.462c.034-.02.032-.053,0-.074l-.927-.534a.139.139,0,0,0-.128,0l-.8.462c-.034.02-.033.053,0,.074Zm-1.171.676a.141.141,0,0,0,.128,0l.8-.462c.034-.019.033-.053,0-.073l-.927-.535a.144.144,0,0,0-.128,0l-.8.462c-.034.02-.032.053,0,.073Zm24.808-7.427a.143.143,0,0,0-.128,0l-1.971,1.139c-.034.019-.032.053,0,.073l.926.535a.141.141,0,0,0,.128,0l1.972-1.138c.034-.02.032-.053,0-.074Zm-2.588,1.494a.141.141,0,0,0-.128,0l-.8.462c-.034.019-.032.053,0,.073l.926.535a.141.141,0,0,0,.128,0l.8-.462c.034-.019.032-.053,0-.073Zm-15.856,8.773.8-.463c.034-.02.032-.053,0-.074l-.926-.534a.141.141,0,0,0-.128,0l-.8.462c-.034.019-.032.053,0,.073l.926.535A.143.143,0,0,0,360.28,276.963Zm13.515-7.421a.143.143,0,0,0-.128,0l-.8.462c-.034.02-.032.053,0,.074l.926.534a.141.141,0,0,0,.128,0l.8-.462c.034-.019.032-.053,0-.073Zm6.1-3.521a.141.141,0,0,0-.128,0l-.8.462c-.034.019-.032.053,0,.073l.926.535a.141.141,0,0,0,.128,0l.8-.462c.034-.02.032-.053,0-.073Zm2.1-.141-2.249-1.3a.141.141,0,0,0-.128,0l-.8.462c-.034.02-.032.053,0,.074l2.249,1.3a.141.141,0,0,0,.128,0l.8-.462C382.03,265.933,382.027,265.9,381.991,265.879Zm-12.57,6.189a.141.141,0,0,0-.128,0l-.986.569c-.034.019-.033.053,0,.074l.927.534a.141.141,0,0,0,.128,0l.986-.569c.034-.02.032-.053,0-.074Zm2.958-1.708a.143.143,0,0,0-.128,0l-1.232.711c-.034.02-.032.053,0,.074l.926.534a.143.143,0,0,0,.128,0l1.232-.712c.034-.019.032-.053,0-.073Zm-5.668,3.273a.143.143,0,0,0-.128,0l-6.592,3.806c-.034.02-.032.053,0,.073l.926.535a.139.139,0,0,0,.128,0l6.593-3.806c.033-.019.032-.053,0-.073Zm-6.962,4.02a.14.14,0,0,0-.128,0l-.986.569c-.034.02-.032.053,0,.074l.926.534a.141.141,0,0,0,.128,0l.986-.569c.034-.02.032-.053,0-.073Zm8.317-4.8a.139.139,0,0,0-.128,0l-.986.569c-.034.02-.032.053,0,.074l.927.534a.142.142,0,0,0,.128,0l.986-.569c.034-.02.032-.053,0-.073Zm-9.672,5.584a.141.141,0,0,0-.128,0l-.986.569c-.033.019-.032.053,0,.073l.927.535a.141.141,0,0,0,.128,0l.986-.569c.034-.019.032-.053,0-.073Zm12.384-7.15a.141.141,0,0,0-.128,0l-.986.569c-.034.019-.032.053,0,.073l.926.535a.143.143,0,0,0,.128,0l.986-.569c.034-.019.032-.053,0-.073Zm4.19-2.419a.141.141,0,0,0-.128,0l-.8.462c-.034.02-.032.053,0,.074l.926.534a.141.141,0,0,0,.128,0l.8-.462c.034-.02.032-.053,0-.074ZM377.53,267l.8-.462c.033-.02.032-.053,0-.074l-.926-.534a.14.14,0,0,0-.128,0l-.8.462c-.034.02-.032.053,0,.074l.926.534A.141.141,0,0,0,377.53,267Zm-5.233-.034.8-.462c.034-.02.032-.053,0-.074l-.927-.534a.139.139,0,0,0-.128,0l-.8.462c-.034.02-.033.053,0,.074l.927.534A.139.139,0,0,0,372.3,266.969Zm-2.652,4.587,2.341-1.352c.034-.019.032-.053,0-.073l-.927-.535a.141.141,0,0,0-.128,0l-2.341,1.352c-.033.02-.032.053,0,.074l.926.534A.143.143,0,0,0,369.645,271.556Zm6.587-3.88a.141.141,0,0,0,.128,0l.8-.463c.034-.019.032-.053,0-.073l-.926-.535a.143.143,0,0,0-.128,0l-.8.462c-.034.02-.032.053,0,.073Zm-1.2-.762.8-.462c.034-.019.032-.053,0-.073l-.927-.535a.141.141,0,0,0-.128,0l-.8.463c-.034.02-.033.053,0,.073l.927.535A.139.139,0,0,0,375.037,266.915Zm-6.563,5.317.8-.462c.034-.02.032-.053,0-.073l-.926-.535a.141.141,0,0,0-.128,0l-.8.462c-.034.019-.032.053,0,.073l.926.535A.143.143,0,0,0,368.474,272.232Zm5.17-3.061a.141.141,0,0,0,.128,0l.8-.462c.033-.02.032-.053,0-.074l-.926-.534a.14.14,0,0,0-.128,0l-.8.462c-.034.02-.032.053,0,.074Zm-11.023,6.441.8-.462c.034-.02.032-.053,0-.073l-.926-.535a.139.139,0,0,0-.128,0l-.8.462c-.034.019-.032.052,0,.073l.926.535A.143.143,0,0,0,362.621,275.611Zm1.171-.676.8-.463c.034-.019.032-.053,0-.073l-.926-.535a.141.141,0,0,0-.128,0l-.8.462c-.033.019-.032.053,0,.073l.926.535A.143.143,0,0,0,363.792,274.935Zm-2.341,1.352.8-.462c.034-.019.032-.053,0-.073l-.926-.535a.144.144,0,0,0-.128,0l-.8.462c-.034.02-.032.053,0,.074l.926.534A.143.143,0,0,0,361.45,276.287Zm4.682-2.7.8-.462c.034-.019.032-.053,0-.073l-.926-.535a.141.141,0,0,0-.128,0l-.8.463c-.033.019-.032.053,0,.073l.926.535A.143.143,0,0,0,366.133,273.583Zm-1.171.676.8-.462c.034-.02.032-.053,0-.074l-.926-.534a.139.139,0,0,0-.128,0l-.8.462c-.034.02-.032.053,0,.074l.926.535A.144.144,0,0,0,364.961,274.26Zm2.341-1.352.8-.462c.034-.02.032-.053,0-.074l-.926-.534a.141.141,0,0,0-.128,0l-.8.462c-.033.02-.032.053,0,.074l.926.534A.141.141,0,0,0,367.3,272.908Zm5.356-10a.141.141,0,0,0,.128,0l.8-.462c.034-.02.032-.053,0-.074l-.247-.142a.139.139,0,0,0-.128,0l-.8.462c-.034.019-.032.052,0,.073Zm-5.76,3.718a.141.141,0,0,0,.128,0l.8-.463c.034-.02.032-.053,0-.073l-.927-.535a.141.141,0,0,0-.128,0l-.8.463c-.034.019-.033.053,0,.073Zm2.341-1.352a.144.144,0,0,0,.128,0l.8-.462c.034-.02.032-.053,0-.074l-.927-.534a.139.139,0,0,0-.128,0l-.8.462c-.034.019-.033.053,0,.073Zm-3.771,2.177a.141.141,0,0,0,.128,0l.8-.462c.034-.02.032-.053,0-.074l-.926-.534a.139.139,0,0,0-.128,0l-.8.462c-.034.02-.032.053,0,.074Zm2.6-1.5a.139.139,0,0,0,.128,0l.8-.462c.034-.02.033-.053,0-.074l-.927-.534a.139.139,0,0,0-.128,0l-.8.462c-.034.02-.033.053,0,.074Zm-4.941,2.853a.141.141,0,0,0,.128,0l.8-.463c.034-.02.032-.053,0-.074l-.926-.534a.141.141,0,0,0-.128,0l-.8.462c-.034.019-.032.053,0,.073Zm1.171-.676a.139.139,0,0,0,.128,0l.8-.462c.034-.02.032-.053,0-.074l-.926-.535a.144.144,0,0,0-.128,0l-.8.462c-.034.02-.032.053,0,.074Zm6.019-3.867a.144.144,0,0,0,.128,0l.8-.462c.034-.02.032-.053,0-.074l-.247-.142a.139.139,0,0,0-.128,0l-.8.462c-.034.019-.032.053,0,.073Zm3.512-2.028a.141.141,0,0,0,.128,0l.8-.462c.034-.019.032-.053,0-.073l-.247-.143a.141.141,0,0,0-.128,0l-.8.462c-.034.019-.032.053,0,.073Zm1.945,1.124a.145.145,0,0,0,.128,0l.8-.462c.034-.02.032-.053,0-.074l-.927-.534a.139.139,0,0,0-.128,0l-.8.462c-.034.019-.032.053,0,.073Zm2.926,2.97.8-.462c.033-.019.032-.053,0-.073l-.926-.535a.143.143,0,0,0-.128,0l-.8.462c-.034.019-.032.053,0,.073l.926.535A.141.141,0,0,0,378.7,266.327Zm-7.212-2.741a.141.141,0,0,0,.128,0l.8-.462c.034-.019.032-.053,0-.073l-.247-.143a.141.141,0,0,0-.128,0l-.8.463c-.034.02-.032.053,0,.073Zm-9.531,5.894a.141.141,0,0,0,.128,0l.8-.462c.034-.02.032-.053,0-.074l-.926-.534a.143.143,0,0,0-.128,0l-.8.462c-.034.02-.032.053,0,.074Z" transform="translate(-347.028 -260.666)" fill="#57cc98"/>
            </g>
            <g id="Computer">
              <g id="Grupo_29231" data-name="Grupo 29231" transform="translate(14.381 34.746)">
                <path id="Trazado_69645" data-name="Trazado 69645" d="M361,259.351l-9.57,5.528-.048-.025-3.612-2.089a1.963,1.963,0,0,1-.885-1.93l1.356-7.017,7.974-6.451,1.595.925-1.348,7.017a1.957,1.957,0,0,0,.877,1.93Z" transform="translate(-345.061 -247.367)" fill="#455a64"/>
                <path id="Trazado_69646" data-name="Trazado 69646" d="M350.976,266.285v1.841l-5-2.887a2.94,2.94,0,0,1-1.332-2.911l1.539-8.022,1.6.917-1.356,7.017a1.963,1.963,0,0,0,.885,1.93l3.612,2.089Z" transform="translate(-344.604 -248.773)" fill="#263238"/>
                <path id="Trazado_69647" data-name="Trazado 69647" d="M362.166,262.4l-9.57,5.528v1.845l9.572-5.53Z" transform="translate(-346.223 -250.412)" fill="#37474f"/>
              </g>
              <g id="Grupo_29232" data-name="Grupo 29232">
                <path id="Trazado_69648" data-name="Trazado 69648" d="M365.682,203.976a1.827,1.827,0,0,1,.8,1.443v29.373a1.878,1.878,0,0,1-.851,1.474L329.016,257.4a1.6,1.6,0,0,1-2.447-1.413V226.619a1.883,1.883,0,0,1,.851-1.474l36.613-21.138A1.827,1.827,0,0,1,365.682,203.976Z" transform="translate(-326.569 -203.793)" fill="#455a64"/>
                <path id="Trazado_69649" data-name="Trazado 69649" d="M329.016,262.99a1.6,1.6,0,0,1-2.447-1.413V232.2a1.741,1.741,0,0,1,.25-.839l28.486,16.446Z" transform="translate(-326.569 -209.38)" fill="#263238"/>
                <path id="Trazado_69650" data-name="Trazado 69650" d="M366.885,235.051V205.678c0-.542-.381-.762-.851-.491l-36.613,21.138a1.88,1.88,0,0,0-.852,1.474v29.372c0,.543.381.763.851.491l36.613-21.138A1.878,1.878,0,0,0,366.885,235.051Z" transform="translate(-326.975 -204.052)" fill="#37474f"/>
                <path id="Trazado_69651" data-name="Trazado 69651" d="M365,207.25l-34.751,20.056a1.5,1.5,0,0,0-.681,1.179v26.079c0,.434.3.61.68.393L365,234.9a1.505,1.505,0,0,0,.681-1.179V207.644C365.685,207.209,365.38,207.033,365,207.25Z" transform="translate(-327.177 -204.475)" fill="#fff"/>
              </g>
            </g>
          </g>
          <g id="Box" transform="translate(27.527 61.466)">
            <path id="Trazado_69652" data-name="Trazado 69652" d="M307.579,317.324l-20.61-11.891a2.287,2.287,0,0,1-1.037-1.793l0-12.57a2.289,2.289,0,0,1,1.036-1.793l14.127-8.153a2.29,2.29,0,0,1,2.072,0l20.6,11.892a2.289,2.289,0,0,1,1.037,1.794l.007,12.569a2.286,2.286,0,0,1-1.035,1.794l-14.12,8.153A2.291,2.291,0,0,1,307.579,317.324Z" transform="translate(-285.926 -280.875)" fill="#263238"/>
            <path id="Trazado_69653" data-name="Trazado 69653" d="M309.8,302.365l14.118-8.154a.631.631,0,0,0,0-1.2l-20.6-11.892a2.29,2.29,0,0,0-2.072,0l-14.127,8.153a.631.631,0,0,0,0,1.2l20.607,11.893A2.288,2.288,0,0,0,309.8,302.365Z" transform="translate(-286.08 -280.875)" fill="#455a64"/>
            <path id="Trazado_69654" data-name="Trazado 69654" d="M308.611,304.8v14.959a2.188,2.188,0,0,1-1.037-.247l-20.6-11.889a2.29,2.29,0,0,1-1.037-1.794l-.008-12.575a2.319,2.319,0,0,1,.788-1.589c-.291.321-.213.725.249.991l20.613,11.9A2.165,2.165,0,0,0,308.611,304.8Z" transform="translate(-285.925 -283.061)" fill="#37474f"/>
            <g id="Grupo_29234" data-name="Grupo 29234" transform="translate(5.929 3.064)">
              <path id="Trazado_69655" data-name="Trazado 69655" d="M293.632,292.323a1.487,1.487,0,0,1,1.36,0l14.815,8.553c.381.22.391.575.021.793a1.493,1.493,0,0,1-1.361,0l-14.814-8.554C293.272,292.9,293.262,292.54,293.632,292.323Z" transform="translate(-293.361 -286.225)" fill="#37474f"/>
              <path id="Trazado_69656" data-name="Trazado 69656" d="M293.632,292.323a1.489,1.489,0,0,1,1.36,0l9.019,5.208-1.34.789-9.019-5.208C293.272,292.9,293.262,292.54,293.632,292.323Z" transform="translate(-293.361 -286.225)" fill="#57cc98"/>
              <path id="Trazado_69657" data-name="Trazado 69657" d="M296.854,290.462a1.491,1.491,0,0,1,1.36,0l14.815,8.553c.381.22.391.576.021.793a1.491,1.491,0,0,1-1.361,0l-14.814-8.553C296.494,291.035,296.484,290.68,296.854,290.462Z" transform="translate(-294.013 -285.849)" fill="#37474f"/>
              <path id="Trazado_69658" data-name="Trazado 69658" d="M296.854,290.462a1.493,1.493,0,0,1,1.361,0l1.209.7-1.34.789-1.208-.7C296.494,291.034,296.484,290.679,296.854,290.462Z" transform="translate(-294.013 -285.848)" fill="#57cc98"/>
              <path id="Trazado_69659" data-name="Trazado 69659" d="M300.076,288.6a1.491,1.491,0,0,1,1.36,0l14.815,8.553c.381.22.391.575.021.793a1.493,1.493,0,0,1-1.361,0L300.1,289.394C299.716,289.174,299.706,288.819,300.076,288.6Z" transform="translate(-294.666 -285.472)" fill="#37474f"/>
              <path id="Trazado_69660" data-name="Trazado 69660" d="M300.076,288.6a1.491,1.491,0,0,1,1.36,0l5.238,3.024-1.34.789-5.238-3.025C299.716,289.174,299.706,288.819,300.076,288.6Z" transform="translate(-294.666 -285.472)" fill="#57cc98"/>
              <g id="Grupo_29233" data-name="Grupo 29233" transform="translate(7.709)">
                <path id="Trazado_69661" data-name="Trazado 69661" d="M303.3,286.741a1.491,1.491,0,0,1,1.36,0l14.814,8.553c.381.22.391.576.021.793a1.491,1.491,0,0,1-1.36,0l-14.814-8.553C302.939,287.314,302.93,286.958,303.3,286.741Z" transform="translate(-303.028 -285.095)" fill="#37474f"/>
                <path id="Trazado_69662" data-name="Trazado 69662" d="M303.3,286.741a1.491,1.491,0,0,1,1.36,0l10.609,6.125-1.34.789-10.609-6.125C302.939,287.314,302.93,286.958,303.3,286.741Z" transform="translate(-303.028 -285.095)" fill="#57cc98"/>
                <path id="Trazado_69663" data-name="Trazado 69663" d="M306.521,284.88a1.491,1.491,0,0,1,1.36,0l14.815,8.554c.381.22.391.575.021.793a1.491,1.491,0,0,1-1.361,0l-14.814-8.553C306.161,285.453,306.152,285.1,306.521,284.88Z" transform="translate(-303.681 -284.718)" fill="#37474f"/>
                <path id="Trazado_69664" data-name="Trazado 69664" d="M306.521,284.88a1.493,1.493,0,0,1,1.361,0l13.344,7.7-1.34.789-13.343-7.7C306.161,285.453,306.152,285.1,306.521,284.88Z" transform="translate(-303.681 -284.718)" fill="#57cc98"/>
              </g>
            </g>
            <g id="Grupo_29237" data-name="Grupo 29237" transform="translate(24.302 26.593)">
              <g id="Grupo_29235" data-name="Grupo 29235" transform="translate(0 1.467)">
                <path id="Trazado_69665" data-name="Trazado 69665" d="M316.4,320.364v-2.547a2.075,2.075,0,0,1,.81-1.664c.447-.258.809.069.809.729v2.547a2.072,2.072,0,0,1-.809,1.663C316.764,321.35,316.4,321.024,316.4,320.364Z" transform="translate(-316.401 -316.064)" fill="#37474f"/>
                <path id="Trazado_69666" data-name="Trazado 69666" d="M317.329,316.637a1.185,1.185,0,0,0-.537.93c0,.342.241.481.537.309a1.185,1.185,0,0,0,.537-.93C317.866,316.6,317.625,316.466,317.329,316.637Z" transform="translate(-316.48 -316.166)" fill="#57cc98"/>
              </g>
              <g id="Grupo_29236" data-name="Grupo 29236" transform="translate(2.556)">
                <path id="Trazado_69667" data-name="Trazado 69667" d="M319.607,318.524v-2.547a2.076,2.076,0,0,1,.809-1.663c.447-.258.81.068.81.729v2.547a2.074,2.074,0,0,1-.81,1.663C319.97,319.511,319.607,319.185,319.607,318.524Z" transform="translate(-319.607 -314.225)" fill="#37474f"/>
                <path id="Trazado_69668" data-name="Trazado 69668" d="M320.486,318.476a1.189,1.189,0,0,0-.537.93c0,.342.241.481.537.31a1.187,1.187,0,0,0,.537-.93C321.023,318.445,320.782,318.306,320.486,318.476Z" transform="translate(-319.676 -315.072)" fill="#57cc98"/>
              </g>
            </g>
          </g>
        </g>
      </g>
      <g id="Character" transform="translate(275.574 208.247)">
        <g id="Grupo_29277" data-name="Grupo 29277" transform="translate(0 0)">
          <g id="Legs" transform="translate(0 54.611)">
            <g id="Grupo_29241" data-name="Grupo 29241" transform="translate(13.26)">
              <g id="Grupo_29238" data-name="Grupo 29238" transform="translate(0 29.317)">
                <path id="Trazado_69669" data-name="Trazado 69669" d="M374.053,358.24a10.874,10.874,0,0,1,.666,2.589,5.756,5.756,0,0,1,.206,2.847,5.671,5.671,0,0,1-3.215,2.513,7.2,7.2,0,0,1-5.67-1.1c-1.974-1.179-3.463-2.615-6.274-3.414a14.281,14.281,0,0,1-5.548-2.517c-1.559-1.252-2.564-3.125.417-3.925,3.006-.807,8.391.441,14.288.7Z" transform="translate(-352.718 -354.967)" fill="#263238"/>
              </g>
              <g id="Grupo_29239" data-name="Grupo 29239" transform="translate(14.868 28.904)">
                <path id="Trazado_69670" data-name="Trazado 69670" d="M377.831,354.448v4.418s-.607,1.469-3.126,1.562a3.8,3.8,0,0,1-3.342-1.6v-4.38Z" transform="translate(-371.363 -354.448)" fill="#ffa8a7"/>
              </g>
              <g id="Grupo_29240" data-name="Grupo 29240" transform="translate(12.897)">
                <path id="Trazado_69671" data-name="Trazado 69671" d="M368.892,318.2c-.031,5.5,1.544,30.84,1.544,30.84s2.247,2.844,7.13,0l1.657-28.122Z" transform="translate(-368.891 -318.201)" fill="#37474f"/>
              </g>
            </g>
            <g id="Grupo_29245" data-name="Grupo 29245" transform="translate(0 8.639)">
              <g id="Grupo_29242" data-name="Grupo 29242" transform="translate(0 29.317)">
                <path id="Trazado_69672" data-name="Trazado 69672" d="M357.424,369.073a10.875,10.875,0,0,1,.666,2.589,5.745,5.745,0,0,1,.206,2.847,5.664,5.664,0,0,1-3.215,2.513,7.2,7.2,0,0,1-5.67-1.1c-1.974-1.18-3.463-2.615-6.273-3.414a14.284,14.284,0,0,1-5.548-2.518c-1.559-1.251-2.564-3.124.418-3.924,3.005-.807,8.39.44,14.288.7Z" transform="translate(-336.089 -365.801)" fill="#263238"/>
              </g>
              <g id="Grupo_29243" data-name="Grupo 29243" transform="translate(14.868 28.903)">
                <path id="Trazado_69673" data-name="Trazado 69673" d="M361.2,365.281V369.7s-.607,1.469-3.126,1.563a3.8,3.8,0,0,1-3.342-1.6v-4.38Z" transform="translate(-354.734 -365.281)" fill="#ffa8a7"/>
              </g>
              <g id="Grupo_29244" data-name="Grupo 29244" transform="translate(12.898)">
                <path id="Trazado_69674" data-name="Trazado 69674" d="M352.264,329.035c-.032,5.5,1.543,30.839,1.543,30.839s2.247,2.844,7.13,0l1.657-28.121Z" transform="translate(-352.263 -329.035)" fill="#37474f"/>
              </g>
            </g>
          </g>
          <g id="Chair" transform="translate(20.627 54.713)">
            <g id="Grupo_29259" data-name="Grupo 29259">
              <g id="Grupo_29258" data-name="Grupo 29258">
                <g id="Grupo_29256" data-name="Grupo 29256" transform="translate(7.646 15.505)">
                  <g id="Grupo_29255" data-name="Grupo 29255" transform="translate(0 20.529)">
                    <g id="Grupo_29246" data-name="Grupo 29246" transform="translate(0 19.281)">
                      <path id="Trazado_69675" data-name="Trazado 69675" d="M373.692,393.328a2.928,2.928,0,0,0,.066.616,1.42,1.42,0,0,0,.557.862l.02.014a1.629,1.629,0,0,0,1.711-.132,5.2,5.2,0,0,0,2.354-4.079,1.668,1.668,0,0,0-.663-1.492l.006-.007-.112-.066h-.007a1.458,1.458,0,0,0-1-.04,2.721,2.721,0,0,0-.577.252A5.2,5.2,0,0,0,373.692,393.328Z" transform="translate(-371.981 -387.949)" fill="#455a64"/>
                      <path id="Trazado_69676" data-name="Trazado 69676" d="M373.9,388.017a2.155,2.155,0,0,1,1.048-.318,1.245,1.245,0,0,1,.663.186l.06.033,1.518.875a1.458,1.458,0,0,0-1-.04,2.723,2.723,0,0,0-.577.252,5.2,5.2,0,0,0-2.354,4.072,2.928,2.928,0,0,0,.066.616,1.42,1.42,0,0,0,.557.862l-1.558-.9-.026-.013-.133-.08a.144.144,0,0,1-.039-.027,1.731,1.731,0,0,1-.577-1.446A5.2,5.2,0,0,1,373.9,388.017Z" transform="translate(-371.546 -387.699)" fill="#263238"/>
                    </g>
                    <g id="Grupo_29247" data-name="Grupo 29247" transform="translate(25.468 5.587)">
                      <path id="Trazado_69677" data-name="Trazado 69677" d="M405.63,376.153a2.979,2.979,0,0,0,.066.617,1.425,1.425,0,0,0,.557.862l.02.014a1.627,1.627,0,0,0,1.711-.133,5.2,5.2,0,0,0,2.354-4.078,1.671,1.671,0,0,0-.663-1.493l.006-.006-.113-.066h-.006a1.461,1.461,0,0,0-1-.04,2.677,2.677,0,0,0-.577.252A5.2,5.2,0,0,0,405.63,376.153Z" transform="translate(-403.92 -370.775)" fill="#455a64"/>
                      <path id="Trazado_69678" data-name="Trazado 69678" d="M405.839,370.843a2.155,2.155,0,0,1,1.048-.318,1.245,1.245,0,0,1,.663.186l.059.033,1.519.876a1.461,1.461,0,0,0-1-.04,2.677,2.677,0,0,0-.577.252A5.2,5.2,0,0,0,405.2,375.9a2.979,2.979,0,0,0,.066.617,1.425,1.425,0,0,0,.557.862l-1.558-.9-.026-.014-.133-.079a.16.16,0,0,1-.04-.027,1.734,1.734,0,0,1-.577-1.446A5.2,5.2,0,0,1,405.839,370.843Z" transform="translate(-403.485 -370.525)" fill="#263238"/>
                    </g>
                    <g id="Grupo_29248" data-name="Grupo 29248" transform="translate(17.928 24.629)">
                      <path id="Trazado_69679" data-name="Trazado 69679" d="M398.737,400.034a2.928,2.928,0,0,1-.066.616,1.42,1.42,0,0,1-.557.862l-.019.014a1.629,1.629,0,0,1-1.711-.132,5.2,5.2,0,0,1-2.354-4.079,1.669,1.669,0,0,1,.663-1.492l-.006-.007.112-.066h.007a1.458,1.458,0,0,1,1-.04,2.724,2.724,0,0,1,.577.252A5.2,5.2,0,0,1,398.737,400.034Z" transform="translate(-394.029 -394.655)" fill="#455a64"/>
                      <path id="Trazado_69680" data-name="Trazado 69680" d="M398.291,394.723a2.155,2.155,0,0,0-1.048-.318,1.245,1.245,0,0,0-.663.186l-.06.033L395,395.5a1.458,1.458,0,0,1,1-.04,2.726,2.726,0,0,1,.577.252,5.2,5.2,0,0,1,2.354,4.072,2.928,2.928,0,0,1-.066.616,1.42,1.42,0,0,1-.557.862l1.559-.9.026-.014.133-.079a.146.146,0,0,0,.039-.027,1.731,1.731,0,0,0,.577-1.446A5.2,5.2,0,0,0,398.291,394.723Z" transform="translate(-394.226 -394.405)" fill="#263238"/>
                    </g>
                    <g id="Grupo_29249" data-name="Grupo 29249" transform="translate(34.46 16.53)">
                      <path id="Trazado_69681" data-name="Trazado 69681" d="M419.47,389.878a2.928,2.928,0,0,1-.067.617,1.421,1.421,0,0,1-.557.862l-.02.013a1.627,1.627,0,0,1-1.711-.132,5.2,5.2,0,0,1-2.354-4.079,1.669,1.669,0,0,1,.663-1.492l-.007-.006.113-.066h.006a1.46,1.46,0,0,1,1-.04,2.662,2.662,0,0,1,.577.252A5.2,5.2,0,0,1,419.47,389.878Z" transform="translate(-414.761 -384.5)" fill="#455a64"/>
                      <path id="Trazado_69682" data-name="Trazado 69682" d="M419.023,384.568a2.157,2.157,0,0,0-1.048-.319,1.252,1.252,0,0,0-.663.186l-.06.033-1.518.876a1.46,1.46,0,0,1,1-.04,2.661,2.661,0,0,1,.577.252,5.2,5.2,0,0,1,2.355,4.072,2.928,2.928,0,0,1-.067.617,1.421,1.421,0,0,1-.557.862l1.558-.9.027-.014.132-.08a.137.137,0,0,0,.04-.026,1.735,1.735,0,0,0,.577-1.446A5.2,5.2,0,0,0,419.023,384.568Z" transform="translate(-414.958 -384.249)" fill="#263238"/>
                    </g>
                    <g id="Grupo_29250" data-name="Grupo 29250" transform="translate(2.503 6.599)">
                      <path id="Trazado_69683" data-name="Trazado 69683" d="M379.394,377.423a2.92,2.92,0,0,1-.066.616,1.425,1.425,0,0,1-.557.863l-.02.013a1.627,1.627,0,0,1-1.71-.132,5.2,5.2,0,0,1-2.355-4.079,1.669,1.669,0,0,1,.663-1.492l-.006-.007.112-.066h.006a1.457,1.457,0,0,1,1-.039,2.677,2.677,0,0,1,.577.251A5.2,5.2,0,0,1,379.394,377.423Z" transform="translate(-374.685 -372.044)" fill="#455a64"/>
                      <path id="Trazado_69684" data-name="Trazado 69684" d="M378.947,372.112a2.15,2.15,0,0,0-1.048-.318,1.244,1.244,0,0,0-.663.186l-.06.033-1.519.875a1.457,1.457,0,0,1,1-.039,2.677,2.677,0,0,1,.577.251,5.2,5.2,0,0,1,2.354,4.072,2.918,2.918,0,0,1-.066.616,1.425,1.425,0,0,1-.557.863l1.559-.9.026-.013.132-.08a.133.133,0,0,0,.04-.026,1.736,1.736,0,0,0,.577-1.446A5.2,5.2,0,0,0,378.947,372.112Z" transform="translate(-374.882 -371.794)" fill="#263238"/>
                    </g>
                    <g id="Grupo_29251" data-name="Grupo 29251" transform="translate(20.436 4.189)">
                      <path id="Trazado_69685" data-name="Trazado 69685" d="M398.214,371.686l8.405-2.41v1.794l-8.405,4.849Z" transform="translate(-397.385 -368.875)" fill="#f5f5f5"/>
                      <path id="Trazado_69686" data-name="Trazado 69686" d="M398,371.584l-.829-.508,8.431-2.3.8.4Z" transform="translate(-397.175 -368.773)" fill="#fafafa"/>
                    </g>
                    <g id="Grupo_29252" data-name="Grupo 29252" transform="translate(5.713 5.845)">
                      <path id="Trazado_69687" data-name="Trazado 69687" d="M390.627,377.421l-11.916-4.464v-1.817l11.916,1.065Z" transform="translate(-378.711 -370.908)" fill="#f5f5f5"/>
                      <path id="Trazado_69688" data-name="Trazado 69688" d="M378.711,371.08l.876-.231,11.749.759-.708.537Z" transform="translate(-378.711 -370.849)" fill="#fafafa"/>
                    </g>
                    <path id="Trazado_69689" data-name="Trazado 69689" d="M393.254,375.3c0,1.349,4.145,1.349,4.145,0V363.519h-4.145Z" transform="translate(-375.944 -363.519)" fill="#fafafa"/>
                    <g id="Grupo_29253" data-name="Grupo 29253" transform="translate(19.006 8.718)">
                      <path id="Trazado_69690" data-name="Trazado 69690" d="M396.791,374.452l2.28,14.8h-1.558l-2.131-14.8A2.559,2.559,0,0,0,396.791,374.452Z" transform="translate(-395.381 -374.452)" fill="#fafafa"/>
                      <path id="Trazado_69691" data-name="Trazado 69691" d="M395.381,374.452v4.063l2.132,13.239v-2.505Z" transform="translate(-395.381 -374.452)" fill="#f5f5f5"/>
                      <rect id="Rectngulo_26594" data-name="Rectngulo 26594" width="1.558" height="2.505" transform="translate(2.132 14.797)" fill="#ebebeb"/>
                    </g>
                    <g id="Grupo_29254" data-name="Grupo 29254" transform="translate(1.971 8.283)">
                      <path id="Trazado_69692" data-name="Trazado 69692" d="M390.587,378.4l-15.366,8.055v-2.481l15.366-9.505Z" transform="translate(-374.262 -374.02)" fill="#f5f5f5"/>
                      <path id="Trazado_69693" data-name="Trazado 69693" d="M390.343,374.353a1.71,1.71,0,0,1-.986-.447l-15.339,9.3.959.647Z" transform="translate(-374.018 -373.906)" fill="#fafafa"/>
                      <path id="Trazado_69694" data-name="Trazado 69694" d="M374.977,388.7v-2.481l-.959-.647v2.4Z" transform="translate(-374.018 -376.27)" fill="#ebebeb"/>
                    </g>
                    <path id="Trazado_69695" data-name="Trazado 69695" d="M414.615,383.565,398.2,377.944v-3.688l16.416,6.828Z" transform="translate(-376.946 -365.694)" fill="#f5f5f5"/>
                    <path id="Trazado_69696" data-name="Trazado 69696" d="M398.2,374.1c.133-.036.191-.275.2-.637l16.7,7.265-.486.2Z" transform="translate(-376.946 -365.533)" fill="#fafafa"/>
                    <path id="Trazado_69697" data-name="Trazado 69697" d="M419.272,382.569v2.4l-.485.28v-2.48Z" transform="translate(-381.117 -367.378)" fill="#ebebeb"/>
                  </g>
                  <path id="Trazado_69698" data-name="Trazado 69698" d="M398.472,337.774h-7.02v24.3c0,2.017,7.019,2.017,7.019,0Z" transform="translate(-375.579 -337.774)" fill="#f0f0f0"/>
                </g>
                <g id="Grupo_29257" data-name="Grupo 29257">
                  <path id="Trazado_69699" data-name="Trazado 69699" d="M361.957,336.014h0a3.507,3.507,0,0,1,1.753-3.037L388.267,318.8a3.509,3.509,0,0,1,3.508,0l24.554,14.177a3.509,3.509,0,0,1,1.754,3.037h0l-28.062,16.2Z" transform="translate(-361.957 -318.329)" fill="#37a3a5"/>
                  <path id="Trazado_69700" data-name="Trazado 69700" d="M361.957,340.506v2.029l26.328,15.2a3.473,3.473,0,0,0,3.469,0l26.327-15.2v-2.029l-26.327,15.2a3.432,3.432,0,0,1-3.469,0Z" transform="translate(-361.957 -322.822)" fill="#fafafa"/>
                  <path id="Trazado_69701" data-name="Trazado 69701" d="M361.957,340.506v2.029l26.328,15.2a3.439,3.439,0,0,0,1.731.464v-2.023a3.445,3.445,0,0,1-1.731-.47Z" transform="translate(-361.957 -322.822)" fill="#f5f5f5"/>
                </g>
              </g>
              <path id="Trazado_69702" data-name="Trazado 69702" d="M361.957,340.109a3.494,3.494,0,0,1,.376-1.564l26.527,15.316a2.31,2.31,0,0,0,2.311,0l26.538-15.309a3.5,3.5,0,0,1,.373,1.557l-28.062,16.2-28.063-16.2Z" transform="translate(-361.957 -322.425)" opacity="0.1"/>
            </g>
          </g>
          <g id="Character-2" data-name="Character" transform="translate(3.683)">
            <g id="Grupo_29270" data-name="Grupo 29270" transform="translate(9.201)">
              <g id="Grupo_29260" data-name="Grupo 29260" transform="translate(11.29 51.185)">
                <path id="Trazado_69703" data-name="Trazado 69703" d="M410.488,324.064s-22.778-6.874-26.738-7.957-11.557-2.91-13.776-1.915-3.347,2.147-3.551,5.35c-.041.6,0,3.532,0,3.532s11.01,3.408,20.03,3.408S410.488,324.064,410.488,324.064Z" transform="translate(-366.405 -313.904)" fill="#263238"/>
              </g>
              <g id="Grupo_29261" data-name="Grupo 29261" transform="translate(35.904 20.492)">
                <path id="Trazado_69704" data-name="Trazado 69704" d="M397.273,277.551l1.514,8.168,8.373.966-1.208-11.272Z" transform="translate(-397.273 -275.413)" fill="#ffa8a7"/>
              </g>
              <g id="Grupo_29266" data-name="Grupo 29266" transform="translate(26.13)">
                <g id="Grupo_29262" data-name="Grupo 29262" transform="translate(1.131 16.109)">
                  <path id="Trazado_69705" data-name="Trazado 69705" d="M387.26,269.917s-1.1,3.369-.763,3.576a5.9,5.9,0,0,0,1.832.107Z" transform="translate(-386.433 -269.917)" fill="#f28f8f"/>
                </g>
                <g id="Grupo_29263" data-name="Grupo 29263" transform="translate(1.76 2.647)">
                  <path id="Trazado_69706" data-name="Trazado 69706" d="M389.577,255.7c-1.442,1.517-2.812,4.059-2.209,10.494.663,7.052,2.77,8.933,3.659,9.346,1.327.619,5.842-.463,7.311-1.545,1.837-1.354,5.3-4.725,6.2-8.88,1.06-4.887-.3-10.441-3.868-11.564C395.643,251.969,390.8,254.415,389.577,255.7Z" transform="translate(-387.222 -253.035)" fill="#ffa8a7"/>
                </g>
                <g id="Grupo_29264" data-name="Grupo 29264">
                  <path id="Trazado_69707" data-name="Trazado 69707" d="M385.839,258.5c.856,1.615,2.474,5.631,7.056,6.771,0,0,.254-2.738,2.522-2.765,2.284-.027,3.043,2.767,1.916,4.721s-2.544,1.5-2.544,1.5.227,3.845,3,5.219a7.184,7.184,0,0,0,6.375-.423c1.369-.874,2.951-4.658,3.767-7.7,1.727-6.43,1.419-11.353-2.67-12.353-.86-2.7-2.244-3.563-4.816-3.733-5.536-.365-9.114,3.733-13.717,3.733C384.332,253.471,384.86,256.652,385.839,258.5Z" transform="translate(-385.015 -249.715)" fill="#263238"/>
                </g>
                <g id="Grupo_29265" data-name="Grupo 29265" transform="translate(20.028 2.112)">
                  <path id="Trazado_69708" data-name="Trazado 69708" d="M410.254,254.465l2.771-1.187a1.507,1.507,0,1,0-2.771,1.187Z" transform="translate(-410.132 -252.364)" fill="#263238"/>
                </g>
              </g>
              <g id="Grupo_29267" data-name="Grupo 29267" transform="translate(0 57.054)">
                <path id="Trazado_69709" data-name="Trazado 69709" d="M407.564,322.818c-.008,4.375.411,8.929-1.413,12.135-1.763,3.1-10.09,9.8-19.4,8.238-6.08-1.023-25.732-8.512-25.732-8.512s-8.7-3.218-8.736-5.5c-.01-.56-.061-1.141-.024-1.747.183-3.044,1.414-6.324,7.779-6.155,6.953.184,27.581,3.563,27.581,3.563Z" transform="translate(-352.247 -321.265)" fill="#37474f"/>
              </g>
              <g id="Grupo_29268" data-name="Grupo 29268" transform="translate(28.309 26.013)">
                <path id="Trazado_69710" data-name="Trazado 69710" d="M413.137,286.645c-.752-2.285-3.651-4.772-6.553-4.233-5.331.99-11.161,2.717-12.707,3.173h0s.694,11.746-5.333,15.3l-.8,14.959a12.813,12.813,0,0,0,3.793,4.442c2.49,1.583,5.955,3.956,12.214,3.437a15.4,15.4,0,0,0,11.057-6.054s-.067-14.134-.306-20.461A44.2,44.2,0,0,0,413.137,286.645Z" transform="translate(-387.748 -282.337)" fill="#455a64"/>
              </g>
              <g id="Grupo_29269" data-name="Grupo 29269" transform="translate(28.889 40.4)">
                <path id="Trazado_69711" data-name="Trazado 69711" d="M388.536,307.438a19.958,19.958,0,0,0,4.257-7.058s0,5.547-4.318,8.543Z" transform="translate(-388.475 -300.38)" fill="#37474f"/>
              </g>
            </g>
            <g id="Grupo_29273" data-name="Grupo 29273" transform="translate(21.191 29.259)">
              <g id="Grupo_29271" data-name="Grupo 29271">
                <path id="Trazado_69712" data-name="Trazado 69712" d="M389.73,286.408c-3.29.987-5.295,1.166-8.929,6.759s-11.6,16.686-12.387,18.018c-1.1,1.854-1.569,4.062-.623,5.766.884,1.59,3.458.893,7.066-2.272,3.489-3.06,10.4-11.718,10.4-11.718A59.594,59.594,0,0,0,389.73,286.408Z" transform="translate(-367.283 -286.408)" fill="#ffa8a7"/>
              </g>
              <g id="Grupo_29272" data-name="Grupo 29272" transform="translate(7.898)">
                <path id="Trazado_69713" data-name="Trazado 69713" d="M391.737,286.408a25.182,25.182,0,0,0-4.757,1.506,7.59,7.59,0,0,0-3.6,2.954c-2.543,4.225-6.18,10.24-6.18,10.24s-.621,5.239,5.741,7.065l3.383-3.651A18.948,18.948,0,0,0,389.7,299.5C391.133,296.351,392.768,291.35,391.737,286.408Z" transform="translate(-377.187 -286.408)" fill="#455a64"/>
              </g>
            </g>
            <path id="Trazado_69714" data-name="Trazado 69714" d="M363.514,318.37c-3.043-.369-9.863-9.716-12.138-12.688a20.356,20.356,0,0,0-6.228-5.859,8.209,8.209,0,0,1-4.383-6.481c-.521-3.333,2.586-5.458,5.126-2.107,1.613,2.127,3.241,3.472,3.326,3.117s-.5-1.837-.487-3.38c.018-1.857,1.318-.636,1.706.014a23.154,23.154,0,0,1,1.372,3.068c.649,1.662.38,3.344,1.171,4.477s11.394,11.293,11.394,11.293Z" transform="translate(-340.708 -257.784)" fill="#ffa8a7"/>
          </g>
          <g id="Grupo_29276" data-name="Grupo 29276" transform="translate(50.953 30.627)">
            <path id="Trazado_69715" data-name="Trazado 69715" d="M427.724,289.7v31.363l-24.9,14.429V304.14Z" transform="translate(-400.562 -288.442)" fill="#27debf"/>
            <path id="Trazado_69716" data-name="Trazado 69716" d="M427.724,289.7v31.363l-24.9,14.429V304.14Z" transform="translate(-400.562 -288.442)" fill="#37a3a5" opacity="0.1"/>
            <path id="Trazado_69717" data-name="Trazado 69717" d="M399.987,333.862l2.264,1.307v-28.75c0-1.361.413-2.039.959-2.34,1.9-1.168,4.406,1.314,4.406,1.314l.008-2.088,24.052-13.928c-2.264-1.307-3.749-2.164-8.315.427s-17.968,10.339-20.087,11.647c-1.7,1.048-3.286,2.269-3.286,5.118C399.988,311.5,399.987,333.862,399.987,333.862Z" transform="translate(-399.987 -288.124)" fill="#37a3a5"/>
            <path id="Trazado_69718" data-name="Trazado 69718" d="M404.109,301.451c2.089-1.357,15.521-9.056,20.087-11.647s6.051-1.734,8.315-.427L408.459,303.3A6.036,6.036,0,0,0,404.109,301.451Z" transform="translate(-400.822 -288.124)" fill="#21587b" opacity="0.4"/>
            <path id="Trazado_69719" data-name="Trazado 69719" d="M409.554,305.712l24.06-13.981V289.7l-24.052,13.928Z" transform="translate(-401.925 -288.442)" fill="#27debf"/>
            <path id="Trazado_69720" data-name="Trazado 69720" d="M409.554,305.712l24.06-13.981V289.7l-24.052,13.928Z" transform="translate(-401.925 -288.442)" fill="#57cc98" opacity="0.2"/>
            <g id="Grupo_29274" data-name="Grupo 29274" transform="translate(4.496 37.275)">
              <path id="Trazado_69721" data-name="Trazado 69721" d="M409.119,354.617a2.185,2.185,0,0,0,2.179-2.181V335.984a1.114,1.114,0,1,0-2.229,0v16.364l-1.772-1.024a1.115,1.115,0,0,0-1.115,1.931l1.848,1.067A2.172,2.172,0,0,0,409.119,354.617Z" transform="translate(-405.625 -334.869)" fill="#e6e6e6"/>
            </g>
            <g id="Grupo_29275" data-name="Grupo 29275" transform="translate(18.108 29.342)">
              <path id="Trazado_69722" data-name="Trazado 69722" d="M426.19,344.669a2.178,2.178,0,0,0,1.09-.3,2.155,2.155,0,0,0,1.088-1.886V326.035a1.114,1.114,0,0,0-2.229,0V342.4l-1.773-1.023a1.114,1.114,0,0,0-1.114,1.931l1.848,1.067A2.182,2.182,0,0,0,426.19,344.669Z" transform="translate(-422.696 -324.921)" fill="#e6e6e6"/>
            </g>
          </g>
        </g>
      </g>
    </g>
  </g>
</svg>
