<svg xmlns="http://www.w3.org/2000/svg" width="317.544" height="306.128" viewBox="0 0 317.544 306.128">
  <g id="Grupo_623" data-name="Grupo 623" transform="translate(-1012.332 -79.988)">
    <circle id="Elipse_1" data-name="Elipse 1" cx="141.113" cy="141.113" r="141.113" transform="translate(1029.991 94.067)" fill="#00252d" opacity="0.7"/>
    <g id="Grupo_11" data-name="Grupo 11" opacity="0.8">
      <g id="Grupo_8" data-name="Grupo 8">
        <path id="Trazado_3" data-name="Trazado 3" d="M1259.462,220.891a38.035,38.035,0,0,1-61.715,29.773l-8.332,2.232,2.232-8.334a38.039,38.039,0,1,1,67.815-23.671Z" fill="none" stroke="#fff" stroke-width="3"/>
      </g>
      <g id="Grupo_9" data-name="Grupo 9">
        <rect id="Rectángulo_20" data-name="Rectángulo 20" width="4.65" height="5.663" transform="translate(1246.617 260.865)" fill="#fff"/>
        <rect id="Rectángulo_21" data-name="Rectángulo 21" width="4.65" height="5.664" transform="translate(1237.473 269.298) rotate(-60.007)" fill="#fff"/>
        <rect id="Rectángulo_22" data-name="Rectángulo 22" width="5.664" height="4.65" transform="translate(1237.879 277.405) rotate(-30.017)" fill="#fff"/>
        <rect id="Rectángulo_23" data-name="Rectángulo 23" width="4.65" height="5.663" transform="translate(1247.428 279.47)" fill="#fff"/>
        <rect id="Rectángulo_24" data-name="Rectángulo 24" width="4.65" height="5.663" transform="matrix(0.5, -0.866, 0.866, 0.5, 1253.992, 277.896)" fill="#fff"/>
        <rect id="Rectángulo_25" data-name="Rectángulo 25" width="5.664" height="4.65" transform="translate(1253.585 267.401) rotate(-30.017)" fill="#fff"/>
        <rect id="Rectángulo_26" data-name="Rectángulo 26" width="7.533" height="4.65" transform="matrix(0.423, -0.906, 0.906, 0.423, 1242.604, 184.076)" fill="#fff"/>
        <rect id="Rectángulo_27" data-name="Rectángulo 27" width="7.535" height="4.65" transform="matrix(0.906, -0.422, 0.422, 0.906, 1263.021, 202.147)" fill="#fff"/>
        <path id="Trazado_4" data-name="Trazado 4" d="M1257.694,194.6h0l5.16-5.16.166-.167h0l-1.644-1.644-1.644-1.644-5.329,5.327,3.287,3.289Z" fill="#fff"/>
        <path id="Trazado_5" data-name="Trazado 5" d="M1216.645,136.679h-43.9v43.234h8.885v8.809l12.676-8.809h22.334Zm-4.65,38.584h-19.141l-6.569,4.565v-4.565H1177.4V141.329h34.595Z" fill="#fff"/>
        <path id="Trazado_6" data-name="Trazado 6" d="M1241.665,203.954l-.357-.763-.762-.357a26.674,26.674,0,0,0-36.144,33.978l-2.821,2.82,3.289,3.289,2.815-2.815a26.678,26.678,0,0,0,33.98-36.152Zm-2.394,14.627-9.627-.436,9-9.005A22.124,22.124,0,0,1,1239.271,218.581Zm-24.063-8.6a21.909,21.909,0,0,1,6.112-3.541l.582,12.874-6,6Zm20.151-4.126-9,9-.434-9.625A22.094,22.094,0,0,1,1235.359,205.853Zm-24.582,9.068.674,14.842-3.389,3.388A22.159,22.159,0,0,1,1210.777,214.921Zm.576,21.517,3.385-3.386,14.844.672A22.155,22.155,0,0,1,1211.353,236.438Zm23.171-7.145-15.333-.694,6-6,12.873.583A21.93,21.93,0,0,1,1234.524,229.293Z" fill="#fff"/>
        <path id="Trazado_7" data-name="Trazado 7" d="M1160.893,233.64a46.382,46.382,0,0,0-36.2-75.416q-1.234,0-2.449.065l.247,4.644q1.094-.059,2.2-.058a41.732,41.732,0,0,1,31.822,68.764l-.843.99,3.192,9.789-9.217-4.306-1.1.767a41.721,41.721,0,0,1-65.6-34.241q0-1.113.056-2.209l-4.644-.233q-.062,1.214-.062,2.442a46.372,46.372,0,0,0,71.8,38.813l16.52,7.719Z" fill="#fff"/>
        <path id="Trazado_8" data-name="Trazado 8" d="M1108.763,166.021l-1.776-4.3a46.56,46.56,0,0,0-4.707,2.265l2.249,4.07A41.785,41.785,0,0,1,1108.763,166.021Z" fill="#fff"/>
        <path id="Trazado_9" data-name="Trazado 9" d="M1100.55,170.559l-2.692-3.791a47.13,47.13,0,0,0-4.083,3.258l3.1,3.467A42.285,42.285,0,0,1,1100.55,170.559Z" fill="#fff"/>
        <path id="Trazado_10" data-name="Trazado 10" d="M1117.787,163.443l-.764-4.587a46.222,46.222,0,0,0-5.1,1.149l1.278,4.471A41.351,41.351,0,0,1,1117.787,163.443Z" fill="#fff"/>
        <path id="Trazado_11" data-name="Trazado 11" d="M1093.55,176.82l-3.468-3.1a46.838,46.838,0,0,0-3.257,4.085l3.792,2.69A42.163,42.163,0,0,1,1093.55,176.82Z" fill="#fff"/>
        <path id="Trazado_12" data-name="Trazado 12" d="M1084.537,193.162l-4.472-1.274a46.489,46.489,0,0,0-1.146,5.1l4.588.76A41.479,41.479,0,0,1,1084.537,193.162Z" fill="#fff"/>
        <path id="Trazado_13" data-name="Trazado 13" d="M1088.116,184.481l-4.071-2.247a46.415,46.415,0,0,0-2.264,4.713l4.3,1.773A41.524,41.524,0,0,1,1088.116,184.481Z" fill="#fff"/>
        <path id="Trazado_14" data-name="Trazado 14" d="M1119.5,184.79c1.618-2.8,3.642-4.351,5.7-4.351s4.084,1.545,5.7,4.352l3.2,5.536-3.138-1.31-1.793,4.29,12.225,5.108,1.7-13.144-4.612-.593-.415,3.215-3.133-5.427c-2.485-4.306-5.94-6.677-9.73-6.677h0c-3.789,0-7.244,2.372-9.727,6.676l-6.069,10.513,4.027,2.326Z" fill="#fff"/>
        <path id="Trazado_15" data-name="Trazado 15" d="M1098.758,221.3c1.894,3.282,5.676,5.09,10.648,5.09h12.137v-4.651h-12.137c-3.194,0-5.607-1.007-6.621-2.763-1.028-1.782-.7-4.307.918-7.112l3.2-5.539.434,3.373,4.613-.594-1.691-13.139-12.23,5.1,1.792,4.291,2.993-1.249-3.134,5.431C1097.19,213.847,1096.864,218.024,1098.758,221.3Z" fill="#fff"/>
        <path id="Trazado_16" data-name="Trazado 16" d="M1150.89,221.09c1.894-3.281,1.569-7.459-.917-11.766l-6.066-10.51-4.029,2.324,6.068,10.511c1.62,2.807,1.945,5.334.917,7.116s-3.379,2.761-6.62,2.761l-6.393,0,2.7-2.063-2.82-3.7L1123.2,223.8l10.533,8.039,2.822-3.7-2.579-1.967h6.27C1145.215,226.177,1149,224.37,1150.89,221.09Z" fill="#fff"/>
        <rect id="Rectángulo_28" data-name="Rectángulo 28" width="4.65" height="12.316" transform="translate(1173.025 256.691)" fill="#fff"/>
        <path id="Trazado_17" data-name="Trazado 17" d="M1181.4,259.759l-1.529,4.391a13.76,13.76,0,1,1-9.043,0l-1.529-4.391a18.411,18.411,0,1,0,12.1,0Z" fill="#fff"/>
      </g>
      <g id="Grupo_10" data-name="Grupo 10">
        <path id="Trazado_18" data-name="Trazado 18" d="M1185.933,158.189c0-3.84,6.945-14.355,6.945-14.355s6.946,10.515,6.946,14.355a6.945,6.945,0,0,1-13.891,0Z" fill="#fff"/>
      </g>
      <path id="Trazado_19" data-name="Trazado 19" d="M1221.419,258.935a37.886,37.886,0,0,1-23.672-8.271l-8.332,2.232,2.232-8.334a38,38,0,0,1,.819-48.333,58.226,58.226,0,0,0-20.2-3.6c-1.059,0-2.11.032-3.155.087a46.88,46.88,0,0,1-55.158,55.443c-.045.945-.072,1.9-.072,2.851,0,.886.031,1.762.069,2.641l-8.15,14.125-10.723,18.567h13.562V309.4a15.742,15.742,0,0,0,15.74,15.747h24.933V337.45h64.277v-45.2a58.2,58.2,0,0,0,16.638-34.352A38.108,38.108,0,0,1,1221.419,258.935Z" fill="none" stroke="#fff" stroke-width="0.75"/>
    </g>
    <path id="Trazado_20" data-name="Trazado 20" d="M1319.388,299.133a147.65,147.65,0,0,0,8.17-80.814,155.694,155.694,0,0,0-39.6-78.246c-.4-.567-.785-1.139-1.2-1.712-36.392-50.1-112.356-64.161-166.19-37.464a137.161,137.161,0,0,0-69.311,57.015c-25.508,41.6-31.042,101.406-10.575,145.347a165.037,165.037,0,0,1-16.814-36.931c-10.519-33.491-10.019-72.46,4.564-104.7,25.158-55.447,97.553-82.5,94.282-81.615-34.923,9.511-64.739,30.756-83.744,57a141.3,141.3,0,0,0-26.034,95.93c6.295,68.041,64.648,135.637,132.392,149.81,33.825,7.055,73.595,3.011,105.114-11.918C1280.368,356.63,1305.993,332.1,1319.388,299.133ZM1064.073,149.277a136.6,136.6,0,0,1,9.482-10.71c-37.109,44.876-43.924,111.178-5.111,160.843.1.117.213,0,.117-.121-43.248-56.572-22.164-140.5,30.76-181.417,59.324-36.531,148.18-19.253,192.985,34.06,18.419,32.357,22.486,73.377,12.672,109.818-11.667,43.22-42.05,84.482-82.9,102.771-37.714,16.854-88.663,15.229-124.912-5.6q-6.612-3.93-12.849-8.471c-29.317-22.06-47.154-56.517-51.069-92.42C1029.184,220.31,1040.442,179.179,1064.073,149.277Zm209.2-22.756A149.152,149.152,0,0,0,1258.8,116.2c-32.914-20.491-73.774-28.663-110.856-22.572,3.008-.8,6.036-1.516,9.1-2.106C1197.863,83.7,1244.173,96.733,1273.271,126.521Zm-47.9,250.507a168.316,168.316,0,0,1-77,1.857c40.351,4.618,85.01-9.185,114.985-38.521,44.181-43.338,62.836-119.414,38.1-176.251a141.22,141.22,0,0,1,10.813,19.048c16.545,35.49,19.5,79.58,4.314,115.757C1300.421,337.3,1265.427,366.49,1225.37,377.028Z" fill="#00232b" opacity="0.8"/>
  </g>
</svg>
