<svg xmlns="http://www.w3.org/2000/svg" xmlns:xlink="http://www.w3.org/1999/xlink" width="528.985" height="255.055" viewBox="0 0 528.985 255.055">
  <defs>
    <filter id="Rectángulo_13" x="0" y="65.677" width="277.207" height="189.378" filterUnits="userSpaceOnUse">
      <feOffset dx="7" dy="7" input="SourceAlpha"/>
      <feGaussianBlur stdDeviation="2.5" result="blur"/>
      <feFlood flood-color="#999" flood-opacity="0.451"/>
      <feComposite operator="in" in2="blur"/>
      <feComposite in="SourceGraphic"/>
    </filter>
  </defs>
  <g id="Grupo_633" data-name="Grupo 633" transform="translate(-169.323 -8706.905)">
    <g transform="matrix(1, 0, 0, 1, 169.32, 8706.91)" filter="url(#Rectángulo_13)">
      <rect id="Rectángulo_13-2" data-name="Rectángulo 13" width="260.207" height="172.378" rx="12" transform="translate(1.5 67.18)" fill="#f4e7ce" stroke="#b2b2b2" stroke-miterlimit="10" stroke-width="2"/>
    </g>
    <text id="Cuando_los_nichos_adquieren_suficiente_impulso_para_que_estas_configuraciones_relativamente_flexibles_se_institucionalicen._" data-name="Cuando los nichos adquieren suficiente impulso para que estas configuraciones relativamente flexibles se institucionalicen.




" transform="translate(194.443 8790.1)" fill="#444242" font-size="16" font-family="OpenSans, Open Sans"><tspan x="5.175" y="17">Cuando los nichos adquieren </tspan><tspan x="10.218" y="39">suficiente impulso para que </tspan><tspan x="33.128" y="61">estas configuraciones </tspan><tspan x="18.96" y="83">relativamente flexibles se </tspan><tspan x="51.034" y="105">institucionalicen.</tspan><tspan x="113.773" y="127"></tspan><tspan x="113.773" y="149"></tspan></text>
    <text id="Cuando_los_nichos" data-name="Cuando los nichos" transform="translate(300.927 8723.905)" fill="#444242" font-size="18" font-family="Montserrat-Bold, Montserrat" font-weight="700"><tspan x="-82.908" y="0">Cuando los nichos</tspan></text>
    <line id="Línea_26" data-name="Línea 26" y2="36.781" transform="translate(300.926 8730.599)" fill="none" stroke="#414651" stroke-miterlimit="10" stroke-width="3" stroke-dasharray="12"/>
    <g id="Grupo_617" data-name="Grupo 617" transform="translate(-6)">
      <g id="Grupo_614" data-name="Grupo 614">
        <path id="Trazado_569" data-name="Trazado 569" d="M657.052,8878.947h-.847v-27h.847Zm-9.847,0h-9v-27h9Zm-18,0h-9v-27h9Zm-18,0h-9v-27h9Zm-18,0h-9v-27h9Zm-18,0h-9v-27h9Zm-18,0h-9v-27h9Zm-18,0h-9v-27h9Zm-18,0h-9v-27h9Zm-18,0h-9v-27h9Zm-18,0h-9v-27h9Z" fill="#a7a7a8"/>
      </g>
      <g id="Grupo_616" data-name="Grupo 616">
        <g id="Grupo_615" data-name="Grupo 615">
          <path id="Trazado_570" data-name="Trazado 570" d="M704.308,8865.447c-22.235,8.251-49.824,22.328-66.926,37.237l13.469-37.237-13.469-37.231C654.484,8843.127,682.073,8857.2,704.308,8865.447Z" fill="#a7a7a8"/>
        </g>
      </g>
    </g>
  </g>
</svg>
