<svg xmlns="http://www.w3.org/2000/svg" xmlns:xlink="http://www.w3.org/1999/xlink" width="666.171" height="182.916" viewBox="0 0 666.171 182.916">
  <defs>
    <clipPath id="clip-path">
      <path id="Trazado_74" data-name="Trazado 74" d="M649.517,3229.1a5.868,5.868,0,0,0-.242-1.558l1.395-1.176-1.287-2.076-1.641.711a5.836,5.836,0,0,0-1.316-.968l.15-1.759-2.379-.558-.636,1.609a5.828,5.828,0,0,0-1.67.259l-1.106-1.31-2.077,1.286.676,1.56a5.853,5.853,0,0,0-1,1.39l-1.7-.144-.558,2.378,1.6.63a5.823,5.823,0,0,0,.286,1.663l-1.325,1.116,1.288,2.076,1.622-.7a5.892,5.892,0,0,0,1.336.937l-.152,1.782,2.379.559.672-1.7a5.875,5.875,0,0,0,1.554-.266l1.186,1.406,2.077-1.287-.737-1.7a5.907,5.907,0,0,0,.907-1.261l1.848.157.559-2.378Zm-5.539,3.435a3.368,3.368,0,1,1,3.015-3.689A3.369,3.369,0,0,1,643.978,3232.54Z" fill="none"/>
    </clipPath>
    <clipPath id="clip-path-2">
      <path id="Trazado_130" data-name="Trazado 130" d="M730.966,3262.114a29.422,29.422,0,1,1,29.438-29.423A29.464,29.464,0,0,1,730.966,3262.114Zm0-57.06a27.638,27.638,0,1,0,27.654,27.637A27.677,27.677,0,0,0,730.966,3205.054Z" fill="none"/>
    </clipPath>
    <clipPath id="clip-path-3">
      <path id="Trazado_132" data-name="Trazado 132" d="M729.4,3261.685a.893.893,0,0,1-.732-.381,49.128,49.128,0,0,1-7.85-38.829,56.591,56.591,0,0,1,6.825-17.854.892.892,0,1,1,1.5.966,56.005,56.005,0,0,0-6.59,17.31,47.381,47.381,0,0,0,7.578,37.384.892.892,0,0,1-.73,1.4Z" fill="none"/>
    </clipPath>
    <clipPath id="clip-path-4">
      <path id="Trazado_134" data-name="Trazado 134" d="M722.259,3260.347a.444.444,0,0,1-.315-.13c-9.231-9.226-13.533-18.853-12.788-28.614,1.217-15.935,15.733-26.751,15.88-26.859a.446.446,0,0,1,.527.72c-.143.1-14.336,10.691-15.518,26.213-.722,9.488,3.493,18.878,12.53,27.908a.446.446,0,0,1-.316.762Z" fill="none"/>
    </clipPath>
    <clipPath id="clip-path-5">
      <path id="Trazado_136" data-name="Trazado 136" d="M733.859,3261.685a.893.893,0,0,1-.727-1.409c7.957-11.2,9.642-23.925,5.01-37.806a60.653,60.653,0,0,0-9.472-17.692.892.892,0,0,1,1.371-1.142,61.273,61.273,0,0,1,9.775,18.213c3.332,9.95,5.13,24.873-5.229,39.46A.892.892,0,0,1,733.859,3261.685Z" fill="none"/>
    </clipPath>
    <clipPath id="clip-path-6">
      <path id="Trazado_138" data-name="Trazado 138" d="M738.189,3260.4a.446.446,0,0,1-.287-.788c9.388-7.879,14.007-16.436,13.729-25.434-.5-16.251-16.957-28.593-17.123-28.715a.446.446,0,1,1,.53-.718c.17.126,16.969,12.727,17.485,29.4.287,9.285-4.439,18.082-14.047,26.146A.447.447,0,0,1,738.189,3260.4Z" fill="none"/>
    </clipPath>
    <clipPath id="clip-path-7">
      <path id="Trazado_140" data-name="Trazado 140" d="M731.722,3239.846a92.788,92.788,0,0,1-29.377-4.962.892.892,0,0,1,.564-1.693c33.982,11.322,56.174-.7,56.394-.824a.892.892,0,0,1,.871,1.557c-.233.13-5.827,3.216-15.792,4.9A76.368,76.368,0,0,1,731.722,3239.846Z" fill="none"/>
    </clipPath>
    <clipPath id="clip-path-8">
      <path id="Trazado_142" data-name="Trazado 142" d="M729.905,3211.938a52.407,52.407,0,0,1-15.178-2.27.446.446,0,0,1,.29-.844c.166.058,16.722,5.6,30.409-1.022a.446.446,0,0,1,.388.8A36.568,36.568,0,0,1,729.905,3211.938Z" fill="none"/>
    </clipPath>
    <clipPath id="clip-path-9">
      <path id="Trazado_144" data-name="Trazado 144" d="M731.309,3227.618a100.078,100.078,0,0,1-27.8-4.2.446.446,0,1,1,.247-.857c34.342,9.923,53.219-.961,53.406-1.073a.446.446,0,0,1,.456.766C757.484,3222.331,748.341,3227.618,731.309,3227.618Z" fill="none"/>
    </clipPath>
    <clipPath id="clip-path-10">
      <path id="Trazado_146" data-name="Trazado 146" d="M729.964,3251.025a63.693,63.693,0,0,1-24.5-4.737.446.446,0,0,1,.379-.807c.247.116,24.977,11.438,51.041-1.655a.446.446,0,0,1,.4.8A60.414,60.414,0,0,1,729.964,3251.025Z" fill="none"/>
    </clipPath>
    <clipPath id="clip-path-11">
      <path id="Trazado_149" data-name="Trazado 149" d="M730.966,3263.436a30.745,30.745,0,1,1,30.761-30.745A30.788,30.788,0,0,1,730.966,3263.436Zm0-59.625a28.88,28.88,0,1,0,28.9,28.88A28.921,28.921,0,0,0,730.966,3203.811Z" fill="none"/>
    </clipPath>
    <clipPath id="clip-path-12">
      <path id="Trazado_150" data-name="Trazado 150" d="M731.158,3198.224a4.39,4.39,0,1,1,4.392-4.39A4.4,4.4,0,0,1,731.158,3198.224Zm0-6.475a2.085,2.085,0,1,0,2.087,2.085A2.088,2.088,0,0,0,731.158,3191.749Z" fill="none"/>
    </clipPath>
    <clipPath id="clip-path-13">
      <rect id="Rectángulo_45" data-name="Rectángulo 45" width="5.993" height="5.99" transform="translate(767.989 3233.054)" fill="none"/>
    </clipPath>
    <clipPath id="clip-path-14">
      <path id="Trazado_151" data-name="Trazado 151" d="M774.157,3239.218h-6.343v-6.339h6.343Zm-5.994-.349h5.644v-5.64h-5.644Z" fill="none"/>
    </clipPath>
    <clipPath id="clip-path-15">
      <path id="Trazado_153" data-name="Trazado 153" d="M772.438,3230.914h-2.55a36.078,36.078,0,0,0-36.047-36.027v-2.55A38.631,38.631,0,0,1,772.438,3230.914Z" fill="none"/>
    </clipPath>
    <clipPath id="clip-path-16">
      <path id="Trazado_154" data-name="Trazado 154" d="M730.112,3277.666a4.391,4.391,0,1,1,4.392-4.391A4.4,4.4,0,0,1,730.112,3277.666Zm0-6.476a2.086,2.086,0,1,0,2.087,2.085A2.089,2.089,0,0,0,730.112,3271.19Z" fill="none"/>
    </clipPath>
    <clipPath id="clip-path-17">
      <rect id="Rectángulo_51" data-name="Rectángulo 51" width="5.993" height="5.99" transform="translate(693.282 3234.056) rotate(180)" fill="none"/>
    </clipPath>
    <clipPath id="clip-path-18">
      <path id="Trazado_155" data-name="Trazado 155" d="M693.456,3234.231h-6.342v-6.34h6.342Zm-5.993-.35h5.644v-5.64h-5.644Z" fill="none"/>
    </clipPath>
    <clipPath id="clip-path-19">
      <path id="Trazado_157" data-name="Trazado 157" d="M727.429,3274.772a38.63,38.63,0,0,1-38.6-38.576h2.55a36.078,36.078,0,0,0,36.047,36.027Z" fill="none"/>
    </clipPath>
    <clipPath id="clip-path-20">
      <circle id="Elipse_9" data-name="Elipse 9" cx="3.569" cy="3.569" r="3.569" transform="matrix(1, -0.001, 0.001, 1, 716.901, 3223.337)" fill="none"/>
    </clipPath>
    <clipPath id="clip-path-21">
      <circle id="Elipse_10" data-name="Elipse 10" cx="1.785" cy="1.785" r="1.785" transform="matrix(1, -0.002, 0.002, 1, 748.134, 3222.446)" fill="none"/>
    </clipPath>
    <clipPath id="clip-path-22">
      <circle id="Elipse_11" data-name="Elipse 11" cx="1.784" cy="1.784" r="1.784" transform="translate(711.551 3246.523)" fill="none"/>
    </clipPath>
    <clipPath id="clip-path-23">
      <circle id="Elipse_12" data-name="Elipse 12" cx="2.676" cy="2.676" r="2.676" transform="translate(736.538 3247.415)" fill="none"/>
    </clipPath>
    <clipPath id="clip-path-24">
      <path id="Trazado_194" data-name="Trazado 194" d="M544.708,3230.707a9.072,9.072,0,1,1,9.072,9.067A9.08,9.08,0,0,1,544.708,3230.707Zm1.5,0a7.573,7.573,0,1,0,7.573-7.568A7.579,7.579,0,0,0,546.207,3230.707Z" fill="none"/>
    </clipPath>
    <clipPath id="clip-path-25">
      <path id="Trazado_199" data-name="Trazado 199" d="M574.92,3222.472a6.075,6.075,0,1,1,6.075,6.072A6.08,6.08,0,0,1,574.92,3222.472Zm1.331,0a4.744,4.744,0,1,0,4.744-4.741A4.748,4.748,0,0,0,576.251,3222.472Z" fill="none"/>
    </clipPath>
    <clipPath id="clip-path-26">
      <path id="Trazado_203" data-name="Trazado 203" d="M552.115,3222.951a.687.687,0,0,0,.1-.008l25.3-4.492a.562.562,0,1,0-.2-1.107l-25.3,4.492a.562.562,0,0,0,.1,1.115Z" fill="none"/>
    </clipPath>
    <clipPath id="clip-path-27">
      <path id="Trazado_205" data-name="Trazado 205" d="M559.773,3237.092a.55.55,0,0,0,.256-.063l18.143-9.316a.562.562,0,1,0-.513-1l-18.143,9.316a.562.562,0,0,0,.257,1.063Z" fill="none"/>
    </clipPath>
    <clipPath id="clip-path-28">
      <path id="Trazado_206" data-name="Trazado 206" d="M585.182,3243.741v-12.59a.71.71,0,0,0-1.42,0v10.415l-5.306-2.333-.069-8.088a.711.711,0,0,0-.71-.7h-.006a.71.71,0,0,0-.7.716l.077,9.006Z" fill="none"/>
    </clipPath>
    <clipPath id="clip-path-29">
      <path id="Trazado_207" data-name="Trazado 207" d="M581.117,3252.954a.933.933,0,0,1-.816-1.016V3241.1a.835.835,0,1,1,1.631,0v10.838A.933.933,0,0,1,581.117,3252.954Z" fill="none"/>
    </clipPath>
    <clipPath id="clip-path-30">
      <path id="Trazado_209" data-name="Trazado 209" d="M575.9,3252.427a.817.817,0,0,1-.765-1.1,7.056,7.056,0,0,1,4.191-4.286c3.083-.964,6.657.842,8.316,4.208a.815.815,0,1,1-1.463.721c-1.307-2.651-4.043-4.1-6.364-3.372a5.521,5.521,0,0,0-3.15,3.294A.816.816,0,0,1,575.9,3252.427Z" fill="none"/>
    </clipPath>
    <clipPath id="clip-path-31">
      <path id="Trazado_220" data-name="Trazado 220" d="M781.7,3263.237a.5.5,0,0,1,.435.258l3.653,6.495a.5.5,0,0,1,0,.484l-3.557,6.546a.5.5,0,0,1-.436.261l-7.211.053a.5.5,0,0,1-.439-.255l-3.653-6.492a.5.5,0,0,1,0-.484l3.558-6.545a.5.5,0,0,1,.435-.265l7.211-.056Zm3.082,7-3.373-6-6.622.049-3.285,6.044,3.373,6,6.621-.049Z" fill="none"/>
    </clipPath>
    <clipPath id="clip-path-32">
      <path id="Trazado_221" data-name="Trazado 221" d="M778.279,3269.656a.5.5,0,0,1,0,1.009l-7.418.06h0a.5.5,0,0,1,0-1.009l7.419-.06Z" fill="none"/>
    </clipPath>
    <clipPath id="clip-path-33">
      <path id="Trazado_224" data-name="Trazado 224" d="M778.324,3269.8a.5.5,0,0,1,.442.265l3.474,6.526a.5.5,0,1,1-.882.469l-3.474-6.525a.5.5,0,0,1,.206-.676A.5.5,0,0,1,778.324,3269.8Z" fill="none"/>
    </clipPath>
    <clipPath id="clip-path-34">
      <path id="Trazado_225" data-name="Trazado 225" d="M781.7,3263.291a.5.5,0,0,1,.443.729l-3.379,6.514a.5.5,0,0,1-.887-.46l3.379-6.514A.5.5,0,0,1,781.7,3263.291Z" fill="none"/>
    </clipPath>
    <clipPath id="clip-path-35">
      <path id="Trazado_229" data-name="Trazado 229" d="M779.883,3269.62" fill="none"/>
    </clipPath>
    <clipPath id="clip-path-36">
      <path id="Trazado_231" data-name="Trazado 231" d="M760.235,3268.976l2.2,3.9,10.34.144-.014,1-10.628-.148a.5.5,0,0,1-.428-.255l-2.335-4.15Z" fill="none"/>
    </clipPath>
    <clipPath id="clip-path-37">
      <path id="Trazado_234" data-name="Trazado 234" d="M766.523,3254.429a.544.544,0,0,1,.474.277l3.411,6.063a.543.543,0,0,1,0,.526l-3.322,6.111a.544.544,0,0,1-.474.285l-6.733.05h0a.544.544,0,0,1-.474-.278l-3.411-6.063a.543.543,0,0,1,0-.526l3.322-6.112a.546.546,0,0,1,.473-.284l6.733-.049Zm2.79,6.611-3.106-5.521-6.092.044-3.026,5.566,3.107,5.521,6.092-.044Z" fill="none"/>
    </clipPath>
    <clipPath id="clip-path-38">
      <path id="Trazado_235" data-name="Trazado 235" d="M770,3260.684a.466.466,0,0,1,0,.933l-6.926.05h0a.466.466,0,0,1,0-.932l6.927-.051Z" fill="none"/>
    </clipPath>
    <clipPath id="clip-path-39">
      <path id="Trazado_237" data-name="Trazado 237" d="M759.789,3254.511a.469.469,0,0,1,.413.247l3.243,6.093a.466.466,0,0,1-.823.439l-3.244-6.094a.465.465,0,0,1,.193-.63A.457.457,0,0,1,759.789,3254.511Z" fill="none"/>
    </clipPath>
    <clipPath id="clip-path-40">
      <path id="Trazado_238" data-name="Trazado 238" d="M763.034,3260.6a.477.477,0,0,1,.215.052.468.468,0,0,1,.2.629l-3.155,6.082a.466.466,0,0,1-.828-.429l3.155-6.082A.467.467,0,0,1,763.034,3260.6Z" fill="none"/>
    </clipPath>
    <clipPath id="clip-path-41">
      <path id="Trazado_240" data-name="Trazado 240" d="M768.234,3257.6l9.923.139a.468.468,0,0,1,.4.237l2.181,3.876-.814.457-2.049-3.641-9.654-.135Z" fill="none"/>
    </clipPath>
    <clipPath id="clip-path-42">
      <path id="Trazado_253" data-name="Trazado 253" d="M670.5,3253.113a.926.926,0,0,1-.994-.838v-8.947a1.009,1.009,0,0,1,1.989,0v8.947A.926.926,0,0,1,670.5,3253.113Z" fill="none"/>
    </clipPath>
    <clipPath id="clip-path-43">
      <path id="Trazado_257" data-name="Trazado 257" d="M666.909,3244.6a2.21,2.21,0,0,1-1.272-.394,1.74,1.74,0,0,1-.766-1.423v-11.335h1.3v11.335a.462.462,0,0,0,.22.365.933.933,0,0,0,.839.1l6.211-2.181a1.138,1.138,0,0,0,.847-1.008v-8.614h1.3v8.614a2.411,2.411,0,0,1-1.715,2.231l-6.21,2.181A2.251,2.251,0,0,1,666.909,3244.6Z" fill="none"/>
    </clipPath>
  </defs>
  <g id="Grupo_625" data-name="Grupo 625" transform="translate(-389.497 -3189.444)">
    <g id="Grupo_36" data-name="Grupo 36">
      <circle id="Elipse_2" data-name="Elipse 2" cx="7.882" cy="7.882" r="7.882" transform="translate(390.503 3325.811)" fill="#db9600"/>
      <path id="Trazado_38" data-name="Trazado 38" d="M398.384,3342.581a8.888,8.888,0,1,1,8.888-8.888A8.9,8.9,0,0,1,398.384,3342.581Zm0-15.764a6.876,6.876,0,1,0,6.876,6.876A6.884,6.884,0,0,0,398.384,3326.817Z" fill="#414651"/>
    </g>
    <g id="Grupo_45" data-name="Grupo 45">
      <circle id="Elipse_3" data-name="Elipse 3" cx="7.882" cy="7.882" r="7.882" transform="translate(1038.898 3325.811)" fill="#a3bd31"/>
      <path id="Trazado_43" data-name="Trazado 43" d="M1046.78,3342.581a8.888,8.888,0,1,1,8.888-8.888A8.9,8.9,0,0,1,1046.78,3342.581Zm0-15.764a6.876,6.876,0,1,0,6.876,6.876A6.884,6.884,0,0,0,1046.78,3326.817Z" fill="#414651"/>
    </g>
    <g id="Grupo_394" data-name="Grupo 394">
      <g id="Grupo_80" data-name="Grupo 80">
        <g id="Grupo_79" data-name="Grupo 79">
          <g id="Grupo_78" data-name="Grupo 78">
            <g id="Grupo_77" data-name="Grupo 77">
              <g id="Grupo_75" data-name="Grupo 75">
                <path id="Trazado_68" data-name="Trazado 68" d="M836.736,3265.748a4.375,4.375,0,1,0-4.375-4.376A4.376,4.376,0,0,0,836.736,3265.748Z" fill="#91b8c5"/>
                <path id="Trazado_69" data-name="Trazado 69" d="M836.736,3266.416a5.043,5.043,0,1,1,5.043-5.044A5.049,5.049,0,0,1,836.736,3266.416Zm0-8.75a3.707,3.707,0,1,0,3.706,3.706A3.711,3.711,0,0,0,836.736,3257.666Z" fill="#414651"/>
              </g>
              <g id="Grupo_76" data-name="Grupo 76">
                <path id="Trazado_70" data-name="Trazado 70" d="M844.717,3275.17c-.018-4.426-3.477-8.918-7.741-8.918s-7.722,4.492-7.741,8.918" fill="#91b8c5"/>
                <path id="Trazado_71" data-name="Trazado 71" d="M829.9,3275.173l-1.337-.006a10.462,10.462,0,0,1,2.434-6.544,7.393,7.393,0,0,1,11.951,0,10.468,10.468,0,0,1,2.434,6.544l-1.337.006c-.017-3.9-3.045-8.252-7.073-8.252S829.92,3271.277,829.9,3275.173Z" fill="#414651"/>
              </g>
            </g>
          </g>
        </g>
      </g>
      <g id="Grupo_115" data-name="Grupo 115">
        <g id="Grupo_98" data-name="Grupo 98">
          <g id="Grupo_95" data-name="Grupo 95">
            <g id="Grupo_81" data-name="Grupo 81">
              <rect id="Rectángulo_33" data-name="Rectángulo 33" width="14.93" height="10.462" rx="3.942" transform="translate(615.122 3259.904)" fill="#afc3cb"/>
            </g>
            <g id="Grupo_93" data-name="Grupo 93">
              <g id="Grupo_84" data-name="Grupo 84">
                <g id="Grupo_83" data-name="Grupo 83">
                  <g id="Grupo_82" data-name="Grupo 82" clip-path="url(#clip-path)">
                    <path id="Trazado_72" data-name="Trazado 72" d="M640.1,3226.583l.3-.932h6.779v6.144l-.3.932H640.1Z" fill="#414651"/>
                    <path id="Trazado_73" data-name="Trazado 73" d="M636.132,3227.01l1.705-5.29h13.391v9.8l-1.705,5.29H636.132Z" fill="#414651"/>
                  </g>
                </g>
              </g>
              <g id="Grupo_85" data-name="Grupo 85">
                <path id="Trazado_75" data-name="Trazado 75" d="M616.625,3248.339a8.1,8.1,0,0,0-.116-2.183l2.087-1.427-1.487-3.042-2.361.752a8.137,8.137,0,0,0-1.68-1.518l.451-2.406-3.2-1.1-1.1,2.13a8.159,8.159,0,0,0-2.338.125l-1.343-1.96-3.044,1.485.716,2.245a8.128,8.128,0,0,0-1.571,1.778l-2.318-.435-1.1,3.2,2.114,1.092a8.1,8.1,0,0,0,.163,2.332l-1.982,1.356,1.486,3.042,2.336-.744a8.119,8.119,0,0,0,1.712,1.478l-.457,2.437,3.2,1.1,1.162-2.248a8.064,8.064,0,0,0,2.18-.151l1.441,2.1,3.043-1.485-.78-2.449a8.13,8.13,0,0,0,1.426-1.613l2.528.473,1.1-3.2Zm-8.116,4.056a4.759,4.759,0,1,1,4.761-4.758A4.759,4.759,0,0,1,608.509,3252.4Z" fill="#eec251"/>
                <path id="Trazado_76" data-name="Trazado 76" d="M607.054,3258.738l-4.081-1.4.478-2.548a8.637,8.637,0,0,1-1.284-1.109l-2.45.781-1.894-3.877,2.074-1.418a8.6,8.6,0,0,1-.123-1.77l-2.218-1.146,1.4-4.079,2.429.455a8.643,8.643,0,0,1,1.2-1.356l-.75-2.353,3.878-1.893,1.408,2.057a8.716,8.716,0,0,1,1.776-.095l1.153-2.229,4.081,1.4-.473,2.523a8.732,8.732,0,0,1,1.261,1.139l2.468-.786,1.894,3.876-2.187,1.5a8.73,8.73,0,0,1,.087,1.616l2.367,1.222-1.4,4.08-2.644-.495a8.651,8.651,0,0,1-1.05,1.187l.816,2.562-3.878,1.892-1.505-2.2a8.649,8.649,0,0,1-1.615.111Zm-2.854-2.117,2.326.8,1.11-2.148.351.023a7.553,7.553,0,0,0,2.036-.141l.35-.072,1.381,2.016,2.21-1.079-.748-2.343.268-.232a7.589,7.589,0,0,0,1.332-1.507l.2-.293,2.42.453.8-2.324-2.172-1.121.03-.357a7.605,7.605,0,0,0-.109-2.038l-.066-.346,1.994-1.363-1.079-2.208-2.263.72-.231-.277a7.633,7.633,0,0,0-1.569-1.417l-.292-.2.431-2.295-2.326-.8-1.055,2.039-.36-.033a7.606,7.606,0,0,0-2.183.117l-.349.07-1.281-1.871-2.21,1.078.684,2.145-.275.232a7.585,7.585,0,0,0-1.466,1.66l-.2.3-2.216-.415-.8,2.324,2.017,1.042-.026.354a7.548,7.548,0,0,0,.152,2.178l.076.354-1.9,1.3,1.079,2.208,2.229-.71.232.265a7.556,7.556,0,0,0,1.6,1.38l.3.2Zm4.309-3.688a5.3,5.3,0,1,1,5.3-5.3A5.3,5.3,0,0,1,608.509,3252.933Zm0-9.518a4.221,4.221,0,1,0,4.224,4.222A4.228,4.228,0,0,0,608.509,3243.415Z" fill="#414651"/>
              </g>
              <g id="Grupo_87" data-name="Grupo 87">
                <g id="Grupo_86" data-name="Grupo 86">
                  <path id="Trazado_77" data-name="Trazado 77" d="M634.977,3246.857c-1.609,1.67-5.049,4.294-2.706,12.02H612.28s2.094-6.56-4.412-13.922c-9.669-10.941-2.767-30.977,15.629-30.54,6.664.158,11.932,2.973,14.807,6.123" fill="#f6fafc"/>
                </g>
              </g>
              <g id="Grupo_89" data-name="Grupo 89">
                <g id="Grupo_88" data-name="Grupo 88">
                  <path id="Trazado_78" data-name="Trazado 78" d="M632.167,3249c-1.185,1.266-5.662,3.255-3.937,9.111H616.052s.944-4.972-3.847-10.552a14.131,14.131,0,0,1,1.227-19.43,15.046,15.046,0,0,1,10.282-3.719,16.56,16.56,0,0,1,6.927,1.675,12.245,12.245,0,0,1,6.538,8.07,15.907,15.907,0,0,1-1.71,10.961,18.692,18.692,0,0,1-2.639,3.668" fill="#ccdcea"/>
                </g>
              </g>
              <g id="Grupo_91" data-name="Grupo 91">
                <g id="Grupo_90" data-name="Grupo 90">
                  <path id="Trazado_79" data-name="Trazado 79" d="M633.307,3260.26H611.228l.316-1c.078-.254,1.859-6.357-4.257-13.371a19.452,19.452,0,0,1-2.629-21.073c3.376-7.19,10.425-11.362,18.858-11.159,6.108.147,11.851,2.562,15.361,6.461l-1.147,1.032c-3.231-3.589-8.559-5.813-14.251-5.95-7.8-.192-14.316,3.652-17.424,10.272a17.906,17.906,0,0,0,2.4,19.4c5.3,6.077,5.134,11.633,4.785,13.845h18.023c-1.762-6.962,1.065-9.82,2.785-11.559.132-.134.259-.261.375-.384l1.118,1.063c-.123.13-.256.264-.4.406-1.66,1.678-4.167,4.214-2.13,11.024Z" fill="#414651"/>
                </g>
              </g>
              <g id="Grupo_92" data-name="Grupo 92">
                <path id="Trazado_80" data-name="Trazado 80" d="M643.164,3244.267a4.366,4.366,0,0,0,.44-1.09l1.341-.221-.032-1.82-1.322-.171a4.35,4.35,0,0,0-.474-1.121l.767-1.07-1.311-1.265-1.021.788a4.33,4.33,0,0,0-1.168-.47l-.209-1.261-1.821.032-.162,1.257a4.369,4.369,0,0,0-1.169.509l-1.031-.739-1.265,1.31.782,1.013a4.413,4.413,0,0,0-.451,1.174l-1.273.21.032,1.82,1.308.169a4.4,4.4,0,0,0,.5,1.109l-.777,1.084,1.311,1.264,1.077-.831a4.374,4.374,0,0,0,1.1.422l.224,1.353,1.821-.032.176-1.371a4.351,4.351,0,0,0,1.062-.462l1.124.805,1.265-1.309Zm-4.483.355a2.63,2.63,0,1,1,3.219-1.865A2.631,2.631,0,0,1,638.681,3244.622Z" fill="#d1504d"/>
                <path id="Trazado_81" data-name="Trazado 81" d="M638.231,3248.11l-.237-1.434a4.831,4.831,0,0,1-.718-.277l-1.147.884-1.787-1.723.824-1.15a4.858,4.858,0,0,1-.332-.741l-1.393-.179-.045-2.482,1.353-.224a4.779,4.779,0,0,1,.307-.8l-.834-1.08,1.724-1.786,1.1.787a4.8,4.8,0,0,1,.8-.349l.172-1.338,2.483-.044.222,1.345a4.74,4.74,0,0,1,.795.319L642.6,3237l1.787,1.724-.818,1.141a4.729,4.729,0,0,1,.317.748l1.4.181.045,2.482-1.428.236a4.724,4.724,0,0,1-.287.713l.889,1.151-1.724,1.786-1.194-.855a4.85,4.85,0,0,1-.689.3l-.187,1.456Zm-1.032-2.619.22.121a4,4,0,0,0,1,.384l.248.059.212,1.278,1.159-.02.167-1.293.242-.069a4,4,0,0,0,.969-.422l.216-.13,1.06.76.8-.834-.792-1.026.127-.221a3.988,3.988,0,0,0,.4-.995l.061-.243,1.263-.208-.021-1.159-1.249-.161-.066-.248a4,4,0,0,0-.432-1.024l-.129-.215.72-1-.835-.806-.963.744-.223-.13a4,4,0,0,0-1.066-.429l-.246-.06-.2-1.185-1.159.021-.152,1.182-.248.067a3.982,3.982,0,0,0-1.067.465l-.217.135-.97-.7-.805.834.734.951-.124.221a4,4,0,0,0-.411,1.071l-.057.251-1.2.2.021,1.159,1.228.158.07.241a4.009,4.009,0,0,0,.455,1.012l.137.218-.734,1.024.835.8Zm2.164-.4a3.016,3.016,0,1,1,1.506-.407A3.014,3.014,0,0,1,639.363,3245.095Zm-.006-5.262a2.247,2.247,0,1,0,1.128,4.192,2.248,2.248,0,0,0-1.128-4.192Z" fill="#414651"/>
              </g>
            </g>
            <g id="Grupo_94" data-name="Grupo 94">
              <path id="Trazado_82" data-name="Trazado 82" d="M652.208,3234.246" fill="none" stroke="#414651" stroke-miterlimit="10" stroke-width="8.948"/>
            </g>
          </g>
          <g id="Grupo_96" data-name="Grupo 96">
            <path id="Trazado_83" data-name="Trazado 83" d="M633.443,3265.188H611.085a2.682,2.682,0,0,1-2.679-2.679v-.761a2.682,2.682,0,0,1,2.679-2.679h22.358a2.681,2.681,0,0,1,2.678,2.679v.761A2.681,2.681,0,0,1,633.443,3265.188Zm-22.358-4.623a1.184,1.184,0,0,0-1.183,1.183v.761a1.184,1.184,0,0,0,1.183,1.184h22.358a1.185,1.185,0,0,0,1.183-1.184v-.761a1.184,1.184,0,0,0-1.183-1.183Z" fill="#414651"/>
          </g>
          <g id="Grupo_97" data-name="Grupo 97">
            <path id="Trazado_84" data-name="Trazado 84" d="M633.292,3270.428H610.934a2.681,2.681,0,0,1-2.678-2.678v-.762a2.681,2.681,0,0,1,2.678-2.679h22.358a2.682,2.682,0,0,1,2.679,2.679v.762A2.681,2.681,0,0,1,633.292,3270.428Zm-22.358-4.623a1.184,1.184,0,0,0-1.183,1.183v.762a1.185,1.185,0,0,0,1.183,1.183h22.358a1.184,1.184,0,0,0,1.183-1.183v-.762a1.183,1.183,0,0,0-1.183-1.183Z" fill="#414651"/>
          </g>
        </g>
        <g id="Grupo_114" data-name="Grupo 114">
          <g id="Grupo_99" data-name="Grupo 99">
            <path id="Trazado_85" data-name="Trazado 85" d="M630.708,3258.017c.824,0,1.434-.986,1.262-2.029-.721-4.342-3.715-7.534-7.3-7.534h-3.1c-3.59,0-6.583,3.216-7.3,7.563-.173,1.045.44,2.03,1.266,2.029Z" fill="#91b8c5"/>
          </g>
          <g id="Grupo_106" data-name="Grupo 106">
            <g id="Grupo_105" data-name="Grupo 105">
              <g id="Grupo_100" data-name="Grupo 100">
                <path id="Trazado_86" data-name="Trazado 86" d="M621.878,3236.81s-9.453,4.165-12.769-8.085C609.109,3228.725,623.479,3228.143,621.878,3236.81Z" fill="#78958a"/>
              </g>
              <g id="Grupo_101" data-name="Grupo 101">
                <path id="Trazado_87" data-name="Trazado 87" d="M622.519,3236.666s-2.15-11.867,16.366-10.809C638.885,3225.857,633.682,3241.662,622.519,3236.666Z" fill="#78958a"/>
              </g>
              <g id="Grupo_102" data-name="Grupo 102">
                <path id="Trazado_88" data-name="Trazado 88" d="M626.034,3238.147a10.954,10.954,0,0,1-3.546-.625l-.276-.095-.071-.284a9.227,9.227,0,0,1,1.652-7.313c2.486-3.306,7.243-5.114,14.138-5.373l.72-.027-.181.7c-.093.359-2.342,8.819-8.094,11.915A9.044,9.044,0,0,1,626.034,3238.147Zm-2.9-1.544a8.427,8.427,0,0,0,6.739-.506c4.422-2.38,6.69-8.459,7.353-10.534-6.149.343-10.376,1.993-12.57,4.911A8.265,8.265,0,0,0,623.129,3236.6Z" fill="#414651"/>
              </g>
              <g id="Grupo_103" data-name="Grupo 103">
                <path id="Trazado_89" data-name="Trazado 89" d="M619,3238.366a9.964,9.964,0,0,1-5.325-1.488c-2.842-1.786-4.718-5.051-5.576-9.707l-.132-.716.723.086c.368.045,9.067,1.132,12.178,5.729a6.388,6.388,0,0,1,.819,5.457l-.079.3-.3.081A9.47,9.47,0,0,1,619,3238.366Zm2.169-.778h0Zm-11.867-9.869c.854,3.952,2.515,6.725,4.944,8.25a9.3,9.3,0,0,0,6.482,1.166,5.281,5.281,0,0,0-.749-4.263C617.636,3229.408,611.442,3228.082,609.3,3227.719Z" fill="#414651"/>
              </g>
              <g id="Grupo_104" data-name="Grupo 104">
                <path id="Trazado_90" data-name="Trazado 90" d="M622.016,3251.509a.9.9,0,0,1-.9-.9l-.04-13.718a.9.9,0,0,1,.9-.9h0a.9.9,0,0,1,.9.9l.04,13.717a.9.9,0,0,1-.9.9Z" fill="#414651"/>
              </g>
            </g>
          </g>
          <g id="Grupo_107" data-name="Grupo 107">
            <path id="Trazado_91" data-name="Trazado 91" d="M622.75,3236.709a.4.4,0,0,1-.238-.727l9.526-6.994a.4.4,0,1,1,.476.649l-9.526,6.994A.405.405,0,0,1,622.75,3236.709Z" fill="#414651"/>
          </g>
          <g id="Grupo_108" data-name="Grupo 108">
            <path id="Trazado_92" data-name="Trazado 92" d="M621.859,3237.721a.4.4,0,0,1-.244-.082l-9.387-7.18a.4.4,0,1,1,.489-.639L622.1,3237a.4.4,0,0,1-.245.722Z" fill="#414651"/>
          </g>
          <g id="Grupo_109" data-name="Grupo 109">
            <path id="Trazado_93" data-name="Trazado 93" d="M614.1,3257.519a1.662,1.662,0,0,1-1.277-.624,2.4,2.4,0,0,1-.488-1.941c.837-4.8,4.263-8.155,8.331-8.155h3.374c4.072,0,7.5,3.341,8.332,8.125a2.4,2.4,0,0,1-.485,1.939,1.664,1.664,0,0,1-1.277.626h0l-16.507.03Zm6.566-9.926c-3.616,0-6.791,3.153-7.548,7.5a1.6,1.6,0,0,0,.313,1.293.881.881,0,0,0,.669.341h0l16.507-.03a.882.882,0,0,0,.669-.342,1.6,1.6,0,0,0,.312-1.292c-.767-4.4-3.871-7.467-7.55-7.467Z" fill="#414651"/>
          </g>
          <g id="Grupo_110" data-name="Grupo 110">
            <path id="Trazado_94" data-name="Trazado 94" d="M621.773,3245.84" fill="#414651"/>
          </g>
          <g id="Grupo_111" data-name="Grupo 111">
            <ellipse id="Elipse_4" data-name="Elipse 4" cx="1.113" cy="0.618" rx="1.113" ry="0.618" transform="translate(617.041 3250.537)" fill="#414651"/>
          </g>
          <g id="Grupo_112" data-name="Grupo 112">
            <ellipse id="Elipse_5" data-name="Elipse 5" cx="1.113" cy="0.618" rx="1.113" ry="0.618" transform="translate(621.199 3252.951)" fill="#414651"/>
          </g>
          <g id="Grupo_113" data-name="Grupo 113">
            <ellipse id="Elipse_6" data-name="Elipse 6" cx="1.113" cy="0.618" rx="1.113" ry="0.618" transform="translate(625.683 3251.29)" fill="#414651"/>
          </g>
        </g>
      </g>
      <g id="Grupo_125" data-name="Grupo 125">
        <g id="Grupo_116" data-name="Grupo 116">
          <path id="Trazado_95" data-name="Trazado 95" d="M884.153,3255.98v-11.973h-7.344v11.973l-8.7,14.653a4.435,4.435,0,0,0-.624,2.266v2.85h26v-2.85a4.435,4.435,0,0,0-.624-2.266Z" fill="#f6fafc"/>
        </g>
        <g id="Grupo_117" data-name="Grupo 117">
          <path id="Trazado_96" data-name="Trazado 96" d="M887.273,3261.233c-.1-.176-.887-.032-1.054-.025-.592.025-1.189.007-1.781.009-3.394.012-6.788.054-10.182.054-.678.006-.774.295-1.129.839-.694,1.061-1.327,2.157-1.952,3.257-.537.945-1.067,1.894-1.622,2.829l-1.448,2.437a4.435,4.435,0,0,0-.624,2.266v2.85h26v-2.85a4.435,4.435,0,0,0-.624-2.266Z" fill="#78958a"/>
        </g>
        <g id="Grupo_118" data-name="Grupo 118">
          <path id="Trazado_97" data-name="Trazado 97" d="M894.35,3276.618H866.612V3272.9a5.313,5.313,0,0,1,.746-2.71l8.582-14.447v-12.6h9.082v12.6l8.582,14.447a5.313,5.313,0,0,1,.746,2.71Zm-26-1.738h24.262V3272.9a3.578,3.578,0,0,0-.5-1.822l-8.826-14.858v-11.343h-5.606v11.343l-8.825,14.858a3.569,3.569,0,0,0-.5,1.822Z" fill="#414651"/>
        </g>
        <g id="Grupo_119" data-name="Grupo 119">
          <rect id="Rectángulo_34" data-name="Rectángulo 34" width="11.909" height="3.484" rx="1.313" transform="translate(874.428 3240.523)" fill="#f6fafc"/>
          <path id="Trazado_98" data-name="Trazado 98" d="M884.622,3244.795h-8.48a2.505,2.505,0,0,1-2.5-2.5v-.055a2.506,2.506,0,0,1,2.5-2.5h8.48a2.506,2.506,0,0,1,2.5,2.5v.055A2.505,2.505,0,0,1,884.622,3244.795Zm-8.48-3.483a.927.927,0,0,0-.926.925v.055a.927.927,0,0,0,.926.926h8.48a.926.926,0,0,0,.925-.926v-.055a.926.926,0,0,0-.925-.925Z" fill="#414651"/>
        </g>
        <g id="Grupo_120" data-name="Grupo 120">
          <rect id="Rectángulo_35" data-name="Rectángulo 35" width="2.779" height="0.987" transform="translate(877.305 3246.126)" fill="#414651"/>
        </g>
        <g id="Grupo_121" data-name="Grupo 121">
          <rect id="Rectángulo_36" data-name="Rectángulo 36" width="2.779" height="0.987" transform="translate(877.405 3249.223)" fill="#414651"/>
        </g>
        <g id="Grupo_122" data-name="Grupo 122">
          <rect id="Rectángulo_37" data-name="Rectángulo 37" width="2.779" height="0.987" transform="translate(877.504 3252.32)" fill="#414651"/>
        </g>
        <g id="Grupo_123" data-name="Grupo 123">
          <rect id="Rectángulo_38" data-name="Rectángulo 38" width="3.076" height="0.987" transform="translate(877.206 3255.416)" fill="#414651"/>
        </g>
        <g id="Grupo_124" data-name="Grupo 124">
          <path id="Trazado_99" data-name="Trazado 99" d="M894.35,3276.618H866.612V3272.9a5.313,5.313,0,0,1,.746-2.71l8.582-14.447v-12.6h9.082v12.6l8.582,14.447a5.313,5.313,0,0,1,.746,2.71Zm-26-1.738h24.262V3272.9a3.578,3.578,0,0,0-.5-1.822l-8.826-14.858v-11.343h-5.606v11.343l-8.825,14.858a3.569,3.569,0,0,0-.5,1.822Z" fill="#414651"/>
        </g>
      </g>
      <g id="Grupo_126" data-name="Grupo 126">
        <path id="Trazado_100" data-name="Trazado 100" d="M881.548,3237.8a2.67,2.67,0,1,1,2.67-2.67A2.673,2.673,0,0,1,881.548,3237.8Zm0-4.359a1.689,1.689,0,1,0,1.689,1.689A1.691,1.691,0,0,0,881.548,3233.445Z" fill="#414651"/>
      </g>
      <g id="Grupo_127" data-name="Grupo 127">
        <path id="Trazado_101" data-name="Trazado 101" d="M875.6,3233.247a2.67,2.67,0,1,1,2.67-2.67A2.673,2.673,0,0,1,875.6,3233.247Zm0-4.359a1.689,1.689,0,1,0,1.689,1.689A1.691,1.691,0,0,0,875.6,3228.888Z" fill="#414651"/>
      </g>
      <g id="Grupo_130" data-name="Grupo 130">
        <g id="Grupo_128" data-name="Grupo 128">
          <path id="Trazado_102" data-name="Trazado 102" d="M849.107,3257.034v-7.215l9.785,4.088-9.675,3.127Z" fill="#d1504d"/>
          <path id="Trazado_103" data-name="Trazado 103" d="M849.28,3257.437h-.575v-8.222l11.346,4.741Zm.23-7.014v6.094l8.223-2.658Z" fill="#414651"/>
        </g>
        <g id="Grupo_129" data-name="Grupo 129">
          <path id="Trazado_104" data-name="Trazado 104" d="M848.634,3275.613a.608.608,0,0,1-.608-.608v-25.819a.608.608,0,1,1,1.216,0V3275A.608.608,0,0,1,848.634,3275.613Z" fill="#414651"/>
        </g>
      </g>
      <g id="Grupo_144" data-name="Grupo 144">
        <g id="Grupo_141" data-name="Grupo 141">
          <g id="Grupo_138" data-name="Grupo 138">
            <g id="Grupo_137" data-name="Grupo 137">
              <g id="Grupo_132" data-name="Grupo 132">
                <g id="Grupo_131" data-name="Grupo 131">
                  <path id="Trazado_105" data-name="Trazado 105" d="M907.3,3215.615c-11.609.093-17.43,13.46-10.578,20.72,4.61,4.885,3.218,9.322,3.218,9.322l13.933-.213c-1.713-5.175.955-6.765,1.761-8.118C924.342,3227.5,918.133,3215.528,907.3,3215.615Z" fill="#fff"/>
                </g>
              </g>
              <g id="Grupo_134" data-name="Grupo 134">
                <g id="Grupo_133" data-name="Grupo 133">
                  <path id="Trazado_106" data-name="Trazado 106" d="M912.372,3237.538c-.71.909-3.42,2.362-2.3,6.5l-7.431.114a10.7,10.7,0,0,0-2.462-7.451c-2.959-3.881-2.828-10.2.537-13.8a8.46,8.46,0,0,1,6.234-2.735,8.977,8.977,0,0,1,4.246,1.124,8.553,8.553,0,0,1,4.077,5.664,12.9,12.9,0,0,1-.924,7.794,16.755,16.755,0,0,1-1.954,2.81" fill="#eec251"/>
                </g>
              </g>
              <g id="Grupo_136" data-name="Grupo 136">
                <g id="Grupo_135" data-name="Grupo 135">
                  <path id="Trazado_107" data-name="Trazado 107" d="M898.872,3246.451l.322-1.027c.049-.161,1.169-4.094-3.041-8.555a12.645,12.645,0,0,1-2.343-13.61c2.186-5.178,7.224-8.327,13.475-8.422h0c4.732-.073,9.394,3.1,11.6,7.9,2.317,5.046,1.362,10.531-2.62,15.058a8.07,8.07,0,0,1-.628.828c-1.018,1.236-2.284,2.773-1.024,6.581l.333,1.007Zm8.437-30.058c-5.616.086-10.126,2.879-12.065,7.472a10.946,10.946,0,0,0,2.041,11.936c3.585,3.8,3.764,7.367,3.585,9.063l11.969-.183a7.082,7.082,0,0,1,1.592-7.052,6.465,6.465,0,0,0,.532-.7l.037-.063.049-.055c3.593-4.053,4.474-8.948,2.417-13.428-1.9-4.132-6.006-6.989-10.028-6.989Z" fill="#414651"/>
                </g>
              </g>
            </g>
          </g>
          <g id="Grupo_140" data-name="Grupo 140">
            <g id="Grupo_139" data-name="Grupo 139">
              <path id="Trazado_108" data-name="Trazado 108" d="M904.163,3245.312c-.048-3.281-.068-6.564-.212-9.842a10.385,10.385,0,0,0-.417-3.787,1.937,1.937,0,0,0-2.415-1.064c-2.029.8-.353,3.558.958,4.121a4.585,4.585,0,0,0,5.4-1.32c.85-1.132,1.621-4.367-.835-4a2.632,2.632,0,0,0-1.357,4.428,5.362,5.362,0,0,0,5.709.973,3.615,3.615,0,0,0,2.076-1.688,1.778,1.778,0,0,0-.693-2.182,2.514,2.514,0,0,0-3.07.273,4.188,4.188,0,0,0-1.112,3.37c.018,3.65.3,7.3.509,10.939.04.692,1.121.7,1.081,0-.219-3.8-.645-7.67-.507-11.48a2.605,2.605,0,0,1,.828-2.086c.571-.453,2.268-.476,2.009.65-.265,1.15-2.4,1.566-3.349,1.534-1.214-.039-3.25-.687-3.2-2.223.021-.6,1.281-2.168,1.691-1.12.19.487-.234,1.331-.484,1.727a3.43,3.43,0,0,1-3.86,1.351,2.07,2.07,0,0,1-1.478-1.2c-.1-.237-.233-.638-.094-.874.38-.639,1.115.063,1.277.5a10.664,10.664,0,0,1,.239,2.988q.075,1.668.113,3.336c.054,2.224.074,4.449.107,6.673a.541.541,0,0,0,1.081,0Z" fill="#414651"/>
            </g>
          </g>
        </g>
        <g id="Grupo_142" data-name="Grupo 142">
          <rect id="Rectángulo_39" data-name="Rectángulo 39" width="18.461" height="3.265" rx="1.23" transform="matrix(1, -0.015, 0.015, 1, 898.139, 3245.901)" fill="#91b8c5"/>
          <path id="Trazado_109" data-name="Trazado 109" d="M899.431,3249.827a1.945,1.945,0,0,1-1.942-1.914l-.012-.739a1.948,1.948,0,0,1,1.914-1.973l15.933-.244a1.946,1.946,0,0,1,1.973,1.914l.012.739a1.946,1.946,0,0,1-1.914,1.973l-15.933.244Zm15.923-3.508h-.009l-15.933.244a.584.584,0,0,0-.573.59l.011.739a.583.583,0,0,0,.582.573h.009l15.933-.244a.582.582,0,0,0,.573-.59l-.011-.739a.583.583,0,0,0-.178-.408A.576.576,0,0,0,915.354,3246.319Z" fill="#414651"/>
        </g>
        <g id="Grupo_143" data-name="Grupo 143">
          <rect id="Rectángulo_40" data-name="Rectángulo 40" width="18.461" height="3.265" rx="1.23" transform="matrix(1, -0.015, 0.015, 1, 897.991, 3248.974)" fill="#91b8c5"/>
          <path id="Trazado_110" data-name="Trazado 110" d="M899.284,3252.9a1.946,1.946,0,0,1-1.943-1.913l-.011-.74a1.948,1.948,0,0,1,1.913-1.973l15.934-.243a1.948,1.948,0,0,1,1.973,1.913l.011.739a1.948,1.948,0,0,1-1.914,1.974l-15.933.243Zm15.922-3.508H915.2l-15.934.244a.586.586,0,0,0-.573.591l.012.739a.574.574,0,0,0,.177.407.563.563,0,0,0,.413.165l15.933-.243a.586.586,0,0,0,.573-.591l-.011-.739a.571.571,0,0,0-.178-.407A.577.577,0,0,0,915.206,3249.391Z" fill="#414651"/>
        </g>
      </g>
      <g id="Grupo_156" data-name="Grupo 156">
        <g id="Grupo_145" data-name="Grupo 145">
          <path id="Trazado_111" data-name="Trazado 111" d="M793.408,3261.225h-.015l-.916.427-.184-.824,1.27-.578h.93v4.7h-1.085Z" fill="#414651"/>
        </g>
        <g id="Grupo_146" data-name="Grupo 146">
          <path id="Trazado_112" data-name="Trazado 112" d="M799.616,3262.577c0,1.453-.6,2.451-1.823,2.451-1.241,0-1.787-1.092-1.794-2.422,0-1.359.59-2.436,1.831-2.436C799.114,3260.17,799.616,3261.291,799.616,3262.577Zm-2.488.029c-.007,1.077.259,1.59.694,1.59s.672-.535.672-1.6c0-1.041-.229-1.591-.679-1.591C797.4,3261,797.121,3261.515,797.128,3262.606Z" fill="#414651"/>
        </g>
        <g id="Grupo_147" data-name="Grupo 147">
          <path id="Trazado_113" data-name="Trazado 113" d="M801.6,3261.225h-.015l-.915.427-.185-.824,1.27-.578h.93v4.7H801.6Z" fill="#414651"/>
        </g>
        <g id="Grupo_148" data-name="Grupo 148">
          <path id="Trazado_114" data-name="Trazado 114" d="M807.657,3261.225h-.015l-.916.427-.184-.824,1.27-.578h.93v4.7h-1.085Z" fill="#414651"/>
        </g>
        <g id="Grupo_149" data-name="Grupo 149">
          <path id="Trazado_115" data-name="Trazado 115" d="M813.865,3262.577c0,1.453-.6,2.451-1.823,2.451s-1.787-1.092-1.794-2.422c0-1.359.59-2.436,1.831-2.436C813.363,3260.17,813.865,3261.291,813.865,3262.577Zm-2.488.029c-.007,1.077.259,1.59.694,1.59s.672-.535.672-1.6c0-1.041-.229-1.591-.679-1.591C811.651,3261,811.37,3261.515,811.377,3262.606Z" fill="#414651"/>
        </g>
        <g id="Grupo_150" data-name="Grupo 150">
          <path id="Trazado_116" data-name="Trazado 116" d="M804.3,3269.342c0,1.453-.6,2.45-1.824,2.45s-1.786-1.091-1.794-2.421c0-1.359.591-2.436,1.831-2.436C803.8,3266.935,804.3,3268.055,804.3,3269.342Zm-2.488.029c-.007,1.077.258,1.59.694,1.59s.672-.535.672-1.6c0-1.041-.229-1.59-.679-1.59C802.089,3267.766,801.809,3268.279,801.816,3269.371Z" fill="#414651"/>
        </g>
        <g id="Grupo_151" data-name="Grupo 151">
          <path id="Trazado_117" data-name="Trazado 117" d="M806.29,3267.99h-.015l-.916.427-.184-.824,1.27-.579h.93v4.7H806.29Z" fill="#414651"/>
        </g>
        <g id="Grupo_152" data-name="Grupo 152">
          <path id="Trazado_118" data-name="Trazado 118" d="M812.5,3269.342c0,1.453-.6,2.45-1.823,2.45-1.241,0-1.787-1.091-1.794-2.421,0-1.359.59-2.436,1.831-2.436C812,3266.935,812.5,3268.055,812.5,3269.342Zm-2.488.029c-.007,1.077.259,1.59.694,1.59s.672-.535.672-1.6c0-1.041-.229-1.59-.679-1.59C810.283,3267.766,810,3268.279,810.01,3269.371Z" fill="#414651"/>
        </g>
        <g id="Grupo_153" data-name="Grupo 153">
          <path id="Trazado_119" data-name="Trazado 119" d="M814.484,3267.99h-.015l-.915.427-.185-.824,1.27-.579h.93v4.7h-1.085Z" fill="#414651"/>
        </g>
        <g id="Grupo_154" data-name="Grupo 154">
          <path id="Trazado_120" data-name="Trazado 120" d="M818.973,3267.99h-.015l-.916.427-.184-.824,1.27-.579h.93v4.7h-1.085Z" fill="#414651"/>
        </g>
        <g id="Grupo_155" data-name="Grupo 155">
          <path id="Trazado_121" data-name="Trazado 121" d="M825.181,3269.342c0,1.453-.6,2.45-1.823,2.45s-1.787-1.091-1.794-2.421c0-1.359.59-2.436,1.831-2.436C824.679,3266.935,825.181,3268.055,825.181,3269.342Zm-2.488.029c-.007,1.077.259,1.59.694,1.59s.672-.535.672-1.6c0-1.041-.229-1.59-.679-1.59C822.967,3267.766,822.686,3268.279,822.693,3269.371Z" fill="#414651"/>
        </g>
      </g>
      <g id="Grupo_157" data-name="Grupo 157">
        <path id="Trazado_122" data-name="Trazado 122" d="M686.773,3221.7H649.711a.833.833,0,1,1,0-1.665h37.062a.833.833,0,0,1,0,1.665Z" fill="#414651"/>
      </g>
      <g id="Grupo_158" data-name="Grupo 158">
        <path id="Trazado_123" data-name="Trazado 123" d="M691.976,3225.9H660.324a.656.656,0,0,1,0-1.311h31.652a.656.656,0,0,1,0,1.311Z" fill="#414651"/>
      </g>
      <g id="Grupo_159" data-name="Grupo 159">
        <path id="Trazado_124" data-name="Trazado 124" d="M899.611,3224.31H882.539a.656.656,0,1,1,0-1.311h17.072a.656.656,0,0,1,0,1.311Z" fill="#414651"/>
      </g>
      <g id="Grupo_160" data-name="Grupo 160">
        <path id="Trazado_125" data-name="Trazado 125" d="M888.516,3220.743H867.481a.656.656,0,0,1,0-1.311h21.035a.656.656,0,0,1,0,1.311Z" fill="#414651"/>
      </g>
      <g id="Grupo_161" data-name="Grupo 161">
        <path id="Trazado_126" data-name="Trazado 126" d="M908.977,3276.728H782.386v-1.748H907.229v-23.361h1.748Z" fill="#414651"/>
      </g>
      <g id="Grupo_162" data-name="Grupo 162">
        <rect id="Rectángulo_41" data-name="Rectángulo 41" width="27.253" height="1.457" transform="translate(757.42 3246.121)" fill="#414651"/>
      </g>
      <g id="Grupo_163" data-name="Grupo 163">
        <path id="Trazado_127" data-name="Trazado 127" d="M623.53,3278.3H562.649v-1.748h59.133v-6.4h1.748Z" fill="#414651"/>
      </g>
      <g id="Grupo_242" data-name="Grupo 242">
        <g id="Grupo_164" data-name="Grupo 164">
          <circle id="Elipse_7" data-name="Elipse 7" cx="24.123" cy="24.123" r="24.123" transform="translate(710.269 3213.851)" fill="#bfd5e6"/>
        </g>
        <g id="Grupo_165" data-name="Grupo 165">
          <circle id="Elipse_8" data-name="Elipse 8" cx="3.181" cy="3.181" r="3.181" transform="translate(727.235 3270.051)" fill="#d1504d"/>
        </g>
        <g id="Grupo_200" data-name="Grupo 200">
          <g id="Grupo_168" data-name="Grupo 168">
            <g id="Grupo_167" data-name="Grupo 167">
              <g id="Grupo_166" data-name="Grupo 166" clip-path="url(#clip-path-2)">
                <path id="Trazado_128" data-name="Trazado 128" d="M757.131,3205.053l1.489,10.1v45.177H704.8l-1.489-10.1v-45.177Z" fill="#414651"/>
                <path id="Trazado_129" data-name="Trazado 129" d="M758.8,3203.269l1.607,10.9v47.946h-57.27l-1.607-10.9v-47.946Z" fill="#414651"/>
              </g>
            </g>
          </g>
          <g id="Grupo_175" data-name="Grupo 175">
            <g id="Grupo_174" data-name="Grupo 174">
              <g id="Grupo_173" data-name="Grupo 173" clip-path="url(#clip-path-3)">
                <path id="Trazado_131" data-name="Trazado 131" d="M729.587,3204.088l.824,5.593v52h-10l-1.846-12.521v-45.076Z" fill="#414651"/>
              </g>
            </g>
          </g>
          <g id="Grupo_178" data-name="Grupo 178">
            <g id="Grupo_177" data-name="Grupo 177">
              <g id="Grupo_176" data-name="Grupo 176" clip-path="url(#clip-path-4)">
                <path id="Trazado_133" data-name="Trazado 133" d="M710.87,3260.347l-2.459-16.683V3204.6H725.8v55.748Z" fill="#414651"/>
              </g>
            </g>
          </g>
          <g id="Grupo_181" data-name="Grupo 181">
            <g id="Grupo_180" data-name="Grupo 180">
              <g id="Grupo_179" data-name="Grupo 179" clip-path="url(#clip-path-5)">
                <path id="Trazado_135" data-name="Trazado 135" d="M739.272,3203.207l5.673,38.487v19.991H732.657l-4.3-29.181v-29.3Z" fill="#414651"/>
              </g>
            </g>
          </g>
          <g id="Grupo_184" data-name="Grupo 184">
            <g id="Grupo_183" data-name="Grupo 183">
              <g id="Grupo_182" data-name="Grupo 182" clip-path="url(#clip-path-6)">
                <path id="Trazado_137" data-name="Trazado 137" d="M750.448,3204.6l2.362,16.021v39.78H737.4l-3.133-21.255V3204.6Z" fill="#414651"/>
              </g>
            </g>
          </g>
          <g id="Grupo_187" data-name="Grupo 187">
            <g id="Grupo_186" data-name="Grupo 186">
              <g id="Grupo_185" data-name="Grupo 185" clip-path="url(#clip-path-7)">
                <path id="Trazado_139" data-name="Trazado 139" d="M702.8,3244.512l-1.178-7.99v-4.4h59.132v12.385Z" fill="#414651"/>
              </g>
            </g>
          </g>
          <g id="Grupo_190" data-name="Grupo 190">
            <g id="Grupo_189" data-name="Grupo 189">
              <g id="Grupo_188" data-name="Grupo 188" clip-path="url(#clip-path-8)">
                <path id="Trazado_141" data-name="Trazado 141" d="M714.781,3214.424l-.411-2.789V3207.7h31.759v6.727Z" fill="#414651"/>
              </g>
            </g>
          </g>
          <g id="Grupo_193" data-name="Grupo 193">
            <g id="Grupo_192" data-name="Grupo 192">
              <g id="Grupo_191" data-name="Grupo 191" clip-path="url(#clip-path-9)">
                <path id="Trazado_143" data-name="Trazado 143" d="M704.176,3232.483l-1.044-7.082v-4.039H757.9v11.121Z" fill="#414651"/>
              </g>
            </g>
          </g>
          <g id="Grupo_196" data-name="Grupo 196">
            <g id="Grupo_195" data-name="Grupo 195">
              <g id="Grupo_194" data-name="Grupo 194" clip-path="url(#clip-path-10)">
                <path id="Trazado_145" data-name="Trazado 145" d="M706.426,3256.919l-1.283-8.7v-4.5h52.449v13.2Z" fill="#414651"/>
              </g>
            </g>
          </g>
          <g id="Grupo_199" data-name="Grupo 199">
            <g id="Grupo_198" data-name="Grupo 198">
              <g id="Grupo_197" data-name="Grupo 197" clip-path="url(#clip-path-11)">
                <path id="Trazado_147" data-name="Trazado 147" d="M758.292,3203.811l1.571,10.656v47.1H703.64l-1.571-10.656v-47.1Z" fill="#414651"/>
                <path id="Trazado_148" data-name="Trazado 148" d="M760.033,3201.947l1.694,11.492v50H701.9l-1.694-11.492v-50Z" fill="#414651"/>
              </g>
            </g>
          </g>
        </g>
        <g id="Grupo_214" data-name="Grupo 214">
          <g id="Grupo_203" data-name="Grupo 203">
            <g id="Grupo_202" data-name="Grupo 202">
              <g id="Grupo_201" data-name="Grupo 201" clip-path="url(#clip-path-12)">
                <rect id="Rectángulo_42" data-name="Rectángulo 42" width="4.174" height="4.171" transform="translate(729.071 3191.749)" fill="#414651"/>
                <rect id="Rectángulo_43" data-name="Rectángulo 43" width="8.784" height="8.78" transform="translate(726.766 3189.444)" fill="#414651"/>
              </g>
            </g>
          </g>
          <g id="Grupo_210" data-name="Grupo 210">
            <g id="Grupo_206" data-name="Grupo 206">
              <g id="Grupo_205" data-name="Grupo 205">
                <g id="Grupo_204" data-name="Grupo 204" clip-path="url(#clip-path-13)">
                  <rect id="Rectángulo_44" data-name="Rectángulo 44" width="5.993" height="5.99" transform="translate(767.989 3233.054)" fill="#414651"/>
                </g>
              </g>
            </g>
            <g id="Grupo_209" data-name="Grupo 209">
              <g id="Grupo_208" data-name="Grupo 208">
                <g id="Grupo_207" data-name="Grupo 207" clip-path="url(#clip-path-14)">
                  <rect id="Rectángulo_46" data-name="Rectángulo 46" width="5.644" height="5.64" transform="translate(768.163 3233.229)" fill="#414651"/>
                  <rect id="Rectángulo_47" data-name="Rectángulo 47" width="6.343" height="6.339" transform="translate(767.814 3232.879)" fill="#414651"/>
                </g>
              </g>
            </g>
          </g>
          <g id="Grupo_213" data-name="Grupo 213">
            <g id="Grupo_212" data-name="Grupo 212">
              <g id="Grupo_211" data-name="Grupo 211" clip-path="url(#clip-path-15)">
                <path id="Trazado_152" data-name="Trazado 152" d="M770.226,3192.337l2.212,15.005v23.571H738.813l-4.972-33.727v-4.849Z" fill="#414651"/>
              </g>
            </g>
          </g>
        </g>
        <g id="Grupo_228" data-name="Grupo 228">
          <g id="Grupo_217" data-name="Grupo 217">
            <g id="Grupo_216" data-name="Grupo 216">
              <g id="Grupo_215" data-name="Grupo 215" clip-path="url(#clip-path-16)">
                <rect id="Rectángulo_48" data-name="Rectángulo 48" width="4.174" height="4.171" transform="translate(728.025 3271.19)" fill="#414651"/>
                <rect id="Rectángulo_49" data-name="Rectángulo 49" width="8.784" height="8.78" transform="translate(725.72 3268.885)" fill="#414651"/>
              </g>
            </g>
          </g>
          <g id="Grupo_224" data-name="Grupo 224">
            <g id="Grupo_220" data-name="Grupo 220">
              <g id="Grupo_219" data-name="Grupo 219">
                <g id="Grupo_218" data-name="Grupo 218" clip-path="url(#clip-path-17)">
                  <rect id="Rectángulo_50" data-name="Rectángulo 50" width="5.993" height="5.99" transform="translate(687.288 3228.066)" fill="#414651"/>
                </g>
              </g>
            </g>
            <g id="Grupo_223" data-name="Grupo 223">
              <g id="Grupo_222" data-name="Grupo 222">
                <g id="Grupo_221" data-name="Grupo 221" clip-path="url(#clip-path-18)">
                  <rect id="Rectángulo_52" data-name="Rectángulo 52" width="5.643" height="5.64" transform="translate(687.463 3228.241)" fill="#414651"/>
                  <rect id="Rectángulo_53" data-name="Rectángulo 53" width="6.343" height="6.339" transform="translate(687.114 3227.891)" fill="#414651"/>
                </g>
              </g>
            </g>
          </g>
          <g id="Grupo_227" data-name="Grupo 227">
            <g id="Grupo_226" data-name="Grupo 226">
              <g id="Grupo_225" data-name="Grupo 225" clip-path="url(#clip-path-19)">
                <path id="Trazado_156" data-name="Trazado 156" d="M722.457,3236.2l4.972,33.727v4.849H691.044l-2.212-15.006V3236.2Z" fill="#414651"/>
              </g>
            </g>
          </g>
        </g>
        <g id="Grupo_231" data-name="Grupo 231">
          <g id="Grupo_230" data-name="Grupo 230">
            <g id="Grupo_229" data-name="Grupo 229" clip-path="url(#clip-path-20)">
              <rect id="Rectángulo_54" data-name="Rectángulo 54" width="7.139" height="7.135" transform="translate(716.905 3223.335)" fill="#414651"/>
            </g>
          </g>
        </g>
        <g id="Grupo_234" data-name="Grupo 234">
          <g id="Grupo_233" data-name="Grupo 233">
            <g id="Grupo_232" data-name="Grupo 232" clip-path="url(#clip-path-21)">
              <rect id="Rectángulo_55" data-name="Rectángulo 55" width="3.569" height="3.567" transform="translate(748.138 3222.443)" fill="#414651"/>
            </g>
          </g>
        </g>
        <g id="Grupo_237" data-name="Grupo 237">
          <g id="Grupo_236" data-name="Grupo 236">
            <g id="Grupo_235" data-name="Grupo 235" clip-path="url(#clip-path-22)">
              <rect id="Rectángulo_56" data-name="Rectángulo 56" width="3.569" height="3.567" transform="translate(711.551 3246.523)" fill="#414651"/>
            </g>
          </g>
        </g>
        <g id="Grupo_240" data-name="Grupo 240">
          <g id="Grupo_239" data-name="Grupo 239">
            <g id="Grupo_238" data-name="Grupo 238" clip-path="url(#clip-path-23)">
              <rect id="Rectángulo_57" data-name="Rectángulo 57" width="5.354" height="5.351" transform="translate(736.537 3247.415)" fill="#414651"/>
            </g>
          </g>
        </g>
        <g id="Grupo_241" data-name="Grupo 241">
          <circle id="Elipse_13" data-name="Elipse 13" cx="2.386" cy="2.386" r="2.386" transform="translate(728.561 3191.318)" fill="#eec251"/>
        </g>
      </g>
      <g id="Grupo_261" data-name="Grupo 261">
        <g id="Grupo_243" data-name="Grupo 243">
          <path id="Trazado_158" data-name="Trazado 158" d="M802.405,3237.264a4.211,4.211,0,1,1-4.21-4.21A4.21,4.21,0,0,1,802.405,3237.264Z" fill="#ccdcea"/>
        </g>
        <g id="Grupo_244" data-name="Grupo 244">
          <path id="Trazado_159" data-name="Trazado 159" d="M816.444,3224.975a2.335,2.335,0,1,1-2.335-2.335A2.335,2.335,0,0,1,816.444,3224.975Z" fill="#ccdcea"/>
        </g>
        <g id="Grupo_245" data-name="Grupo 245">
          <path id="Trazado_160" data-name="Trazado 160" d="M799.534,3251.046a1.8,1.8,0,1,1-1.8-1.8A1.8,1.8,0,0,1,799.534,3251.046Z" fill="#ccdcea"/>
        </g>
        <g id="Grupo_246" data-name="Grupo 246">
          <path id="Trazado_161" data-name="Trazado 161" d="M784.725,3230.2a1.993,1.993,0,1,1-1.994-1.993A1.993,1.993,0,0,1,784.725,3230.2Z" fill="#ccdcea"/>
        </g>
        <g id="Grupo_247" data-name="Grupo 247">
          <path id="Trazado_162" data-name="Trazado 162" d="M797.584,3242.678a5.715,5.715,0,1,1,5.715-5.715A5.721,5.721,0,0,1,797.584,3242.678Zm0-10.391a4.676,4.676,0,1,0,4.676,4.676A4.681,4.681,0,0,0,797.584,3232.287Z" fill="#414651"/>
        </g>
        <g id="Grupo_248" data-name="Grupo 248">
          <path id="Trazado_163" data-name="Trazado 163" d="M781.942,3232.723a2.852,2.852,0,1,1,2.852-2.852A2.855,2.855,0,0,1,781.942,3232.723Zm0-4.595a1.743,1.743,0,1,0,1.743,1.743A1.745,1.745,0,0,0,781.942,3228.128Z" fill="#414651"/>
        </g>
        <g id="Grupo_249" data-name="Grupo 249">
          <path id="Trazado_164" data-name="Trazado 164" d="M796.6,3222.638a1.986,1.986,0,1,1-1.986-1.985A1.985,1.985,0,0,1,796.6,3222.638Z" fill="#91b8c5"/>
          <path id="Trazado_165" data-name="Trazado 165" d="M794.613,3225.178a2.54,2.54,0,1,1,2.541-2.54A2.543,2.543,0,0,1,794.613,3225.178Zm0-3.971a1.431,1.431,0,1,0,1.431,1.431A1.433,1.433,0,0,0,794.613,3221.207Z" fill="#414651"/>
        </g>
        <g id="Grupo_250" data-name="Grupo 250">
          <path id="Trazado_166" data-name="Trazado 166" d="M797.211,3254.26a3.112,3.112,0,1,1,3.112-3.112A3.115,3.115,0,0,1,797.211,3254.26Zm0-5.3a2.188,2.188,0,1,0,2.188,2.188A2.19,2.19,0,0,0,797.211,3248.96Z" fill="#414651"/>
        </g>
        <g id="Grupo_251" data-name="Grupo 251">
          <path id="Trazado_167" data-name="Trazado 167" d="M813.948,3228.231a3.711,3.711,0,1,1,3.711-3.711A3.716,3.716,0,0,1,813.948,3228.231Zm0-6.312a2.6,2.6,0,1,0,2.6,2.6A2.6,2.6,0,0,0,813.948,3221.919Z" fill="#414651"/>
        </g>
        <g id="Grupo_252" data-name="Grupo 252">
          <path id="Trazado_168" data-name="Trazado 168" d="M786.89,3246.565a2.268,2.268,0,1,1-2.268-2.268A2.268,2.268,0,0,1,786.89,3246.565Z" fill="#eec251"/>
          <path id="Trazado_169" data-name="Trazado 169" d="M784.622,3249.388a2.823,2.823,0,1,1,2.823-2.823A2.826,2.826,0,0,1,784.622,3249.388Zm0-4.536a1.714,1.714,0,1,0,1.714,1.713A1.716,1.716,0,0,0,784.622,3244.852Z" fill="#414651"/>
        </g>
        <g id="Grupo_253" data-name="Grupo 253">
          <path id="Trazado_170" data-name="Trazado 170" d="M815.25,3248.784a2.983,2.983,0,1,1-2.983-2.984A2.983,2.983,0,0,1,815.25,3248.784Z" fill="#91b8c5"/>
          <path id="Trazado_171" data-name="Trazado 171" d="M812.267,3252.322a3.538,3.538,0,1,1,3.538-3.538A3.542,3.542,0,0,1,812.267,3252.322Zm0-5.967a2.428,2.428,0,1,0,2.429,2.429A2.432,2.432,0,0,0,812.267,3246.355Z" fill="#414651"/>
        </g>
        <g id="Grupo_254" data-name="Grupo 254">
          <path id="Trazado_172" data-name="Trazado 172" d="M800.732,3236.963a3.148,3.148,0,1,1-3.148-3.148A3.148,3.148,0,0,1,800.732,3236.963Z" fill="#414651"/>
        </g>
        <g id="Grupo_255" data-name="Grupo 255">
          <rect id="Rectángulo_58" data-name="Rectángulo 58" width="12.325" height="1.529" transform="matrix(0.804, -0.595, 0.595, 0.804, 801.412, 3232.734)" fill="#414651"/>
        </g>
        <g id="Grupo_256" data-name="Grupo 256">
          <rect id="Rectángulo_59" data-name="Rectángulo 59" width="0.924" height="10.647" transform="matrix(0.608, -0.794, 0.794, 0.608, 801.565, 3241.097)" fill="#414651"/>
        </g>
        <g id="Grupo_257" data-name="Grupo 257">
          <rect id="Rectángulo_60" data-name="Rectángulo 60" width="1.109" height="9.929" transform="translate(783.665 3231.099) rotate(-66.794)" fill="#414651"/>
        </g>
        <g id="Grupo_258" data-name="Grupo 258">
          <rect id="Rectángulo_61" data-name="Rectángulo 61" width="9.183" height="1" transform="translate(786.107 3244.979) rotate(-30.993)" fill="#414651"/>
        </g>
        <g id="Grupo_259" data-name="Grupo 259">
          <rect id="Rectángulo_62" data-name="Rectángulo 62" width="6.67" height="0.731" transform="translate(796.846 3248.798) rotate(-86.787)" fill="#414651"/>
        </g>
        <g id="Grupo_260" data-name="Grupo 260">
          <rect id="Rectángulo_63" data-name="Rectángulo 63" width="0.795" height="7.577" transform="matrix(0.96, -0.279, 0.279, 0.96, 794.714, 3224.603)" fill="#414651"/>
        </g>
      </g>
      <g id="Grupo_279" data-name="Grupo 279">
        <g id="Grupo_278" data-name="Grupo 278">
          <g id="Grupo_277" data-name="Grupo 277">
            <g id="Grupo_262" data-name="Grupo 262">
              <path id="Trazado_173" data-name="Trazado 173" d="M850.282,3203.741a21.7,21.7,0,1,0,0,30.689A21.7,21.7,0,0,0,850.282,3203.741Zm-2.517,28.172a18.141,18.141,0,1,1,0-25.655A18.142,18.142,0,0,1,847.765,3231.913Z" fill="#ccdcea"/>
            </g>
            <g id="Grupo_263" data-name="Grupo 263">
              <path id="Trazado_174" data-name="Trazado 174" d="M867.591,3247.609a2.216,2.216,0,0,1,.227,3.079l-2.087,2.087a2.215,2.215,0,0,1-3.078-.227l-7.942-7.942a2.158,2.158,0,0,1-.186-3.036l2.088-2.088a2.159,2.159,0,0,1,3.036.186Z" fill="#ccdcea"/>
            </g>
            <g id="Grupo_264" data-name="Grupo 264">
              <ellipse id="Elipse_14" data-name="Elipse 14" cx="12.504" cy="2.749" rx="12.504" ry="2.749" transform="translate(822.169 3223.276)" fill="#91b8c5"/>
            </g>
            <g id="Grupo_265" data-name="Grupo 265">
              <path id="Trazado_175" data-name="Trazado 175" d="M834.032,3239.98a22.512,22.512,0,0,1-15.971-6.6h0a22.613,22.613,0,1,1,15.971,6.6Zm-14.717-7.859a20.813,20.813,0,1,0-6.1-14.717,20.838,20.838,0,0,0,6.1,14.717Z" fill="#414651"/>
            </g>
            <g id="Grupo_266" data-name="Grupo 266">
              <path id="Trazado_176" data-name="Trazado 176" d="M834.032,3236.1a18.7,18.7,0,1,1,13.227-5.47A18.651,18.651,0,0,1,834.032,3236.1Zm-12.474-6.223a17.642,17.642,0,1,0,0-24.949,17.662,17.662,0,0,0,0,24.949Z" fill="#414651"/>
            </g>
            <g id="Grupo_267" data-name="Grupo 267">
              <path id="Trazado_177" data-name="Trazado 177" d="M854.482,3240.491l-6.443-6.443,4.132-4.132,6.443,6.443Zm-5.162-6.443,5.162,5.162,2.851-2.851-5.162-5.162Z" fill="#414651"/>
            </g>
            <g id="Grupo_268" data-name="Grupo 268">
              <path id="Trazado_178" data-name="Trazado 178" d="M864.623,3251.323l-.12,0a2.811,2.811,0,0,1-1.867-.825l-7.941-7.942a2.711,2.711,0,0,1-.806-1.853,2.475,2.475,0,0,1,.725-1.838l2.241-2.242a2.477,2.477,0,0,1,1.839-.724,2.71,2.71,0,0,1,1.853.8l7.941,7.941a2.806,2.806,0,0,1,.826,1.867,2.455,2.455,0,0,1-.7,1.867l-2.241,2.241A2.437,2.437,0,0,1,864.623,3251.323Zm-6-14.65a1.708,1.708,0,0,0-1.22.5l-2.242,2.242a1.705,1.705,0,0,0-.5,1.268,1.935,1.935,0,0,0,.577,1.323l7.941,7.941a2.062,2.062,0,0,0,1.35.6,1.688,1.688,0,0,0,1.283-.476l2.241-2.242a1.676,1.676,0,0,0,.476-1.282,2.051,2.051,0,0,0-.6-1.35L860,3237.251a1.936,1.936,0,0,0-1.322-.577Z" fill="#414651"/>
            </g>
            <g id="Grupo_269" data-name="Grupo 269">
              <path id="Trazado_179" data-name="Trazado 179" d="M864.623,3251.643c-.044,0-.089,0-.134,0a3.124,3.124,0,0,1-2.079-.919l-7.942-7.942a3.032,3.032,0,0,1-.9-2.07,2.8,2.8,0,0,1,.818-2.074l2.242-2.242a2.808,2.808,0,0,1,2.073-.817,3.033,3.033,0,0,1,2.071.9l7.942,7.942h0a3.127,3.127,0,0,1,.919,2.079,2.767,2.767,0,0,1-.8,2.107l-2.241,2.242A2.755,2.755,0,0,1,864.623,3251.643Zm-6-14.649a1.39,1.39,0,0,0-.994.4l-2.242,2.241a1.39,1.39,0,0,0-.4,1.034,1.615,1.615,0,0,0,.483,1.1l7.942,7.942a1.741,1.741,0,0,0,1.137.5,1.36,1.36,0,0,0,1.043-.382l2.241-2.242a1.37,1.37,0,0,0,.383-1.043,1.743,1.743,0,0,0-.505-1.137l-7.942-7.942a1.621,1.621,0,0,0-1.1-.483Z" fill="#414651"/>
            </g>
            <g id="Grupo_270" data-name="Grupo 270">
              <path id="Trazado_180" data-name="Trazado 180" d="M864.2,3248.85a.387.387,0,0,1-.275-.114l-7.449-7.449a.389.389,0,1,1,.55-.55l7.449,7.449a.389.389,0,0,1-.275.664Z" fill="#414651"/>
            </g>
            <g id="Grupo_276" data-name="Grupo 276">
              <g id="Grupo_275" data-name="Grupo 275">
                <g id="Grupo_271" data-name="Grupo 271">
                  <rect id="Rectángulo_64" data-name="Rectángulo 64" width="4.925" height="18.315" transform="translate(835.154 3207.01)" fill="#eec251"/>
                  <path id="Trazado_181" data-name="Trazado 181" d="M840.589,3225.835h-5.945V3206.5h5.945Zm-4.925-1.02h3.9V3207.52h-3.9Z" fill="#414651"/>
                </g>
                <g id="Grupo_272" data-name="Grupo 272">
                  <rect id="Rectángulo_65" data-name="Rectángulo 65" width="4.29" height="11.869" transform="translate(828.971 3213.456)" fill="#d1504d"/>
                  <path id="Trazado_182" data-name="Trazado 182" d="M833.779,3225.842h-5.325v-12.9h5.325Zm-4.291-1.034h3.256v-10.835h-3.256Z" fill="#414651"/>
                </g>
                <g id="Grupo_273" data-name="Grupo 273">
                  <rect id="Rectángulo_66" data-name="Rectángulo 66" width="3.929" height="9.126" transform="translate(841.952 3216.199)" fill="#ccdcea"/>
                  <path id="Trazado_183" data-name="Trazado 183" d="M846.37,3225.814h-4.907v-10.1h4.907Zm-3.929-.978h2.951v-8.148h-2.951Z" fill="#414651"/>
                </g>
                <g id="Grupo_274" data-name="Grupo 274">
                  <rect id="Rectángulo_67" data-name="Rectángulo 67" width="3.908" height="7.913" transform="translate(823.195 3217.412)" fill="#91b8c5"/>
                  <path id="Trazado_184" data-name="Trazado 184" d="M827.591,3225.813h-4.884v-8.889h4.884Zm-3.909-.975h2.934V3217.9h-2.934Z" fill="#414651"/>
                </g>
              </g>
            </g>
          </g>
        </g>
      </g>
      <g id="Grupo_282" data-name="Grupo 282">
        <g id="Grupo_280" data-name="Grupo 280">
          <path id="Trazado_185" data-name="Trazado 185" d="M677.182,3221.422a1.008,1.008,0,0,1-.727-1.705l12.944-13.47,4.253,3.579,6.514-7.335,3.316,3.236,9.79-10.618a1.007,1.007,0,0,1,1.481,1.366l-11.2,12.141-3.288-3.209-6.414,7.223L689.545,3209l-11.637,12.111A1,1,0,0,1,677.182,3221.422Z" fill="#414651"/>
        </g>
        <g id="Grupo_281" data-name="Grupo 281">
          <path id="Trazado_186" data-name="Trazado 186" d="M708.211,3192.941l9.57-.961v9.6Z" fill="#414651"/>
        </g>
      </g>
      <g id="Grupo_319" data-name="Grupo 319">
        <g id="Grupo_283" data-name="Grupo 283">
          <path id="Trazado_187" data-name="Trazado 187" d="M558.283,3230.808l26.927-12.046.945,3.543-31.651,16.77a20.267,20.267,0,0,1-8.3-3.9" fill="#ccdcea"/>
        </g>
        <g id="Grupo_284" data-name="Grupo 284">
          <path id="Trazado_188" data-name="Trazado 188" d="M581.313,3240.407l-.866-.619a2.169,2.169,0,0,1-.906-1.762v-8.359a2.166,2.166,0,0,1,2.165-2.166h.866a2.166,2.166,0,0,1,2.166,2.166v8.978A2.166,2.166,0,0,1,581.313,3240.407Z" fill="#ccdcea"/>
        </g>
        <g id="Grupo_285" data-name="Grupo 285">
          <rect id="Rectángulo_68" data-name="Rectángulo 68" width="55.98" height="2.598" transform="translate(534.191 3270.91)" fill="#ccdcea"/>
        </g>
        <g id="Grupo_286" data-name="Grupo 286">
          <path id="Trazado_189" data-name="Trazado 189" d="M561.665,3243.858l-11.865-.068-4.1,25.187,15.824.091Z" fill="#ccdcea"/>
        </g>
        <g id="Grupo_318" data-name="Grupo 318">
          <g id="Grupo_287" data-name="Grupo 287">
            <path id="Trazado_190" data-name="Trazado 190" d="M533.331,3274.868v-2.721a3.411,3.411,0,0,1,3.408-3.407H588.97a3.411,3.411,0,0,1,3.408,3.407v2.721a3.412,3.412,0,0,1-3.408,3.408H536.739A3.412,3.412,0,0,1,533.331,3274.868Zm3.408-4a1.279,1.279,0,0,0-1.278,1.277v2.721a1.28,1.28,0,0,0,1.278,1.278H588.97a1.28,1.28,0,0,0,1.278-1.278v-2.721a1.279,1.279,0,0,0-1.278-1.277Z" fill="#414651"/>
          </g>
          <g id="Grupo_288" data-name="Grupo 288">
            <path id="Trazado_191" data-name="Trazado 191" d="M544.373,3242.622h18.639v28.05H538.407Zm17.219,1.42H545.523l-5.363,25.21h21.432Z" fill="#414651"/>
          </g>
          <g id="Grupo_291" data-name="Grupo 291">
            <g id="Grupo_290" data-name="Grupo 290">
              <g id="Grupo_289" data-name="Grupo 289" clip-path="url(#clip-path-24)">
                <path id="Trazado_192" data-name="Trazado 192" d="M561.353,3236.108l-.615,2.167H546.207v-12.969l.615-2.167h14.531Z" fill="#414651"/>
                <path id="Trazado_193" data-name="Trazado 193" d="M562.852,3236.935l-.806,2.839H544.708v-15.3l.806-2.839h17.338Z" fill="#414651"/>
              </g>
            </g>
          </g>
          <g id="Grupo_292" data-name="Grupo 292">
            <path id="Trazado_195" data-name="Trazado 195" d="M549.356,3230.707a4.424,4.424,0,1,1,4.424,4.422A4.427,4.427,0,0,1,549.356,3230.707Z" fill="#eec251"/>
            <path id="Trazado_196" data-name="Trazado 196" d="M553.78,3235.768a5.061,5.061,0,1,1,5.063-5.061A5.068,5.068,0,0,1,553.78,3235.768Zm0-8.845a3.784,3.784,0,1,0,3.786,3.784A3.79,3.79,0,0,0,553.78,3226.923Z" fill="#414651"/>
          </g>
          <g id="Grupo_295" data-name="Grupo 295">
            <g id="Grupo_294" data-name="Grupo 294">
              <g id="Grupo_293" data-name="Grupo 293" clip-path="url(#clip-path-25)">
                <path id="Trazado_197" data-name="Trazado 197" d="M585.739,3226.314l-.255.9h-9.233v-8.583l.255-.9h9.233Z" fill="#414651"/>
                <path id="Trazado_198" data-name="Trazado 198" d="M587.07,3227.049l-.425,1.5H574.919V3217.9l.425-1.5H587.07Z" fill="#414651"/>
              </g>
            </g>
          </g>
          <g id="Grupo_300" data-name="Grupo 300">
            <g id="Grupo_297" data-name="Grupo 297">
              <g id="Grupo_296" data-name="Grupo 296">
                <path id="Trazado_200" data-name="Trazado 200" d="M578.2,3222.472a2.8,2.8,0,1,1,2.8,2.8A2.8,2.8,0,0,1,578.2,3222.472Z" fill="#78958a"/>
              </g>
            </g>
            <g id="Grupo_299" data-name="Grupo 299">
              <g id="Grupo_298" data-name="Grupo 298">
                <path id="Trazado_201" data-name="Trazado 201" d="M580.995,3225.724a3.252,3.252,0,1,1,3.253-3.252A3.256,3.256,0,0,1,580.995,3225.724Zm0-5.593a2.341,2.341,0,1,0,2.342,2.341A2.344,2.344,0,0,0,580.995,3220.131Z" fill="#414651"/>
              </g>
            </g>
          </g>
          <g id="Grupo_303" data-name="Grupo 303">
            <g id="Grupo_302" data-name="Grupo 302">
              <g id="Grupo_301" data-name="Grupo 301" clip-path="url(#clip-path-26)">
                <path id="Trazado_202" data-name="Trazado 202" d="M578.024,3219.333,577,3222.951H551.508v-2l1.039-3.661h25.477Z" fill="#414651"/>
              </g>
            </g>
          </g>
          <g id="Grupo_306" data-name="Grupo 306">
            <g id="Grupo_305" data-name="Grupo 305">
              <g id="Grupo_304" data-name="Grupo 304" clip-path="url(#clip-path-27)">
                <path id="Trazado_204" data-name="Trazado 204" d="M578.557,3228.461l-2.45,8.63H559.131v-1.81l2.473-8.71h16.954Z" fill="#414651"/>
              </g>
            </g>
          </g>
          <g id="Grupo_316" data-name="Grupo 316">
            <g id="Grupo_309" data-name="Grupo 309">
              <g id="Grupo_308" data-name="Grupo 308">
                <g id="Grupo_307" data-name="Grupo 307" clip-path="url(#clip-path-28)">
                  <rect id="Rectángulo_69" data-name="Rectángulo 69" width="8.218" height="13.3" transform="translate(576.963 3230.441)" fill="#414651"/>
                </g>
              </g>
            </g>
            <g id="Grupo_312" data-name="Grupo 312">
              <g id="Grupo_311" data-name="Grupo 311">
                <g id="Grupo_310" data-name="Grupo 310" clip-path="url(#clip-path-29)">
                  <rect id="Rectángulo_70" data-name="Rectángulo 70" width="1.631" height="12.869" transform="translate(580.301 3240.085)" fill="#414651"/>
                </g>
              </g>
            </g>
            <g id="Grupo_315" data-name="Grupo 315">
              <g id="Grupo_314" data-name="Grupo 314">
                <g id="Grupo_313" data-name="Grupo 313" clip-path="url(#clip-path-30)">
                  <path id="Trazado_208" data-name="Trazado 208" d="M586.6,3246.078l1.234,4.348v2.116H574.976v-6.464Z" fill="#414651"/>
                </g>
              </g>
            </g>
          </g>
          <g id="Grupo_317" data-name="Grupo 317">
            <path id="Trazado_210" data-name="Trazado 210" d="M581.222,3268.6h-4.466a1.363,1.363,0,0,1-1.18-2.044l2.233-3.865,2.233-3.866a1.363,1.363,0,0,1,2.36,0l2.234,3.866,2.232,3.865a1.363,1.363,0,0,1-1.18,2.044Z" fill="#d1504d"/>
            <path id="Trazado_211" data-name="Trazado 211" d="M585.688,3269.309h-8.932a2.071,2.071,0,0,1-1.793-3.108l4.465-7.73a2.05,2.05,0,0,1,1.794-1.036h0a2.05,2.05,0,0,1,1.794,1.036l4.466,7.73a2.072,2.072,0,0,1-1.794,3.108Zm-4.466-10.457a.644.644,0,0,0-.567.328l-4.465,7.73a.655.655,0,0,0,.566.982h8.932a.654.654,0,0,0,.566-.982l-4.465-7.73A.643.643,0,0,0,581.222,3258.852Z" fill="#414651"/>
          </g>
        </g>
      </g>
      <g id="Grupo_368" data-name="Grupo 368">
        <g id="Grupo_320" data-name="Grupo 320">
          <path id="Trazado_212" data-name="Trazado 212" d="M769.548,3260.99l-3.377,6.154h-6.687l-2.972-6.154,2.972-6.154h7.227" fill="#ccdcea"/>
        </g>
        <g id="Grupo_321" data-name="Grupo 321">
          <path id="Trazado_213" data-name="Trazado 213" d="M785.648,3269.989l-3.827,6.679h-7.43l-3.3-6.154,3.3-6.154,8.03-.075" fill="#ccdcea"/>
        </g>
        <g id="Grupo_322" data-name="Grupo 322">
          <path id="Trazado_214" data-name="Trazado 214" d="M783.994,3270.3l-2.18,3.648-4,.075-2.218-3.659,2.165-3.667,3.977-.075Z" fill="#91b8c5"/>
        </g>
        <g id="Grupo_323" data-name="Grupo 323">
          <path id="Trazado_215" data-name="Trazado 215" d="M767.256,3260.864,765,3264.512l-4,.075-2.218-3.659,2.165-3.666,4.052-.075Z" fill="#91b8c5"/>
        </g>
        <g id="Grupo_345" data-name="Grupo 345">
          <g id="Grupo_337" data-name="Grupo 337">
            <g id="Grupo_327" data-name="Grupo 327">
              <g id="Grupo_326" data-name="Grupo 326">
                <g id="Grupo_325" data-name="Grupo 325" clip-path="url(#clip-path-31)">
                  <path id="Trazado_216" data-name="Trazado 216" d="M782.05,3276.333l2.736-1.481v1.481Z" fill="#414651"/>
                  <path id="Trazado_217" data-name="Trazado 217" d="M774.369,3276.333l-2.864-5.291v-6.8h10.416l2.864,5.291v5.316l-2.736,1.481Z" fill="#414651"/>
                  <path id="Trazado_218" data-name="Trazado 218" d="M780.2,3277.336l5.681-3.075v3.075Z" fill="#414651"/>
                  <path id="Trazado_219" data-name="Trazado 219" d="M773.768,3277.336l-3.354-6.2v-7.9h12.108l3.356,6.2v4.823l-5.681,3.075Z" fill="#414651"/>
                </g>
              </g>
            </g>
            <g id="Grupo_330" data-name="Grupo 330">
              <g id="Grupo_329" data-name="Grupo 329">
                <g id="Grupo_328" data-name="Grupo 328" clip-path="url(#clip-path-32)">
                  <rect id="Rectángulo_71" data-name="Rectángulo 71" width="8.421" height="1.07" transform="translate(770.359 3269.656)" fill="#414651"/>
                </g>
              </g>
            </g>
            <g id="Grupo_333" data-name="Grupo 333">
              <g id="Grupo_332" data-name="Grupo 332">
                <g id="Grupo_331" data-name="Grupo 331" clip-path="url(#clip-path-33)">
                  <path id="Trazado_222" data-name="Trazado 222" d="M781.156,3277.4l-.244-.451,1.458-.789v1.24Z" fill="#414651"/>
                  <path id="Trazado_223" data-name="Trazado 223" d="M780.912,3276.949l-3.158-5.834V3269.8h1.251l3.364,6.215v.14Z" fill="#414651"/>
                </g>
              </g>
            </g>
            <g id="Grupo_336" data-name="Grupo 336">
              <g id="Grupo_335" data-name="Grupo 335">
                <g id="Grupo_334" data-name="Grupo 334" clip-path="url(#clip-path-34)">
                  <rect id="Rectángulo_72" data-name="Rectángulo 72" width="4.52" height="7.584" transform="translate(777.754 3263.291)" fill="#414651"/>
                </g>
              </g>
            </g>
          </g>
          <g id="Grupo_341" data-name="Grupo 341">
            <g id="Grupo_340" data-name="Grupo 340">
              <g id="Grupo_339" data-name="Grupo 339" clip-path="url(#clip-path-35)">
                <path id="Trazado_226" data-name="Trazado 226" d="M779.883,3269.62Z" fill="#414651"/>
                <path id="Trazado_227" data-name="Trazado 227" d="M779.883,3269.62Z" fill="#414651"/>
                <path id="Trazado_228" data-name="Trazado 228" d="M779.883,3269.62Z" fill="#414651"/>
              </g>
            </g>
          </g>
          <g id="Grupo_344" data-name="Grupo 344">
            <g id="Grupo_343" data-name="Grupo 343">
              <g id="Grupo_342" data-name="Grupo 342" clip-path="url(#clip-path-36)">
                <path id="Trazado_230" data-name="Trazado 230" d="M761.448,3274.019l-2.083-3.848v-1.195h11.6l1.808,3.339v1.7Z" fill="#414651"/>
              </g>
            </g>
          </g>
        </g>
        <g id="Grupo_365" data-name="Grupo 365">
          <g id="Grupo_359" data-name="Grupo 359">
            <g id="Grupo_349" data-name="Grupo 349">
              <g id="Grupo_348" data-name="Grupo 348">
                <g id="Grupo_347" data-name="Grupo 347" clip-path="url(#clip-path-37)">
                  <path id="Trazado_232" data-name="Trazado 232" d="M759.7,3266.65l-2.607-4.816v-6.315h9.617l2.607,4.817v6.315Z" fill="#414651"/>
                  <path id="Trazado_233" data-name="Trazado 233" d="M759.042,3267.741l-3.141-5.8v-7.51h11.46l3.14,5.8v7.511Z" fill="#414651"/>
                </g>
              </g>
            </g>
            <g id="Grupo_352" data-name="Grupo 352">
              <g id="Grupo_351" data-name="Grupo 351">
                <g id="Grupo_350" data-name="Grupo 350" clip-path="url(#clip-path-38)">
                  <rect id="Rectángulo_73" data-name="Rectángulo 73" width="7.863" height="0.982" transform="translate(762.608 3260.684)" fill="#414651"/>
                </g>
              </g>
            </g>
            <g id="Grupo_355" data-name="Grupo 355">
              <g id="Grupo_354" data-name="Grupo 354">
                <g id="Grupo_353" data-name="Grupo 353" clip-path="url(#clip-path-39)">
                  <path id="Trazado_236" data-name="Trazado 236" d="M762.408,3261.6l-3.151-5.822v-1.271h1.193l3.116,5.757v1.336Z" fill="#414651"/>
                </g>
              </g>
            </g>
            <g id="Grupo_358" data-name="Grupo 358">
              <g id="Grupo_357" data-name="Grupo 357">
                <g id="Grupo_356" data-name="Grupo 356" clip-path="url(#clip-path-40)">
                  <rect id="Rectángulo_74" data-name="Rectángulo 74" width="4.22" height="7.081" transform="translate(759.346 3260.604)" fill="#414651"/>
                </g>
              </g>
            </g>
          </g>
          <g id="Grupo_364" data-name="Grupo 364">
            <g id="Grupo_363" data-name="Grupo 363">
              <g id="Grupo_362" data-name="Grupo 362" clip-path="url(#clip-path-41)">
                <path id="Trazado_239" data-name="Trazado 239" d="M769.883,3262.31l-1.662-3.071V3257.6h10.6l1.92,3.547v1.162Z" fill="#414651"/>
              </g>
            </g>
          </g>
        </g>
        <g id="Grupo_366" data-name="Grupo 366">
          <path id="Trazado_241" data-name="Trazado 241" d="M761.213,3269.578a1.123,1.123,0,1,1-1.123-1.123A1.122,1.122,0,0,1,761.213,3269.578Z" fill="#eec251"/>
          <path id="Trazado_242" data-name="Trazado 242" d="M760.09,3271.159a1.581,1.581,0,1,1,1.582-1.582A1.584,1.584,0,0,1,760.09,3271.159Zm0-2.246a.664.664,0,1,0,.664.664A.665.665,0,0,0,760.09,3268.913Z" fill="#414651"/>
        </g>
        <g id="Grupo_367" data-name="Grupo 367">
          <path id="Trazado_243" data-name="Trazado 243" d="M781.219,3261.185a1.163,1.163,0,1,1-1.163-1.163A1.163,1.163,0,0,1,781.219,3261.185Z" fill="#d1504d"/>
          <path id="Trazado_244" data-name="Trazado 244" d="M780.056,3262.774a1.589,1.589,0,1,1,1.588-1.589A1.591,1.591,0,0,1,780.056,3262.774Zm0-2.327a.738.738,0,1,0,.737.738A.739.739,0,0,0,780.056,3260.447Z" fill="#414651"/>
        </g>
      </g>
      <g id="Grupo_392" data-name="Grupo 392">
        <g id="Grupo_369" data-name="Grupo 369">
          <rect id="Rectángulo_75" data-name="Rectángulo 75" width="47.128" height="12.66" rx="4.77" transform="translate(646.581 3263.338)" fill="#ccdcea"/>
        </g>
        <g id="Grupo_370" data-name="Grupo 370">
          <path id="Trazado_245" data-name="Trazado 245" d="M687.7,3278.266H653.191a6.269,6.269,0,0,1-6.262-6.262v-.481a6.269,6.269,0,0,1,6.262-6.262H687.7a6.269,6.269,0,0,1,6.262,6.262V3272A6.269,6.269,0,0,1,687.7,3278.266Zm-34.513-11.713a4.975,4.975,0,0,0-4.97,4.97V3272a4.975,4.975,0,0,0,4.97,4.97H687.7a4.975,4.975,0,0,0,4.97-4.97v-.481a4.975,4.975,0,0,0-4.97-4.97Z" fill="#414651"/>
        </g>
        <g id="Grupo_371" data-name="Grupo 371">
          <circle id="Elipse_15" data-name="Elipse 15" cx="3.26" cy="3.26" r="3.26" transform="translate(652.874 3268.42)" fill="#f5fcff"/>
          <path id="Trazado_246" data-name="Trazado 246" d="M656.134,3275.472a3.792,3.792,0,1,1,3.793-3.792A3.8,3.8,0,0,1,656.134,3275.472Zm0-6.52a2.729,2.729,0,1,0,2.729,2.728A2.731,2.731,0,0,0,656.134,3268.952Z" fill="#414651"/>
        </g>
        <g id="Grupo_372" data-name="Grupo 372">
          <circle id="Elipse_16" data-name="Elipse 16" cx="3.26" cy="3.26" r="3.26" transform="translate(681.518 3268.537)" fill="#f5fcff"/>
          <path id="Trazado_247" data-name="Trazado 247" d="M684.778,3275.59a3.793,3.793,0,1,1,3.792-3.792A3.8,3.8,0,0,1,684.778,3275.59Zm0-6.521a2.728,2.728,0,1,0,2.728,2.729A2.732,2.732,0,0,0,684.778,3269.069Z" fill="#414651"/>
        </g>
        <g id="Grupo_373" data-name="Grupo 373">
          <circle id="Elipse_17" data-name="Elipse 17" cx="3.26" cy="3.26" r="3.26" transform="translate(667.154 3268.537)" fill="#f5fcff"/>
          <path id="Trazado_248" data-name="Trazado 248" d="M670.415,3275.59a3.793,3.793,0,1,1,3.792-3.792A3.8,3.8,0,0,1,670.415,3275.59Zm0-6.521a2.728,2.728,0,1,0,2.728,2.729A2.732,2.732,0,0,0,670.415,3269.069Z" fill="#414651"/>
        </g>
        <g id="Grupo_374" data-name="Grupo 374">
          <rect id="Rectángulo_76" data-name="Rectángulo 76" width="7.933" height="7.933" rx="2.989" transform="translate(666.547 3253.677)" fill="#d1504d"/>
          <path id="Trazado_249" data-name="Trazado 249" d="M673.229,3262.208H667.8a1.851,1.851,0,0,1-1.849-1.849v-5.43a1.851,1.851,0,0,1,1.849-1.85h5.431a1.851,1.851,0,0,1,1.849,1.85v5.43A1.851,1.851,0,0,1,673.229,3262.208Zm-5.431-7.932a.654.654,0,0,0-.652.653v5.43a.654.654,0,0,0,.652.653h5.431a.653.653,0,0,0,.652-.653v-5.43a.653.653,0,0,0-.652-.653Z" fill="#414651"/>
        </g>
        <g id="Grupo_375" data-name="Grupo 375">
          <rect id="Rectángulo_77" data-name="Rectángulo 77" width="7.404" height="7.404" transform="translate(681.288 3253.942)" fill="#eec251"/>
          <path id="Trazado_250" data-name="Trazado 250" d="M689.09,3261.745h-8.2v-8.2h8.2Zm-7.4-.8h6.6v-6.606h-6.6Z" fill="#414651"/>
        </g>
        <g id="Grupo_376" data-name="Grupo 376">
          <rect id="Rectángulo_78" data-name="Rectángulo 78" width="7.404" height="7.404" transform="translate(652.929 3253.942)" fill="#eec251"/>
          <path id="Trazado_251" data-name="Trazado 251" d="M660.732,3261.745h-8.2v-8.2h8.2Zm-7.4-.8h6.606v-6.606h-6.606Z" fill="#414651"/>
        </g>
        <g id="Grupo_385" data-name="Grupo 385">
          <g id="Grupo_377" data-name="Grupo 377">
            <path id="Trazado_252" data-name="Trazado 252" d="M667.722,3231.445v11.335a1.39,1.39,0,0,0,1.933,1.079l6.249-2.18a1.78,1.78,0,0,0,1.289-1.62v-8.614" fill="#ccdcea"/>
          </g>
          <g id="Grupo_380" data-name="Grupo 380">
            <g id="Grupo_379" data-name="Grupo 379">
              <g id="Grupo_378" data-name="Grupo 378" clip-path="url(#clip-path-42)">
                <rect id="Rectángulo_79" data-name="Rectángulo 79" width="1.989" height="10.623" transform="translate(669.502 3242.49)" fill="#414651"/>
              </g>
            </g>
          </g>
          <g id="Grupo_384" data-name="Grupo 384">
            <g id="Grupo_383" data-name="Grupo 383">
              <g id="Grupo_382" data-name="Grupo 382">
                <g id="Grupo_381" data-name="Grupo 381" clip-path="url(#clip-path-43)">
                  <path id="Trazado_254" data-name="Trazado 254" d="M664.871,3231.445Z" fill="#414651"/>
                  <path id="Trazado_255" data-name="Trazado 255" d="M675.581,3242.226l-8.354,2.371H664.88l-.008-.03,10.71-13.122Z" fill="#414651"/>
                  <path id="Trazado_256" data-name="Trazado 256" d="M667.226,3244.6l8.354-2.371v2.371Z" fill="#414651"/>
                </g>
              </g>
            </g>
          </g>
        </g>
        <g id="Grupo_386" data-name="Grupo 386">
          <path id="Trazado_258" data-name="Trazado 258" d="M665.284,3254.735a.485.485,0,0,1-.442-.288l-2.2-4.994,6.587-4.524a.483.483,0,0,1,.547.8l-5.927,4.07,1.878,4.261a.483.483,0,0,1-.442.678Z" fill="#414651"/>
        </g>
        <g id="Grupo_387" data-name="Grupo 387">
          <path id="Trazado_259" data-name="Trazado 259" d="M675.463,3254.735a.479.479,0,0,1-.194-.041.485.485,0,0,1-.248-.637l1.879-4.261-5.928-4.07a.483.483,0,0,1,.547-.8l6.587,4.524-2.2,4.994A.483.483,0,0,1,675.463,3254.735Z" fill="#414651"/>
        </g>
        <g id="Grupo_388" data-name="Grupo 388">
          <path id="Trazado_260" data-name="Trazado 260" d="M672.422,3240.52a.327.327,0,0,1-.327-.328v-5.1a.328.328,0,0,1,.655,0v5.1A.328.328,0,0,1,672.422,3240.52Z" fill="#414651"/>
        </g>
        <g id="Grupo_391" data-name="Grupo 391">
          <g id="Grupo_390" data-name="Grupo 390">
            <g id="Grupo_389" data-name="Grupo 389">
              <path id="Trazado_261" data-name="Trazado 261" d="M689.019,3280.352H686.2a.522.522,0,0,1,0-1.044h2.823a.522.522,0,1,1,0,1.044Zm-4.958,0h-2.794a.522.522,0,1,1,0-1.044h2.794a.522.522,0,1,1,0,1.044Zm-4.929,0h-2.794a.522.522,0,1,1,0-1.044h2.794a.522.522,0,0,1,0,1.044Zm-4.929,0h-2.795a.522.522,0,1,1,0-1.044H674.2a.522.522,0,0,1,0,1.044Zm-4.93,0h-2.794a.522.522,0,1,1,0-1.044h2.794a.522.522,0,0,1,0,1.044Zm-4.929,0h-2.795a.522.522,0,0,1,0-1.044h2.795a.522.522,0,1,1,0,1.044Zm-4.93,0H656.62a.522.522,0,0,1,0-1.044h2.794a.522.522,0,0,1,0,1.044Zm-4.929,0h-2.794a.522.522,0,0,1,0-1.044h2.794a.522.522,0,1,1,0,1.044Zm-4.9-.3a.5.5,0,0,1-.153-.023,7.489,7.489,0,0,1-2.622-1.421.522.522,0,1,1,.669-.8,6.462,6.462,0,0,0,2.258,1.224.522.522,0,0,1-.152,1.021Zm41.532-.024a.522.522,0,0,1-.158-1.019,6.439,6.439,0,0,0,2.244-1.25.522.522,0,0,1,.678.794,7.5,7.5,0,0,1-2.6,1.451A.552.552,0,0,1,691.119,3280.023Zm-45.38-2.892a.523.523,0,0,1-.439-.24,7.456,7.456,0,0,1-1.084-2.778.522.522,0,1,1,1.028-.179,6.434,6.434,0,0,0,.934,2.392.523.523,0,0,1-.439.805Zm49.2-.067a.522.522,0,0,1-.442-.8,6.417,6.417,0,0,0,.907-2.4.522.522,0,1,1,1.03.167,7.441,7.441,0,0,1-1.053,2.79A.521.521,0,0,1,694.934,3277.064Zm-50.307-4.647a.522.522,0,0,1-.522-.522v-1.317a7.546,7.546,0,0,1,.165-1.575.521.521,0,1,1,1.02.217,6.565,6.565,0,0,0-.142,1.358v1.317A.521.521,0,0,1,644.627,3272.417Zm51.377-.079a.522.522,0,0,1-.522-.522v-1.238a6.51,6.51,0,0,0-.158-1.429.522.522,0,0,1,1.019-.229,7.613,7.613,0,0,1,.183,1.658v1.238A.522.522,0,0,1,696,3272.338Zm-50.47-4.692a.522.522,0,0,1-.453-.779,7.523,7.523,0,0,1,1.953-2.253.522.522,0,1,1,.638.826,6.471,6.471,0,0,0-1.683,1.941A.522.522,0,0,1,645.534,3267.646Zm49.523-.069a.523.523,0,0,1-.452-.259,6.466,6.466,0,0,0-1.7-1.923.522.522,0,0,1,.63-.833,7.543,7.543,0,0,1,1.978,2.231.522.522,0,0,1-.451.784Zm-45.845-3.059a.522.522,0,0,1-.18-1.012,7.545,7.545,0,0,1,2.608-.464h.315a.522.522,0,0,1,0,1.044h-.315a6.466,6.466,0,0,0-2.247.4A.544.544,0,0,1,649.212,3264.518Zm42.132-.027a.536.536,0,0,1-.175-.03,6.464,6.464,0,0,0-2.178-.375h-.4a.522.522,0,1,1,0-1.044h.4a7.526,7.526,0,0,1,2.528.435.522.522,0,0,1-.175,1.014Zm-4.883-.405h-2.795a.522.522,0,1,1,0-1.044h2.795a.522.522,0,0,1,0,1.044Zm-4.93,0h-2.794a.522.522,0,0,1,0-1.044h2.794a.522.522,0,0,1,0,1.044Zm-4.929,0h-2.794a.522.522,0,0,1,0-1.044H676.6a.522.522,0,1,1,0,1.044Zm-4.929,0h-2.795a.522.522,0,0,1,0-1.044h2.795a.522.522,0,0,1,0,1.044Zm-4.93,0h-2.794a.522.522,0,0,1,0-1.044h2.794a.522.522,0,1,1,0,1.044Zm-4.929,0h-2.8a.522.522,0,0,1,0-1.044h2.8a.522.522,0,0,1,0,1.044Zm-4.93,0H654.09a.522.522,0,1,1,0-1.044h2.794a.522.522,0,1,1,0,1.044Z" fill="#414651"/>
            </g>
          </g>
        </g>
      </g>
      <g id="Grupo_393" data-name="Grupo 393">
        <path id="Trazado_262" data-name="Trazado 262" d="M831.62,3268.48a.649.649,0,0,1-.446-.176l-17.435-16.246a.655.655,0,1,1,.893-.959l17.435,16.246a.655.655,0,0,1-.447,1.135Z" fill="#414651"/>
      </g>
    </g>
    <g id="Grupo_414" data-name="Grupo 414">
      <path id="Trazado_285" data-name="Trazado 285" d="M471.721,3294.554a26.969,26.969,0,0,1,11.744,10.261,29.154,29.154,0,0,1,4.133,15.675,28.856,28.856,0,0,1-4.133,15.618,27.09,27.09,0,0,1-11.744,10.2,41.689,41.689,0,0,1-17.943,3.591H440.511v20.862H418.979v-79.8h34.8A41.689,41.689,0,0,1,471.721,3294.554Zm-9.244,34.543q3.371-3.019,3.372-8.607t-3.372-8.664q-3.372-3.078-10-3.078H440.511v23.37h11.962Q459.1,3332.118,462.477,3329.1Z" fill="#4f5460"/>
      <path id="Trazado_286" data-name="Trazado 286" d="M515.817,3367a39.179,39.179,0,0,1-15.115-14.82,44.12,44.12,0,0,1,0-42.636,39.21,39.21,0,0,1,15.115-14.821,46.6,46.6,0,0,1,43.39,0,39.226,39.226,0,0,1,15.116,14.821,44.127,44.127,0,0,1,0,42.636A39.2,39.2,0,0,1,559.207,3367a46.6,46.6,0,0,1-43.39,0Zm32.135-16.188a20.1,20.1,0,0,0,7.394-8.037,27.458,27.458,0,0,0,0-23.826,20.112,20.112,0,0,0-7.394-8.037,20.546,20.546,0,0,0-20.88,0,20.084,20.084,0,0,0-7.394,8.037,27.458,27.458,0,0,0,0,23.826,20.071,20.071,0,0,0,7.394,8.037,20.546,20.546,0,0,0,20.88,0Z" fill="#4f5460"/>
      <path id="Trazado_287" data-name="Trazado 287" d="M591.123,3290.963h21.532v61.9h36.321v17.9H591.123Z" fill="#4f5460"/>
      <path id="Trazado_288" data-name="Trazado 288" d="M657.456,3290.963h21.532v79.8H657.456Zm14.681-23.826H692.8l-20.444,17.328h-14.79Z" fill="#4f5460"/>
      <path id="Trazado_289" data-name="Trazado 289" d="M710.523,3308.862h-23.38v-17.9h68.184v17.9H732.055v61.9H710.523Z" fill="#4f5460"/>
      <path id="Trazado_290" data-name="Trazado 290" d="M763.373,3290.963h21.532v79.8H763.373Z" fill="#4f5460"/>
      <path id="Trazado_291" data-name="Trazado 291" d="M816.712,3367.059a38.607,38.607,0,0,1-14.953-14.763,44.96,44.96,0,0,1,0-42.864,38.615,38.615,0,0,1,14.953-14.764,43.367,43.367,0,0,1,21.477-5.3A44.3,44.3,0,0,1,857,3293.243a36.49,36.49,0,0,1,13.92,11.172l-13.7,13q-7.4-9.347-17.943-9.348a21.342,21.342,0,0,0-11.038,2.85,19.362,19.362,0,0,0-7.5,8.037,27.959,27.959,0,0,0,0,23.826,19.35,19.35,0,0,0,7.5,8.037,21.324,21.324,0,0,0,11.038,2.85q10.547,0,17.943-9.348l13.7,13A36.432,36.432,0,0,1,857,3368.484a44.284,44.284,0,0,1-18.813,3.876A43.367,43.367,0,0,1,816.712,3367.059Z" fill="#4f5460"/>
      <path id="Trazado_292" data-name="Trazado 292" d="M930.188,3355.26H898l-5.982,15.5H870.052l33.6-79.8H924.86l33.711,79.8h-22.4Zm-6.307-16.644-9.787-25.536-9.787,25.536Z" fill="#4f5460"/>
      <path id="Trazado_293" data-name="Trazado 293" d="M973.469,3369.966a43.064,43.064,0,0,1-14.137-6.384l7.068-16.644a44.7,44.7,0,0,0,11.853,5.7,43.188,43.188,0,0,0,13.267,2.166q12.4,0,12.4-6.5,0-3.42-3.534-5.073a62.942,62.942,0,0,0-11.364-3.477,104.4,104.4,0,0,1-14.354-4.161,24.146,24.146,0,0,1-9.9-7.125q-4.134-4.9-4.132-13.224a23.675,23.675,0,0,1,3.806-13.167,25.684,25.684,0,0,1,11.364-9.292q7.557-3.42,18.541-3.42a62.584,62.584,0,0,1,14.789,1.767,44.114,44.114,0,0,1,12.832,5.187l-6.633,16.759q-10.876-6.156-21.1-6.156-6.417,0-9.352,1.995a6.038,6.038,0,0,0-2.936,5.187q0,3.192,3.48,4.788a60.575,60.575,0,0,0,11.2,3.306,101.26,101.26,0,0,1,14.409,4.161,24.869,24.869,0,0,1,9.9,7.068q4.185,4.846,4.187,13.167a23.218,23.218,0,0,1-3.806,13,26.184,26.184,0,0,1-11.418,9.291q-7.614,3.477-18.487,3.477A67.311,67.311,0,0,1,973.469,3369.966Z" fill="#4f5460"/>
    </g>
  </g>
</svg>
