<svg xmlns="http://www.w3.org/2000/svg" width="349.708" height="396.661" viewBox="0 0 349.708 396.661">
  <g id="Grupo_631" data-name="Grupo 631" transform="translate(-353.522 -6569.006)">
    <path id="Trazado_385" data-name="Trazado 385" d="M359.522,6945.635v-287.2a11.866,11.866,0,0,1,.184-2.088,11.631,11.631,0,0,1,.548-2.008,11.15,11.15,0,0,1,.89-1.851,10.536,10.536,0,0,1,1.2-1.622,9.928,9.928,0,0,1,1.458-1.331,9.392,9.392,0,0,1,1.664-.989,8.87,8.87,0,0,1,1.806-.609,8.665,8.665,0,0,1,1.878-.205H699.6a8.665,8.665,0,0,1,1.878.205,8.869,8.869,0,0,1,1.806.609,9.428,9.428,0,0,1,1.664.989,9.981,9.981,0,0,1,1.458,1.331,10.536,10.536,0,0,1,1.2,1.622,11.069,11.069,0,0,1,.889,1.851,11.541,11.541,0,0,1,.548,2.008,11.769,11.769,0,0,1,.185,2.088v287.2a11.765,11.765,0,0,1-.185,2.088,11.565,11.565,0,0,1-.548,2.008,11.059,11.059,0,0,1-.889,1.85,10.489,10.489,0,0,1-1.2,1.622,9.9,9.9,0,0,1-1.458,1.331,9.37,9.37,0,0,1-1.664.989,8.869,8.869,0,0,1-1.806.609,8.606,8.606,0,0,1-1.878.206H369.147a8.606,8.606,0,0,1-1.878-.206,8.87,8.87,0,0,1-1.806-.609,9.334,9.334,0,0,1-1.664-.989,9.847,9.847,0,0,1-1.458-1.331,10.489,10.489,0,0,1-1.2-1.622,11.14,11.14,0,0,1-.89-1.85,11.655,11.655,0,0,1-.548-2.008A11.862,11.862,0,0,1,359.522,6945.635Z" transform="translate(-6)" fill="#d5dbe0"/>
    <path id="Trazado_386" data-name="Trazado 386" d="M535.778,6569.006q3.744,0,7.47.367t7.4,1.1q3.672.73,7.255,1.817t7.043,2.52q3.461,1.433,6.762,3.2t6.416,3.846q3.114,2.079,6.008,4.456t5.542,5.023q2.649,2.648,5.024,5.542t4.455,6.008q2.08,3.114,3.846,6.416t3.2,6.762q1.432,3.459,2.52,7.043t1.817,7.255q.73,3.674,1.1,7.4t.367,7.472q0,3.744-.367,7.47t-1.1,7.4q-.729,3.672-1.817,7.256t-2.52,7.042q-1.433,3.461-3.2,6.762t-3.846,6.416q-2.079,3.112-4.455,6.008t-5.024,5.542q-2.648,2.649-5.542,5.024t-6.008,4.455q-3.114,2.081-6.416,3.846t-6.762,3.2q-3.459,1.433-7.043,2.52t-7.255,1.817q-3.674.732-7.4,1.1t-7.47.367q-3.746,0-7.471-.367t-7.4-1.1q-3.672-.73-7.255-1.817t-7.043-2.52q-3.461-1.433-6.762-3.2t-6.416-3.846q-3.114-2.079-6.008-4.455t-5.542-5.024q-2.649-2.648-5.024-5.542t-4.455-6.008q-2.08-3.114-3.846-6.416t-3.2-6.762q-1.432-3.459-2.52-7.042t-1.817-7.256q-.732-3.674-1.1-7.4t-.367-7.47q0-3.746.367-7.472t1.1-7.4q.73-3.672,1.817-7.255t2.52-7.043q1.432-3.459,3.2-6.762t3.846-6.416q2.079-3.114,4.455-6.008t5.024-5.542q2.647-2.649,5.542-5.023t6.008-4.456q3.114-2.081,6.416-3.846t6.762-3.2q3.459-1.433,7.043-2.52t7.255-1.817q3.674-.732,7.4-1.1T535.778,6569.006Z" transform="translate(-6)" fill="#005184"/>
    <circle id="Elipse_42" data-name="Elipse 42" cx="71.597" cy="71.597" r="71.597" transform="translate(458.802 6574.251)" fill="#fff"/>
    <line id="Línea_15" data-name="Línea 15" x2="310.319" transform="translate(375.545 6778.097)" fill="none" stroke="#707070" stroke-width="2"/>
    <text id="PAZ_JUSTICIAS_E_INSTITUCIONES_SÓLIDAS" data-name="PAZ, JUSTICIAS
E INSTITUCIONES SÓLIDAS" transform="translate(530.201 6750.335)" fill="#444242" font-size="18" font-family="Montserrat-Bold, Montserrat" font-weight="700"><tspan x="-71.424" y="0">PAZ, JUSTICIAS</tspan><tspan x="-123.624" y="21.6">E INSTITUCIONES SÓLIDAS</tspan></text>
    <circle id="Elipse_43" data-name="Elipse 43" cx="65.13" cy="65.13" r="65.13" transform="translate(465.268 6580.718)" fill="#005184"/>
    <text id="Promover_sociedades_pacíficas_e_inclusivas_para_el_desarrollo_sostenible_facilitar_el_acceso_a_la_justicia_para_todos_y_crear_instituciones_eficaces_responsables_e_inclusivas_a_todos_los_niveles._" data-name="Promover sociedades pacíficas e inclusivas para el desarrollo sostenible, facilitar el acceso a la justicia para todos y crear instituciones eficaces, responsables e inclusivas a todos los niveles.




" transform="translate(371.543 6795.667)" fill="#444242" font-size="16" font-family="OpenSans, Open Sans"><tspan x="35.042" y="17">Promover sociedades pacíficas e </tspan><tspan x="10.569" y="39">inclusivas para el desarrollo sostenible, </tspan><tspan x="1.209" y="61">facilitar el acceso a la justicia para todos y </tspan><tspan x="2.245" y="83">crear instituciones eficaces, responsables </tspan><tspan x="41.35" y="105">e inclusivas a todos los niveles.</tspan><tspan x="156.233" y="127"></tspan><tspan x="156.233" y="149"></tspan></text>
    <g id="Grupo_429" data-name="Grupo 429" transform="translate(-6)">
      <path id="Trazado_413" data-name="Trazado 413" d="M522.684,6599.92v4.8h.042l3.222-3.346h.043v20.914h4.593v-27.321h-3.669Z" fill="#fff"/>
      <path id="Trazado_414" data-name="Trazado 414" d="M546.662,6615.717v-4.029c0-4.473-1.773-6.732-5.076-6.732a3.928,3.928,0,0,0-3.789,2.217h-.04v-5.883c0-1.653.523-2.821,2.177-2.821s2.136.966,2.136,2.658v1.816h4.188v-1.451c0-4.03-1.328-6.85-6.407-6.85-4.834,0-6.648,3.1-6.648,7.374v13.3c0,4.231,1.855,7.293,6.69,7.293,4.875,0,6.769-2.659,6.769-6.89m-4.554.4c0,1.732-.644,2.739-2.215,2.739-1.531,0-2.136-1.048-2.136-2.739v-5c.081-1.532.726-2.5,2.177-2.5,1.569,0,2.174.967,2.174,2.739Z" fill="#fff"/>
    </g>
    <g id="Grupo_431" data-name="Grupo 431" transform="translate(-6)">
      <path id="Trazado_418" data-name="Trazado 418" d="M558.34,6630.883a4.014,4.014,0,0,0,1.459,6.466,4.013,4.013,0,0,0-1.459-6.466" fill="#fff"/>
      <path id="Trazado_419" data-name="Trazado 419" d="M556.092,6641.347a4.011,4.011,0,0,0-1.461-6.464,4.007,4.007,0,0,0,1.461,6.464" fill="#fff"/>
      <path id="Trazado_420" data-name="Trazado 420" d="M561.762,6639.385a4.54,4.54,0,0,0,3.116,1.321,4.73,4.73,0,0,0,2.889-1.854,4.53,4.53,0,0,0-3.117-1.322,4.727,4.727,0,0,0-2.888,1.855" fill="#fff"/>
      <path id="Trazado_421" data-name="Trazado 421" d="M564.149,6631.537a5.478,5.478,0,0,0-1.161,3.793,5.235,5.235,0,0,0,3.733-1.162,5.481,5.481,0,0,0,1.159-3.792,5.242,5.242,0,0,0-3.731,1.161" fill="#fff"/>
      <path id="Trazado_422" data-name="Trazado 422" d="M561.169,6644.831a4.733,4.733,0,0,0,3.208-1.224,4.54,4.54,0,0,0-2.776-1.932,4.745,4.745,0,0,0-3.211,1.227,4.542,4.542,0,0,0,2.779,1.929" fill="#fff"/>
      <path id="Trazado_423" data-name="Trazado 423" d="M562.647,6673.551H550.289a1.749,1.749,0,1,0,0,3.5h12.358a1.749,1.749,0,0,0,0-3.5" fill="#fff"/>
      <path id="Trazado_424" data-name="Trazado 424" d="M562.647,6692.821H550.289a1.747,1.747,0,1,0,0,3.493h12.358a1.747,1.747,0,1,0,0-3.493" fill="#fff"/>
      <path id="Trazado_425" data-name="Trazado 425" d="M507.074,6669.306a7.6,7.6,0,0,0-.858-.219s.317.1.858.219" fill="#fff"/>
      <path id="Trazado_426" data-name="Trazado 426" d="M562.192,6678.268h-11.45a1,1,0,0,0-1,1v3.466l-7.476.823-10.919-.251v-6.67a29.536,29.536,0,0,0,4.345-.881c10.511-2.966,12.8-11.657,12.575-17.671-.228-6.123,1.731-8.5,4.548-9.558a12.655,12.655,0,0,1,2.334-.619,18.689,18.689,0,0,0,1.009,5.336c.247-.014.5-.035.744-.063a17.781,17.781,0,0,1-1.031-5.378,12.959,12.959,0,0,1,2.495-.074,16.019,16.019,0,0,1-2.374-1.689c.473-2.9,2.2-4.681,3.981-6.5a21.559,21.559,0,0,0,2.785-3.27l-.62-.4a20.791,20.791,0,0,1-2.694,3.154c-1.736,1.777-3.488,3.591-4.081,6.471a23.183,23.183,0,0,1-1.8-1.813c-2.592-2.907-5.928-.771-10.686,3.659s-10.748,4.579-16.6-1.4c-7.714-7.9-14.444-7.851-19.056-7.4,3.156,1.343,4.259,4.293,5.858,11.791,1.674,7.867,5.9,11.424,11.673,11.917-3.214,1.134-3.371,2.948-7.677,5.922-3.36,2.318-8.092,1.584-10.009,1.151,3.52,1.1,7.69,4.789,11.42,6.075a27.6,27.6,0,0,0,6.806,1.394v6.386l-19.562-.446v4.455l36.532-.838,7.476.824v3.464a1,1,0,0,0,1,1h11.45a1,1,0,0,0,1-1v-11.359a1,1,0,0,0-1-1m-35.091-1.4q1.223.021,2.452-.066v6.456l-2.452-.056Z" fill="#fff"/>
      <path id="Trazado_427" data-name="Trazado 427" d="M504.669,6686.435a1.6,1.6,0,0,1-1.463,1.7h-.881a1.6,1.6,0,0,1-1.463-1.7v-3.079a1.6,1.6,0,0,1,1.463-1.7h.881a1.6,1.6,0,0,1,1.463,1.7Z" fill="#fff"/>
    </g>
  </g>
</svg>
