<svg xmlns="http://www.w3.org/2000/svg" width="349.708" height="427.186" viewBox="0 0 349.708 427.186">
  <g id="Grupo_629" data-name="Grupo 629" transform="translate(-541.353 -6109.152)">
    <path id="Trazado_393" data-name="Trazado 393" d="M725.36,6109.152q3.746,0,7.471.367t7.4,1.1q3.674.73,7.256,1.817t7.043,2.52q3.459,1.434,6.762,3.2t6.416,3.846q3.113,2.08,6.008,4.456t5.542,5.023q2.647,2.648,5.023,5.542t4.456,6.008q2.08,3.114,3.846,6.416t3.2,6.762q1.432,3.459,2.52,7.043t1.817,7.256q.73,3.672,1.1,7.4t.367,7.471q0,3.744-.367,7.471t-1.1,7.4q-.73,3.672-1.817,7.256t-2.52,7.043q-1.433,3.459-3.2,6.761t-3.846,6.416q-2.081,3.114-4.456,6.008t-5.023,5.542q-2.648,2.649-5.542,5.024t-6.008,4.455q-3.114,2.082-6.416,3.846t-6.762,3.2q-3.459,1.434-7.043,2.52t-7.256,1.818q-3.672.731-7.4,1.1t-7.471.367q-3.744,0-7.471-.367t-7.4-1.1q-3.672-.73-7.256-1.818t-7.042-2.52q-3.461-1.433-6.762-3.2t-6.416-3.846q-3.114-2.079-6.008-4.455t-5.542-5.024q-2.649-2.648-5.024-5.542t-4.456-6.008q-2.079-3.114-3.845-6.416t-3.2-6.761q-1.432-3.461-2.52-7.043t-1.818-7.256q-.73-3.672-1.1-7.4t-.367-7.471q0-3.746.367-7.471t1.1-7.4q.73-3.673,1.818-7.256t2.52-7.043q1.433-3.459,3.2-6.762t3.845-6.416q2.08-3.112,4.456-6.008t5.024-5.542q2.648-2.648,5.542-5.023t6.008-4.456q3.113-2.081,6.416-3.846t6.762-3.2q3.459-1.433,7.042-2.52t7.256-1.817q3.674-.731,7.4-1.1T725.36,6109.152Z" transform="translate(-6)" fill="#4c7ab4"/>
    <g id="Grupo_628" data-name="Grupo 628">
      <path id="Trazado_392" data-name="Trazado 392" d="M547.353,6524.253V6199.959a14.949,14.949,0,0,1,.185-2.357,14.4,14.4,0,0,1,.547-2.268,13.351,13.351,0,0,1,.89-2.089,11.876,11.876,0,0,1,1.2-1.831,10.392,10.392,0,0,1,1.458-1.5,9.158,9.158,0,0,1,1.664-1.117,8.244,8.244,0,0,1,1.806-.688,7.725,7.725,0,0,1,1.878-.232H887.436a7.726,7.726,0,0,1,1.878.232,8.244,8.244,0,0,1,1.806.688,9.192,9.192,0,0,1,1.664,1.117,10.392,10.392,0,0,1,1.458,1.5,11.876,11.876,0,0,1,1.2,1.831,13.351,13.351,0,0,1,.89,2.089,14.506,14.506,0,0,1,.547,2.268,14.949,14.949,0,0,1,.185,2.357v324.294a14.949,14.949,0,0,1-.185,2.357,14.493,14.493,0,0,1-.547,2.268,13.351,13.351,0,0,1-.89,2.089,11.876,11.876,0,0,1-1.2,1.831,10.492,10.492,0,0,1-1.458,1.5,9.217,9.217,0,0,1-1.664,1.117,8.2,8.2,0,0,1-1.806.688,7.7,7.7,0,0,1-1.878.232H556.978a7.7,7.7,0,0,1-1.878-.232,8.2,8.2,0,0,1-1.806-.688,9.183,9.183,0,0,1-1.664-1.117,10.492,10.492,0,0,1-1.458-1.5,11.876,11.876,0,0,1-1.2-1.831,13.351,13.351,0,0,1-.89-2.089,14.384,14.384,0,0,1-.547-2.268A14.949,14.949,0,0,1,547.353,6524.253Z" transform="translate(-6)" fill="#d5dbe0"/>
      <circle id="Elipse_48" data-name="Elipse 48" cx="71.597" cy="71.597" r="71.597" transform="translate(648.384 6114.398)" fill="#fff"/>
      <line id="Línea_18" data-name="Línea 18" x2="310.319" transform="translate(565.128 6318.243)" fill="none" stroke="#707070" stroke-width="2"/>
      <text id="VIDA_SUBMARINA" data-name="VIDA SUBMARINA" transform="translate(719.784 6299.849)" fill="#444242" font-size="18" font-family="Montserrat-Bold, Montserrat" font-weight="700"><tspan x="-82.512" y="0">VIDA SUBMARINA</tspan></text>
      <circle id="Elipse_49" data-name="Elipse 49" cx="65.13" cy="65.13" r="65.13" transform="translate(654.851 6120.864)" fill="#4c7ab4"/>
      <text id="Conservar_y_utilizar_en_forma_sostenible_los_océanos_los_mares_y_los_recursos_marinos_para_el_desarrollo_sostenible._" data-name="Conservar y utilizar en forma sostenible los océanos, los mares y los recursos marinos para el desarrollo sostenible.




" transform="translate(561.126 6335.813)" fill="#444242" font-size="16" font-family="OpenSans, Open Sans"><tspan x="8.245" y="17">Conservar y utilizar en forma sostenible </tspan><tspan x="18.956" y="39">los océanos, los mares y los recursos </tspan><tspan x="15.452" y="61">marinos para el desarrollo sostenible.</tspan><tspan x="156.233" y="83"></tspan><tspan x="156.233" y="105"></tspan></text>
      <g id="Grupo_425" data-name="Grupo 425" transform="translate(-6)">
        <path id="Trazado_398" data-name="Trazado 398" d="M722.316,6130.943v27.31h-4.592v-20.9h-.042l-3.22,3.341h-.042V6135.9l4.227-4.956Z" fill="#fff"/>
        <path id="Trazado_399" data-name="Trazado 399" d="M736.3,6158.259v-4.433h1.854v-3.586H736.3v-19.3h-4.514l-7.938,20.068v2.82h8.1v4.433Zm-8.423-8.019,4.11-11.244h.042v11.244Z" fill="#fff"/>
      </g>
      <g id="Grupo_427" data-name="Grupo 427" transform="translate(-6)">
        <path id="Trazado_403" data-name="Trazado 403" d="M766.337,6212.751c-1.7-2.305-12.72-16.348-28.164-16.348-13.411,0-27.758,12.164-27.758,12.164s-5.39-11.032-16.412-12.09c-.065,0-.134-.016-.208-.016h-.068a.447.447,0,0,0-.42.437,1.24,1.24,0,0,0,.171.4c1.42,2.357,5.048,9.07,5.048,15.775,0,6.727-3.648,13.456-5.056,15.8l-.094.151a.427.427,0,0,0-.069.232.439.439,0,0,0,.406.435l.119-.012a.464.464,0,0,0,.116-.01c11.058-1.029,16.467-12.094,16.467-12.094s14.347,12.165,27.758,12.165c15.444,0,26.459-14.044,28.164-16.345.047-.062.084-.117.118-.156a.446.446,0,0,0,.036-.17.41.41,0,0,0-.036-.167c-.034-.047-.071-.1-.118-.159m-19.577,2.1a4.507,4.507,0,1,1,4.512-4.51,4.51,4.51,0,0,1-4.512,4.51" fill="#fff"/>
        <path id="Trazado_404" data-name="Trazado 404" d="M693.655,6170a.39.39,0,0,0-.086-.018.443.443,0,0,0-.441.447v3.074a.43.43,0,0,0,.127.318c7.456,6.478,14.514.408,16.148-1.2a.43.43,0,0,1,.116-.126.467.467,0,0,1,.245-.079.434.434,0,0,1,.3.12.059.059,0,0,0,.022.018c8.421,8.036,17.25,1.528,19.087,0l.182-.167a.431.431,0,0,1,.166-.032.485.485,0,0,1,.177.032l.179.167c1.838,1.528,10.667,8.036,19.087,0a.2.2,0,0,0,.019-.018.422.422,0,0,1,.3-.12.453.453,0,0,1,.245.079.49.49,0,0,1,.125.126c1.631,1.6,8.683,7.674,16.143,1.2a.444.444,0,0,0,.13-.318v-3.074a.441.441,0,0,0-.439-.447.451.451,0,0,0-.1.018,2.428,2.428,0,0,1-.223.116,13.569,13.569,0,0,1-15.859-2.227c-.06-.056-.125-.113-.187-.179a.5.5,0,0,0-.189-.04.774.774,0,0,0-.133.02.513.513,0,0,0-.226.175c-1.924,1.467-10.752,7.444-18.616.107l-.116-.111a.489.489,0,0,0-.319-.132.466.466,0,0,0-.306.132l-.122.111c-7.86,7.337-16.7,1.36-18.62-.107a.5.5,0,0,0-.218-.175.974.974,0,0,0-.142-.02.523.523,0,0,0-.186.04,2.149,2.149,0,0,1-.189.179,13.567,13.567,0,0,1-15.858,2.227c-.08-.039-.155-.075-.225-.116" fill="#fff"/>
        <path id="Trazado_405" data-name="Trazado 405" d="M709.4,6183.814a.474.474,0,0,1,.117-.122.456.456,0,0,1,.244-.083.438.438,0,0,1,.3.124.063.063,0,0,0,.021.017c8.418,8.028,17.25,1.522,19.087,0l.181-.171a.455.455,0,0,1,.166-.027.5.5,0,0,1,.178.027l.182.171c1.835,1.522,10.664,8.028,19.086,0,0,0,.009-.01.017-.017a.423.423,0,0,1,.3-.124.448.448,0,0,1,.245.083.506.506,0,0,1,.125.122c1.631,1.606,8.683,7.677,16.144,1.193a.428.428,0,0,0,.131-.312v-3.081a.44.44,0,0,0-.441-.441.722.722,0,0,0-.094.018c-.07.034-.143.072-.226.112a13.575,13.575,0,0,1-15.857-2.224c-.06-.057-.123-.114-.187-.177a.369.369,0,0,0-.189-.044.275.275,0,0,0-.133.034.365.365,0,0,0-.224.165c-1.923,1.464-10.754,7.443-18.619.109l-.116-.117a.452.452,0,0,0-.319-.123.447.447,0,0,0-.308.123l-.119.117c-7.86,7.334-16.7,1.355-18.62-.109a.367.367,0,0,0-.218-.165.319.319,0,0,0-.142-.034.359.359,0,0,0-.183.044c-.062.063-.127.12-.194.177a13.571,13.571,0,0,1-15.854,2.224l-.227-.112a.714.714,0,0,0-.085-.018.443.443,0,0,0-.444.441v3.081a.419.419,0,0,0,.129.312c7.456,6.484,14.514.413,16.148-1.193" fill="#fff"/>
      </g>
    </g>
  </g>
</svg>
