<svg xmlns="http://www.w3.org/2000/svg" width="339.705" height="311.043" viewBox="0 0 339.705 311.043">
  <g id="Grupo_27" data-name="Grupo 27" transform="translate(-817.207 -1642.493)">
    <g id="Grupo_14" data-name="Grupo 14">
      <text id="Sociales" transform="translate(880.607 1726.13)" fill="#1a4566" font-size="17.134" font-family="Montserrat-SemiBold, Montserrat" font-weight="600"><tspan x="0" y="0">Sociales</tspan></text>
      <text id="Ambientales_" data-name="Ambientales " transform="translate(887.535 1872.988)" fill="#1a4566" font-size="16.182" font-family="Montserrat-SemiBold, Montserrat" font-weight="600"><tspan x="0" y="0">Ambientales </tspan></text>
      <text id="Económicas" transform="translate(1032.201 1848.996)" fill="#1a4566" font-size="16.182" font-family="Montserrat-SemiBold, Montserrat" font-weight="600"><tspan x="0" y="0">Económicas</tspan></text>
      <path id="Trazado_21" data-name="Trazado 21" d="M868.223,1921.557l19.7-6.921a66.01,66.01,0,0,0,18.351,13.311l-.437,20.873,9.884,2.358,9.883,2.358,9.035-18.822a65.993,65.993,0,0,0,22.383-3.591l14.452,15.069,8.656-5.321,8.656-5.322-6.926-19.714a65.991,65.991,0,0,0,13-17.788l21.122.442,2.358-9.884,2.358-9.883-18.827-9.037a66.015,66.015,0,0,0-3.557-22.825L1013.4,1832.4l-5.322-8.656-5.321-8.657-19.7,6.921A65.989,65.989,0,0,0,964.7,1808.7l.437-20.874-9.884-2.358-9.883-2.359-9.035,18.823a65.994,65.994,0,0,0-22.383,3.591l-14.451-15.069-8.657,5.321-8.656,5.322,6.926,19.713a66.016,66.016,0,0,0-13.479,18.76l-20.879-.436-2.358,9.883-2.358,9.883,19.045,9.143a66.014,66.014,0,0,0,3.573,21.743l-15.082,14.463,5.321,8.656,5.322,8.656Zm53.933,2.641a57.446,57.446,0,1,1,69.21-42.545A57.452,57.452,0,0,1,922.156,1924.2Z" fill="#51bad7" fill-rule="evenodd"/>
      <path id="Trazado_22" data-name="Trazado 22" d="M839.989,1738.883l19.145,2.152a60.878,60.878,0,0,0,9.908,18.421l-8.737,17.169,7.267,5.925,7.266,5.924,15.058-12.015a60.905,60.905,0,0,0,20.039,5.995l5.963,18.319,9.327-.949,9.327-.949,2.154-19.16a60.886,60.886,0,0,0,17.941-9.563l17.373,8.84,5.924-7.266,5.925-7.266L971.851,1749.4a60.891,60.891,0,0,0,6.2-20.393l18.334-5.967-.95-9.328-.948-9.327-19.145-2.152a60.894,60.894,0,0,0-9.907-18.421l8.736-17.169-7.266-5.925-7.267-5.924-15.058,12.015a60.932,60.932,0,0,0-20.038-6l-5.964-18.318-9.327.949-9.327.949-2.154,19.159a60.9,60.9,0,0,0-18.725,10.18l-17.174-8.738-5.925,7.266-5.924,7.266,12.158,15.238a60.9,60.9,0,0,0-5.755,19.5l-18.333,5.967.949,9.328.948,9.327Zm40.432-47.267a47.5,47.5,0,1,1,6.8,66.833,47.509,47.509,0,0,1-6.8-66.833Z" fill="#f3b840" fill-rule="evenodd"/>
      <path id="Trazado_23" data-name="Trazado 23" d="M1004.315,1867.8l18.984.687a60.046,60.046,0,0,0,11.117,17.374l-7.309,17.534,7.587,5.283,7.586,5.283,13.91-12.937a60.059,60.059,0,0,0,20.151,4.4l7.23,17.567,9.1-1.628,9.1-1.63.688-19a60.036,60.036,0,0,0,16.928-10.742l17.742,7.4,5.283-7.587,5.283-7.587-12.941-13.914a60.077,60.077,0,0,0,4.576-20.513l17.581-7.236-1.629-9.1-1.629-9.1-18.984-.688a60.056,60.056,0,0,0-11.117-17.373l7.309-17.534-7.587-5.283-7.587-5.284-13.91,12.938a60.058,60.058,0,0,0-20.151-4.4l-7.229-17.567-9.1,1.628-9.1,1.629-.687,19a60.071,60.071,0,0,0-17.654,11.407l-17.538-7.311-5.283,7.587-5.283,7.587,13.091,14.075a60.083,60.083,0,0,0-4.2,19.6l-17.581,7.236,1.629,9.1,1.629,9.1Zm44.257,20.948a53.219,53.219,0,1,1,74.086-13.261A53.225,53.225,0,0,1,1048.572,1888.743Z" fill="#e15f54" fill-rule="evenodd"/>
    </g>
    <g id="Grupo_18" data-name="Grupo 18">
      <g id="Grupo_15" data-name="Grupo 15">
        <path id="Trazado_24" data-name="Trazado 24" d="M865.124,1798.918a93.357,93.357,0,0,1-38.947-97.253l5.862,1.28a87.357,87.357,0,0,0,36.444,91Z" fill="#f3b840"/>
      </g>
      <g id="Grupo_17" data-name="Grupo 17">
        <g id="Grupo_16" data-name="Grupo 16">
          <path id="Trazado_25" data-name="Trazado 25" d="M833.067,1689.126c.495,6.889,2.183,15.748,4.959,21.744l-9.314-6.8-11.505.733C822.768,1701.238,828.951,1694.671,833.067,1689.126Z" fill="#f3b840"/>
        </g>
      </g>
    </g>
    <g id="Grupo_22" data-name="Grupo 22">
      <g id="Grupo_19" data-name="Grupo 19">
        <path id="Trazado_26" data-name="Trazado 26" d="M837.056,1901.094a93.362,93.362,0,0,1,26.484-101.36l3.954,4.513a87.361,87.361,0,0,0-24.782,94.844Z" fill="#51bad7"/>
      </g>
      <g id="Grupo_21" data-name="Grupo 21">
        <g id="Grupo_20" data-name="Grupo 20">
          <path id="Trazado_27" data-name="Trazado 27" d="M845.459,1912.672c-4.779-4.986-11.734-10.728-17.7-13.571l11.508-.712,8.389-7.909C845.655,1896.776,845.087,1905.777,845.459,1912.672Z" fill="#51bad7"/>
        </g>
      </g>
    </g>
    <g id="Grupo_26" data-name="Grupo 26">
      <g id="Grupo_23" data-name="Grupo 23">
        <path id="Trazado_28" data-name="Trazado 28" d="M1139.037,1782.867a87.358,87.358,0,0,0-96.413-17.718l-2.414-5.493a93.359,93.359,0,0,1,103.037,18.935Z" fill="#e15f54"/>
      </g>
      <g id="Grupo_25" data-name="Grupo 25">
        <g id="Grupo_24" data-name="Grupo 24">
          <path id="Trazado_29" data-name="Trazado 29" d="M1150.177,1791.107c-6.091-3.255-14.485-6.553-21.037-7.4l10.719-4.251,5.517-10.123C1145.426,1775.936,1147.682,1784.668,1150.177,1791.107Z" fill="#e15f54"/>
        </g>
      </g>
    </g>
  </g>
</svg>
