<svg xmlns="http://www.w3.org/2000/svg" width="349.709" height="427.186" viewBox="0 0 349.709 427.186">
  <g id="Grupo_642" data-name="Grupo 642" transform="translate(-918.601 -6109.152)">
    <path id="Trazado_394" data-name="Trazado 394" d="M918.6,6524.253V6199.959a14.949,14.949,0,0,1,.185-2.357,14.506,14.506,0,0,1,.547-2.268,13.346,13.346,0,0,1,.89-2.089,11.875,11.875,0,0,1,1.2-1.831,10.4,10.4,0,0,1,1.458-1.5,9.163,9.163,0,0,1,1.665-1.117,8.216,8.216,0,0,1,1.8-.688,7.725,7.725,0,0,1,1.878-.232h330.459a7.723,7.723,0,0,1,1.877.232,8.244,8.244,0,0,1,1.806.688,9.157,9.157,0,0,1,1.664,1.117,10.34,10.34,0,0,1,1.458,1.5,11.871,11.871,0,0,1,1.2,1.831,13.357,13.357,0,0,1,.89,2.089,14.522,14.522,0,0,1,.548,2.268,15.066,15.066,0,0,1,.185,2.357v324.294a15.066,15.066,0,0,1-.185,2.357,14.508,14.508,0,0,1-.548,2.268,13.357,13.357,0,0,1-.89,2.089,11.871,11.871,0,0,1-1.2,1.831,10.44,10.44,0,0,1-1.458,1.5,9.182,9.182,0,0,1-1.664,1.117,8.2,8.2,0,0,1-1.806.688,7.7,7.7,0,0,1-1.877.232H928.226a7.7,7.7,0,0,1-1.878-.232,8.168,8.168,0,0,1-1.8-.688,9.188,9.188,0,0,1-1.665-1.117,10.5,10.5,0,0,1-1.458-1.5,11.875,11.875,0,0,1-1.2-1.831,13.346,13.346,0,0,1-.89-2.089,14.493,14.493,0,0,1-.547-2.268A14.949,14.949,0,0,1,918.6,6524.253Z" fill="#d5dbe0"/>
    <path id="Trazado_395" data-name="Trazado 395" d="M1098.36,6109.152q3.746,0,7.471.367t7.4,1.1q3.673.73,7.256,1.817t7.043,2.52q3.459,1.434,6.762,3.2t6.416,3.846q3.112,2.08,6.008,4.456t5.542,5.023q2.648,2.648,5.023,5.542t4.456,6.008q2.081,3.114,3.846,6.416t3.2,6.762q1.432,3.459,2.52,7.043t1.817,7.256q.731,3.672,1.1,7.4t.367,7.471q0,3.744-.367,7.471t-1.1,7.4q-.73,3.672-1.817,7.256t-2.52,7.043q-1.433,3.459-3.2,6.761t-3.846,6.416q-2.08,3.114-4.456,6.008t-5.023,5.542q-2.648,2.649-5.542,5.024t-6.008,4.455q-3.114,2.082-6.416,3.846t-6.762,3.2q-3.459,1.434-7.043,2.52t-7.256,1.818q-3.672.731-7.4,1.1t-7.471.367q-3.744,0-7.471-.367t-7.4-1.1q-3.672-.73-7.256-1.818t-7.042-2.52q-3.461-1.433-6.762-3.2t-6.416-3.846q-3.114-2.079-6.008-4.455t-5.542-5.024q-2.649-2.648-5.024-5.542t-4.456-6.008q-2.079-3.114-3.845-6.416t-3.2-6.761q-1.433-3.461-2.52-7.043t-1.818-7.256q-.73-3.672-1.1-7.4t-.367-7.471q0-3.746.367-7.471t1.1-7.4q.73-3.673,1.818-7.256t2.52-7.043q1.432-3.459,3.2-6.762t3.845-6.416q2.08-3.112,4.456-6.008t5.024-5.542q2.648-2.648,5.542-5.023t6.008-4.456q3.112-2.081,6.416-3.846t6.762-3.2q3.459-1.433,7.042-2.52t7.256-1.817q3.673-.731,7.4-1.1T1098.36,6109.152Z" fill="#6fa43a"/>
    <circle id="Elipse_50" data-name="Elipse 50" cx="71.597" cy="71.597" r="71.597" transform="translate(1027.384 6114.398)" fill="#fff"/>
    <line id="Línea_19" data-name="Línea 19" x2="310.319" transform="translate(944.128 6318.243)" fill="none" stroke="#707070" stroke-width="2"/>
    <text id="VIDA_DE_ECOSISTEMAS_TERRESTRES" data-name="VIDA DE 
ECOSISTEMAS TERRESTRES" transform="translate(1098.784 6289.481)" fill="#444242" font-size="18" font-family="Montserrat-Bold, Montserrat" font-weight="700"><tspan x="-42.336" y="0">VIDA DE </tspan><tspan x="-130.284" y="21.6">ECOSISTEMAS TERRESTRES</tspan></text>
    <circle id="Elipse_51" data-name="Elipse 51" cx="65.13" cy="65.13" r="65.13" transform="translate(1033.851 6120.864)" fill="#6fa43a"/>
    <text id="Proteger_restablecer_y_promover_el_uso_sostenible_de_los_ecosistemas_terrestres_efectuar_una_ordenación_sostenible_de_los_bosques_luchar_contra_la_desertificación_detener_y_revertir_la_degradación_de_las_tierras_y_poner_freno_a_la_pérdida_de_la_diversi" data-name="Proteger, restablecer y promover el uso sostenible de los ecosistemas terrestres, efectuar una ordenación sostenible de los bosques, luchar contra la desertificación, detener y revertir la degradación de las tierras y poner freno a la pérdida de la diversi" transform="translate(940.126 6335.813)" fill="#444242" font-size="16" font-family="OpenSans, Open Sans"><tspan x="9.202" y="17">Proteger, restablecer y promover el uso </tspan><tspan x="5.745" y="39">sostenible de los ecosistemas terrestres, </tspan><tspan x="0.178" y="61">efectuar una ordenación sostenible de los </tspan><tspan x="4.186" y="83">bosques, luchar contra la desertificación, </tspan><tspan x="10.651" y="105">detener y revertir la degradación de las </tspan><tspan x="13.6" y="127">tierras y poner freno a la pérdida de la </tspan><tspan x="79.967" y="149">diversidad biológica.</tspan><tspan x="156.233" y="171"></tspan><tspan x="156.233" y="193"></tspan></text>
    <g id="Grupo_426" data-name="Grupo 426">
      <path id="Trazado_400" data-name="Trazado 400" d="M1086.615,6135.843v4.795h.04l3.222-3.345h.042v20.915h4.593v-27.322h-3.669Z" fill="#fff"/>
      <path id="Trazado_401" data-name="Trazado 401" d="M1105.433,6139.551a4.142,4.142,0,0,0-3.868,1.893h-.041v-6.811h7.9v-3.747h-12.088v15.394h4.19v-.606c0-1.611.724-2.5,2.015-2.5,1.41,0,1.976.968,1.976,2.459v6.608c0,1.449-.525,2.456-1.938,2.456-1.568,0-2.131-1.047-2.131-2.658v-3.424h-4.194v3.1c0,4.148,1.654,6.807,6.325,6.807,4.636,0,6.528-2.458,6.528-6.245v-6.69c0-4.311-2.214-6.043-4.672-6.043" fill="#fff"/>
    </g>
    <g id="Grupo_428" data-name="Grupo 428">
      <path id="Trazado_406" data-name="Trazado 406" d="M1091.412,6205.6a.3.3,0,0,1,.3.3v9.868a.3.3,0,0,1-.3.3h-3.994a.3.3,0,0,1-.3-.3V6205.9a.3.3,0,0,1,.3-.3Z" fill="#fff"/>
      <path id="Trazado_407" data-name="Trazado 407" d="M1135.261,6220.3h-65.8a.307.307,0,0,0-.3.308v4.023a.3.3,0,0,0,.3.3h65.8a.3.3,0,0,0,.3-.3v-4.023a.31.31,0,0,0-.3-.308" fill="#fff"/>
      <path id="Trazado_408" data-name="Trazado 408" d="M1135.261,6228.295h-65.8a.3.3,0,0,0-.3.3v4.033a.3.3,0,0,0,.3.3h65.8a.306.306,0,0,0,.3-.3v-4.033a.3.3,0,0,0-.3-.3" fill="#fff"/>
      <path id="Trazado_409" data-name="Trazado 409" d="M1122.74,6194.677a9.754,9.754,0,0,0-5.695-2.143,7.6,7.6,0,0,0-5.282,2.243.569.569,0,0,0-.175.414v.359a.569.569,0,0,0,.186.449.526.526,0,0,0,.462.108.569.569,0,0,0,.125-.031.862.862,0,0,0,.329-.208,5.294,5.294,0,0,1,2.637-.549,9.96,9.96,0,0,1,6.779,2.84l.06.056a.8.8,0,0,0,.574.238.778.778,0,0,0,.555-.232l.055-.056a9.984,9.984,0,0,1,6.789-2.846,5.3,5.3,0,0,1,2.642.549.943.943,0,0,0,.363.222.816.816,0,0,0,.386.013.566.566,0,0,0,.414-.544v-.316a.572.572,0,0,0-.177-.409,7.628,7.628,0,0,0-5.347-2.3,9.652,9.652,0,0,0-5.68,2.147" fill="#fff"/>
      <path id="Trazado_410" data-name="Trazado 410" d="M1118.655,6168.453a.551.551,0,0,0-.288.345l-.065.221a.568.568,0,0,0,.086.494.547.547,0,0,0,.407.222.228.228,0,0,0,.082,0,.72.72,0,0,0,.318-.082,1.649,1.649,0,0,1,.4-.044,5.708,5.708,0,0,1,4.7,3.07l.022.043a.672.672,0,0,0,.422.336.8.8,0,0,0,.211.033.7.7,0,0,0,.329-.082l.044-.021a6.556,6.556,0,0,1,2.936-.726,4.467,4.467,0,0,1,3,.961.764.764,0,0,0,.221.244,1.585,1.585,0,0,0,.214.1.611.611,0,0,0,.1.015.378.378,0,0,0,.059,0,.561.561,0,0,0,.261-.065.545.545,0,0,0,.278-.336l.057-.194a.559.559,0,0,0,.022-.16.55.55,0,0,0-.075-.283,4.951,4.951,0,0,0-4.465-2.684,7.057,7.057,0,0,0-2.368.444,5.757,5.757,0,0,0-4.438-2.486,5.454,5.454,0,0,0-2.467.626" fill="#fff"/>
      <path id="Trazado_411" data-name="Trazado 411" d="M1104.751,6178.576l.02.3a.562.562,0,0,0,.7.51.665.665,0,0,0,.382-.24,4.806,4.806,0,0,1,2.509-.57,8.133,8.133,0,0,1,5.2,1.968l.045.047a.782.782,0,0,0,.508.192h.048a.763.763,0,0,0,.517-.249l.044-.05a7.906,7.906,0,0,1,5.768-2.666,3.932,3.932,0,0,1,1.716.314.868.868,0,0,0,.342.178.811.811,0,0,0,.242.016,1.073,1.073,0,0,0,.137-.033.563.563,0,0,0,.374-.568l-.016-.255a.561.561,0,0,0-.2-.392,6.459,6.459,0,0,0-4.209-1.656,7.847,7.847,0,0,0-4.926,2.037,8.217,8.217,0,0,0-4.391-1.458,6.281,6.281,0,0,0-4.668,2.157.581.581,0,0,0-.153.422" fill="#fff"/>
      <path id="Trazado_412" data-name="Trazado 412" d="M1071.455,6183.859a7.132,7.132,0,0,1,7.133-7.134c.154,0,.3.013.457.023a9.646,9.646,0,1,1,18.291,4.937,10.783,10.783,0,0,1-2.341,21.309c-.433,0-14.393-.083-14.393-.083a7.629,7.629,0,0,1-5.556-12.866,7.125,7.125,0,0,1-3.591-6.186" fill="#fff"/>
    </g>
  </g>
</svg>
