<svg xmlns="http://www.w3.org/2000/svg" width="349.709" height="364" viewBox="0 0 349.709 364">
  <g id="Grupo_630" data-name="Grupo 630" transform="translate(-919.08 -4531.05)">
    <path id="Trazado_298" data-name="Trazado 298" d="M919.08,4885.156v-265.49a10.139,10.139,0,0,1,.733-3.787,9.974,9.974,0,0,1,.889-1.71,9.789,9.789,0,0,1,1.2-1.5,9.611,9.611,0,0,1,1.459-1.231,9.49,9.49,0,0,1,3.469-1.477,9.337,9.337,0,0,1,1.878-.19h330.459a9.39,9.39,0,0,1,3.683.753,9.465,9.465,0,0,1,1.664.914,9.611,9.611,0,0,1,1.459,1.231,9.786,9.786,0,0,1,1.2,1.5,9.983,9.983,0,0,1,.889,1.71,10.137,10.137,0,0,1,.733,3.787v265.49a10.127,10.127,0,0,1-.733,3.786,9.956,9.956,0,0,1-.889,1.711,9.786,9.786,0,0,1-1.2,1.5,9.611,9.611,0,0,1-1.459,1.231,9.489,9.489,0,0,1-3.469,1.477,9.338,9.338,0,0,1-1.878.19H928.705a9.39,9.39,0,0,1-3.683-.753,9.5,9.5,0,0,1-1.664-.914,9.611,9.611,0,0,1-1.459-1.231,9.789,9.789,0,0,1-1.2-1.5,10.07,10.07,0,0,1-1.437-3.567A10.152,10.152,0,0,1,919.08,4885.156Z" fill="#d5dbe0"/>
    <path id="Trazado_299" data-name="Trazado 299" d="M1098.84,4531.05q3.744,0,7.471.367t7.4,1.1q3.672.73,7.256,1.817t7.043,2.52q3.459,1.434,6.761,3.2t6.416,3.846q3.114,2.081,6.008,4.456t5.543,5.023q2.647,2.648,5.023,5.542t4.456,6.008q2.081,3.114,3.845,6.416t3.2,6.762q1.434,3.459,2.52,7.043t1.818,7.256q.73,3.672,1.1,7.4t.367,7.471q0,3.744-.367,7.471t-1.1,7.4q-.731,3.672-1.818,7.256t-2.52,7.043q-1.433,3.459-3.2,6.761t-3.845,6.416q-2.08,3.114-4.456,6.008t-5.023,5.542q-2.649,2.649-5.543,5.024t-6.008,4.455q-3.113,2.082-6.416,3.846t-6.761,3.2q-3.461,1.433-7.043,2.52t-7.256,1.818q-3.673.731-7.4,1.1t-7.471.367q-3.745,0-7.471-.367t-7.4-1.1q-3.673-.73-7.256-1.818t-7.043-2.52q-3.459-1.433-6.762-3.2t-6.416-3.846q-3.113-2.079-6.008-4.455t-5.542-5.024q-2.648-2.648-5.023-5.542t-4.456-6.008q-2.08-3.114-3.846-6.416t-3.2-6.761q-1.433-3.461-2.52-7.043t-1.817-7.256q-.73-3.672-1.1-7.4t-.367-7.471q0-3.746.367-7.471t1.1-7.4q.73-3.673,1.817-7.256t2.52-7.043q1.434-3.459,3.2-6.762t3.846-6.416q2.08-3.112,4.456-6.008t5.023-5.542q2.648-2.648,5.542-5.023t6.008-4.456q3.114-2.081,6.416-3.846t6.762-3.2q3.459-1.433,7.043-2.52t7.256-1.817q3.672-.731,7.4-1.1T1098.84,4531.05Z" fill="#5e933a"/>
    <circle id="Elipse_22" data-name="Elipse 22" cx="71.597" cy="71.597" r="71.597" transform="translate(1027.864 4536.296)" fill="#fff"/>
    <line id="Línea_5" data-name="Línea 5" x2="310.319" transform="translate(944.608 4740.141)" fill="none" stroke="#707070" stroke-width="2"/>
    <text id="SALUD_Y_BIENESTAR" data-name="SALUD Y BIENESTAR" transform="translate(1099.263 4721.379)" fill="#444242" font-size="18" font-family="Montserrat-Bold, Montserrat" font-weight="700"><tspan x="-97.29" y="0">SALUD Y BIENESTAR</tspan></text>
    <text id="Garantizar_una_vida_sana_y_promover_el_bienestar_para_todos_en_todas_las_edades._" data-name="Garantizar una vida sana y promover el bienestar para todos en todas las edades.




" transform="translate(943.654 4757.71)" fill="#444242" font-size="16" font-family="OpenSans, Open Sans"><tspan x="10.186" y="17">Garantizar una vida sana y promover el </tspan><tspan x="0.795" y="39">bienestar para todos en todas las edades.</tspan><tspan x="156.233" y="61"></tspan><tspan x="156.233" y="83"></tspan></text>
    <circle id="Elipse_23" data-name="Elipse 23" cx="65.13" cy="65.13" r="65.13" transform="translate(1034.33 4542.762)" fill="#5e933a"/>
    <path id="Trazado_316" data-name="Trazado 316" d="M1098.928,4580.941c4.637,0,6.65-2.46,6.65-6.246v-4.028c0-2.5-1.088-4.112-3.383-4.634a4.37,4.37,0,0,0,3.142-4.433v-2.377c0-3.869-1.853-6.246-6.084-6.246-4.757,0-6.408,2.819-6.408,6.849v2.418h4.19v-2.781c0-1.692.525-2.658,1.975-2.658s1.972.966,1.972,2.456v2.942c0,1.453-.966,2.217-2.454,2.217h-1.735v3.507h1.935c1.612,0,2.254.765,2.254,2.215v4.513c0,1.449-.642,2.459-2.054,2.459-1.57,0-2.135-1.049-2.135-2.659v-3.91h-4.187v3.585c0,4.152,1.65,6.811,6.322,6.811" fill="#fff"/>
    <path id="Trazado_317" data-name="Trazado 317" d="M1140.944,4618.183c0-3.813-2.448-6.9-6.153-6.9-1.853,0-4.087,2.029-5.3,3.277-1.214-1.25-3.3-3.28-5.154-3.28-3.706,0-6.3,3.091-6.3,6.905a6.971,6.971,0,0,0,1.967,4.882l9.5,9.516,9.486-9.5-.009-.007a6.984,6.984,0,0,0,1.969-4.884" fill="#fff"/>
    <path id="Trazado_318" data-name="Trazado 318" d="M1100.5,4648.113l-.1,0a1.56,1.56,0,0,1-1.441-1.294l-4.823-28.1-7.31,13.55a1.56,1.56,0,0,1-2.917-.519l-3.1-21.686-5.676,12.749a1.558,1.558,0,0,1-1.425.927h-22.062a1.56,1.56,0,0,1,0-3.12H1072.7l7.467-16.771a1.56,1.56,0,0,1,2.969.414l3.2,22.36,7.207-13.362a1.56,1.56,0,0,1,2.911.475l4.467,26.024,16.283-54.09a1.56,1.56,0,0,1,2.9-.228l8.569,17.762a1.56,1.56,0,0,1-2.81,1.356l-6.826-14.152L1102,4647a1.553,1.553,0,0,1-1.493,1.11" fill="#fff"/>
  </g>
</svg>
