<svg xmlns="http://www.w3.org/2000/svg" width="349.708" height="387.332" viewBox="0 0 349.708 387.332">
  <g id="Grupo_643" data-name="Grupo 643" transform="translate(-730.77 -6569.006)">
    <path id="Trazado_387" data-name="Trazado 387" d="M730.77,6945.635v-287.2a11.769,11.769,0,0,1,.185-2.088,11.626,11.626,0,0,1,.547-2.008,11.15,11.15,0,0,1,.89-1.851,10.536,10.536,0,0,1,1.2-1.622,9.981,9.981,0,0,1,1.458-1.331,9.428,9.428,0,0,1,1.664-.989,8.869,8.869,0,0,1,1.806-.609,8.665,8.665,0,0,1,1.878-.205h330.458a8.665,8.665,0,0,1,1.878.205,8.871,8.871,0,0,1,1.806.609,9.394,9.394,0,0,1,1.664.989,9.987,9.987,0,0,1,1.458,1.331,10.54,10.54,0,0,1,1.2,1.622,11.14,11.14,0,0,1,.89,1.851,11.617,11.617,0,0,1,.548,2.008,11.86,11.86,0,0,1,.184,2.088v287.2a11.856,11.856,0,0,1-.184,2.088,11.641,11.641,0,0,1-.548,2.008,11.131,11.131,0,0,1-.89,1.85,10.493,10.493,0,0,1-1.2,1.622,9.9,9.9,0,0,1-1.458,1.331,9.335,9.335,0,0,1-1.664.989,8.871,8.871,0,0,1-1.806.609,8.606,8.606,0,0,1-1.878.206H740.4a8.606,8.606,0,0,1-1.878-.206,8.869,8.869,0,0,1-1.806-.609,9.37,9.37,0,0,1-1.664-.989,9.9,9.9,0,0,1-1.458-1.331,10.489,10.489,0,0,1-1.2-1.622,11.14,11.14,0,0,1-.89-1.85,11.775,11.775,0,0,1-.732-4.1Z" fill="#d5dbe0"/>
    <path id="Trazado_388" data-name="Trazado 388" d="M908.778,6569.006q3.744,0,7.47.367t7.4,1.1q3.672.73,7.255,1.817t7.043,2.52q3.461,1.433,6.762,3.2t6.416,3.846q3.114,2.079,6.008,4.456t5.542,5.023q2.649,2.648,5.024,5.542t4.455,6.008q2.08,3.114,3.846,6.416t3.2,6.762q1.432,3.459,2.52,7.043t1.817,7.255q.73,3.674,1.1,7.4t.367,7.472q0,3.744-.367,7.47t-1.1,7.4q-.729,3.672-1.817,7.256t-2.52,7.042q-1.433,3.461-3.2,6.762t-3.846,6.416q-2.079,3.112-4.455,6.008t-5.024,5.542q-2.648,2.649-5.542,5.024t-6.008,4.455q-3.114,2.081-6.416,3.846t-6.762,3.2q-3.459,1.433-7.043,2.52t-7.255,1.817q-3.674.732-7.4,1.1t-7.47.367q-3.746,0-7.471-.367t-7.4-1.1q-3.672-.73-7.255-1.817t-7.043-2.52q-3.461-1.433-6.762-3.2t-6.416-3.846q-3.114-2.079-6.008-4.455t-5.542-5.024q-2.649-2.648-5.024-5.542t-4.455-6.008q-2.08-3.114-3.846-6.416t-3.2-6.762q-1.432-3.459-2.52-7.042t-1.817-7.256q-.732-3.674-1.1-7.4t-.367-7.47q0-3.746.367-7.472t1.1-7.4q.73-3.672,1.817-7.255t2.52-7.043q1.433-3.459,3.2-6.762t3.846-6.416q2.079-3.114,4.455-6.008t5.024-5.542q2.648-2.649,5.542-5.023t6.008-4.456q3.114-2.081,6.416-3.846t6.762-3.2q3.459-1.433,7.043-2.52t7.255-1.817q3.674-.732,7.4-1.1T908.778,6569.006Z" fill="#003564"/>
    <circle id="Elipse_44" data-name="Elipse 44" cx="71.597" cy="71.597" r="71.597" transform="translate(837.802 6574.251)" fill="#fff"/>
    <line id="Línea_16" data-name="Línea 16" x2="310.319" transform="translate(754.545 6778.097)" fill="none" stroke="#707070" stroke-width="2"/>
    <text id="ALIANZAS_PARA_LOGRAR_LOS_OBJETIVOS" data-name="ALIANZAS PARA 
LOGRAR LOS OBJETIVOS" transform="translate(909.201 6749.335)" fill="#444242" font-size="18" font-family="Montserrat-Bold, Montserrat" font-weight="700"><tspan x="-79.803" y="0">ALIANZAS PARA </tspan><tspan x="-117.459" y="21.6">LOGRAR LOS OBJETIVOS</tspan></text>
    <circle id="Elipse_45" data-name="Elipse 45" cx="65.13" cy="65.13" r="65.13" transform="translate(844.268 6580.718)" fill="#003564"/>
    <text id="Fortalecer_los_medios_de_ejecución_y_revitalizar_la_alianza_mundial_para_el_desarrollo_sostenible._" data-name="Fortalecer los medios de ejecución y revitalizar la alianza mundial para el desarrollo sostenible.




" transform="translate(750.543 6795.667)" fill="#444242" font-size="16" font-family="OpenSans, Open Sans"><tspan x="21.377" y="17">Fortalecer los medios de ejecución y </tspan><tspan x="23.002" y="39">revitalizar la alianza mundial para el </tspan><tspan x="76.163" y="61">desarrollo sostenible.</tspan><tspan x="156.233" y="83"></tspan><tspan x="156.233" y="105"></tspan></text>
    <g id="Grupo_430" data-name="Grupo 430">
      <path id="Trazado_415" data-name="Trazado 415" d="M905.211,6594.954v27.322h-4.593v-20.915h-.04l-3.225,3.345h-.038v-4.795l4.23-4.957Z" fill="#fff"/>
      <path id="Trazado_416" data-name="Trazado 416" d="M907.307,6594.954h11.526v4.233l-6,23.089h-4.556L914.4,6598.7h-7.091Z" fill="#fff"/>
    </g>
    <path id="Trazado_417" data-name="Trazado 417" d="M943.343,6660.215a17.668,17.668,0,0,0-17-17.634,17.647,17.647,0,0,0-33.28,0,27.259,27.259,0,1,0,16.726,51,50.5,50.5,0,0,0,33.554-33.366M923.8,6648.458a14.1,14.1,0,0,1-12.015,13.922,13.935,13.935,0,0,1-.183-2.165,14.1,14.1,0,0,1,12.014-13.924,14.158,14.158,0,0,1,.184,2.167M909.769,6689a14.054,14.054,0,0,1-.131-20.079,14.052,14.052,0,0,1,.131,20.079m-13.977-42.715a13.965,13.965,0,0,1,11.834,16.09,14.1,14.1,0,0,1-12.017-13.922,13.939,13.939,0,0,1,.183-2.168m10.511,20.23a14.041,14.041,0,1,1-6.475-1.59,13.954,13.954,0,0,1,6.475,1.59m6.756-.1a14.048,14.048,0,1,1,12.636,7.885,14.02,14.02,0,0,1-12.636-7.885m-3.356-32.062a14.117,14.117,0,0,1,12.922,8.475,17.706,17.706,0,0,0-12.922,9.917,17.694,17.694,0,0,0-12.919-9.917,14.11,14.11,0,0,1,12.919-8.475m-30.084,25.853A14.114,14.114,0,0,1,892.2,6646.2a17.576,17.576,0,0,0,5.618,15.293,17.689,17.689,0,0,0-13.532,9.169,14.046,14.046,0,0,1-4.67-10.448m6.115,18.811a14.061,14.061,0,0,1,.306-2.921,17.628,17.628,0,0,0,16.2-.442,17.54,17.54,0,0,0,4.682,15.52,14.067,14.067,0,0,1-21.185-12.157m47.942-.118a14.072,14.072,0,0,1-21.047,12.244,17.581,17.581,0,0,0,4.52-15.5,17.61,17.61,0,0,0,16.241.443,13.989,13.989,0,0,1,.286,2.816M921.7,6661.39a17.6,17.6,0,0,0,5.658-12.932,18.051,18.051,0,0,0-.149-2.257,14.072,14.072,0,0,1,7.954,24.428,17.678,17.678,0,0,0-13.463-9.239" fill="#fff"/>
  </g>
</svg>
