<svg xmlns="http://www.w3.org/2000/svg" width="349.708" height="364" viewBox="0 0 349.708 364">
  <g id="Grupo_628" data-name="Grupo 628" transform="translate(-176.584 -4531.05)">
    <path id="Trazado_294" data-name="Trazado 294" d="M176.584,4885.156v-265.49a10.056,10.056,0,0,1,1.622-5.5,9.791,9.791,0,0,1,1.2-1.5,9.652,9.652,0,0,1,1.458-1.231,9.537,9.537,0,0,1,1.664-.914,9.4,9.4,0,0,1,3.684-.753H516.667a9.4,9.4,0,0,1,3.684.753,9.5,9.5,0,0,1,1.664.914,9.655,9.655,0,0,1,1.458,1.231,9.793,9.793,0,0,1,1.2,1.5,10.109,10.109,0,0,1,1.622,5.5v265.49a10.154,10.154,0,0,1-.732,3.786,9.952,9.952,0,0,1-.89,1.711,9.793,9.793,0,0,1-1.2,1.5,9.655,9.655,0,0,1-1.458,1.231,9.533,9.533,0,0,1-1.664.914,9.4,9.4,0,0,1-3.684.753H186.209a9.4,9.4,0,0,1-3.684-.753,9.588,9.588,0,0,1-3.122-2.145,9.791,9.791,0,0,1-1.2-1.5,9.953,9.953,0,0,1-.89-1.711,10.154,10.154,0,0,1-.732-3.786Z" fill="#d5dbe0"/>
    <path id="Trazado_295" data-name="Trazado 295" d="M352.84,4531.05q3.744,0,7.471.367t7.4,1.1q3.672.73,7.256,1.817t7.043,2.52q3.459,1.434,6.761,3.2t6.416,3.846q3.114,2.081,6.008,4.456t5.543,5.023q2.648,2.648,5.023,5.542t4.456,6.008q2.08,3.114,3.845,6.416t3.2,6.762q1.434,3.459,2.52,7.043t1.818,7.256q.731,3.672,1.1,7.4t.367,7.471q0,3.744-.367,7.471t-1.1,7.4q-.73,3.672-1.818,7.256t-2.52,7.043q-1.433,3.459-3.2,6.761t-3.845,6.416q-2.08,3.114-4.456,6.008t-5.023,5.542q-2.649,2.649-5.543,5.024t-6.008,4.455q-3.113,2.082-6.416,3.846t-6.761,3.2q-3.461,1.433-7.043,2.52t-7.256,1.818q-3.674.731-7.4,1.1t-7.471.367q-3.746,0-7.471-.367t-7.4-1.1q-3.674-.73-7.256-1.818t-7.043-2.52q-3.459-1.433-6.762-3.2t-6.416-3.846q-3.113-2.079-6.008-4.455t-5.542-5.024q-2.647-2.648-5.023-5.542t-4.456-6.008q-2.08-3.114-3.846-6.416t-3.2-6.761q-1.433-3.461-2.52-7.043t-1.817-7.256q-.73-3.672-1.1-7.4t-.367-7.471q0-3.746.367-7.471t1.1-7.4q.73-3.673,1.817-7.256t2.52-7.043q1.434-3.459,3.2-6.762t3.846-6.416q2.081-3.112,4.456-6.008t5.023-5.542q2.648-2.648,5.542-5.023t6.008-4.456q3.114-2.081,6.416-3.846t6.762-3.2q3.459-1.433,7.043-2.52t7.256-1.817q3.672-.731,7.4-1.1T352.84,4531.05Z" fill="#be1c25"/>
    <circle id="Elipse_18" data-name="Elipse 18" cx="71.597" cy="71.597" r="71.597" transform="translate(281.864 4536.296)" fill="#fff"/>
    <line id="Línea_3" data-name="Línea 3" x2="310.319" transform="translate(198.608 4740.141)" fill="none" stroke="#707070" stroke-width="2"/>
    <text id="Poner_fin_a_la_pobreza_en_todas_sus_formas_en_todo_el_mundo._" data-name="Poner fin a la pobreza en todas sus formas en todo el mundo.




" transform="translate(197.654 4757.71)" fill="#444242" font-size="16" font-family="OpenSans, Open Sans"><tspan x="25.698" y="17">Poner fin a la pobreza en todas sus </tspan><tspan x="58.979" y="39">formas en todo el mundo.</tspan><tspan x="156.233" y="61"></tspan></text>
    <circle id="Elipse_19" data-name="Elipse 19" cx="65.13" cy="65.13" r="65.13" transform="translate(288.33 4542.762)" fill="#be1c25"/>
    <g id="Grupo_415" data-name="Grupo 415">
      <path id="Trazado_300" data-name="Trazado 300" d="M397.661,4601.195a3.752,3.752,0,1,0-3.754-3.753,3.749,3.749,0,0,0,3.754,3.753" fill="#fff"/>
      <path id="Trazado_301" data-name="Trazado 301" d="M402.04,4602.641a2.385,2.385,0,0,0-.286-.023h-8.2a2.165,2.165,0,0,0-.276.023,5,5,0,0,0-4.546,4.983v10.4a1.454,1.454,0,1,0,2.908,0v-8.93c0-.334.093-.789.709-.789.421,0,.511.449.524.735v26.768a2.089,2.089,0,0,0,4.178,0v-15.426a.576.576,0,0,1,.605-.612h0a.568.568,0,0,1,.6.612v15.426a2.091,2.091,0,0,0,4.181,0v-26.768c.016-.286.1-.735.526-.735.613,0,.711.455.711.789v8.93a1.453,1.453,0,1,0,2.906,0v-10.4a5,5,0,0,0-4.538-4.983" fill="#fff"/>
      <path id="Trazado_302" data-name="Trazado 302" d="M368.05,4602.966a3.555,3.555,0,1,0-3.553-3.552,3.549,3.549,0,0,0,3.553,3.552" fill="#fff"/>
      <path id="Trazado_303" data-name="Trazado 303" d="M372.278,4609.488c.463-.134.594.484.594.484l2.379,8.022s.454,1.721,1.938,1.281c1.5-.441.97-2.2.97-2.2l-2.953-9.613s-1.056-2.78-3.392-2.78h-7.526c-2.338,0-3.395,2.78-3.395,2.78l-2.952,9.613s-.526,1.761.967,2.2,1.94-1.281,1.94-1.281l2.38-8.022s.13-.618.594-.484.289.794.289.794l-4.144,15.034h3.855v10.768a1.85,1.85,0,0,0,3.7,0v-10.768h1.054v10.768a1.852,1.852,0,0,0,3.7,0v-10.768h3.852l-4.141-15.034s-.175-.661.289-.794" fill="#fff"/>
      <path id="Trazado_304" data-name="Trazado 304" d="M346.774,4602.966a3.555,3.555,0,1,0-3.552-3.552,3.55,3.55,0,0,0,3.552,3.552" fill="#fff"/>
      <path id="Trazado_305" data-name="Trazado 305" d="M353.928,4607.46s-1.052-2.78-3.39-2.78H343.01c-2.335,0-3.393,2.78-3.393,2.78l-2.951,9.613a2.639,2.639,0,0,0-.089.593,1.057,1.057,0,0,0-.837-.427,1.073,1.073,0,0,0-.913.506l-.01-.006c-.089.074-1.467,2.531-1.924,2.987a1.189,1.189,0,0,1-.912.431H328.4a1.188,1.188,0,0,1-.913-.431c-.461-.456-1.835-2.913-1.924-2.987l-.009.006a1.085,1.085,0,0,0-.914-.506,1.063,1.063,0,0,0-.867.474v-10.09a5,5,0,0,0-4.544-4.983,2.221,2.221,0,0,0-.275-.022h-8.2a2.346,2.346,0,0,0-.287.022,5,5,0,0,0-4.54,4.983v10.4a1.452,1.452,0,0,0,.781,1.282.583.583,0,0,0-.052.129l-3.331,17.656a.55.55,0,0,0,.437.642.562.562,0,0,0,.1.009.549.549,0,0,0,.54-.447l3.332-17.657a.564.564,0,0,0,0-.209,1.452,1.452,0,0,0,1.1-1.4v-8.93c0-.335.1-.79.709-.79.423,0,.512.45.53.735v26.769a2.087,2.087,0,1,0,4.175,0v-15.426a.571.571,0,0,1,.6-.612h0a.571.571,0,0,1,.6.612v15.426a2.089,2.089,0,0,0,4.179,0v-26.769c.012-.285.108-.735.526-.735.615,0,.709.455.709.79v8.93a1.451,1.451,0,0,0,2.762.625c.021.08.042.14.042.14l2.981,5.4a1.9,1.9,0,0,1,.183.711v1.06l-1.572,5.776h1.572v4.747h.005a1.456,1.456,0,1,0,2.912,0V4631.9a1.064,1.064,0,0,1,0-.176h.878a.946.946,0,0,1,0,.176v4.571a1.459,1.459,0,0,0,2.918,0v-4.747h1.578l-1.578-5.809v-1.027a1.909,1.909,0,0,1,.182-.711l2.755-4.981s.177-.374.273-.647a1.343,1.343,0,0,0,.879.721c1.486.44,1.938-1.281,1.938-1.281l2.381-8.023s.13-.617.593-.482.29.792.29.792l-4.144,15.035h3.854v10.768a1.851,1.851,0,0,0,3.7,0v-10.768H347.3v10.768a1.849,1.849,0,0,0,3.7,0v-10.768h3.855l-4.14-15.035s-.175-.66.285-.792.6.482.6.482l2.378,8.023s.453,1.721,1.94,1.281.967-2.2.967-2.2Z" fill="#fff"/>
      <path id="Trazado_306" data-name="Trazado 306" d="M383.53,4619.294a2.957,2.957,0,1,0-2.956-2.959,2.955,2.955,0,0,0,2.956,2.959" fill="#fff"/>
      <path id="Trazado_307" data-name="Trazado 307" d="M390.538,4627.7c-.035-.114-1.882-4.642-2.1-5.277-.666-1.947-1.88-1.931-3.048-1.963s-1.868,0-1.868,0-.747-.03-2.291.016-2.027.838-3.725,5.21c-.242.63-1.065,2.667-1.076,2.789l.011,0a1.028,1.028,0,0,0,.431,1.4.99.99,0,0,0,1.269-.412l1.607-5.126s.277-.344.277.011v12.067h.01a1.516,1.516,0,1,0,3.031,0v-4.763s-.087-.672.456-.672.459.672.459.672v4.763a1.519,1.519,0,0,0,3.038,0v-12.067c0-.355.189-.1.189-.1l1.26,3.51a8.538,8.538,0,0,0,.714,1.638,1.123,1.123,0,0,0,1.466-.606,1.1,1.1,0,0,0-.119-1.08Z" fill="#fff"/>
      <path id="Trazado_308" data-name="Trazado 308" d="M314.846,4601.195a3.752,3.752,0,1,0-3.746-3.753,3.756,3.756,0,0,0,3.746,3.753" fill="#fff"/>
      <path id="Trazado_309" data-name="Trazado 309" d="M330.187,4619.294a2.957,2.957,0,1,0-2.955-2.959,2.954,2.954,0,0,0,2.955,2.959" fill="#fff"/>
    </g>
    <path id="Trazado_310" data-name="Trazado 310" d="M349.64,4559.769h.042v20.915h4.592v-27.322h-3.668l-4.23,4.956v4.794h.041Z" fill="#fff"/>
    <text id="FIN_DE_LA_POBREZA" data-name="FIN DE LA POBREZA" transform="translate(353.263 4721.379)" fill="#444242" font-size="18" font-family="Montserrat-Bold, Montserrat" font-weight="700"><tspan x="-96.129" y="0">FIN DE LA POBREZA</tspan></text>
  </g>
</svg>
