<svg xmlns="http://www.w3.org/2000/svg" width="349.709" height="364" viewBox="0 0 349.709 364">
  <g id="Grupo_632" data-name="Grupo 632" transform="translate(-547.832 -4920.585)">
    <path id="Trazado_321" data-name="Trazado 321" d="M547.832,5274.691V5009.2a10.161,10.161,0,0,1,.185-1.931,10.037,10.037,0,0,1,.548-1.856,9.923,9.923,0,0,1,2.086-3.21,9.661,9.661,0,0,1,1.459-1.23,9.434,9.434,0,0,1,1.664-.914,9.389,9.389,0,0,1,3.683-.753H887.916a9.4,9.4,0,0,1,3.683.753,9.469,9.469,0,0,1,1.664.914,9.707,9.707,0,0,1,1.459,1.23,9.966,9.966,0,0,1,2.086,3.21,10.127,10.127,0,0,1,.733,3.787v265.49a10.127,10.127,0,0,1-.733,3.786,9.954,9.954,0,0,1-.89,1.711,9.843,9.843,0,0,1-1.2,1.5,9.707,9.707,0,0,1-1.459,1.23,9.57,9.57,0,0,1-1.664.915,9.466,9.466,0,0,1-1.806.563,9.321,9.321,0,0,1-1.877.19H557.457a9.338,9.338,0,0,1-1.878-.19,9.47,9.47,0,0,1-3.469-1.478,9.661,9.661,0,0,1-1.459-1.23,9.79,9.79,0,0,1-1.2-1.5,10.071,10.071,0,0,1-1.437-3.567A10.163,10.163,0,0,1,547.832,5274.691Z" fill="#d5dbe0"/>
    <path id="Trazado_322" data-name="Trazado 322" d="M725.84,4920.585q3.744,0,7.471.367t7.4,1.1q3.672.731,7.256,1.817t7.043,2.52q3.459,1.432,6.761,3.2t6.416,3.846q3.114,2.079,6.008,4.455t5.543,5.024q2.648,2.647,5.023,5.542t4.456,6.008q2.081,3.114,3.845,6.416t3.2,6.762q1.434,3.458,2.52,7.043t1.818,7.255q.73,3.673,1.1,7.4t.367,7.472q0,3.744-.367,7.47t-1.1,7.4q-.73,3.672-1.818,7.256t-2.52,7.042q-1.432,3.461-3.2,6.762t-3.845,6.416q-2.081,3.113-4.456,6.008t-5.023,5.542q-2.649,2.649-5.543,5.024t-6.008,4.455q-3.112,2.08-6.416,3.846t-6.761,3.2q-3.46,1.433-7.043,2.52t-7.256,1.817q-3.674.732-7.4,1.1t-7.471.367q-3.746,0-7.471-.367t-7.4-1.1q-3.673-.73-7.256-1.817t-7.043-2.52q-3.459-1.434-6.762-3.2t-6.416-3.846q-3.112-2.079-6.008-4.455t-5.542-5.024q-2.648-2.648-5.023-5.542t-4.456-6.008q-2.08-3.114-3.846-6.416t-3.2-6.762q-1.432-3.459-2.52-7.042t-1.817-7.256q-.73-3.673-1.1-7.4t-.367-7.47q0-3.746.367-7.472t1.1-7.4q.73-3.672,1.817-7.255t2.52-7.043q1.434-3.459,3.2-6.762t3.846-6.416q2.081-3.114,4.456-6.008t5.023-5.542q2.648-2.649,5.542-5.024t6.008-4.455q3.114-2.081,6.416-3.846t6.762-3.2q3.459-1.433,7.043-2.52t7.256-1.817q3.672-.732,7.4-1.1T725.84,4920.585Z" fill="#c54a1e"/>
    <circle id="Elipse_26" data-name="Elipse 26" cx="71.597" cy="71.597" r="71.597" transform="translate(654.864 4925.831)" fill="#fff"/>
    <line id="Línea_7" data-name="Línea 7" x2="310.319" transform="translate(571.608 5129.676)" fill="none" stroke="#707070" stroke-width="2"/>
    <text id="IGUALDAD_DE_GENERO" data-name="IGUALDAD DE GENERO" transform="translate(726.263 5110.914)" fill="#444242" font-size="18" font-family="Montserrat-Bold, Montserrat" font-weight="700"><tspan x="-109.917" y="0">IGUALDAD DE GENERO</tspan></text>
    <text id="Lograr_la_igualdad_entre_los_géneros_y_el_empoderamiento_de_todas_las_mujeres_y_niñas._" data-name="Lograr la igualdad entre los géneros y el empoderamiento de todas las mujeres y niñas.




" transform="translate(570.654 5147.245)" fill="#444242" font-size="16" font-family="OpenSans, Open Sans"><tspan x="7.928" y="17">Lograr la igualdad entre los géneros y el </tspan><tspan x="5.905" y="39">empoderamiento de todas las mujeres y </tspan><tspan x="133.995" y="61">niñas.</tspan><tspan x="156.233" y="83"></tspan><tspan x="156.233" y="105"></tspan></text>
    <circle id="Elipse_27" data-name="Elipse 27" cx="65.13" cy="65.13" r="65.13" transform="translate(661.33 4932.297)" fill="#c54a1e"/>
    <path id="Trazado_331" data-name="Trazado 331" d="M728.639,4951.5a4.146,4.146,0,0,0-3.867,1.894h-.042v-6.81h7.9v-3.747H720.542v15.393h4.188v-.606c0-1.612.727-2.5,2.015-2.5,1.412,0,1.976.969,1.976,2.46v6.608c0,1.452-.524,2.458-1.934,2.458-1.573,0-2.136-1.047-2.136-2.659v-3.424h-4.192v3.1c0,4.151,1.653,6.811,6.328,6.811,4.635,0,6.527-2.458,6.527-6.247v-6.688c0-4.313-2.216-6.046-4.675-6.046" fill="#fff"/>
    <path id="Trazado_332" data-name="Trazado 332" d="M758.206,4972.345H741.364a.216.216,0,0,0-.214.214v5.6a.216.216,0,0,0,.214.214h6.706l-7.445,7.447a22.049,22.049,0,1,0-16.446,39.215v6.448h-6.642a.213.213,0,0,0-.218.214v6a.212.212,0,0,0,.218.213h6.642v6.347a.213.213,0,0,0,.213.214h5.995a.216.216,0,0,0,.217-.214v-6.347h6.642a.213.213,0,0,0,.214-.213v-6a.213.213,0,0,0-.214-.214H730.6v-6.554a22.035,22.035,0,0,0,14.448-34.448l7.34-7.341v6.263a.217.217,0,0,0,.218.214h5.6a.217.217,0,0,0,.218-.214v-16.842a.217.217,0,0,0-.218-.214M727.024,5019.4a16.236,16.236,0,1,1,16.237-16.235,16.253,16.253,0,0,1-16.237,16.235" fill="#fff"/>
    <path id="Trazado_333" data-name="Trazado 333" d="M737.1,4996.5H717.409a.2.2,0,0,0-.211.192v4.768a.2.2,0,0,0,.211.2H737.1a.2.2,0,0,0,.218-.2v-4.768a.206.206,0,0,0-.218-.192" fill="#fff"/>
    <path id="Trazado_334" data-name="Trazado 334" d="M737.1,5005.014H717.409a.206.206,0,0,0-.211.2v4.768a.2.2,0,0,0,.211.192H737.1a.205.205,0,0,0,.218-.192v-4.768a.208.208,0,0,0-.218-.2" fill="#fff"/>
  </g>
</svg>
