<svg xmlns="http://www.w3.org/2000/svg" xmlns:xlink="http://www.w3.org/1999/xlink" width="519.087" height="613.254" viewBox="0 0 519.087 613.254">
  <defs>
    <filter id="Trazado_1" x="0" y="0" width="519.087" height="613.254" filterUnits="userSpaceOnUse">
      <feOffset dx="7.087" dy="7" input="SourceAlpha"/>
      <feGaussianBlur stdDeviation="2.5" result="blur"/>
      <feFlood flood-color="#4c4c4c" flood-opacity="0.4"/>
      <feComposite operator="in" in2="blur"/>
      <feComposite in="SourceGraphic"/>
    </filter>
  </defs>
  <g transform="matrix(1, 0, 0, 1, 0, 0)" filter="url(#Trazado_1)">
    <path id="Trazado_1-2" data-name="Trazado 1" d="M198.052,3983.391V3428.5a30.6,30.6,0,0,1,.265-4.035,28.578,28.578,0,0,1,.787-3.879,25.15,25.15,0,0,1,1.277-3.575,21.075,21.075,0,0,1,1.718-3.134,16.926,16.926,0,0,1,2.094-2.571,13.308,13.308,0,0,1,2.389-1.912,10.754,10.754,0,0,1,2.593-1.176,9.394,9.394,0,0,1,2.7-.4H686.32a9.394,9.394,0,0,1,2.7.4,10.754,10.754,0,0,1,2.593,1.176A13.307,13.307,0,0,1,694,3411.3a16.922,16.922,0,0,1,2.094,2.571,21.164,21.164,0,0,1,1.718,3.134,25.267,25.267,0,0,1,1.277,3.575,28.575,28.575,0,0,1,.787,3.879,30.6,30.6,0,0,1,.265,4.035v554.9a30.594,30.594,0,0,1-.265,4.034,28.575,28.575,0,0,1-.787,3.879,25.267,25.267,0,0,1-1.277,3.575,21.164,21.164,0,0,1-1.718,3.134,16.98,16.98,0,0,1-2.094,2.572,13.333,13.333,0,0,1-2.389,1.911,10.764,10.764,0,0,1-2.593,1.176,9.4,9.4,0,0,1-2.7.4H211.871a9.4,9.4,0,0,1-2.7-.4,10.765,10.765,0,0,1-2.593-1.176,13.334,13.334,0,0,1-2.389-1.911,16.983,16.983,0,0,1-2.094-2.572,21.075,21.075,0,0,1-1.718-3.134,25.15,25.15,0,0,1-1.277-3.575,28.578,28.578,0,0,1-.787-3.879A30.594,30.594,0,0,1,198.052,3983.391Z" transform="translate(-196.64 -3406.32)" fill="#fff" stroke="#b2b2b2" stroke-miterlimit="10" stroke-width="2"/>
  </g>
</svg>
