<svg xmlns="http://www.w3.org/2000/svg" xmlns:xlink="http://www.w3.org/1999/xlink" width="517.699" height="613.254" viewBox="0 0 517.699 613.254">
  <defs>
    <filter id="Trazado_2" x="0" y="0" width="517.699" height="613.254" filterUnits="userSpaceOnUse">
      <feOffset dx="7.087" dy="7" input="SourceAlpha"/>
      <feGaussianBlur stdDeviation="2.5" result="blur"/>
      <feFlood flood-color="#4c4c4c" flood-opacity="0.4"/>
      <feComposite operator="in" in2="blur"/>
      <feComposite in="SourceGraphic"/>
    </filter>
  </defs>
  <g transform="matrix(1, 0, 0, 1, 0, 0)" filter="url(#Trazado_2)">
    <path id="Trazado_2-2" data-name="Trazado 2" d="M744.993,3983.391V3428.5a30.766,30.766,0,0,1,.264-4.035,28.732,28.732,0,0,1,.785-3.879,25.266,25.266,0,0,1,1.273-3.575,21.15,21.15,0,0,1,1.714-3.134,16.9,16.9,0,0,1,2.088-2.571,13.272,13.272,0,0,1,2.383-1.912,10.685,10.685,0,0,1,2.585-1.176,9.34,9.34,0,0,1,2.688-.4h473.138a9.351,9.351,0,0,1,2.689.4,10.7,10.7,0,0,1,2.585,1.176,13.236,13.236,0,0,1,2.382,1.912,16.847,16.847,0,0,1,2.089,2.571,21.156,21.156,0,0,1,1.714,3.134,25.388,25.388,0,0,1,1.273,3.575,28.721,28.721,0,0,1,.784,3.879,30.6,30.6,0,0,1,.265,4.035v554.9a30.594,30.594,0,0,1-.265,4.034,28.721,28.721,0,0,1-.784,3.879,25.388,25.388,0,0,1-1.273,3.575,21.156,21.156,0,0,1-1.714,3.134,16.9,16.9,0,0,1-2.089,2.572,13.262,13.262,0,0,1-2.382,1.911,10.713,10.713,0,0,1-2.585,1.176,9.36,9.36,0,0,1-2.689.4H758.773a9.348,9.348,0,0,1-2.688-.4,10.7,10.7,0,0,1-2.585-1.176,13.3,13.3,0,0,1-2.383-1.911,16.954,16.954,0,0,1-2.088-2.572,21.15,21.15,0,0,1-1.714-3.134,25.266,25.266,0,0,1-1.273-3.575,28.732,28.732,0,0,1-.785-3.879A30.762,30.762,0,0,1,744.993,3983.391Z" transform="translate(-743.58 -3406.32)" fill="#fff" stroke="#b2b2b2" stroke-miterlimit="10" stroke-width="2"/>
  </g>
</svg>
