<svg xmlns="http://www.w3.org/2000/svg" width="493" height="118" viewBox="0 0 493 118">
  <g id="Grupo_4425" data-name="Grupo 4425" transform="translate(-48 -1822)">
    <rect id="Rectángulo_26737" data-name="Rectángulo 26737" width="493" height="118" rx="8" transform="translate(48 1822)" fill="#00223d"/>
    <text id="Respecto_a_topologías_lógicas_estas_determinan_la_forma_de_acceder_a_la_información_en_una_red._Los_dos_tipos_más_utilizados_son:" data-name="Respecto a topologías lógicas, estas determinan la forma de acceder a la información en una red. Los dos tipos más utilizados son:" transform="translate(210 1835)" fill="#fff" font-size="16" font-family="Roboto-Regular, Roboto"><tspan x="0" y="15">Respecto a topologías lógicas, estas </tspan><tspan x="0" y="39">determinan la forma de acceder a la </tspan><tspan x="0" y="63">información en una red. Los dos tipos más </tspan><tspan x="0" y="87">utilizados son:</tspan></text>
    <path id="Icon_simple-coderwall" data-name="Icon simple-coderwall" d="M32.031,28.062a3.969,3.969,0,1,1-3.969,3.969,3.971,3.971,0,0,1,3.969-3.969ZM18,14.031A3.969,3.969,0,1,1,14.031,18,3.972,3.972,0,0,1,18,14.031Zm14.031,0A3.969,3.969,0,1,1,28.062,18a3.972,3.972,0,0,1,3.969-3.969ZM18,0a3.969,3.969,0,1,1-3.969,3.969A3.971,3.971,0,0,1,18,0ZM3.969,0A3.969,3.969,0,1,1,0,3.969,3.971,3.971,0,0,1,3.969,0ZM32.031,0a3.969,3.969,0,1,1-3.969,3.969A3.971,3.971,0,0,1,32.031,0Z" transform="translate(494 1833)" fill="#50b3b8"/>
    <rect id="Rectángulo_26983" data-name="Rectángulo 26983" width="100" height="6" rx="3" transform="translate(350 1916)" fill="#50b3b8"/>
  </g>
</svg>
