<svg xmlns="http://www.w3.org/2000/svg" xmlns:xlink="http://www.w3.org/1999/xlink" width="336.175" height="345.851" viewBox="0 0 336.175 345.851">
  <defs>
    <linearGradient id="linear-gradient" x1="0.141" y1="0.483" x2="1.047" y2="0.526" gradientUnits="objectBoundingBox">
      <stop offset="0" stop-color="#fff"/>
      <stop offset="1" stop-color="#d2e6ee"/>
    </linearGradient>
    <linearGradient id="linear-gradient-2" x1="0" y1="0.5" x2="1" y2="0.5" xlink:href="#linear-gradient"/>
    <linearGradient id="linear-gradient-3" x1="-0.716" y1="0.479" x2="4.498" y2="0.546" xlink:href="#linear-gradient"/>
    <linearGradient id="linear-gradient-4" x1="0.643" y1="0.887" x2="0.329" y2="0.112" xlink:href="#linear-gradient"/>
    <linearGradient id="linear-gradient-5" x1="-0.648" y1="0.847" x2="1.862" y2="0.088" xlink:href="#linear-gradient"/>
    <linearGradient id="linear-gradient-6" x1="1.18" y1="0.174" x2="0.045" y2="0.726" xlink:href="#linear-gradient"/>
    <linearGradient id="linear-gradient-7" x1="0.35" y1="0.091" x2="1.008" y2="1.239" xlink:href="#linear-gradient"/>
    <linearGradient id="linear-gradient-8" x1="0.291" y1="0.127" x2="1.112" y2="1.539" xlink:href="#linear-gradient"/>
    <linearGradient id="linear-gradient-9" x1="0.29" y1="0.146" x2="1.047" y2="1.297" xlink:href="#linear-gradient"/>
    <linearGradient id="linear-gradient-10" x1="0.295" y1="0.161" x2="1.021" y2="1.176" xlink:href="#linear-gradient"/>
    <linearGradient id="linear-gradient-11" x1="0.347" y1="0.736" x2="0.887" y2="-0.096" xlink:href="#linear-gradient"/>
    <linearGradient id="linear-gradient-12" x1="0.5" y1="0" x2="0.5" y2="1" xlink:href="#linear-gradient"/>
    <linearGradient id="linear-gradient-19" x1="-1.285" y1="0.494" x2="0.743" y2="0.501" xlink:href="#linear-gradient"/>
    <linearGradient id="linear-gradient-20" x1="0.443" y1="0.5" x2="2.117" y2="0.497" xlink:href="#linear-gradient"/>
    <linearGradient id="linear-gradient-22" x1="0.112" y1="1.088" x2="1.044" y2="-0.324" xlink:href="#linear-gradient"/>
    <linearGradient id="linear-gradient-23" x1="0.841" y1="-0.124" x2="0.271" y2="0.909" gradientUnits="objectBoundingBox">
      <stop offset="0" stop-color="#fff"/>
      <stop offset="1" stop-color="#231f20"/>
    </linearGradient>
    <linearGradient id="linear-gradient-24" x1="-0.155" y1="0.495" x2="0.605" y2="0.5" xlink:href="#linear-gradient"/>
    <linearGradient id="linear-gradient-27" x1="0.284" y1="0.739" x2="1.532" y2="-0.6" gradientUnits="objectBoundingBox">
      <stop offset="0" stop-color="#fff"/>
      <stop offset="1" stop-color="#e1d3e5"/>
    </linearGradient>
  </defs>
  <g id="Grupo_4521" data-name="Grupo 4521" transform="translate(-456.404 -423.273)">
    <path id="Trazado_1035" data-name="Trazado 1035" d="M774.327,541.987c8.146-74.2-63.787-99.974-114.782-80.976-51.409,19.152-63.327-12.6-135.615-3.525C450.734,466.671,487.9,581.57,487.9,581.57s11.647,99.912,25.445,145.966c13.723,45.8,145.086,29.233,177.042,27.866,31.772-1.359,59.38,1.264,87.023-49.029C805,656.171,766.207,615.938,774.327,541.987Z" transform="translate(-18.473 9.693)" fill="#f4f7fa"/>
    <g id="Grupo_33036" data-name="Grupo 33036" transform="translate(128.297 341.159)">
      <g id="Grupo_32834" data-name="Grupo 32834" transform="translate(387.663 125.897)">
        <g id="Grupo_32828" data-name="Grupo 32828">
          <path id="Trazado_81100" data-name="Trazado 81100" d="M484.173,244.107l-.553-.6a2.29,2.29,0,0,1-.789,3.447L418.84,284.085a2.634,2.634,0,0,1-2.665-.018l-10.972-6.53a2.632,2.632,0,0,1-.479-4.154l-1.428.9c-.933,1.518-.5,5.065.106,6.423l12.773,7.527a2.636,2.636,0,0,0,2.665.018l63.923-36.84C484.506,250.405,485.557,246.258,484.173,244.107Z" transform="translate(-379.856 -109.018)" fill="#e8e8e8"/>
          <g id="Grupo_32827" data-name="Grupo 32827">
            <path id="Trazado_81101" data-name="Trazado 81101" d="M491.7,124.664a3.174,3.174,0,0,1,.9.044A3.172,3.172,0,0,0,491.7,124.664Z" transform="translate(-370.554 -121.448)" fill="none"/>
            <path id="Trazado_81102" data-name="Trazado 81102" d="M411.176,270.214l-7.251,4.186a1.828,1.828,0,0,0-.021,3.152l12.639,7.522a1.829,1.829,0,0,0,1.848.012l65.253-37.673a1.827,1.827,0,0,0,.021-3.152l-13.136-7.818-.423-.253-3.7,2.138L419.349,265.5Z" transform="translate(-379.829 -109.783)" fill="url(#linear-gradient)"/>
            <path id="Trazado_81103" data-name="Trazado 81103" d="M387.453,276.542l-.009-2.976-.01-3.8-.011-3.98-.194-68.208a11.819,11.819,0,0,1,5.338-9.25l108.512-62.652a5.1,5.1,0,0,1,2.091-.714,3.172,3.172,0,0,1,.9.044h.006a2.643,2.643,0,0,1,.817.3l-5.215-3.2a3.771,3.771,0,0,0-3.8.367l-108.51,62.653a11.8,11.8,0,0,0-5.34,9.249l.192,68.209.014,3.979.009,3.8.009,2.974a3.737,3.737,0,0,0,1.569,3.426c2.578,1.5,2.633,1.7,5.2,3.2A3.735,3.735,0,0,1,387.453,276.542Z" transform="translate(-382.024 -121.751)" fill="url(#linear-gradient-2)"/>
            <path id="Trazado_81104" data-name="Trazado 81104" d="M494.867,196.879l.006,0-.006,0v.007Z" transform="translate(-370.222 -113.895)" fill="#082c44"/>
            <path id="Trazado_81105" data-name="Trazado 81105" d="M463.407,223.324l.011-.007,0,0-.007,0Z" transform="translate(-373.513 -111.13)" fill="#082c44"/>
            <path id="Trazado_81106" data-name="Trazado 81106" d="M469.285,240.434l.364,6.516-52.361,30.234,0,0,52.367-30.236-.366-6.516-.009-.005v.005Z" transform="translate(-378.336 -109.34)" fill="#082c44"/>
            <path id="Trazado_81107" data-name="Trazado 81107" d="M411.117,254l-.512,10.841-.189,4-.138,2.915,7.738,4.5.325-6.911.247-5.217.7-14.846Z" transform="translate(-379.069 -108.414)" fill="url(#linear-gradient-3)"/>
            <path id="Trazado_81108" data-name="Trazado 81108" d="M417.284,273.707l0,0,0,0Z" transform="translate(-378.336 -105.86)" fill="#134169"/>
            <path id="Trazado_81109" data-name="Trazado 81109" d="M469.286,242.224h0v-.005l-.247-4.429-.807-14.467v-.005L418.558,252l-.7,14.846-.247,5.217-.325,6.911,0,0L469.65,248.74Z" transform="translate(-378.336 -111.129)" fill="url(#linear-gradient-4)"/>
            <path id="Trazado_81110" data-name="Trazado 81110" d="M506.176,204.432v-.007l-.013-3.793-.011-3.977-.191-68.21c-.006-2.114-.95-3.449-2.378-3.737h-.006a3.174,3.174,0,0,0-.9-.044,5.1,5.1,0,0,0-2.091.714L392.074,188.03a11.819,11.819,0,0,0-5.338,9.25l.194,68.208.011,3.98.01,3.8.009,2.976a3.735,3.735,0,0,0,1.567,3.422l.009,0,0,0a3.774,3.774,0,0,0,3.8-.361l21.244-12.265,8.174-4.72h0l49.671-28.679h0l.008,0,29.415-16.983a11.8,11.8,0,0,0,5.335-9.245Z" transform="translate(-381.531 -121.448)" fill="url(#linear-gradient-5)"/>
            <path id="Trazado_81111" data-name="Trazado 81111" d="M492.52,124.7h0Z" transform="translate(-370.469 -121.443)" fill="#134169"/>
            <path id="Trazado_81112" data-name="Trazado 81112" d="M468.109,223.317,418.438,252h0l49.671-28.678Z" transform="translate(-378.216 -111.129)" fill="#134169"/>
            <path id="Trazado_81113" data-name="Trazado 81113" d="M501.254,132.876c-.005-2.036-1.451-2.862-3.224-1.836L393.843,191.189a7.088,7.088,0,0,0-3.2,5.552l.181,68.091a3.845,3.845,0,0,0,5.767,3.319L499.525,208.72a3.846,3.846,0,0,0,1.923-3.34Z" transform="translate(-381.123 -120.826)" fill="url(#linear-gradient-6)"/>
          </g>
        </g>
        <g id="Grupo_32833" data-name="Grupo 32833" transform="translate(34.443 44.381)">
          <g id="Grupo_32829" data-name="Grupo 32829" transform="translate(28.625 53.782)">
            <path id="Trazado_81114" data-name="Trazado 81114" d="M443.387,211.208c2.367-1.366,4.287-.264,4.295,2.448a9.4,9.4,0,0,1-4.266,7.4c-2.368,1.367-4.287.265-4.295-2.455A9.4,9.4,0,0,1,443.387,211.208Z" transform="translate(-439.121 -210.621)" fill="#e8e8e8" stroke="#21587b" stroke-miterlimit="10" stroke-width="1.06"/>
          </g>
          <g id="Grupo_32830" data-name="Grupo 32830" transform="translate(20.188 36.812)">
            <path id="Trazado_81115" data-name="Trazado 81115" d="M444.19,197.73c4.616-2.665,9.219-3.32,12.55-1.255-1.528,2.648-3.064,5.291-4.629,8-2.2-1.12-4.847-.9-7.945.886a22.866,22.866,0,0,0-7.955,8.363c-.209-.094-.381-.166-.546-.251q-2.083-1.15-4.182-2.281A35.874,35.874,0,0,1,444.19,197.73Z" transform="translate(-431.483 -195.257)" fill="#e8e8e8" stroke="#21587b" stroke-miterlimit="10" stroke-width="1.06"/>
          </g>
          <g id="Grupo_32831" data-name="Grupo 32831" transform="translate(10.27 18.638)">
            <path id="Trazado_81116" data-name="Trazado 81116" d="M445.029,183.229c8.155-4.709,16.4-5.955,22.668-2.3-1.559,2.691-3.072,5.312-4.629,8.019-5.026-2.633-11-2.146-17.987,1.886s-12.967,10.434-17.932,18.818c-1.569-.9-3.107-1.778-4.645-2.655C428.442,196.483,436.689,188.044,445.029,183.229Z" transform="translate(-422.504 -178.804)" fill="#e8e8e8" stroke="#21587b" stroke-miterlimit="10" stroke-width="1.06"/>
          </g>
          <g id="Grupo_32832" data-name="Grupo 32832">
            <path id="Trazado_81117" data-name="Trazado 81117" d="M446.21,168.224c12.441-7.183,23.306-8.088,32.669-3.375-1.625,2.832-3.146,5.484-4.667,8.126-7.609-4.435-17.849-3.018-28.143,2.925-10.175,5.874-20.4,16.172-28.2,29.615-1.524-.895-3.048-1.8-4.661-2.742,7.822-13.3,17.232-24.034,28.253-31.554Q443.87,169.574,446.21,168.224Z" transform="translate(-413.206 -161.931)" fill="#e8e8e8" stroke="#21587b" stroke-miterlimit="10" stroke-width="1.06"/>
          </g>
        </g>
      </g>
      <g id="Grupo_32842" data-name="Grupo 32842" transform="translate(512.636 82.115)">
        <g id="Grupo_32836" data-name="Grupo 32836" transform="translate(54.949 111.003)" style="isolation: isolate">
          <path id="Trazado_81118" data-name="Trazado 81118" d="M573.02,183.82c-2.456-1.417-4.68-1.55-6.287-.616l-16.177,9.4c1.607-.933,3.832-.8,6.287.616,4.878,2.817,8.822,9.64,8.806,15.252-.008,2.785-.991,4.744-2.577,5.665l16.177-9.4c1.586-.921,2.569-2.881,2.577-5.665C581.842,193.459,577.9,186.636,573.02,183.82Z" transform="translate(-544.321 -182.608)" fill="url(#linear-gradient-7)"/>
          <g id="Grupo_32835" data-name="Grupo 32835" transform="translate(0 6.373)">
            <ellipse id="Elipse_3403" data-name="Elipse 3403" cx="7.213" cy="12.453" rx="7.213" ry="12.453" transform="translate(0 7.249) rotate(-30.163)" fill="#37a3a5"/>
          </g>
        </g>
        <g id="Grupo_32838" data-name="Grupo 32838" transform="translate(41.377 76.075)" style="isolation: isolate">
          <path id="Trazado_81119" data-name="Trazado 81119" d="M575.04,156.118c-9.409-5.432-18.864-6.856-25.854-2.795l-16.177,9.4c6.99-4.062,16.445-2.638,25.854,2.793,9.52,5.5,18.992,15.1,25.82,27.271l16.177-9.4C594.033,171.212,584.561,161.614,575.04,156.118Z" transform="translate(-532.584 -150.987)" fill="url(#linear-gradient-8)"/>
          <g id="Grupo_32837" data-name="Grupo 32837" transform="translate(0 9.401)">
            <path id="Trazado_81120" data-name="Trazado 81120" d="M558.9,164.628c9.52,5.5,18.992,15.1,25.82,27.27-3.178,1.8-6.357,3.591-9.619,5.426-4.509-7.512-9.938-13.359-16.32-17.045-6.435-3.683-11.865-4.134-16.478-1.746-.424-.687-.772-1.24-1.106-1.8l-8.577-14.638C539.652,157.716,549.3,159.085,558.9,164.628Z" transform="translate(-532.624 -159.498)" fill="#37a3a5"/>
          </g>
        </g>
        <g id="Grupo_32841" data-name="Grupo 32841" style="isolation: isolate">
          <g id="Grupo_32839" data-name="Grupo 32839" transform="translate(21.054 47.871)">
            <path id="Trazado_81121" data-name="Trazado 81121" d="M560.818,134.595c16.819,9.709,33.78,26.75,46.622,49.175l-9.612,5.478c-10.3-17.356-22.6-30.562-37-38.889s-26.772-9.377-37.076-3.946c-3.213-5.574-6.371-11.044-9.522-16.509C526.554,122.4,543.611,124.662,560.818,134.595Z" transform="translate(-514.226 -125.453)" fill="#37a3a5"/>
          </g>
          <path id="Trazado_81122" data-name="Trazado 81122" d="M576.947,126.084c-16.973-9.8-33.8-12.132-46.089-4.991l-16.177,9.4c12.287-7.141,29.116-4.807,46.089,4.991,16.819,9.709,33.78,26.75,46.622,49.175l16.177-9.4C610.729,152.833,593.767,135.793,576.947,126.084Z" transform="translate(-493.124 -78.472)" fill="url(#linear-gradient-9)"/>
          <path id="Trazado_81123" data-name="Trazado 81123" d="M579.594,95.733q-4.82-2.782-9.8-5.133c-22.742-10.729-42.222-11.044-58.456-2.305l-16.177,9.4c16.234-8.739,35.713-8.424,58.456,2.305q4.976,2.348,9.8,5.133c25.674,14.822,48.018,38.794,67.217,70.758l16.177-9.4C627.612,134.528,605.268,110.556,579.594,95.733Z" transform="translate(-495.165 -82.115)" fill="url(#linear-gradient-10)"/>
          <g id="Grupo_32840" data-name="Grupo 32840" transform="translate(0 9.401)">
            <path id="Trazado_81124" data-name="Trazado 81124" d="M563.417,104.244c25.674,14.822,48.018,38.794,67.217,70.758-3.375,1.955-6.533,3.787-9.7,5.613-15.589-27.211-36.658-48.646-57.891-60.907-20.99-12.119-42.141-15.273-58.331-6.187-3.124-5.464-6.239-10.927-9.55-16.717,16.234-8.739,35.713-8.424,58.456,2.305Q558.6,101.459,563.417,104.244Z" transform="translate(-495.165 -90.625)" fill="#37a3a5"/>
          </g>
        </g>
      </g>
      <g id="Grupo_32938" data-name="Grupo 32938" transform="translate(328.107 319.123)">
        <g id="Grupo_32926" data-name="Grupo 32926">
          <g id="Grupo_32925" data-name="Grupo 32925">
            <g id="Grupo_32924" data-name="Grupo 32924">
              <path id="Trazado_81165" data-name="Trazado 81165" d="M330.957,329.572,424.238,383.4a15.341,15.341,0,0,0,13.872-.047l45.065-26.2c1.922-1.117,2.881-2.588,2.872-4.054.014,2.539.029,1.27.043,3.808.009,1.466-.949,2.937-2.87,4.054l-45.066,26.2a15.333,15.333,0,0,1-13.87.049L331,333.383c-1.891-1.091-2.84-2.534-2.849-3.978-.015-2.541-.029-1.27-.044-3.809C328.117,327.042,329.066,328.481,330.957,329.572Z" transform="translate(-328.107 -293.659)" fill="#e8e8e8"/>
              <g id="Grupo_32923" data-name="Grupo 32923">
                <path id="Trazado_81166" data-name="Trazado 81166" d="M376.05,298.361a15.334,15.334,0,0,1,13.866-.042l93.28,53.829c3.811,2.2,3.8,5.813-.021,8.034l-45.065,26.2a15.341,15.341,0,0,1-13.872.047L330.957,332.6c-3.811-2.2-3.8-5.812.028-8.034Z" transform="translate(-328.107 -296.683)" fill="url(#linear-gradient-11)"/>
              </g>
            </g>
          </g>
          <path id="Trazado_81167" data-name="Trazado 81167" d="M475.957,352.642l-89.1-51.406a6.142,6.142,0,0,0-5.547.018l-11.195,6.509,2.62,1.572a1.531,1.531,0,0,1-.015,2.636l-14.426,8.417a7.257,7.257,0,0,1-7.394-.045l-1.191-.714-13.785,8.016c-1.529.888-1.529,2.334-.008,3.21l89.1,51.407a6.139,6.139,0,0,0,5.547-.015l45.387-26.39C477.478,354.968,477.481,353.52,475.957,352.642Z" transform="translate(-327.41 -296.275)" fill="#f3f9ff"/>
        </g>
        <g id="Grupo_32937" data-name="Grupo 32937" transform="translate(39.925 4.779)">
          <g id="Grupo_32931" data-name="Grupo 32931" style="isolation: isolate">
            <path id="Trazado_81168" data-name="Trazado 81168" d="M384.137,312.511q.754-.436,1.545-.852c.15-.078.309-.154.462-.231.38-.2.76-.391,1.152-.579.213-.1.435-.2.651-.3.342-.158.68-.318,1.029-.469.241-.1.489-.2.733-.3.333-.138.662-.281,1-.414l.011,0,.055-.021c.513-.2,1.036-.394,1.564-.584.158-.056.317-.112.477-.167q.638-.222,1.29-.433c.144-.046.285-.094.43-.139.529-.166,1.063-.328,1.6-.483l.083-.022q1.062-.3,2.156-.571c.17-.042.345-.078.516-.119.563-.134,1.13-.264,1.7-.384l.23-.052c.236-.049.478-.089.716-.136.384-.075.768-.151,1.156-.22.329-.06.662-.113.994-.167.39-.064.779-.127,1.172-.186.116-.017.23-.038.346-.054.245-.034.495-.062.742-.094.344-.045.688-.091,1.035-.131.373-.043.75-.082,1.127-.119.35-.035.7-.072,1.052-.1.112-.009.221-.022.331-.032.277-.022.558-.036.836-.056.342-.024.684-.05,1.028-.07.4-.023.8-.04,1.2-.056.345-.014.688-.031,1.035-.04.088,0,.176-.009.264-.011q.885-.022,1.778-.024l.052,18.144c-.685,0-1.365.014-2.043.034-.347.01-.69.026-1.035.041-.4.017-.8.032-1.2.055-.345.02-.686.045-1.028.07-.39.029-.78.055-1.166.089-.352.031-.7.066-1.053.1-.377.039-.752.076-1.126.12-.348.04-.691.085-1.036.13-.363.049-.727.1-1.088.149-.393.057-.782.12-1.171.184-.332.054-.666.108-1,.167-.389.07-.772.145-1.155.22-.316.062-.633.123-.946.188-.574.121-1.142.252-1.705.385-.17.041-.346.077-.515.119q-1.094.268-2.156.571-.855.242-1.688.5c-.144.045-.286.093-.43.139q-.651.21-1.29.432l-.477.168c-.528.189-1.052.383-1.565.584l-.053.02c-.353.139-.695.286-1.041.43-.234.1-.474.191-.7.292-.355.154-.7.317-1.045.476-.211.1-.427.191-.635.29-.392.187-.772.383-1.153.578-.152.078-.31.152-.461.231q-.79.416-1.546.853a32.731,32.731,0,0,0-8.749,7.087,20.72,20.72,0,0,0-2.723,4.1q-.152.3-.289.61a16.383,16.383,0,0,0-.891,2.492,15.206,15.206,0,0,0-.38,1.915,14.488,14.488,0,0,0-.123,1.948h0l-.052-18.143C370.948,323.688,375.978,317.222,384.137,312.511Z" transform="translate(-363.548 -300.603)" fill="url(#linear-gradient-12)"/>
            <path id="Trazado_81169" data-name="Trazado 81169" d="M371.684,328.23l.052,18.143-7.433-.017-.051-18.144C366.839,328.219,369.26,328.225,371.684,328.23Z" transform="translate(-364.252 -298.164)" fill="url(#linear-gradient-12)"/>
            <g id="Grupo_32928" data-name="Grupo 32928">
              <g id="Grupo_32927" data-name="Grupo 32927">
                <path id="Trazado_81170" data-name="Trazado 81170" d="M379.516,309.968c-9.865,5.7-14.79,12.792-15.264,21.089,2.587.007,5.008.013,7.432.018-.032-6.981,5-13.447,13.157-18.158,8.065-4.656,19.186-7.6,31.5-7.623-.01-1.4-.021-2.8-.034-4.285-12.224.1-23.322,2.306-32.855,6.887Q381.369,308.9,379.516,309.968Z" transform="translate(-364.252 -301.009)" fill="#37a3a5"/>
              </g>
            </g>
            <path id="Trazado_81171" data-name="Trazado 81171" d="M395.531,318.631q.515-.3,1.043-.574c.112-.059.226-.114.339-.171.243-.124.484-.247.73-.366.144-.07.292-.134.436-.2.22-.1.437-.2.659-.3.16-.07.324-.134.485-.2.2-.081.391-.166.59-.244l.04-.014c.475-.187.959-.361,1.447-.528.13-.044.263-.087.394-.13q.578-.191,1.171-.363c.086-.025.168-.054.254-.078.054-.015.11-.029.166-.044.293-.082.59-.159.887-.235.149-.038.3-.078.447-.115q.623-.151,1.259-.284l.1-.021.008,0q.658-.136,1.33-.253c.139-.023.282-.044.422-.066.31-.052.621-.1.934-.148l.065-.01c.16-.022.324-.04.485-.061.276-.036.551-.074.831-.1.2-.023.4-.041.6-.062.268-.027.536-.054.807-.077.046,0,.092-.01.138-.013.144-.012.292-.019.436-.03.3-.022.605-.044.912-.062.2-.011.411-.02.617-.03.3-.013.593-.025.893-.034.094,0,.187-.009.282-.011.27-.007.539-.012.811-.014.011-1.433.017-2.837.024-4.242l.052,18.143c-.009,1.405-.013,2.81-.024,4.242-.367,0-.73.014-1.094.025q-.447.013-.893.035c-.205.009-.412.018-.617.03-.306.017-.61.039-.912.061-.191.014-.384.028-.574.043-.271.023-.538.051-.806.078-.2.02-.4.039-.6.061-.279.032-.556.069-.832.1-.183.024-.368.045-.549.072-.315.045-.626.1-.937.147-.139.023-.282.043-.421.067q-.671.116-1.33.253l-.1.021q-.639.134-1.267.286c-.15.036-.3.076-.447.115-.3.075-.594.152-.888.234-.14.04-.279.082-.419.123q-.592.174-1.172.365c-.131.043-.263.085-.394.13-.488.167-.971.341-1.446.527-.213.084-.422.172-.632.261-.161.066-.324.13-.483.2-.223.1-.442.2-.662.3-.145.066-.292.13-.434.2-.243.116-.48.239-.719.36-.116.06-.235.116-.351.177q-.527.278-1.042.576c-5.532,3.2-8.242,7.107-8.425,11.6l-.052-18.143C387.289,325.738,390,321.827,395.531,318.631Z" transform="translate(-361.862 -300.117)" fill="url(#linear-gradient-12)"/>
            <path id="Trazado_81172" data-name="Trazado 81172" d="M387.8,328.27l.052,18.143c-2.472,0-4.875,0-7.339,0l-.052-18.143C382.926,328.27,385.329,328.268,387.8,328.27Z" transform="translate(-362.557 -298.158)" fill="url(#linear-gradient-12)"/>
            <g id="Grupo_32930" data-name="Grupo 32930" transform="translate(17.905 9.421)">
              <g id="Grupo_32929" data-name="Grupo 32929">
                <path id="Trazado_81173" data-name="Trazado 81173" d="M391.019,315.582c-6.463,3.731-10.584,8.9-10.557,14.647,2.464,0,4.867,0,7.339,0,.183-4.491,2.894-8.4,8.425-11.6s12.3-4.763,20.015-4.849c.011-1.433.017-2.837.024-4.242C406.694,309.449,397.631,311.766,391.019,315.582Z" transform="translate(-380.462 -309.538)" fill="#37a3a5"/>
              </g>
            </g>
          </g>
          <g id="Grupo_32934" data-name="Grupo 32934" transform="translate(35.74 18.573)" style="isolation: isolate">
            <path id="Trazado_81174" data-name="Trazado 81174" d="M406.994,324.226q.459-.262.94-.492c.107-.051.22-.094.328-.142.208-.093.412-.188.625-.272l.036-.013.123-.045c.267-.1.54-.2.817-.284.087-.029.176-.056.264-.083s.157-.051.237-.074c.1-.028.2-.047.3-.074.242-.064.486-.125.733-.179.081-.018.157-.042.237-.059s.187-.03.278-.047q.323-.063.655-.114c.1-.017.2-.038.3-.052.083-.012.171-.018.254-.029.228-.03.457-.054.689-.076.115-.012.226-.029.342-.039.071-.006.145-.007.215-.011.278-.021.561-.034.845-.045.124,0,.243-.017.369-.02l.309-.006c.014-.178.031-.324.035-.471.033-1.257.062-2.517.1-3.774l.051,18.144c-.033,1.257-.062,2.517-.1,3.773,0,.148-.02.293-.034.472-.23,0-.453.017-.678.025-.285.011-.568.024-.845.044-.189.014-.373.032-.559.05-.231.023-.462.047-.688.076-.187.024-.371.052-.553.081q-.331.051-.656.114c-.173.033-.345.068-.515.106-.249.055-.493.116-.735.18-.18.048-.361.094-.539.148l-.264.082q-.416.133-.817.285c-.041.015-.082.029-.121.044-.225.088-.443.188-.662.285-.108.049-.221.092-.328.144q-.482.229-.941.492c-2.452,1.415-3.642,3.144-3.751,5.093l-.051-18.143C403.352,327.371,404.541,325.642,406.994,324.226Z" transform="translate(-395.914 -317.823)" fill="url(#linear-gradient-12)"/>
            <path id="Trazado_81175" data-name="Trazado 81175" d="M396.611,328.259l7.326-.011.051,18.143c-2.482.005-4.9.009-7.325.011v-.014c0-.054,0-.108,0-.161l-.052-18.144C396.608,328.141,396.609,328.2,396.611,328.259Z" transform="translate(-396.608 -316.751)" fill="url(#linear-gradient-12)"/>
            <g id="Grupo_32933" data-name="Grupo 32933" transform="translate(0)">
              <g id="Grupo_32932" data-name="Grupo 32932">
                <path id="Trazado_81176" data-name="Trazado 81176" d="M402.445,321.213c-3.657,2.112-5.932,5.011-5.833,8.119l7.326-.011c.109-1.95,1.3-3.678,3.751-5.094a18.145,18.145,0,0,1,8.9-2.155c.014-.178.031-.324.035-.471.033-1.257.062-2.517.1-3.774A28.44,28.44,0,0,0,402.445,321.213Z" transform="translate(-396.608 -317.824)" fill="#37a3a5"/>
              </g>
            </g>
          </g>
          <g id="Grupo_32936" data-name="Grupo 32936" transform="translate(50.52 27.125)" style="isolation: isolate">
            <path id="Trazado_81177" data-name="Trazado 81177" d="M410,328.23c0,.051.009.1.018.151s.02.082.031.121.024.1.041.144.032.078.049.117.044.1.071.149.042.071.064.106c.034.056.071.112.112.167.024.033.051.065.078.1a2.819,2.819,0,0,0,.2.218c.026.025.051.052.079.077.045.042.1.082.147.122s.086.072.134.106.114.077.172.115.117.08.181.116a4.674,4.674,0,0,0,.452.229c.045.021.091.04.136.059.123.051.249.1.377.142.046.015.092.033.138.048.081.025.163.047.245.07.063.018.125.035.189.051.087.021.176.039.264.056.061.012.12.026.181.038.179.031.361.056.545.075.055.007.113.01.169.014.107.009.215.017.324.022l.208.006c.087,0,.174,0,.262,0s.146,0,.22-.007.161-.007.241-.012l.222-.019q.119-.012.239-.027l.214-.031c.085-.013.169-.028.253-.044q.1-.018.2-.04c.1-.022.2-.046.3-.073l.163-.044c.176-.051.348-.108.514-.173.023-.009.045-.019.067-.029a5.033,5.033,0,0,0,.649-.312,2.394,2.394,0,0,0,1.413-1.973l.052,18.143a2.4,2.4,0,0,1-1.413,1.974,5.18,5.18,0,0,1-.65.311c-.014.006-.028.013-.042.02l-.025.009q-.25.1-.514.173c-.014,0-.028.01-.042.013-.04.012-.082.02-.123.031-.1.025-.2.051-.3.072-.026.007-.052.014-.08.02s-.08.013-.118.021c-.084.015-.169.031-.254.044-.034,0-.067.012-.1.018s-.075.008-.113.012q-.118.015-.239.027c-.038,0-.076.01-.114.013l-.106.006c-.082.006-.162.01-.243.013-.041,0-.082.005-.123.007h-.1c-.087,0-.173,0-.261,0-.044,0-.088,0-.131,0l-.077-.006c-.107,0-.215-.012-.323-.022-.043,0-.087,0-.13-.008l-.04-.006c-.183-.02-.365-.044-.543-.076l-.027,0c-.053-.01-.1-.023-.157-.033-.087-.018-.176-.035-.262-.056-.064-.015-.126-.034-.19-.051-.082-.023-.165-.045-.245-.071l-.052-.014c-.03-.01-.056-.022-.085-.032-.128-.044-.254-.092-.377-.144-.045-.019-.092-.038-.136-.057a4.93,4.93,0,0,1-.452-.229l-.059-.034c-.044-.028-.082-.056-.125-.083s-.117-.075-.171-.115-.089-.071-.134-.106-.1-.08-.147-.12c-.009-.009-.02-.017-.029-.024s-.032-.036-.05-.054a2.648,2.648,0,0,1-.2-.218c-.013-.017-.031-.031-.044-.047s-.021-.033-.033-.05c-.041-.054-.077-.11-.113-.167-.014-.023-.033-.046-.046-.07s-.011-.024-.018-.036c-.027-.05-.047-.1-.07-.149-.012-.029-.03-.057-.041-.086a.318.318,0,0,0-.009-.031c-.017-.046-.028-.1-.041-.142-.008-.032-.021-.064-.028-.1l0-.026c-.009-.05-.012-.1-.017-.151,0-.032-.01-.064-.011-.1v-.042l-.051-18.144C409.989,328.137,410,328.183,410,328.23Z" transform="translate(-409.988 -325.305)" fill="url(#linear-gradient-12)"/>
            <g id="Grupo_32935" data-name="Grupo 32935">
              <path id="Trazado_81178" data-name="Trazado 81178" d="M411.4,326.378c-1.874,1.083-1.884,2.838-.022,3.919a7.452,7.452,0,0,0,6.767,0c1.875-1.081,1.887-2.835.022-3.919A7.456,7.456,0,0,0,411.4,326.378Z" transform="translate(-409.988 -325.566)" fill="#37a3a5"/>
            </g>
          </g>
        </g>
      </g>
      <g id="Grupo_33035" data-name="Grupo 33035" transform="translate(431.699 91.516)">
        <g id="Grupo_33032" data-name="Grupo 33032" transform="translate(37.751 88.6)">
          <g id="Grupo_33019" data-name="Grupo 33019" transform="translate(104.358 137.071)">
            <path id="Trazado_81219" data-name="Trazado 81219" d="M623.46,294.929l-.08,28.25-72.835,42.327.08-28.25Z" transform="translate(-550.545 -294.929)" fill="url(#linear-gradient-19)"/>
          </g>
          <path id="Trazado_81220" data-name="Trazado 81220" d="M560.505,338.953l-.08,28.25L456.068,306.952l.08-28.249Z" transform="translate(-456.068 -159.556)" fill="url(#linear-gradient-20)"/>
          <g id="Grupo_33020" data-name="Grupo 33020" transform="translate(5.535 129.961)">
            <path id="Trazado_81221" data-name="Trazado 81221" d="M554.445,342.234l-.063,14.882a.856.856,0,0,1-1.284.738l-91.591-52.881a.856.856,0,0,1-.429-.744l.063-14.883a.856.856,0,0,1,1.285-.737l91.591,52.88A.853.853,0,0,1,554.445,342.234Z" transform="translate(-461.079 -288.493)" fill="#21587b"/>
            <path id="Trazado_81222" data-name="Trazado 81222" d="M463.133,302.554l.042-9.665a.855.855,0,0,1,1.284-.738l87.074,50.272a.856.856,0,0,1,.429.744l-.041,9.666a.857.857,0,0,1-1.285.738L463.562,303.3A.858.858,0,0,1,463.133,302.554Z" transform="translate(-460.864 -288.122)" fill="url(#linear-gradient-2)"/>
          </g>
          <g id="Grupo_33021" data-name="Grupo 33021" transform="translate(0.08 76.819)">
            <path id="Trazado_81223" data-name="Trazado 81223" d="M633.333,300.634,560.5,342.961,456.14,282.71l72.835-42.327Z" transform="translate(-456.14 -240.383)" fill="url(#linear-gradient-22)"/>
          </g>
          <path id="Trazado_81224" data-name="Trazado 81224" d="M528.641,310.313a6.334,6.334,0,0,1,5.727,0c1.582.914,1.582,2.394,0,3.307a6.334,6.334,0,0,1-5.727,0C527.061,312.706,527.061,311.226,528.641,310.313Z" transform="translate(-448.602 -156.322)" fill="#37a3a5"/>
          <path id="Trazado_81225" data-name="Trazado 81225" d="M537.324,315.292a6.334,6.334,0,0,1,5.727,0c1.581.913,1.581,2.394,0,3.307a6.334,6.334,0,0,1-5.727,0C535.743,317.685,535.743,316.205,537.324,315.292Z" transform="translate(-447.694 -155.801)" fill="#37a3a5"/>
          <path id="Trazado_81226" data-name="Trazado 81226" d="M547.346,320.991a6.332,6.332,0,0,1,5.726,0c1.582.913,1.582,2.394,0,3.307a6.332,6.332,0,0,1-5.726,0C545.765,323.384,545.765,321.9,547.346,320.991Z" transform="translate(-446.645 -155.205)" fill="#37a3a5"/>
          <path id="Trazado_81227" data-name="Trazado 81227" d="M509.937,299.6a6.334,6.334,0,0,1,5.727,0c1.582.913,1.582,2.394,0,3.307a6.334,6.334,0,0,1-5.727,0C508.357,302,508.357,300.516,509.937,299.6Z" transform="translate(-450.558 -157.442)" fill="#ebf4fb"/>
          <path id="Trazado_81228" data-name="Trazado 81228" d="M518.62,304.582a6.332,6.332,0,0,1,5.726,0c1.582.913,1.582,2.394,0,3.307a6.332,6.332,0,0,1-5.726,0C517.039,306.975,517.039,305.5,518.62,304.582Z" transform="translate(-449.65 -156.921)" fill="#ebf4fb"/>
          <g id="Grupo_33024" data-name="Grupo 33024" transform="translate(141.1 41.456)">
            <path id="Trazado_81229" data-name="Trazado 81229" d="M594.047,297.091l13.477-8.14-8.142-4.7L585.4,292.227Z" transform="translate(-583.642 -200.432)" opacity="0.7" fill="url(#linear-gradient-23)" style="mix-blend-mode: multiply;isolation: isolate"/>
            <g id="Grupo_33023" data-name="Grupo 33023">
              <path id="Trazado_81230" data-name="Trazado 81230" d="M594.51,210.44a1.978,1.978,0,0,1-1.049,1.593,5.242,5.242,0,0,1-2.114.707,7.1,7.1,0,0,1-1.67.007l-.033-.006a5.055,5.055,0,0,1-2.313-.821,1.921,1.921,0,0,1-.9-1.458l-2.622,91.1a2.344,2.344,0,0,0,.111.658c.016.053.033.106.053.159a3.117,3.117,0,0,0,.707,1.095c.049.05.112.1.165.145s.1.094.16.141a5.346,5.346,0,0,0,.764.542,7.082,7.082,0,0,0,.949.451c.1.039.2.073.3.108.256.091.518.171.788.241.1.025.2.054.306.077a10.564,10.564,0,0,0,1.119.192l.071,0c.359.039.722.056,1.086.061.115,0,.228,0,.342,0,.292-.005.581-.021.87-.049.106-.01.212-.017.317-.03a10.021,10.021,0,0,0,1.117-.191c.294-.069.572-.162.852-.255.109-.036.226-.061.332-.1a7.345,7.345,0,0,0,1.076-.5,3.371,3.371,0,0,0,1.986-2.777S594.51,210.451,594.51,210.44Z" transform="translate(-583.808 -208.151)" fill="url(#linear-gradient-24)"/>
              <g id="Grupo_33022" data-name="Grupo 33022" transform="translate(2.573)">
                <path id="Trazado_81231" data-name="Trazado 81231" d="M587.346,209.064c-1.6.926-1.614,2.43-.017,3.359a6.393,6.393,0,0,0,5.8,0c1.606-.928,1.615-2.431.019-3.359A6.391,6.391,0,0,0,587.346,209.064Z" transform="translate(-586.137 -208.368)" fill="#21587b"/>
              </g>
            </g>
          </g>
          <g id="Grupo_33027" data-name="Grupo 33027" transform="translate(68.456)">
            <path id="Trazado_81232" data-name="Trazado 81232" d="M528.661,259.35l13.477-8.14-8.142-4.7-13.988,7.977Z" transform="translate(-517.836 -162.923)" opacity="0.7" fill="url(#linear-gradient-23)" style="mix-blend-mode: multiply;isolation: isolate"/>
            <g id="Grupo_33026" data-name="Grupo 33026">
              <path id="Trazado_81233" data-name="Trazado 81233" d="M528.744,172.909a1.98,1.98,0,0,1-1.049,1.593,5.224,5.224,0,0,1-2.115.706,7.032,7.032,0,0,1-1.669.008l-.033-.006a5.081,5.081,0,0,1-2.313-.821,1.918,1.918,0,0,1-.9-1.459l-2.622,91.1a2.357,2.357,0,0,0,.11.658c.015.053.033.1.053.158a3.111,3.111,0,0,0,.707,1.1c.049.05.112.1.164.144s.106.1.161.141a5.4,5.4,0,0,0,.763.543,7.448,7.448,0,0,0,.95.451c.1.039.2.073.3.108.255.091.517.171.788.24.1.027.2.055.306.078a10.589,10.589,0,0,0,1.118.191c.024,0,.049,0,.072.006.359.039.722.056,1.086.061.115,0,.228,0,.342,0,.292-.006.581-.022.87-.049.106-.01.211-.017.317-.03a10.544,10.544,0,0,0,1.117-.191c.294-.068.572-.162.852-.256.109-.036.227-.061.332-.1a7.383,7.383,0,0,0,1.075-.5A3.371,3.371,0,0,0,531.509,264S528.744,172.919,528.744,172.909Z" transform="translate(-518.042 -170.62)" fill="url(#linear-gradient-24)"/>
              <g id="Grupo_33025" data-name="Grupo 33025" transform="translate(2.573)">
                <path id="Trazado_81234" data-name="Trazado 81234" d="M521.581,171.532c-1.606.927-1.614,2.431-.017,3.359a6.386,6.386,0,0,0,5.8,0c1.606-.927,1.614-2.431.019-3.358A6.394,6.394,0,0,0,521.581,171.532Z" transform="translate(-520.371 -170.837)" fill="#21587b"/>
              </g>
            </g>
          </g>
          <g id="Grupo_33031" data-name="Grupo 33031" transform="translate(107.473 148.093)">
            <g id="Grupo_33028" data-name="Grupo 33028">
              <path id="Trazado_81235" data-name="Trazado 81235" d="M553.949,343.6a.585.585,0,0,1-.288-1.092l66.084-37.522a.584.584,0,1,1,.578,1.016l-66.084,37.522A.574.574,0,0,1,553.949,343.6Z" transform="translate(-553.365 -304.908)" fill="#21587b"/>
            </g>
            <g id="Grupo_33029" data-name="Grupo 33029" transform="translate(0 4.485)">
              <path id="Trazado_81236" data-name="Trazado 81236" d="M553.949,347.66a.584.584,0,0,1-.288-1.092l66.084-37.522a.584.584,0,1,1,.578,1.015l-66.084,37.523A.574.574,0,0,1,553.949,347.66Z" transform="translate(-553.365 -308.968)" fill="#21587b"/>
            </g>
            <g id="Grupo_33030" data-name="Grupo 33030" transform="translate(0 8.97)">
              <path id="Trazado_81237" data-name="Trazado 81237" d="M553.949,351.721a.584.584,0,0,1-.288-1.092l66.084-37.522a.584.584,0,1,1,.578,1.016l-66.084,37.522A.574.574,0,0,1,553.949,351.721Z" transform="translate(-553.365 -313.029)" fill="#21587b"/>
            </g>
          </g>
        </g>
        <g id="Grupo_33033" data-name="Grupo 33033" transform="translate(0 131.537)">
          <path id="Trazado_81238" data-name="Trazado 81238" d="M425.335,363.932a.72.72,0,0,1-.707-.6c-.136-.8-13.341-80.142,19.487-124.277,12.244-16.462,29.416-26.142,51.038-28.774,18.2-2.217,34.062,1.967,47.155,12.425,30.361,24.252,35.833,74.766,35.885,75.274a.717.717,0,1,1-1.427.146c-.052-.5-5.47-50.43-35.358-74.3-12.78-10.207-28.286-14.281-46.08-12.119-21.219,2.583-38.061,12.073-50.061,28.207C412.8,283.563,425.907,362.3,426.044,363.091a.719.719,0,0,1-.585.831A.779.779,0,0,1,425.335,363.932Z" transform="translate(-421.891 -209.708)" fill="#21587b"/>
        </g>
        <g id="Grupo_33034" data-name="Grupo 33034" transform="translate(13.188)">
          <path id="Trazado_81239" data-name="Trazado 81239" d="M554.829,210.668c-2.945-32.913-8.817-59.547-17.457-79.161-10.857-24.65-26.143-38.255-45.433-40.44-16.246-1.841-29.369,2.085-39.037,11.667-15.621,15.48-18.754,42.567-19.073,59.25.383-.141.773-.268,1.164-.392.353-16.523,3.5-42.951,18.729-58.035,9.406-9.318,22.216-13.129,38.085-11.336,18.85,2.136,33.82,15.509,44.5,39.75,8.589,19.5,14.431,46,17.364,78.788,5,55.879-.272,111.328-.327,111.88a.583.583,0,0,0,.522.635l.057,0a.582.582,0,0,0,.578-.525C554.554,322.2,559.837,266.652,554.829,210.668Z" transform="translate(-433.83 -90.625)" fill="#21587b"/>
        </g>
      </g>
      <path id="Trazado_81240" data-name="Trazado 81240" d="M352.116,317.867a1.577,1.577,0,0,0,1.44-.079l13.912-8.105-.583-.391a1.29,1.29,0,0,0-1.372-.041l-14.152,8.28Z" transform="translate(2.432 23.736)" fill="url(#linear-gradient-27)"/>
    </g>
  </g>
</svg>
